<?xml version="1.0" encoding="UTF-8"?>
<svg width="98px" height="13px" viewBox="0 0 98 13" version="1.1" xmlns="http://www.w3.org/2000/svg" xmlns:xlink="http://www.w3.org/1999/xlink">
    <title>oval-3</title>
    <g id="Page-1" stroke="none" stroke-width="1" fill="none" fill-rule="evenodd">
        <g id="Service-Introduction" transform="translate(-1294.000000, -4322.000000)" fill="#FFFFFF" fill-rule="nonzero">
            <g id="Group-10" transform="translate(0.000000, 4200.000000)">
                <path d="M1296.312,134 L1296.312,129.792 L1298.184,129.792 C1298.728,129.792 1299.23733,129.704 1299.712,129.528 C1300.18667,129.352 1300.6,129.104 1300.952,128.784 C1301.304,128.464 1301.58133,128.082667 1301.784,127.64 C1301.98667,127.197333 1302.088,126.704 1302.088,126.16 C1302.088,125.626667 1301.98667,125.138667 1301.784,124.696 C1301.58133,124.253333 1301.304,123.872 1300.952,123.552 C1300.6,123.232 1300.18667,122.984 1299.712,122.808 C1299.23733,122.632 1298.728,122.544 1298.184,122.544 L1298.184,122.544 L1294.152,122.544 L1294.152,134 L1296.312,134 Z M1298.216,127.744 L1296.312,127.744 L1296.312,124.592 L1298.216,124.592 C1298.504,124.592 1298.75467,124.634667 1298.968,124.72 C1299.18133,124.805333 1299.36,124.92 1299.504,125.064 C1299.648,125.208 1299.75467,125.376 1299.824,125.568 C1299.89333,125.76 1299.928,125.957333 1299.928,126.16 C1299.928,126.576 1299.784,126.944 1299.496,127.264 C1299.208,127.584 1298.78133,127.744 1298.216,127.744 L1298.216,127.744 Z M1306.264,134 L1306.264,122.544 L1304.168,122.544 L1304.168,134 L1306.264,134 Z M1312.584,134.24 C1313.448,134.24 1314.21067,133.989333 1314.872,133.488 L1314.872,133.488 L1314.872,134 L1316.92,134 L1316.92,126.16 L1314.872,126.16 L1314.872,126.672 C1314.59467,126.426667 1314.25333,126.237333 1313.848,126.104 C1313.44267,125.970667 1313.02133,125.904 1312.584,125.904 C1311.83733,125.904 1311.144,126.090667 1310.504,126.464 C1309.864,126.837333 1309.35467,127.344 1308.976,127.984 C1308.59733,128.624 1308.408,129.322667 1308.408,130.08 C1308.408,130.837333 1308.59733,131.533333 1308.976,132.168 C1309.35467,132.802667 1309.864,133.306667 1310.504,133.68 C1311.144,134.053333 1311.83733,134.24 1312.584,134.24 Z M1312.584,132.432 C1312.15733,132.432 1311.76267,132.325333 1311.4,132.112 C1311.03733,131.898667 1310.74933,131.610667 1310.536,131.248 C1310.32267,130.885333 1310.216,130.490667 1310.216,130.064 C1310.216,129.637333 1310.32267,129.242667 1310.536,128.88 C1310.74933,128.517333 1311.03733,128.229333 1311.4,128.016 C1311.76267,127.802667 1312.15733,127.696 1312.584,127.696 C1313.01067,127.696 1313.40533,127.802667 1313.768,128.016 C1314.13067,128.229333 1314.41867,128.517333 1314.632,128.88 C1314.84533,129.242667 1314.952,129.637333 1314.952,130.064 C1314.952,130.490667 1314.84533,130.885333 1314.632,131.248 C1314.41867,131.610667 1314.13067,131.898667 1313.768,132.112 C1313.40533,132.325333 1313.01067,132.432 1312.584,132.432 Z M1321.512,134 L1321.512,130.16 C1321.512,129.84 1321.552,129.538667 1321.632,129.256 C1321.712,128.973333 1321.82933,128.728 1321.984,128.52 C1322.13867,128.312 1322.32533,128.146667 1322.544,128.024 C1322.76267,127.901333 1323.016,127.84 1323.304,127.84 C1323.784,127.84 1324.14933,127.976 1324.4,128.248 C1324.65067,128.52 1324.776,128.938667 1324.776,129.504 L1324.776,129.504 L1324.776,134 L1326.872,134 L1326.872,129.248 C1326.872,128.746667 1326.81067,128.290667 1326.688,127.88 C1326.56533,127.469333 1326.384,127.117333 1326.144,126.824 C1325.904,126.530667 1325.59733,126.304 1325.224,126.144 C1324.85067,125.984 1324.41867,125.904 1323.928,125.904 C1323.39467,125.904 1322.92,126.018667 1322.504,126.248 C1322.088,126.477333 1321.75733,126.789333 1321.512,127.184 L1321.512,127.184 L1321.384,127.184 L1321.384,126.16 L1319.416,126.16 L1319.416,134 L1321.512,134 Z M1337.624,134 L1339.192,129.056 L1339.304,129.056 L1340.872,134 L1343.128,134 L1345.64,126.16 L1343.32,126.16 L1342.04,131.072 L1341.928,131.072 L1340.36,126.16 L1338.2,126.16 L1336.648,131.072 L1336.536,131.072 L1335.24,126.16 L1332.888,126.16 L1335.4,134 L1337.624,134 Z M1349.624,124.64 L1349.624,122.544 L1347.528,122.544 L1347.528,124.64 L1349.624,124.64 Z M1349.624,134 L1349.624,126.16 L1347.528,126.16 L1347.528,134 L1349.624,134 Z M1355.816,134.128 C1356.15733,134.128 1356.46933,134.098667 1356.752,134.04 C1357.03467,133.981333 1357.29867,133.893333 1357.544,133.776 L1357.544,133.776 L1356.952,131.936 C1356.856,132 1356.75467,132.050667 1356.648,132.088 C1356.54133,132.125333 1356.39733,132.144 1356.216,132.144 C1355.93867,132.144 1355.72533,132.058667 1355.576,131.888 C1355.46933,131.781333 1355.39733,131.650667 1355.36,131.496 C1355.32267,131.341333 1355.304,131.173333 1355.304,130.992 L1355.304,130.992 L1355.304,127.952 L1357.224,127.952 L1357.224,126.16 L1355.304,126.16 L1355.304,123.76 L1353.208,123.76 L1353.208,126.16 L1351.832,126.16 L1351.832,127.952 L1353.208,127.952 L1353.208,131.392 C1353.208,132.277333 1353.45867,132.96 1353.96,133.44 C1354.17333,133.653333 1354.43733,133.821333 1354.752,133.944 C1355.06667,134.066667 1355.42133,134.128 1355.816,134.128 Z M1361.64,134 L1361.64,129.552 C1361.64,129.296 1361.72533,129.058667 1361.896,128.84 C1362.06667,128.621333 1362.28533,128.445333 1362.552,128.312 C1362.81867,128.178667 1363.08533,128.106667 1363.352,128.096 C1363.75733,128.106667 1364.13067,128.256 1364.472,128.544 C1364.81333,128.832 1364.984,129.168 1364.984,129.552 L1364.984,134 L1367.048,134 L1367.048,129.552 C1367.048,128.912 1366.888,128.32 1366.568,127.776 C1366.248,127.232 1365.81867,126.8 1365.28,126.48 C1364.74133,126.16 1364.152,126 1363.512,126 C1362.85067,126 1362.22667,126.170667 1361.64,126.512 L1361.64,122.544 L1359.56,122.544 L1359.56,134 L1361.64,134 Z M1378.312,134.256 C1378.99467,134.256 1379.61067,134.138667 1380.16,133.904 C1380.70933,133.669333 1381.17867,133.341333 1381.568,132.92 C1381.95733,132.498667 1382.256,131.992 1382.464,131.4 C1382.672,130.808 1382.776,130.154667 1382.776,129.44 L1382.776,129.44 L1382.776,122.544 L1380.616,122.544 L1380.616,129.568 C1380.616,129.952 1380.568,130.304 1380.472,130.624 C1380.376,130.944 1380.232,131.221333 1380.04,131.456 C1379.848,131.690667 1379.608,131.874667 1379.32,132.008 C1379.032,132.141333 1378.696,132.208 1378.312,132.208 C1377.93867,132.208 1377.608,132.141333 1377.32,132.008 C1377.032,131.874667 1376.792,131.690667 1376.6,131.456 C1376.408,131.221333 1376.264,130.944 1376.168,130.624 C1376.072,130.304 1376.024,129.952 1376.024,129.568 L1376.024,129.568 L1376.024,122.544 L1373.864,122.544 L1373.864,129.44 C1373.864,130.197333 1373.97067,130.872 1374.184,131.464 C1374.39733,132.056 1374.696,132.56 1375.08,132.976 C1375.464,133.392 1375.93067,133.709333 1376.48,133.928 C1377.02933,134.146667 1377.64,134.256 1378.312,134.256 Z M1388.472,134.256 C1388.97333,134.256 1389.42933,134.186667 1389.84,134.048 C1390.25067,133.909333 1390.60267,133.72 1390.896,133.48 C1391.18933,133.24 1391.416,132.965333 1391.576,132.656 C1391.736,132.346667 1391.816,132.021333 1391.816,131.68 C1391.816,131.104 1391.62133,130.605333 1391.232,130.184 C1390.84267,129.762667 1390.248,129.456 1389.448,129.264 L1389.448,129.264 L1388.248,128.976 C1387.928,128.890667 1387.67467,128.794667 1387.488,128.688 C1387.30133,128.581333 1387.208,128.437333 1387.208,128.256 C1387.208,128.064 1387.32,127.906667 1387.544,127.784 C1387.768,127.661333 1388.02933,127.6 1388.328,127.6 C1388.616,127.6 1388.904,127.669333 1389.192,127.808 C1389.48,127.946667 1389.69867,128.170667 1389.848,128.48 L1389.848,128.48 L1391.656,127.744 C1391.37867,127.104 1390.94667,126.637333 1390.36,126.344 C1389.77333,126.050667 1389.10667,125.904 1388.36,125.904 C1387.912,125.904 1387.49333,125.96 1387.104,126.072 C1386.71467,126.184 1386.376,126.344 1386.088,126.552 C1385.8,126.76 1385.57333,127.013333 1385.408,127.312 C1385.24267,127.610667 1385.16,127.952 1385.16,128.336 C1385.16,128.677333 1385.22933,128.976 1385.368,129.232 C1385.50667,129.488 1385.68267,129.706667 1385.896,129.888 C1386.10933,130.069333 1386.34667,130.218667 1386.608,130.336 C1386.86933,130.453333 1387.12267,130.538667 1387.368,130.592 L1387.368,130.592 L1388.472,130.832 C1388.93067,130.938667 1389.25333,131.058667 1389.44,131.192 C1389.62667,131.325333 1389.72,131.498667 1389.72,131.712 C1389.72,131.904 1389.608,132.069333 1389.384,132.208 C1389.16,132.346667 1388.856,132.416 1388.472,132.416 C1388.09867,132.416 1387.76,132.317333 1387.456,132.12 C1387.152,131.922667 1386.90933,131.621333 1386.728,131.216 L1386.728,131.216 L1384.856,132.016 C1384.96267,132.293333 1385.11733,132.568 1385.32,132.84 C1385.52267,133.112 1385.77067,133.352 1386.064,133.56 C1386.35733,133.768 1386.704,133.936 1387.104,134.064 C1387.504,134.192 1387.96,134.256 1388.472,134.256 Z" id="oval-3"></path>
            </g>
        </g>
    </g>
</svg>