<?xml version="1.0" encoding="UTF-8"?>
<svg width="93px" height="38px" viewBox="0 0 93 38" version="1.1" xmlns="http://www.w3.org/2000/svg" xmlns:xlink="http://www.w3.org/1999/xlink">
    <title>PowerfulSearchEngine</title>
    <g id="Page-1" stroke="none" stroke-width="1" fill="none" fill-rule="evenodd">
        <g id="Service-Introduction" transform="translate(-398.000000, -5771.000000)" fill="#FFFFFF" fill-rule="nonzero">
            <g id="section-5-1" transform="translate(0.000000, 4855.852268)">
                <path d="M400.898,925.28358 L400.898,921.60158 L402.536,921.60158 C403.012,921.60158 403.457667,921.52458 403.873,921.37058 C404.288333,921.21658 404.65,920.99958 404.958,920.71958 C405.266,920.43958 405.508667,920.105914 405.686,919.71858 C405.863333,919.331247 405.952,918.89958 405.952,918.42358 C405.952,917.956914 405.863333,917.529914 405.686,917.14258 C405.508667,916.755247 405.266,916.42158 404.958,916.14158 C404.65,915.86158 404.288333,915.64458 403.873,915.49058 C403.457667,915.33658 403.012,915.25958 402.536,915.25958 L402.536,915.25958 L399.008,915.25958 L399.008,925.28358 L400.898,925.28358 Z M402.564,919.80958 L400.898,919.80958 L400.898,917.05158 L402.564,917.05158 C402.816,917.05158 403.035333,917.088914 403.222,917.16358 C403.408667,917.238247 403.565,917.33858 403.691,917.46458 C403.817,917.59058 403.910333,917.73758 403.971,917.90558 C404.031667,918.07358 404.062,918.246247 404.062,918.42358 C404.062,918.78758 403.936,919.10958 403.684,919.38958 C403.432,919.66958 403.058667,919.80958 402.564,919.80958 L402.564,919.80958 Z M410.32,925.50758 C410.973333,925.50758 411.58,925.344247 412.14,925.01758 C412.7,924.690914 413.145667,924.249914 413.477,923.69458 C413.808333,923.139247 413.974,922.530247 413.974,921.86758 C413.974,921.204914 413.808333,920.591247 413.477,920.02658 C413.145667,919.461914 412.7,919.016247 412.14,918.68958 C411.58,918.362914 410.973333,918.19958 410.32,918.19958 C409.657333,918.19958 409.046,918.362914 408.486,918.68958 C407.926,919.016247 407.482667,919.461914 407.156,920.02658 C406.829333,920.591247 406.666,921.204914 406.666,921.86758 C406.666,922.530247 406.829333,923.139247 407.156,923.69458 C407.482667,924.249914 407.926,924.690914 408.486,925.01758 C409.046,925.344247 409.657333,925.50758 410.32,925.50758 Z M410.32,923.85558 C409.956,923.85558 409.62,923.766914 409.312,923.58958 C409.004,923.412247 408.761333,923.16958 408.584,922.86158 C408.406667,922.55358 408.318,922.222247 408.318,921.86758 C408.318,921.50358 408.406667,921.16758 408.584,920.85958 C408.761333,920.55158 409.004,920.308914 409.312,920.13158 C409.62,919.954247 409.956,919.86558 410.32,919.86558 C410.684,919.86558 411.017667,919.954247 411.321,920.13158 C411.624333,920.308914 411.864667,920.55158 412.042,920.85958 C412.219333,921.16758 412.308,921.50358 412.308,921.86758 C412.308,922.222247 412.219333,922.55358 412.042,922.86158 C411.864667,923.16958 411.624333,923.412247 411.321,923.58958 C411.017667,923.766914 410.684,923.85558 410.32,923.85558 Z M418.552,925.28358 L419.924,920.95758 L420.022,920.95758 L421.394,925.28358 L423.368,925.28358 L425.566,918.42358 L423.536,918.42358 L422.416,922.72158 L422.318,922.72158 L420.946,918.42358 L419.056,918.42358 L417.698,922.72158 L417.6,922.72158 L416.466,918.42358 L414.408,918.42358 L416.606,925.28358 L418.552,925.28358 Z M429.654,925.50758 C430.428667,925.50758 431.084333,925.334914 431.621,924.98958 C432.157667,924.644247 432.584667,924.19158 432.902,923.63158 L432.902,923.63158 L431.376,922.87558 C431.217333,923.164914 431.000333,923.405247 430.725,923.59658 C430.449667,923.787914 430.102,923.88358 429.682,923.88358 C429.467333,923.88358 429.257333,923.853247 429.052,923.79258 C428.846667,923.731914 428.657667,923.633914 428.485,923.49858 C428.312333,923.363247 428.167667,923.195247 428.051,922.99458 C427.934333,922.793914 427.857333,922.55358 427.82,922.27358 L427.82,922.27358 L432.986,922.27358 C432.986,922.21758 432.990667,922.166247 433,922.11958 C433,922.072914 433.004667,922.02158 433.014,921.96558 L433.014,921.96558 L433.014,921.79758 C433.014,921.284247 432.939333,920.808247 432.79,920.36958 C432.640667,919.930914 432.421333,919.55058 432.132,919.22858 C431.842667,918.90658 431.483333,918.65458 431.054,918.47258 C430.624667,918.29058 430.134667,918.19958 429.584,918.19958 C429.061333,918.19958 428.583,918.29758 428.149,918.49358 C427.715,918.68958 427.339333,918.953247 427.022,919.28458 C426.704667,919.615914 426.457333,920.003247 426.28,920.44658 C426.102667,920.889914 426.014,921.358914 426.014,921.85358 C426.014,922.38558 426.105,922.873247 426.287,923.31658 C426.469,923.759914 426.723333,924.144914 427.05,924.47158 C427.376667,924.798247 427.761667,925.05258 428.205,925.23458 C428.648333,925.41658 429.131333,925.50758 429.654,925.50758 Z M431.236,920.97158 L427.918,920.97158 C428.039333,920.570247 428.249333,920.25758 428.548,920.03358 C428.846667,919.80958 429.192,919.69758 429.584,919.69758 C429.864,919.69758 430.104333,919.73958 430.305,919.82358 C430.505667,919.90758 430.673667,920.014914 430.809,920.14558 C430.944333,920.276247 431.047,920.416247 431.117,920.56558 C431.187,920.714914 431.226667,920.850247 431.236,920.97158 L431.236,920.97158 Z M436.192,925.28358 L436.192,922.56758 C436.192,922.072914 436.29,921.60158 436.486,921.15358 C436.644667,920.808247 436.861667,920.518914 437.137,920.28558 C437.412333,920.052247 437.76,919.93558 438.18,919.93558 C438.338667,919.93558 438.525333,919.958914 438.74,920.00558 L438.74,920.00558 L438.74,918.39558 C438.609333,918.358247 438.511333,918.334914 438.446,918.32558 C438.315333,918.306914 438.217333,918.29758 438.152,918.29758 C437.713333,918.29758 437.321333,918.404914 436.976,918.61958 C436.630667,918.834247 436.369333,919.128247 436.192,919.50158 L436.192,919.50158 L436.192,918.43758 L434.386,918.43758 L434.386,925.28358 L436.192,925.28358 Z M442.506,925.28358 L442.506,919.99158 L444.214,919.99158 L444.214,918.42358 L442.506,918.42358 L442.506,917.86358 C442.506,917.55558 442.585333,917.315247 442.744,917.14258 C442.902667,916.969914 443.117333,916.88358 443.388,916.88358 C443.546667,916.88358 443.679667,916.89758 443.787,916.92558 C443.894333,916.95358 443.994667,916.990914 444.088,917.03758 L444.088,917.03758 L444.606,915.39958 C444.428667,915.324914 444.228,915.264247 444.004,915.21758 C443.78,915.170914 443.537333,915.14758 443.276,915.14758 C442.893333,915.14758 442.543333,915.205914 442.226,915.32258 C441.908667,915.439247 441.633333,915.607247 441.4,915.82658 C441.166667,916.045914 440.987,916.31658 440.861,916.63858 C440.735,916.96058 440.672,917.33158 440.672,917.75158 L440.672,917.75158 L440.672,918.42358 L439.44,918.42358 L439.44,919.99158 L440.672,919.99158 L440.672,925.28358 L442.506,925.28358 Z M447.868,925.50758 C448.073333,925.50758 448.241333,925.502914 448.372,925.49358 C448.82,925.456247 449.200333,925.344247 449.513,925.15758 C449.825667,924.970914 450.056667,924.802914 450.206,924.65358 L450.206,924.65358 L450.206,925.28358 L451.914,925.28358 L451.914,918.42358 L450.094,918.42358 L450.094,921.79758 C450.094,922.058914 450.056667,922.324914 449.982,922.59558 C449.907333,922.84758 449.804667,923.05758 449.674,923.22558 C449.543333,923.42158 449.38,923.566247 449.184,923.65958 C449.006667,923.77158 448.787333,923.82758 448.526,923.82758 C448.106,923.82758 447.788667,923.706247 447.574,923.46358 C447.35,923.220914 447.238,922.856914 447.238,922.37158 L447.238,922.37158 L447.238,918.42358 L445.418,918.42358 L445.418,922.59558 C445.418,923.482247 445.628,924.19158 446.048,924.72358 C446.477333,925.246247 447.084,925.50758 447.868,925.50758 Z M455.316,925.28358 L455.316,915.25958 L453.482,915.25958 L453.482,925.28358 L455.316,925.28358 Z M402.074,949.50758 C402.466,949.50758 402.867333,949.446914 403.278,949.32558 C403.688667,949.204247 404.057333,949.022247 404.384,948.77958 C404.710667,948.536914 404.979,948.22658 405.189,947.84858 C405.399,947.47058 405.504,947.020247 405.504,946.49758 C405.504,946.07758 405.441,945.70658 405.315,945.38458 C405.189,945.06258 405.007,944.77558 404.769,944.52358 C404.531,944.27158 404.246333,944.05458 403.915,943.87258 C403.583667,943.69058 403.217333,943.52958 402.816,943.38958 L402.816,943.38958 L402.186,943.17958 C401.616667,942.98358 401.201333,942.78058 400.94,942.57058 C400.678667,942.36058 400.548,942.106247 400.548,941.80758 C400.548,941.49958 400.683333,941.249914 400.954,941.05858 C401.224667,940.867247 401.565333,940.77158 401.976,940.77158 C402.405333,940.77158 402.743667,940.88358 402.991,941.10758 C403.238333,941.33158 403.408667,941.58358 403.502,941.86358 L403.502,941.86358 L405.168,941.16358 C405.093333,940.93958 404.976667,940.70158 404.818,940.44958 C404.659333,940.19758 404.451667,939.96658 404.195,939.75658 C403.938333,939.54658 403.625667,939.373914 403.257,939.23858 C402.888333,939.103247 402.452,939.03558 401.948,939.03558 C401.462667,939.03558 401.021667,939.107914 400.625,939.25258 C400.228333,939.397247 399.887667,939.597914 399.603,939.85458 C399.318333,940.111247 399.099,940.409914 398.945,940.75058 C398.791,941.091247 398.714,941.45758 398.714,941.84958 C398.714,942.232247 398.786333,942.575247 398.931,942.87858 C399.075667,943.181914 399.26,943.44558 399.484,943.66958 C399.708,943.89358 399.957667,944.084914 400.233,944.24358 C400.508333,944.402247 400.781333,944.528247 401.052,944.62158 L401.052,944.62158 L401.668,944.84558 C402.032,944.976247 402.337667,945.102247 402.585,945.22358 C402.832333,945.344914 403.033,945.470914 403.187,945.60158 C403.341,945.732247 403.450667,945.872247 403.516,946.02158 C403.581333,946.170914 403.614,946.338914 403.614,946.52558 C403.614,946.72158 403.572,946.894247 403.488,947.04358 C403.404,947.192914 403.289667,947.31658 403.145,947.41458 C403.000333,947.51258 402.837,947.587247 402.655,947.63858 C402.473,947.689914 402.284,947.71558 402.088,947.71558 C401.556,947.71558 401.126667,947.549914 400.8,947.21858 C400.473333,946.887247 400.244667,946.46958 400.114,945.96558 L400.114,945.96558 L398.336,946.66558 C398.476,947.132247 398.667333,947.54058 398.91,947.89058 C399.152667,948.24058 399.437333,948.536914 399.764,948.77958 C400.090667,949.022247 400.45,949.204247 400.842,949.32558 C401.234,949.446914 401.644667,949.50758 402.074,949.50758 Z M410.082,949.50758 C410.856667,949.50758 411.512333,949.334914 412.049,948.98958 C412.585667,948.644247 413.012667,948.19158 413.33,947.63158 L413.33,947.63158 L411.804,946.87558 C411.645333,947.164914 411.428333,947.405247 411.153,947.59658 C410.877667,947.787914 410.53,947.88358 410.11,947.88358 C409.895333,947.88358 409.685333,947.853247 409.48,947.79258 C409.274667,947.731914 409.085667,947.633914 408.913,947.49858 C408.740333,947.363247 408.595667,947.195247 408.479,946.99458 C408.362333,946.793914 408.285333,946.55358 408.248,946.27358 L408.248,946.27358 L413.414,946.27358 C413.414,946.21758 413.418667,946.166247 413.428,946.11958 C413.428,946.072914 413.432667,946.02158 413.442,945.96558 L413.442,945.96558 L413.442,945.79758 C413.442,945.284247 413.367333,944.808247 413.218,944.36958 C413.068667,943.930914 412.849333,943.55058 412.56,943.22858 C412.270667,942.90658 411.911333,942.65458 411.482,942.47258 C411.052667,942.29058 410.562667,942.19958 410.012,942.19958 C409.489333,942.19958 409.011,942.29758 408.577,942.49358 C408.143,942.68958 407.767333,942.953247 407.45,943.28458 C407.132667,943.615914 406.885333,944.003247 406.708,944.44658 C406.530667,944.889914 406.442,945.358914 406.442,945.85358 C406.442,946.38558 406.533,946.873247 406.715,947.31658 C406.897,947.759914 407.151333,948.144914 407.478,948.47158 C407.804667,948.798247 408.189667,949.05258 408.633,949.23458 C409.076333,949.41658 409.559333,949.50758 410.082,949.50758 Z M411.664,944.97158 L408.346,944.97158 C408.467333,944.570247 408.677333,944.25758 408.976,944.03358 C409.274667,943.80958 409.62,943.69758 410.012,943.69758 C410.292,943.69758 410.532333,943.73958 410.733,943.82358 C410.933667,943.90758 411.101667,944.014914 411.237,944.14558 C411.372333,944.276247 411.475,944.416247 411.545,944.56558 C411.615,944.714914 411.654667,944.850247 411.664,944.97158 L411.664,944.97158 Z M417.88,949.49358 C418.636,949.49358 419.303333,949.274247 419.882,948.83558 L419.882,948.83558 L419.882,949.28358 L421.674,949.28358 L421.674,942.42358 L419.882,942.42358 L419.882,942.87158 C419.639333,942.656914 419.340667,942.491247 418.986,942.37458 C418.631333,942.257914 418.262667,942.19958 417.88,942.19958 C417.226667,942.19958 416.62,942.362914 416.06,942.68958 C415.5,943.016247 415.054333,943.45958 414.723,944.01958 C414.391667,944.57958 414.226,945.190914 414.226,945.85358 C414.226,946.516247 414.391667,947.125247 414.723,947.68058 C415.054333,948.235914 415.5,948.676914 416.06,949.00358 C416.62,949.330247 417.226667,949.49358 417.88,949.49358 Z M417.88,947.91158 C417.506667,947.91158 417.161333,947.818247 416.844,947.63158 C416.526667,947.444914 416.274667,947.192914 416.088,946.87558 C415.901333,946.558247 415.808,946.212914 415.808,945.83958 C415.808,945.466247 415.901333,945.120914 416.088,944.80358 C416.274667,944.486247 416.526667,944.234247 416.844,944.04758 C417.161333,943.860914 417.506667,943.76758 417.88,943.76758 C418.253333,943.76758 418.598667,943.860914 418.916,944.04758 C419.233333,944.234247 419.485333,944.486247 419.672,944.80358 C419.858667,945.120914 419.952,945.466247 419.952,945.83958 C419.952,946.212914 419.858667,946.558247 419.672,946.87558 C419.485333,947.192914 419.233333,947.444914 418.916,947.63158 C418.598667,947.818247 418.253333,947.91158 417.88,947.91158 Z M425.16,949.28358 L425.16,946.56758 C425.16,946.072914 425.258,945.60158 425.454,945.15358 C425.612667,944.808247 425.829667,944.518914 426.105,944.28558 C426.380333,944.052247 426.728,943.93558 427.148,943.93558 C427.306667,943.93558 427.493333,943.958914 427.708,944.00558 L427.708,944.00558 L427.708,942.39558 C427.577333,942.358247 427.479333,942.334914 427.414,942.32558 C427.283333,942.306914 427.185333,942.29758 427.12,942.29758 C426.681333,942.29758 426.289333,942.404914 425.944,942.61958 C425.598667,942.834247 425.337333,943.128247 425.16,943.50158 L425.16,943.50158 L425.16,942.43758 L423.354,942.43758 L423.354,949.28358 L425.16,949.28358 Z M432.104,949.50758 C432.906667,949.50758 433.576333,949.323247 434.113,948.95458 C434.649667,948.585914 435.067333,948.112247 435.366,947.53358 L435.366,947.53358 L433.686,946.80558 C433.527333,947.132247 433.315,947.381914 433.049,947.55458 C432.783,947.727247 432.458667,947.81358 432.076,947.81358 C431.833333,947.81358 431.604667,947.766914 431.39,947.67358 C431.175333,947.580247 430.986333,947.44958 430.823,947.28158 C430.659667,947.11358 430.531333,946.908247 430.438,946.66558 C430.344667,946.422914 430.298,946.152247 430.298,945.85358 C430.298,945.554914 430.344667,945.284247 430.438,945.04158 C430.531333,944.798914 430.659667,944.59358 430.823,944.42558 C430.986333,944.25758 431.175333,944.126914 431.39,944.03358 C431.604667,943.940247 431.833333,943.89358 432.076,943.89358 C432.449333,943.89358 432.759667,943.975247 433.007,944.13858 C433.254333,944.301914 433.457333,944.542247 433.616,944.85958 L433.616,944.85958 L435.296,944.15958 C435.044,943.580914 434.647333,943.10958 434.106,942.74558 C433.564667,942.38158 432.897333,942.19958 432.104,942.19958 C431.572,942.19958 431.084333,942.29058 430.641,942.47258 C430.197667,942.65458 429.815,942.90658 429.493,943.22858 C429.171,943.55058 428.919,943.93558 428.737,944.38358 C428.555,944.83158 428.464,945.32158 428.464,945.85358 C428.464,946.38558 428.555,946.873247 428.737,947.31658 C428.919,947.759914 429.171,948.144914 429.493,948.47158 C429.815,948.798247 430.197667,949.05258 430.641,949.23458 C431.084333,949.41658 431.572,949.50758 432.104,949.50758 Z M438.306,949.28358 L438.306,945.39158 C438.306,945.16758 438.380667,944.959914 438.53,944.76858 C438.679333,944.577247 438.870667,944.423247 439.104,944.30658 C439.337333,944.189914 439.570667,944.126914 439.804,944.11758 C440.158667,944.126914 440.485333,944.25758 440.784,944.50958 C441.082667,944.76158 441.232,945.05558 441.232,945.39158 L441.232,949.28358 L443.038,949.28358 L443.038,945.39158 C443.038,944.83158 442.898,944.31358 442.618,943.83758 C442.338,943.36158 441.962333,942.98358 441.491,942.70358 C441.019667,942.42358 440.504,942.28358 439.944,942.28358 C439.365333,942.28358 438.819333,942.432914 438.306,942.73158 L438.306,939.25958 L436.486,939.25958 L436.486,949.28358 L438.306,949.28358 Z M454.182,949.28358 L454.182,947.49158 L449.716,947.49158 L449.716,945.16758 L453.734,945.16758 L453.734,943.37558 L449.716,943.37558 L449.716,941.05158 L454.182,941.05158 L454.182,939.25958 L447.826,939.25958 L447.826,949.28358 L454.182,949.28358 Z M457.528,949.28358 L457.528,945.92358 C457.528,945.64358 457.563,945.379914 457.633,945.13258 C457.703,944.885247 457.805667,944.67058 457.941,944.48858 C458.076333,944.30658 458.239667,944.161914 458.431,944.05458 C458.622333,943.947247 458.844,943.89358 459.096,943.89358 C459.516,943.89358 459.835667,944.01258 460.055,944.25058 C460.274333,944.48858 460.384,944.854914 460.384,945.34958 L460.384,945.34958 L460.384,949.28358 L462.218,949.28358 L462.218,945.12558 C462.218,944.686914 462.164333,944.287914 462.057,943.92858 C461.949667,943.569247 461.791,943.261247 461.581,943.00458 C461.371,942.747914 461.102667,942.54958 460.776,942.40958 C460.449333,942.26958 460.071333,942.19958 459.642,942.19958 C459.175333,942.19958 458.76,942.299914 458.396,942.50058 C458.032,942.701247 457.742667,942.974247 457.528,943.31958 L457.528,943.31958 L457.416,943.31958 L457.416,942.42358 L455.694,942.42358 L455.694,949.28358 L457.528,949.28358 Z M467.118,952.55958 C467.65,952.55958 468.14,952.47558 468.588,952.30758 C469.036,952.120914 469.414,951.87358 469.722,951.56558 C470.039333,951.238914 470.286667,950.846914 470.464,950.38958 C470.641333,949.904247 470.73,949.386247 470.73,948.83558 L470.73,948.83558 L470.73,942.42358 L468.98,942.42358 L468.98,942.77358 C468.392,942.390914 467.743333,942.19958 467.034,942.19958 C466.39,942.19958 465.795,942.36058 465.249,942.68258 C464.703,943.00458 464.269,943.43858 463.947,943.98458 C463.625,944.53058 463.464,945.12558 463.464,945.76958 C463.464,946.41358 463.625,947.00858 463.947,947.55458 C464.269,948.10058 464.703,948.53458 465.249,948.85658 C465.795,949.17858 466.39,949.33958 467.034,949.33958 C467.743333,949.33958 468.392,949.148247 468.98,948.76558 C468.98,949.10158 468.938,949.40958 468.854,949.68958 C468.77,949.96958 468.644,950.198247 468.476,950.37558 C468.14,950.758247 467.687333,950.94958 467.118,950.94958 C466.763333,950.94958 466.432,950.846914 466.124,950.64158 C465.974667,950.548247 465.848667,950.426914 465.746,950.27758 C465.699333,950.230914 465.662,950.17958 465.634,950.12358 L465.634,950.12358 L463.898,950.86558 C463.991333,951.014914 464.075333,951.13158 464.15,951.21558 C464.318,951.448914 464.546667,951.672914 464.836,951.88758 C465.125333,952.092914 465.456667,952.256247 465.83,952.37758 C466.184667,952.498914 466.614,952.55958 467.118,952.55958 Z M467.034,947.81358 C466.688667,947.81358 466.357333,947.717914 466.04,947.52658 C465.722667,947.335247 465.468333,947.080914 465.277,946.76358 C465.085667,946.446247 464.99,946.114914 464.99,945.76958 C464.99,945.424247 465.083333,945.092914 465.27,944.77558 C465.456667,944.458247 465.708667,944.203914 466.026,944.01258 C466.343333,943.821247 466.679333,943.72558 467.034,943.72558 C467.127333,943.72558 467.206667,943.730247 467.272,943.73958 C467.337333,943.748914 467.388667,943.758247 467.426,943.76758 C467.808667,943.85158 468.151667,944.045247 468.455,944.34858 C468.758333,944.651914 468.952,944.994914 469.036,945.37758 C469.045333,945.414914 469.054667,945.466247 469.064,945.53158 C469.073333,945.596914 469.078,945.676247 469.078,945.76958 C469.078,946.114914 468.982333,946.446247 468.791,946.76358 C468.599667,947.080914 468.345333,947.335247 468.028,947.52658 C467.710667,947.717914 467.379333,947.81358 467.034,947.81358 Z M474.034,941.09358 L474.034,939.25958 L472.2,939.25958 L472.2,941.09358 L474.034,941.09358 Z M474.034,949.28358 L474.034,942.42358 L472.2,942.42358 L472.2,949.28358 L474.034,949.28358 Z M477.548,949.28358 L477.548,945.92358 C477.548,945.64358 477.583,945.379914 477.653,945.13258 C477.723,944.885247 477.825667,944.67058 477.961,944.48858 C478.096333,944.30658 478.259667,944.161914 478.451,944.05458 C478.642333,943.947247 478.864,943.89358 479.116,943.89358 C479.536,943.89358 479.855667,944.01258 480.075,944.25058 C480.294333,944.48858 480.404,944.854914 480.404,945.34958 L480.404,945.34958 L480.404,949.28358 L482.238,949.28358 L482.238,945.12558 C482.238,944.686914 482.184333,944.287914 482.077,943.92858 C481.969667,943.569247 481.811,943.261247 481.601,943.00458 C481.391,942.747914 481.122667,942.54958 480.796,942.40958 C480.469333,942.26958 480.091333,942.19958 479.662,942.19958 C479.195333,942.19958 478.78,942.299914 478.416,942.50058 C478.052,942.701247 477.762667,942.974247 477.548,943.31958 L477.548,943.31958 L477.436,943.31958 L477.436,942.42358 L475.714,942.42358 L475.714,949.28358 L477.548,949.28358 Z M486.998,949.50758 C487.772667,949.50758 488.428333,949.334914 488.965,948.98958 C489.501667,948.644247 489.928667,948.19158 490.246,947.63158 L490.246,947.63158 L488.72,946.87558 C488.561333,947.164914 488.344333,947.405247 488.069,947.59658 C487.793667,947.787914 487.446,947.88358 487.026,947.88358 C486.811333,947.88358 486.601333,947.853247 486.396,947.79258 C486.190667,947.731914 486.001667,947.633914 485.829,947.49858 C485.656333,947.363247 485.511667,947.195247 485.395,946.99458 C485.278333,946.793914 485.201333,946.55358 485.164,946.27358 L485.164,946.27358 L490.33,946.27358 C490.33,946.21758 490.334667,946.166247 490.344,946.11958 C490.344,946.072914 490.348667,946.02158 490.358,945.96558 L490.358,945.96558 L490.358,945.79758 C490.358,945.284247 490.283333,944.808247 490.134,944.36958 C489.984667,943.930914 489.765333,943.55058 489.476,943.22858 C489.186667,942.90658 488.827333,942.65458 488.398,942.47258 C487.968667,942.29058 487.478667,942.19958 486.928,942.19958 C486.405333,942.19958 485.927,942.29758 485.493,942.49358 C485.059,942.68958 484.683333,942.953247 484.366,943.28458 C484.048667,943.615914 483.801333,944.003247 483.624,944.44658 C483.446667,944.889914 483.358,945.358914 483.358,945.85358 C483.358,946.38558 483.449,946.873247 483.631,947.31658 C483.813,947.759914 484.067333,948.144914 484.394,948.47158 C484.720667,948.798247 485.105667,949.05258 485.549,949.23458 C485.992333,949.41658 486.475333,949.50758 486.998,949.50758 Z M488.58,944.97158 L485.262,944.97158 C485.383333,944.570247 485.593333,944.25758 485.892,944.03358 C486.190667,943.80958 486.536,943.69758 486.928,943.69758 C487.208,943.69758 487.448333,943.73958 487.649,943.82358 C487.849667,943.90758 488.017667,944.014914 488.153,944.14558 C488.288333,944.276247 488.391,944.416247 488.461,944.56558 C488.531,944.714914 488.570667,944.850247 488.58,944.97158 L488.58,944.97158 Z" id="PowerfulSearchEngine"></path>
            </g>
        </g>
    </g>
</svg>