<?xml version="1.0" encoding="UTF-8"?>
<svg width="82px" height="38px" viewBox="0 0 82 38" version="1.1" xmlns="http://www.w3.org/2000/svg" xmlns:xlink="http://www.w3.org/1999/xlink">
    <title>InspirationalCityGuides</title>
    <g id="Page-1" stroke="none" stroke-width="1" fill="none" fill-rule="evenodd">
        <g id="Service-Introduction" transform="translate(-1226.000000, -5771.000000)" fill="#FFFFFF" fill-rule="nonzero">
            <g id="section-5-1" transform="translate(0.000000, 4855.852268)">
                <path d="M1228.898,925.28358 L1228.898,915.25958 L1227.008,915.25958 L1227.008,925.28358 L1228.898,925.28358 Z M1232.524,925.28358 L1232.524,921.92358 C1232.524,921.64358 1232.559,921.379914 1232.629,921.13258 C1232.699,920.885247 1232.80167,920.67058 1232.937,920.48858 C1233.07233,920.30658 1233.23567,920.161914 1233.427,920.05458 C1233.61833,919.947247 1233.84,919.89358 1234.092,919.89358 C1234.512,919.89358 1234.83167,920.01258 1235.051,920.25058 C1235.27033,920.48858 1235.38,920.854914 1235.38,921.34958 L1235.38,921.34958 L1235.38,925.28358 L1237.214,925.28358 L1237.214,921.12558 C1237.214,920.686914 1237.16033,920.287914 1237.053,919.92858 C1236.94567,919.569247 1236.787,919.261247 1236.577,919.00458 C1236.367,918.747914 1236.09867,918.54958 1235.772,918.40958 C1235.44533,918.26958 1235.06733,918.19958 1234.638,918.19958 C1234.17133,918.19958 1233.756,918.299914 1233.392,918.50058 C1233.028,918.701247 1232.73867,918.974247 1232.524,919.31958 L1232.524,919.31958 L1232.412,919.31958 L1232.412,918.42358 L1230.69,918.42358 L1230.69,925.28358 L1232.524,925.28358 Z M1241.442,925.50758 C1241.88067,925.50758 1242.27967,925.446914 1242.639,925.32558 C1242.99833,925.204247 1243.30633,925.03858 1243.563,924.82858 C1243.81967,924.61858 1244.018,924.378247 1244.158,924.10758 C1244.298,923.836914 1244.368,923.552247 1244.368,923.25358 C1244.368,922.74958 1244.19767,922.313247 1243.857,921.94458 C1243.51633,921.575914 1242.996,921.30758 1242.296,921.13958 L1242.296,921.13958 L1241.246,920.88758 C1240.966,920.812914 1240.74433,920.728914 1240.581,920.63558 C1240.41767,920.542247 1240.336,920.416247 1240.336,920.25758 C1240.336,920.08958 1240.434,919.951914 1240.63,919.84458 C1240.826,919.737247 1241.05467,919.68358 1241.316,919.68358 C1241.568,919.68358 1241.82,919.744247 1242.072,919.86558 C1242.324,919.986914 1242.51533,920.182914 1242.646,920.45358 L1242.646,920.45358 L1244.228,919.80958 C1243.98533,919.24958 1243.60733,918.841247 1243.094,918.58458 C1242.58067,918.327914 1241.99733,918.19958 1241.344,918.19958 C1240.952,918.19958 1240.58567,918.24858 1240.245,918.34658 C1239.90433,918.44458 1239.608,918.58458 1239.356,918.76658 C1239.104,918.94858 1238.90567,919.170247 1238.761,919.43158 C1238.61633,919.692914 1238.544,919.99158 1238.544,920.32758 C1238.544,920.626247 1238.60467,920.88758 1238.726,921.11158 C1238.84733,921.33558 1239.00133,921.526914 1239.188,921.68558 C1239.37467,921.844247 1239.58233,921.974914 1239.811,922.07758 C1240.03967,922.180247 1240.26133,922.254914 1240.476,922.30158 L1240.476,922.30158 L1241.442,922.51158 C1241.84333,922.604914 1242.12567,922.709914 1242.289,922.82658 C1242.45233,922.943247 1242.534,923.094914 1242.534,923.28158 C1242.534,923.44958 1242.436,923.594247 1242.24,923.71558 C1242.044,923.836914 1241.778,923.89758 1241.442,923.89758 C1241.11533,923.89758 1240.819,923.811247 1240.553,923.63858 C1240.287,923.465914 1240.07467,923.202247 1239.916,922.84758 L1239.916,922.84758 L1238.278,923.54758 C1238.37133,923.790247 1238.50667,924.03058 1238.684,924.26858 C1238.86133,924.50658 1239.07833,924.71658 1239.335,924.89858 C1239.59167,925.08058 1239.895,925.22758 1240.245,925.33958 C1240.595,925.45158 1240.994,925.50758 1241.442,925.50758 Z M1247.112,928.43358 L1247.112,924.82158 C1247.35467,925.036247 1247.65333,925.201914 1248.008,925.31858 C1248.36267,925.435247 1248.73133,925.49358 1249.114,925.49358 C1249.76733,925.49358 1250.374,925.330247 1250.934,925.00358 C1251.494,924.676914 1251.93967,924.23358 1252.271,923.67358 C1252.60233,923.11358 1252.768,922.502247 1252.768,921.83958 C1252.768,921.176914 1252.60233,920.567914 1252.271,920.01258 C1251.93967,919.457247 1251.494,919.016247 1250.934,918.68958 C1250.374,918.362914 1249.76733,918.19958 1249.114,918.19958 C1248.358,918.19958 1247.69067,918.418914 1247.112,918.85758 L1247.112,918.85758 L1247.112,918.40958 L1245.32,918.40958 L1245.32,928.43358 L1247.112,928.43358 Z M1249.114,923.91158 C1248.74067,923.91158 1248.39533,923.818247 1248.078,923.63158 C1247.76067,923.444914 1247.50867,923.192914 1247.322,922.87558 C1247.13533,922.558247 1247.042,922.212914 1247.042,921.83958 C1247.042,921.466247 1247.13533,921.120914 1247.322,920.80358 C1247.50867,920.486247 1247.76067,920.234247 1248.078,920.04758 C1248.39533,919.860914 1248.74067,919.76758 1249.114,919.76758 C1249.48733,919.76758 1249.83267,919.860914 1250.15,920.04758 C1250.46733,920.234247 1250.71933,920.486247 1250.906,920.80358 C1251.09267,921.120914 1251.186,921.466247 1251.186,921.83958 C1251.186,922.212914 1251.09267,922.558247 1250.906,922.87558 C1250.71933,923.192914 1250.46733,923.444914 1250.15,923.63158 C1249.83267,923.818247 1249.48733,923.91158 1249.114,923.91158 Z M1255.778,917.09358 L1255.778,915.25958 L1253.944,915.25958 L1253.944,917.09358 L1255.778,917.09358 Z M1255.778,925.28358 L1255.778,918.42358 L1253.944,918.42358 L1253.944,925.28358 L1255.778,925.28358 Z M1259.46,925.28358 L1259.46,922.56758 C1259.46,922.072914 1259.558,921.60158 1259.754,921.15358 C1259.91267,920.808247 1260.12967,920.518914 1260.405,920.28558 C1260.68033,920.052247 1261.028,919.93558 1261.448,919.93558 C1261.60667,919.93558 1261.79333,919.958914 1262.008,920.00558 L1262.008,920.00558 L1262.008,918.39558 C1261.87733,918.358247 1261.77933,918.334914 1261.714,918.32558 C1261.58333,918.306914 1261.48533,918.29758 1261.42,918.29758 C1260.98133,918.29758 1260.58933,918.404914 1260.244,918.61958 C1259.89867,918.834247 1259.63733,919.128247 1259.46,919.50158 L1259.46,919.50158 L1259.46,918.43758 L1257.654,918.43758 L1257.654,925.28358 L1259.46,925.28358 Z M1266.418,925.49358 C1267.174,925.49358 1267.84133,925.274247 1268.42,924.83558 L1268.42,924.83558 L1268.42,925.28358 L1270.212,925.28358 L1270.212,918.42358 L1268.42,918.42358 L1268.42,918.87158 C1268.17733,918.656914 1267.87867,918.491247 1267.524,918.37458 C1267.16933,918.257914 1266.80067,918.19958 1266.418,918.19958 C1265.76467,918.19958 1265.158,918.362914 1264.598,918.68958 C1264.038,919.016247 1263.59233,919.45958 1263.261,920.01958 C1262.92967,920.57958 1262.764,921.190914 1262.764,921.85358 C1262.764,922.516247 1262.92967,923.125247 1263.261,923.68058 C1263.59233,924.235914 1264.038,924.676914 1264.598,925.00358 C1265.158,925.330247 1265.76467,925.49358 1266.418,925.49358 Z M1266.418,923.91158 C1266.04467,923.91158 1265.69933,923.818247 1265.382,923.63158 C1265.06467,923.444914 1264.81267,923.192914 1264.626,922.87558 C1264.43933,922.558247 1264.346,922.212914 1264.346,921.83958 C1264.346,921.466247 1264.43933,921.120914 1264.626,920.80358 C1264.81267,920.486247 1265.06467,920.234247 1265.382,920.04758 C1265.69933,919.860914 1266.04467,919.76758 1266.418,919.76758 C1266.79133,919.76758 1267.13667,919.860914 1267.454,920.04758 C1267.77133,920.234247 1268.02333,920.486247 1268.21,920.80358 C1268.39667,921.120914 1268.49,921.466247 1268.49,921.83958 C1268.49,922.212914 1268.39667,922.558247 1268.21,922.87558 C1268.02333,923.192914 1267.77133,923.444914 1267.454,923.63158 C1267.13667,923.818247 1266.79133,923.91158 1266.418,923.91158 Z M1274.734,925.39558 C1275.03267,925.39558 1275.30567,925.369914 1275.553,925.31858 C1275.80033,925.267247 1276.03133,925.190247 1276.246,925.08758 L1276.246,925.08758 L1275.728,923.47758 C1275.644,923.53358 1275.55533,923.577914 1275.462,923.61058 C1275.36867,923.643247 1275.24267,923.65958 1275.084,923.65958 C1274.84133,923.65958 1274.65467,923.584914 1274.524,923.43558 C1274.43067,923.342247 1274.36767,923.227914 1274.335,923.09258 C1274.30233,922.957247 1274.286,922.810247 1274.286,922.65158 L1274.286,922.65158 L1274.286,919.99158 L1275.966,919.99158 L1275.966,918.42358 L1274.286,918.42358 L1274.286,916.32358 L1272.452,916.32358 L1272.452,918.42358 L1271.248,918.42358 L1271.248,919.99158 L1272.452,919.99158 L1272.452,923.00158 C1272.452,923.776247 1272.67133,924.37358 1273.11,924.79358 C1273.29667,924.980247 1273.52767,925.127247 1273.803,925.23458 C1274.07833,925.341914 1274.38867,925.39558 1274.734,925.39558 Z M1279.256,917.09358 L1279.256,915.25958 L1277.422,915.25958 L1277.422,917.09358 L1279.256,917.09358 Z M1279.256,925.28358 L1279.256,918.42358 L1277.422,918.42358 L1277.422,925.28358 L1279.256,925.28358 Z M1284.184,925.50758 C1284.83733,925.50758 1285.444,925.344247 1286.004,925.01758 C1286.564,924.690914 1287.00967,924.249914 1287.341,923.69458 C1287.67233,923.139247 1287.838,922.530247 1287.838,921.86758 C1287.838,921.204914 1287.67233,920.591247 1287.341,920.02658 C1287.00967,919.461914 1286.564,919.016247 1286.004,918.68958 C1285.444,918.362914 1284.83733,918.19958 1284.184,918.19958 C1283.52133,918.19958 1282.91,918.362914 1282.35,918.68958 C1281.79,919.016247 1281.34667,919.461914 1281.02,920.02658 C1280.69333,920.591247 1280.53,921.204914 1280.53,921.86758 C1280.53,922.530247 1280.69333,923.139247 1281.02,923.69458 C1281.34667,924.249914 1281.79,924.690914 1282.35,925.01758 C1282.91,925.344247 1283.52133,925.50758 1284.184,925.50758 Z M1284.184,923.85558 C1283.82,923.85558 1283.484,923.766914 1283.176,923.58958 C1282.868,923.412247 1282.62533,923.16958 1282.448,922.86158 C1282.27067,922.55358 1282.182,922.222247 1282.182,921.86758 C1282.182,921.50358 1282.27067,921.16758 1282.448,920.85958 C1282.62533,920.55158 1282.868,920.308914 1283.176,920.13158 C1283.484,919.954247 1283.82,919.86558 1284.184,919.86558 C1284.548,919.86558 1284.88167,919.954247 1285.185,920.13158 C1285.48833,920.308914 1285.72867,920.55158 1285.906,920.85958 C1286.08333,921.16758 1286.172,921.50358 1286.172,921.86758 C1286.172,922.222247 1286.08333,922.55358 1285.906,922.86158 C1285.72867,923.16958 1285.48833,923.412247 1285.185,923.58958 C1284.88167,923.766914 1284.548,923.85558 1284.184,923.85558 Z M1290.834,925.28358 L1290.834,921.92358 C1290.834,921.64358 1290.869,921.379914 1290.939,921.13258 C1291.009,920.885247 1291.11167,920.67058 1291.247,920.48858 C1291.38233,920.30658 1291.54567,920.161914 1291.737,920.05458 C1291.92833,919.947247 1292.15,919.89358 1292.402,919.89358 C1292.822,919.89358 1293.14167,920.01258 1293.361,920.25058 C1293.58033,920.48858 1293.69,920.854914 1293.69,921.34958 L1293.69,921.34958 L1293.69,925.28358 L1295.524,925.28358 L1295.524,921.12558 C1295.524,920.686914 1295.47033,920.287914 1295.363,919.92858 C1295.25567,919.569247 1295.097,919.261247 1294.887,919.00458 C1294.677,918.747914 1294.40867,918.54958 1294.082,918.40958 C1293.75533,918.26958 1293.37733,918.19958 1292.948,918.19958 C1292.48133,918.19958 1292.066,918.299914 1291.702,918.50058 C1291.338,918.701247 1291.04867,918.974247 1290.834,919.31958 L1290.834,919.31958 L1290.722,919.31958 L1290.722,918.42358 L1289,918.42358 L1289,925.28358 L1290.834,925.28358 Z M1300.298,925.49358 C1301.054,925.49358 1301.72133,925.274247 1302.3,924.83558 L1302.3,924.83558 L1302.3,925.28358 L1304.092,925.28358 L1304.092,918.42358 L1302.3,918.42358 L1302.3,918.87158 C1302.05733,918.656914 1301.75867,918.491247 1301.404,918.37458 C1301.04933,918.257914 1300.68067,918.19958 1300.298,918.19958 C1299.64467,918.19958 1299.038,918.362914 1298.478,918.68958 C1297.918,919.016247 1297.47233,919.45958 1297.141,920.01958 C1296.80967,920.57958 1296.644,921.190914 1296.644,921.85358 C1296.644,922.516247 1296.80967,923.125247 1297.141,923.68058 C1297.47233,924.235914 1297.918,924.676914 1298.478,925.00358 C1299.038,925.330247 1299.64467,925.49358 1300.298,925.49358 Z M1300.298,923.91158 C1299.92467,923.91158 1299.57933,923.818247 1299.262,923.63158 C1298.94467,923.444914 1298.69267,923.192914 1298.506,922.87558 C1298.31933,922.558247 1298.226,922.212914 1298.226,921.83958 C1298.226,921.466247 1298.31933,921.120914 1298.506,920.80358 C1298.69267,920.486247 1298.94467,920.234247 1299.262,920.04758 C1299.57933,919.860914 1299.92467,919.76758 1300.298,919.76758 C1300.67133,919.76758 1301.01667,919.860914 1301.334,920.04758 C1301.65133,920.234247 1301.90333,920.486247 1302.09,920.80358 C1302.27667,921.120914 1302.37,921.466247 1302.37,921.83958 C1302.37,922.212914 1302.27667,922.558247 1302.09,922.87558 C1301.90333,923.192914 1301.65133,923.444914 1301.334,923.63158 C1301.01667,923.818247 1300.67133,923.91158 1300.298,923.91158 Z M1307.41,925.28358 L1307.41,915.25958 L1305.576,915.25958 L1305.576,925.28358 L1307.41,925.28358 Z M1231.768,949.50758 C1232.59867,949.50758 1233.35,949.351247 1234.022,949.03858 C1234.694,948.725914 1235.27733,948.270914 1235.772,947.67358 L1235.772,947.67358 L1234.428,946.39958 C1234.092,946.81958 1233.707,947.143914 1233.273,947.37258 C1232.839,947.601247 1232.342,947.71558 1231.782,947.71558 C1231.31533,947.71558 1230.87667,947.633914 1230.466,947.47058 C1230.05533,947.307247 1229.69833,947.076247 1229.395,946.77758 C1229.09167,946.478914 1228.85133,946.117247 1228.674,945.69258 C1228.49667,945.267914 1228.408,944.794247 1228.408,944.27158 C1228.408,943.748914 1228.49667,943.275247 1228.674,942.85058 C1228.85133,942.425914 1229.09167,942.064247 1229.395,941.76558 C1229.69833,941.466914 1230.05533,941.235914 1230.466,941.07258 C1230.87667,940.909247 1231.31533,940.82758 1231.782,940.82758 C1232.314,940.82758 1232.77367,940.930247 1233.161,941.13558 C1233.54833,941.340914 1233.89133,941.616247 1234.19,941.96158 L1234.19,941.96158 L1235.52,940.67358 C1235.044,940.14158 1234.50033,939.73558 1233.889,939.45558 C1233.27767,939.17558 1232.57067,939.03558 1231.768,939.03558 C1231.02133,939.03558 1230.32833,939.170914 1229.689,939.44158 C1229.04967,939.712247 1228.49667,940.080914 1228.03,940.54758 C1227.56333,941.014247 1227.19467,941.567247 1226.924,942.20658 C1226.65333,942.845914 1226.518,943.534247 1226.518,944.27158 C1226.518,945.008914 1226.65333,945.697247 1226.924,946.33658 C1227.19467,946.975914 1227.56333,947.528914 1228.03,947.99558 C1228.49667,948.462247 1229.04967,948.830914 1229.689,949.10158 C1230.32833,949.372247 1231.02133,949.50758 1231.768,949.50758 Z M1239.006,941.09358 L1239.006,939.25958 L1237.172,939.25958 L1237.172,941.09358 L1239.006,941.09358 Z M1239.006,949.28358 L1239.006,942.42358 L1237.172,942.42358 L1237.172,949.28358 L1239.006,949.28358 Z M1243.724,949.39558 C1244.02267,949.39558 1244.29567,949.369914 1244.543,949.31858 C1244.79033,949.267247 1245.02133,949.190247 1245.236,949.08758 L1245.236,949.08758 L1244.718,947.47758 C1244.634,947.53358 1244.54533,947.577914 1244.452,947.61058 C1244.35867,947.643247 1244.23267,947.65958 1244.074,947.65958 C1243.83133,947.65958 1243.64467,947.584914 1243.514,947.43558 C1243.42067,947.342247 1243.35767,947.227914 1243.325,947.09258 C1243.29233,946.957247 1243.276,946.810247 1243.276,946.65158 L1243.276,946.65158 L1243.276,943.99158 L1244.956,943.99158 L1244.956,942.42358 L1243.276,942.42358 L1243.276,940.32358 L1241.442,940.32358 L1241.442,942.42358 L1240.238,942.42358 L1240.238,943.99158 L1241.442,943.99158 L1241.442,947.00158 C1241.442,947.776247 1241.66133,948.37358 1242.1,948.79358 C1242.28667,948.980247 1242.51767,949.127247 1242.793,949.23458 C1243.06833,949.341914 1243.37867,949.39558 1243.724,949.39558 Z M1248.904,952.30758 L1253.202,942.42358 L1251.158,942.42358 L1249.492,946.58158 L1249.394,946.58158 L1247.658,942.42358 L1245.572,942.42358 L1248.456,948.94758 L1246.93,952.30758 L1248.904,952.30758 Z M1262.148,949.50758 C1262.96,949.50758 1263.674,949.376914 1264.29,949.11558 C1264.346,949.096914 1264.50933,949.01758 1264.78,948.87758 C1265.2,948.644247 1265.57333,948.354914 1265.9,948.00958 C1266.07733,947.81358 1266.24067,947.598914 1266.39,947.36558 L1266.39,947.36558 L1266.39,943.78158 L1262.106,943.78158 L1262.106,945.39158 L1264.78,945.39158 L1264.78,946.51158 C1264.696,946.632914 1264.58867,946.758914 1264.458,946.88958 C1264.178,947.14158 1263.86067,947.342247 1263.506,947.49158 C1263.15133,947.640914 1262.70333,947.71558 1262.162,947.71558 C1261.70467,947.71558 1261.266,947.636247 1260.846,947.47758 C1260.43533,947.30958 1260.07133,947.076247 1259.754,946.77758 C1259.446,946.478914 1259.19867,946.11958 1259.012,945.69958 C1258.83467,945.27958 1258.746,944.80358 1258.746,944.27158 C1258.746,943.73958 1258.83467,943.268247 1259.012,942.85758 C1259.18933,942.428247 1259.43667,942.064247 1259.754,941.76558 C1260.08067,941.448247 1260.44,941.21958 1260.832,941.07958 C1261.23333,940.91158 1261.66733,940.82758 1262.134,940.82758 C1262.67533,940.82758 1263.156,940.920914 1263.576,941.10758 C1263.98667,941.294247 1264.35067,941.55558 1264.668,941.89158 L1264.668,941.89158 L1265.97,940.61758 C1265.494,940.11358 1264.94333,939.726247 1264.318,939.45558 C1263.674,939.17558 1262.95067,939.03558 1262.148,939.03558 C1261.41067,939.03558 1260.72467,939.166247 1260.09,939.42758 C1259.446,939.688914 1258.886,940.052914 1258.41,940.51958 C1257.934,940.976914 1257.556,941.532247 1257.276,942.18558 C1256.996,942.810914 1256.856,943.506247 1256.856,944.27158 C1256.856,945.02758 1256.996,945.72758 1257.276,946.37158 C1257.56533,947.01558 1257.94333,947.566247 1258.41,948.02358 C1258.886,948.480914 1259.446,948.844914 1260.09,949.11558 C1260.72467,949.376914 1261.41067,949.50758 1262.148,949.50758 Z M1270.156,949.50758 C1270.36133,949.50758 1270.52933,949.502914 1270.66,949.49358 C1271.108,949.456247 1271.48833,949.344247 1271.801,949.15758 C1272.11367,948.970914 1272.34467,948.802914 1272.494,948.65358 L1272.494,948.65358 L1272.494,949.28358 L1274.202,949.28358 L1274.202,942.42358 L1272.382,942.42358 L1272.382,945.79758 C1272.382,946.058914 1272.34467,946.324914 1272.27,946.59558 C1272.19533,946.84758 1272.09267,947.05758 1271.962,947.22558 C1271.83133,947.42158 1271.668,947.566247 1271.472,947.65958 C1271.29467,947.77158 1271.07533,947.82758 1270.814,947.82758 C1270.394,947.82758 1270.07667,947.706247 1269.862,947.46358 C1269.638,947.220914 1269.526,946.856914 1269.526,946.37158 L1269.526,946.37158 L1269.526,942.42358 L1267.706,942.42358 L1267.706,946.59558 C1267.706,947.482247 1267.916,948.19158 1268.336,948.72358 C1268.76533,949.246247 1269.372,949.50758 1270.156,949.50758 Z M1277.716,941.09358 L1277.716,939.25958 L1275.882,939.25958 L1275.882,941.09358 L1277.716,941.09358 Z M1277.716,949.28358 L1277.716,942.42358 L1275.882,942.42358 L1275.882,949.28358 L1277.716,949.28358 Z M1282.518,949.49358 C1283.274,949.49358 1283.94133,949.274247 1284.52,948.83558 L1284.52,948.83558 L1284.52,949.28358 L1286.312,949.28358 L1286.312,939.25958 L1284.52,939.25958 L1284.52,942.87158 C1284.27733,942.656914 1283.97867,942.491247 1283.624,942.37458 C1283.26933,942.257914 1282.90067,942.19958 1282.518,942.19958 C1281.86467,942.19958 1281.258,942.362914 1280.698,942.68958 C1280.138,943.016247 1279.69233,943.45958 1279.361,944.01958 C1279.02967,944.57958 1278.864,945.190914 1278.864,945.85358 C1278.864,946.516247 1279.02967,947.125247 1279.361,947.68058 C1279.69233,948.235914 1280.138,948.676914 1280.698,949.00358 C1281.258,949.330247 1281.86467,949.49358 1282.518,949.49358 Z M1282.518,947.91158 C1282.14467,947.91158 1281.79933,947.818247 1281.482,947.63158 C1281.16467,947.444914 1280.91267,947.192914 1280.726,946.87558 C1280.53933,946.558247 1280.446,946.212914 1280.446,945.83958 C1280.446,945.466247 1280.53933,945.120914 1280.726,944.80358 C1280.91267,944.486247 1281.16467,944.234247 1281.482,944.04758 C1281.79933,943.860914 1282.14467,943.76758 1282.518,943.76758 C1282.89133,943.76758 1283.23667,943.860914 1283.554,944.04758 C1283.87133,944.234247 1284.12333,944.486247 1284.31,944.80358 C1284.49667,945.120914 1284.59,945.466247 1284.59,945.83958 C1284.59,946.212914 1284.49667,946.558247 1284.31,946.87558 C1284.12333,947.192914 1283.87133,947.444914 1283.554,947.63158 C1283.23667,947.818247 1282.89133,947.91158 1282.518,947.91158 Z M1291.044,949.50758 C1291.81867,949.50758 1292.47433,949.334914 1293.011,948.98958 C1293.54767,948.644247 1293.97467,948.19158 1294.292,947.63158 L1294.292,947.63158 L1292.766,946.87558 C1292.60733,947.164914 1292.39033,947.405247 1292.115,947.59658 C1291.83967,947.787914 1291.492,947.88358 1291.072,947.88358 C1290.85733,947.88358 1290.64733,947.853247 1290.442,947.79258 C1290.23667,947.731914 1290.04767,947.633914 1289.875,947.49858 C1289.70233,947.363247 1289.55767,947.195247 1289.441,946.99458 C1289.32433,946.793914 1289.24733,946.55358 1289.21,946.27358 L1289.21,946.27358 L1294.376,946.27358 C1294.376,946.21758 1294.38067,946.166247 1294.39,946.11958 C1294.39,946.072914 1294.39467,946.02158 1294.404,945.96558 L1294.404,945.96558 L1294.404,945.79758 C1294.404,945.284247 1294.32933,944.808247 1294.18,944.36958 C1294.03067,943.930914 1293.81133,943.55058 1293.522,943.22858 C1293.23267,942.90658 1292.87333,942.65458 1292.444,942.47258 C1292.01467,942.29058 1291.52467,942.19958 1290.974,942.19958 C1290.45133,942.19958 1289.973,942.29758 1289.539,942.49358 C1289.105,942.68958 1288.72933,942.953247 1288.412,943.28458 C1288.09467,943.615914 1287.84733,944.003247 1287.67,944.44658 C1287.49267,944.889914 1287.404,945.358914 1287.404,945.85358 C1287.404,946.38558 1287.495,946.873247 1287.677,947.31658 C1287.859,947.759914 1288.11333,948.144914 1288.44,948.47158 C1288.76667,948.798247 1289.15167,949.05258 1289.595,949.23458 C1290.03833,949.41658 1290.52133,949.50758 1291.044,949.50758 Z M1292.626,944.97158 L1289.308,944.97158 C1289.42933,944.570247 1289.63933,944.25758 1289.938,944.03358 C1290.23667,943.80958 1290.582,943.69758 1290.974,943.69758 C1291.254,943.69758 1291.49433,943.73958 1291.695,943.82358 C1291.89567,943.90758 1292.06367,944.014914 1292.199,944.14558 C1292.33433,944.276247 1292.437,944.416247 1292.507,944.56558 C1292.577,944.714914 1292.61667,944.850247 1292.626,944.97158 L1292.626,944.97158 Z M1298.296,949.50758 C1298.73467,949.50758 1299.13367,949.446914 1299.493,949.32558 C1299.85233,949.204247 1300.16033,949.03858 1300.417,948.82858 C1300.67367,948.61858 1300.872,948.378247 1301.012,948.10758 C1301.152,947.836914 1301.222,947.552247 1301.222,947.25358 C1301.222,946.74958 1301.05167,946.313247 1300.711,945.94458 C1300.37033,945.575914 1299.85,945.30758 1299.15,945.13958 L1299.15,945.13958 L1298.1,944.88758 C1297.82,944.812914 1297.59833,944.728914 1297.435,944.63558 C1297.27167,944.542247 1297.19,944.416247 1297.19,944.25758 C1297.19,944.08958 1297.288,943.951914 1297.484,943.84458 C1297.68,943.737247 1297.90867,943.68358 1298.17,943.68358 C1298.422,943.68358 1298.674,943.744247 1298.926,943.86558 C1299.178,943.986914 1299.36933,944.182914 1299.5,944.45358 L1299.5,944.45358 L1301.082,943.80958 C1300.83933,943.24958 1300.46133,942.841247 1299.948,942.58458 C1299.43467,942.327914 1298.85133,942.19958 1298.198,942.19958 C1297.806,942.19958 1297.43967,942.24858 1297.099,942.34658 C1296.75833,942.44458 1296.462,942.58458 1296.21,942.76658 C1295.958,942.94858 1295.75967,943.170247 1295.615,943.43158 C1295.47033,943.692914 1295.398,943.99158 1295.398,944.32758 C1295.398,944.626247 1295.45867,944.88758 1295.58,945.11158 C1295.70133,945.33558 1295.85533,945.526914 1296.042,945.68558 C1296.22867,945.844247 1296.43633,945.974914 1296.665,946.07758 C1296.89367,946.180247 1297.11533,946.254914 1297.33,946.30158 L1297.33,946.30158 L1298.296,946.51158 C1298.69733,946.604914 1298.97967,946.709914 1299.143,946.82658 C1299.30633,946.943247 1299.388,947.094914 1299.388,947.28158 C1299.388,947.44958 1299.29,947.594247 1299.094,947.71558 C1298.898,947.836914 1298.632,947.89758 1298.296,947.89758 C1297.96933,947.89758 1297.673,947.811247 1297.407,947.63858 C1297.141,947.465914 1296.92867,947.202247 1296.77,946.84758 L1296.77,946.84758 L1295.132,947.54758 C1295.22533,947.790247 1295.36067,948.03058 1295.538,948.26858 C1295.71533,948.50658 1295.93233,948.71658 1296.189,948.89858 C1296.44567,949.08058 1296.749,949.22758 1297.099,949.33958 C1297.449,949.45158 1297.848,949.50758 1298.296,949.50758 Z" id="InspirationalCityGuides"></path>
            </g>
        </g>
    </g>
</svg>