<?xml version="1.0" encoding="UTF-8"?>
<svg width="113px" height="35px" viewBox="0 0 113 35" version="1.1" xmlns="http://www.w3.org/2000/svg" xmlns:xlink="http://www.w3.org/1999/xlink">
    <title>EverythingaboutTravel</title>
    <g id="Page-1" stroke="none" stroke-width="1" fill="none" fill-rule="evenodd">
        <g id="Service-Introduction" transform="translate(-1396.000000, -5771.000000)" fill="#FFFFFF" fill-rule="nonzero">
            <g id="section-5-1" transform="translate(0.000000, 4855.852268)">
                <path d="M1403.364,925.28358 L1403.364,923.49158 L1398.898,923.49158 L1398.898,921.16758 L1402.916,921.16758 L1402.916,919.37558 L1398.898,919.37558 L1398.898,917.05158 L1403.364,917.05158 L1403.364,915.25958 L1397.008,915.25958 L1397.008,925.28358 L1403.364,925.28358 Z M1408.88,925.28358 L1411.834,918.42358 L1409.762,918.42358 L1408.04,922.79158 L1407.942,922.79158 L1406.234,918.42358 L1404.148,918.42358 L1407.074,925.28358 L1408.88,925.28358 Z M1415.922,925.50758 C1416.69667,925.50758 1417.35233,925.334914 1417.889,924.98958 C1418.42567,924.644247 1418.85267,924.19158 1419.17,923.63158 L1419.17,923.63158 L1417.644,922.87558 C1417.48533,923.164914 1417.26833,923.405247 1416.993,923.59658 C1416.71767,923.787914 1416.37,923.88358 1415.95,923.88358 C1415.73533,923.88358 1415.52533,923.853247 1415.32,923.79258 C1415.11467,923.731914 1414.92567,923.633914 1414.753,923.49858 C1414.58033,923.363247 1414.43567,923.195247 1414.319,922.99458 C1414.20233,922.793914 1414.12533,922.55358 1414.088,922.27358 L1414.088,922.27358 L1419.254,922.27358 C1419.254,922.21758 1419.25867,922.166247 1419.268,922.11958 C1419.268,922.072914 1419.27267,922.02158 1419.282,921.96558 L1419.282,921.96558 L1419.282,921.79758 C1419.282,921.284247 1419.20733,920.808247 1419.058,920.36958 C1418.90867,919.930914 1418.68933,919.55058 1418.4,919.22858 C1418.11067,918.90658 1417.75133,918.65458 1417.322,918.47258 C1416.89267,918.29058 1416.40267,918.19958 1415.852,918.19958 C1415.32933,918.19958 1414.851,918.29758 1414.417,918.49358 C1413.983,918.68958 1413.60733,918.953247 1413.29,919.28458 C1412.97267,919.615914 1412.72533,920.003247 1412.548,920.44658 C1412.37067,920.889914 1412.282,921.358914 1412.282,921.85358 C1412.282,922.38558 1412.373,922.873247 1412.555,923.31658 C1412.737,923.759914 1412.99133,924.144914 1413.318,924.47158 C1413.64467,924.798247 1414.02967,925.05258 1414.473,925.23458 C1414.91633,925.41658 1415.39933,925.50758 1415.922,925.50758 Z M1417.504,920.97158 L1414.186,920.97158 C1414.30733,920.570247 1414.51733,920.25758 1414.816,920.03358 C1415.11467,919.80958 1415.46,919.69758 1415.852,919.69758 C1416.132,919.69758 1416.37233,919.73958 1416.573,919.82358 C1416.77367,919.90758 1416.94167,920.014914 1417.077,920.14558 C1417.21233,920.276247 1417.315,920.416247 1417.385,920.56558 C1417.455,920.714914 1417.49467,920.850247 1417.504,920.97158 L1417.504,920.97158 Z M1422.46,925.28358 L1422.46,922.56758 C1422.46,922.072914 1422.558,921.60158 1422.754,921.15358 C1422.91267,920.808247 1423.12967,920.518914 1423.405,920.28558 C1423.68033,920.052247 1424.028,919.93558 1424.448,919.93558 C1424.60667,919.93558 1424.79333,919.958914 1425.008,920.00558 L1425.008,920.00558 L1425.008,918.39558 C1424.87733,918.358247 1424.77933,918.334914 1424.714,918.32558 C1424.58333,918.306914 1424.48533,918.29758 1424.42,918.29758 C1423.98133,918.29758 1423.58933,918.404914 1423.244,918.61958 C1422.89867,918.834247 1422.63733,919.128247 1422.46,919.50158 L1422.46,919.50158 L1422.46,918.43758 L1420.654,918.43758 L1420.654,925.28358 L1422.46,925.28358 Z M1428.76,928.30758 L1433.058,918.42358 L1431.014,918.42358 L1429.348,922.58158 L1429.25,922.58158 L1427.514,918.42358 L1425.428,918.42358 L1428.312,924.94758 L1426.786,928.30758 L1428.76,928.30758 Z M1436.936,925.39558 C1437.23467,925.39558 1437.50767,925.369914 1437.755,925.31858 C1438.00233,925.267247 1438.23333,925.190247 1438.448,925.08758 L1438.448,925.08758 L1437.93,923.47758 C1437.846,923.53358 1437.75733,923.577914 1437.664,923.61058 C1437.57067,923.643247 1437.44467,923.65958 1437.286,923.65958 C1437.04333,923.65958 1436.85667,923.584914 1436.726,923.43558 C1436.63267,923.342247 1436.56967,923.227914 1436.537,923.09258 C1436.50433,922.957247 1436.488,922.810247 1436.488,922.65158 L1436.488,922.65158 L1436.488,919.99158 L1438.168,919.99158 L1438.168,918.42358 L1436.488,918.42358 L1436.488,916.32358 L1434.654,916.32358 L1434.654,918.42358 L1433.45,918.42358 L1433.45,919.99158 L1434.654,919.99158 L1434.654,923.00158 C1434.654,923.776247 1434.87333,924.37358 1435.312,924.79358 C1435.49867,924.980247 1435.72967,925.127247 1436.005,925.23458 C1436.28033,925.341914 1436.59067,925.39558 1436.936,925.39558 Z M1441.332,925.28358 L1441.332,921.39158 C1441.332,921.16758 1441.40667,920.959914 1441.556,920.76858 C1441.70533,920.577247 1441.89667,920.423247 1442.13,920.30658 C1442.36333,920.189914 1442.59667,920.126914 1442.83,920.11758 C1443.18467,920.126914 1443.51133,920.25758 1443.81,920.50958 C1444.10867,920.76158 1444.258,921.05558 1444.258,921.39158 L1444.258,925.28358 L1446.064,925.28358 L1446.064,921.39158 C1446.064,920.83158 1445.924,920.31358 1445.644,919.83758 C1445.364,919.36158 1444.98833,918.98358 1444.517,918.70358 C1444.04567,918.42358 1443.53,918.28358 1442.97,918.28358 C1442.39133,918.28358 1441.84533,918.432914 1441.332,918.73158 L1441.332,915.25958 L1439.512,915.25958 L1439.512,925.28358 L1441.332,925.28358 Z M1449.494,917.09358 L1449.494,915.25958 L1447.66,915.25958 L1447.66,917.09358 L1449.494,917.09358 Z M1449.494,925.28358 L1449.494,918.42358 L1447.66,918.42358 L1447.66,925.28358 L1449.494,925.28358 Z M1453.008,925.28358 L1453.008,921.92358 C1453.008,921.64358 1453.043,921.379914 1453.113,921.13258 C1453.183,920.885247 1453.28567,920.67058 1453.421,920.48858 C1453.55633,920.30658 1453.71967,920.161914 1453.911,920.05458 C1454.10233,919.947247 1454.324,919.89358 1454.576,919.89358 C1454.996,919.89358 1455.31567,920.01258 1455.535,920.25058 C1455.75433,920.48858 1455.864,920.854914 1455.864,921.34958 L1455.864,921.34958 L1455.864,925.28358 L1457.698,925.28358 L1457.698,921.12558 C1457.698,920.686914 1457.64433,920.287914 1457.537,919.92858 C1457.42967,919.569247 1457.271,919.261247 1457.061,919.00458 C1456.851,918.747914 1456.58267,918.54958 1456.256,918.40958 C1455.92933,918.26958 1455.55133,918.19958 1455.122,918.19958 C1454.65533,918.19958 1454.24,918.299914 1453.876,918.50058 C1453.512,918.701247 1453.22267,918.974247 1453.008,919.31958 L1453.008,919.31958 L1452.896,919.31958 L1452.896,918.42358 L1451.174,918.42358 L1451.174,925.28358 L1453.008,925.28358 Z M1462.598,928.55958 C1463.13,928.55958 1463.62,928.47558 1464.068,928.30758 C1464.516,928.120914 1464.894,927.87358 1465.202,927.56558 C1465.51933,927.238914 1465.76667,926.846914 1465.944,926.38958 C1466.12133,925.904247 1466.21,925.386247 1466.21,924.83558 L1466.21,924.83558 L1466.21,918.42358 L1464.46,918.42358 L1464.46,918.77358 C1463.872,918.390914 1463.22333,918.19958 1462.514,918.19958 C1461.87,918.19958 1461.275,918.36058 1460.729,918.68258 C1460.183,919.00458 1459.749,919.43858 1459.427,919.98458 C1459.105,920.53058 1458.944,921.12558 1458.944,921.76958 C1458.944,922.41358 1459.105,923.00858 1459.427,923.55458 C1459.749,924.10058 1460.183,924.53458 1460.729,924.85658 C1461.275,925.17858 1461.87,925.33958 1462.514,925.33958 C1463.22333,925.33958 1463.872,925.148247 1464.46,924.76558 C1464.46,925.10158 1464.418,925.40958 1464.334,925.68958 C1464.25,925.96958 1464.124,926.198247 1463.956,926.37558 C1463.62,926.758247 1463.16733,926.94958 1462.598,926.94958 C1462.24333,926.94958 1461.912,926.846914 1461.604,926.64158 C1461.45467,926.548247 1461.32867,926.426914 1461.226,926.27758 C1461.17933,926.230914 1461.142,926.17958 1461.114,926.12358 L1461.114,926.12358 L1459.378,926.86558 C1459.47133,927.014914 1459.55533,927.13158 1459.63,927.21558 C1459.798,927.448914 1460.02667,927.672914 1460.316,927.88758 C1460.60533,928.092914 1460.93667,928.256247 1461.31,928.37758 C1461.66467,928.498914 1462.094,928.55958 1462.598,928.55958 Z M1462.514,923.81358 C1462.16867,923.81358 1461.83733,923.717914 1461.52,923.52658 C1461.20267,923.335247 1460.94833,923.080914 1460.757,922.76358 C1460.56567,922.446247 1460.47,922.114914 1460.47,921.76958 C1460.47,921.424247 1460.56333,921.092914 1460.75,920.77558 C1460.93667,920.458247 1461.18867,920.203914 1461.506,920.01258 C1461.82333,919.821247 1462.15933,919.72558 1462.514,919.72558 C1462.60733,919.72558 1462.68667,919.730247 1462.752,919.73958 C1462.81733,919.748914 1462.86867,919.758247 1462.906,919.76758 C1463.28867,919.85158 1463.63167,920.045247 1463.935,920.34858 C1464.23833,920.651914 1464.432,920.994914 1464.516,921.37758 C1464.52533,921.414914 1464.53467,921.466247 1464.544,921.53158 C1464.55333,921.596914 1464.558,921.676247 1464.558,921.76958 C1464.558,922.114914 1464.46233,922.446247 1464.271,922.76358 C1464.07967,923.080914 1463.82533,923.335247 1463.508,923.52658 C1463.19067,923.717914 1462.85933,923.81358 1462.514,923.81358 Z M1473.91,925.49358 C1474.666,925.49358 1475.33333,925.274247 1475.912,924.83558 L1475.912,924.83558 L1475.912,925.28358 L1477.704,925.28358 L1477.704,918.42358 L1475.912,918.42358 L1475.912,918.87158 C1475.66933,918.656914 1475.37067,918.491247 1475.016,918.37458 C1474.66133,918.257914 1474.29267,918.19958 1473.91,918.19958 C1473.25667,918.19958 1472.65,918.362914 1472.09,918.68958 C1471.53,919.016247 1471.08433,919.45958 1470.753,920.01958 C1470.42167,920.57958 1470.256,921.190914 1470.256,921.85358 C1470.256,922.516247 1470.42167,923.125247 1470.753,923.68058 C1471.08433,924.235914 1471.53,924.676914 1472.09,925.00358 C1472.65,925.330247 1473.25667,925.49358 1473.91,925.49358 Z M1473.91,923.91158 C1473.53667,923.91158 1473.19133,923.818247 1472.874,923.63158 C1472.55667,923.444914 1472.30467,923.192914 1472.118,922.87558 C1471.93133,922.558247 1471.838,922.212914 1471.838,921.83958 C1471.838,921.466247 1471.93133,921.120914 1472.118,920.80358 C1472.30467,920.486247 1472.55667,920.234247 1472.874,920.04758 C1473.19133,919.860914 1473.53667,919.76758 1473.91,919.76758 C1474.28333,919.76758 1474.62867,919.860914 1474.946,920.04758 C1475.26333,920.234247 1475.51533,920.486247 1475.702,920.80358 C1475.88867,921.120914 1475.982,921.466247 1475.982,921.83958 C1475.982,922.212914 1475.88867,922.558247 1475.702,922.87558 C1475.51533,923.192914 1475.26333,923.444914 1474.946,923.63158 C1474.62867,923.818247 1474.28333,923.91158 1473.91,923.91158 Z M1482.758,925.49358 C1483.41133,925.49358 1484.018,925.330247 1484.578,925.00358 C1485.138,924.676914 1485.58367,924.235914 1485.915,923.68058 C1486.24633,923.125247 1486.412,922.516247 1486.412,921.85358 C1486.412,921.190914 1486.24633,920.57958 1485.915,920.01958 C1485.58367,919.45958 1485.138,919.016247 1484.578,918.68958 C1484.018,918.362914 1483.41133,918.19958 1482.758,918.19958 C1482.37533,918.19958 1482.00667,918.257914 1481.652,918.37458 C1481.29733,918.491247 1480.99867,918.656914 1480.756,918.87158 L1480.756,918.87158 L1480.756,915.25958 L1478.964,915.25958 L1478.964,925.28358 L1480.756,925.28358 L1480.756,924.83558 C1481.33467,925.274247 1482.002,925.49358 1482.758,925.49358 Z M1482.758,923.91158 C1482.38467,923.91158 1482.03933,923.818247 1481.722,923.63158 C1481.40467,923.444914 1481.15267,923.192914 1480.966,922.87558 C1480.77933,922.558247 1480.686,922.212914 1480.686,921.83958 C1480.686,921.466247 1480.77933,921.120914 1480.966,920.80358 C1481.15267,920.486247 1481.40467,920.234247 1481.722,920.04758 C1482.03933,919.860914 1482.38467,919.76758 1482.758,919.76758 C1483.13133,919.76758 1483.47667,919.860914 1483.794,920.04758 C1484.11133,920.234247 1484.36333,920.486247 1484.55,920.80358 C1484.73667,921.120914 1484.83,921.466247 1484.83,921.83958 C1484.83,922.212914 1484.73667,922.558247 1484.55,922.87558 C1484.36333,923.192914 1484.11133,923.444914 1483.794,923.63158 C1483.47667,923.818247 1483.13133,923.91158 1482.758,923.91158 Z M1490.836,925.50758 C1491.48933,925.50758 1492.096,925.344247 1492.656,925.01758 C1493.216,924.690914 1493.66167,924.249914 1493.993,923.69458 C1494.32433,923.139247 1494.49,922.530247 1494.49,921.86758 C1494.49,921.204914 1494.32433,920.591247 1493.993,920.02658 C1493.66167,919.461914 1493.216,919.016247 1492.656,918.68958 C1492.096,918.362914 1491.48933,918.19958 1490.836,918.19958 C1490.17333,918.19958 1489.562,918.362914 1489.002,918.68958 C1488.442,919.016247 1487.99867,919.461914 1487.672,920.02658 C1487.34533,920.591247 1487.182,921.204914 1487.182,921.86758 C1487.182,922.530247 1487.34533,923.139247 1487.672,923.69458 C1487.99867,924.249914 1488.442,924.690914 1489.002,925.01758 C1489.562,925.344247 1490.17333,925.50758 1490.836,925.50758 Z M1490.836,923.85558 C1490.472,923.85558 1490.136,923.766914 1489.828,923.58958 C1489.52,923.412247 1489.27733,923.16958 1489.1,922.86158 C1488.92267,922.55358 1488.834,922.222247 1488.834,921.86758 C1488.834,921.50358 1488.92267,921.16758 1489.1,920.85958 C1489.27733,920.55158 1489.52,920.308914 1489.828,920.13158 C1490.136,919.954247 1490.472,919.86558 1490.836,919.86558 C1491.2,919.86558 1491.53367,919.954247 1491.837,920.13158 C1492.14033,920.308914 1492.38067,920.55158 1492.558,920.85958 C1492.73533,921.16758 1492.824,921.50358 1492.824,921.86758 C1492.824,922.222247 1492.73533,922.55358 1492.558,922.86158 C1492.38067,923.16958 1492.14033,923.412247 1491.837,923.58958 C1491.53367,923.766914 1491.2,923.85558 1490.836,923.85558 Z M1498.074,925.50758 C1498.27933,925.50758 1498.44733,925.502914 1498.578,925.49358 C1499.026,925.456247 1499.40633,925.344247 1499.719,925.15758 C1500.03167,924.970914 1500.26267,924.802914 1500.412,924.65358 L1500.412,924.65358 L1500.412,925.28358 L1502.12,925.28358 L1502.12,918.42358 L1500.3,918.42358 L1500.3,921.79758 C1500.3,922.058914 1500.26267,922.324914 1500.188,922.59558 C1500.11333,922.84758 1500.01067,923.05758 1499.88,923.22558 C1499.74933,923.42158 1499.586,923.566247 1499.39,923.65958 C1499.21267,923.77158 1498.99333,923.82758 1498.732,923.82758 C1498.312,923.82758 1497.99467,923.706247 1497.78,923.46358 C1497.556,923.220914 1497.444,922.856914 1497.444,922.37158 L1497.444,922.37158 L1497.444,918.42358 L1495.624,918.42358 L1495.624,922.59558 C1495.624,923.482247 1495.834,924.19158 1496.254,924.72358 C1496.68333,925.246247 1497.29,925.50758 1498.074,925.50758 Z M1506.726,925.39558 C1507.02467,925.39558 1507.29767,925.369914 1507.545,925.31858 C1507.79233,925.267247 1508.02333,925.190247 1508.238,925.08758 L1508.238,925.08758 L1507.72,923.47758 C1507.636,923.53358 1507.54733,923.577914 1507.454,923.61058 C1507.36067,923.643247 1507.23467,923.65958 1507.076,923.65958 C1506.83333,923.65958 1506.64667,923.584914 1506.516,923.43558 C1506.42267,923.342247 1506.35967,923.227914 1506.327,923.09258 C1506.29433,922.957247 1506.278,922.810247 1506.278,922.65158 L1506.278,922.65158 L1506.278,919.99158 L1507.958,919.99158 L1507.958,918.42358 L1506.278,918.42358 L1506.278,916.32358 L1504.444,916.32358 L1504.444,918.42358 L1503.24,918.42358 L1503.24,919.99158 L1504.444,919.99158 L1504.444,923.00158 C1504.444,923.776247 1504.66333,924.37358 1505.102,924.79358 C1505.28867,924.980247 1505.51967,925.127247 1505.795,925.23458 C1506.07033,925.341914 1506.38067,925.39558 1506.726,925.39558 Z M1401.026,949.28358 L1401.026,941.05158 L1403.826,941.05158 L1403.826,939.25958 L1396.336,939.25958 L1396.336,941.05158 L1399.136,941.05158 L1399.136,949.28358 L1401.026,949.28358 Z M1406.948,949.28358 L1406.948,946.56758 C1406.948,946.072914 1407.046,945.60158 1407.242,945.15358 C1407.40067,944.808247 1407.61767,944.518914 1407.893,944.28558 C1408.16833,944.052247 1408.516,943.93558 1408.936,943.93558 C1409.09467,943.93558 1409.28133,943.958914 1409.496,944.00558 L1409.496,944.00558 L1409.496,942.39558 C1409.36533,942.358247 1409.26733,942.334914 1409.202,942.32558 C1409.07133,942.306914 1408.97333,942.29758 1408.908,942.29758 C1408.46933,942.29758 1408.07733,942.404914 1407.732,942.61958 C1407.38667,942.834247 1407.12533,943.128247 1406.948,943.50158 L1406.948,943.50158 L1406.948,942.43758 L1405.142,942.43758 L1405.142,949.28358 L1406.948,949.28358 Z M1413.906,949.49358 C1414.662,949.49358 1415.32933,949.274247 1415.908,948.83558 L1415.908,948.83558 L1415.908,949.28358 L1417.7,949.28358 L1417.7,942.42358 L1415.908,942.42358 L1415.908,942.87158 C1415.66533,942.656914 1415.36667,942.491247 1415.012,942.37458 C1414.65733,942.257914 1414.28867,942.19958 1413.906,942.19958 C1413.25267,942.19958 1412.646,942.362914 1412.086,942.68958 C1411.526,943.016247 1411.08033,943.45958 1410.749,944.01958 C1410.41767,944.57958 1410.252,945.190914 1410.252,945.85358 C1410.252,946.516247 1410.41767,947.125247 1410.749,947.68058 C1411.08033,948.235914 1411.526,948.676914 1412.086,949.00358 C1412.646,949.330247 1413.25267,949.49358 1413.906,949.49358 Z M1413.906,947.91158 C1413.53267,947.91158 1413.18733,947.818247 1412.87,947.63158 C1412.55267,947.444914 1412.30067,947.192914 1412.114,946.87558 C1411.92733,946.558247 1411.834,946.212914 1411.834,945.83958 C1411.834,945.466247 1411.92733,945.120914 1412.114,944.80358 C1412.30067,944.486247 1412.55267,944.234247 1412.87,944.04758 C1413.18733,943.860914 1413.53267,943.76758 1413.906,943.76758 C1414.27933,943.76758 1414.62467,943.860914 1414.942,944.04758 C1415.25933,944.234247 1415.51133,944.486247 1415.698,944.80358 C1415.88467,945.120914 1415.978,945.466247 1415.978,945.83958 C1415.978,946.212914 1415.88467,946.558247 1415.698,946.87558 C1415.51133,947.192914 1415.25933,947.444914 1414.942,947.63158 C1414.62467,947.818247 1414.27933,947.91158 1413.906,947.91158 Z M1423.188,949.28358 L1426.142,942.42358 L1424.07,942.42358 L1422.348,946.79158 L1422.25,946.79158 L1420.542,942.42358 L1418.456,942.42358 L1421.382,949.28358 L1423.188,949.28358 Z M1430.23,949.50758 C1431.00467,949.50758 1431.66033,949.334914 1432.197,948.98958 C1432.73367,948.644247 1433.16067,948.19158 1433.478,947.63158 L1433.478,947.63158 L1431.952,946.87558 C1431.79333,947.164914 1431.57633,947.405247 1431.301,947.59658 C1431.02567,947.787914 1430.678,947.88358 1430.258,947.88358 C1430.04333,947.88358 1429.83333,947.853247 1429.628,947.79258 C1429.42267,947.731914 1429.23367,947.633914 1429.061,947.49858 C1428.88833,947.363247 1428.74367,947.195247 1428.627,946.99458 C1428.51033,946.793914 1428.43333,946.55358 1428.396,946.27358 L1428.396,946.27358 L1433.562,946.27358 C1433.562,946.21758 1433.56667,946.166247 1433.576,946.11958 C1433.576,946.072914 1433.58067,946.02158 1433.59,945.96558 L1433.59,945.96558 L1433.59,945.79758 C1433.59,945.284247 1433.51533,944.808247 1433.366,944.36958 C1433.21667,943.930914 1432.99733,943.55058 1432.708,943.22858 C1432.41867,942.90658 1432.05933,942.65458 1431.63,942.47258 C1431.20067,942.29058 1430.71067,942.19958 1430.16,942.19958 C1429.63733,942.19958 1429.159,942.29758 1428.725,942.49358 C1428.291,942.68958 1427.91533,942.953247 1427.598,943.28458 C1427.28067,943.615914 1427.03333,944.003247 1426.856,944.44658 C1426.67867,944.889914 1426.59,945.358914 1426.59,945.85358 C1426.59,946.38558 1426.681,946.873247 1426.863,947.31658 C1427.045,947.759914 1427.29933,948.144914 1427.626,948.47158 C1427.95267,948.798247 1428.33767,949.05258 1428.781,949.23458 C1429.22433,949.41658 1429.70733,949.50758 1430.23,949.50758 Z M1431.812,944.97158 L1428.494,944.97158 C1428.61533,944.570247 1428.82533,944.25758 1429.124,944.03358 C1429.42267,943.80958 1429.768,943.69758 1430.16,943.69758 C1430.44,943.69758 1430.68033,943.73958 1430.881,943.82358 C1431.08167,943.90758 1431.24967,944.014914 1431.385,944.14558 C1431.52033,944.276247 1431.623,944.416247 1431.693,944.56558 C1431.763,944.714914 1431.80267,944.850247 1431.812,944.97158 L1431.812,944.97158 Z M1436.6,949.28358 L1436.6,939.25958 L1434.766,939.25958 L1434.766,949.28358 L1436.6,949.28358 Z" id="EverythingaboutTravel"></path>
            </g>
        </g>
    </g>
</svg>