<?xml version="1.0" encoding="UTF-8"?>
<svg width="590px" height="123px" viewBox="0 0 590 123" version="1.1" xmlns="http://www.w3.org/2000/svg" xmlns:xlink="http://www.w3.org/1999/xlink">
    <title>SERVICEINTRODUCTION</title>
    <g id="Page-1" stroke="none" stroke-width="1" fill="none" fill-rule="evenodd">
        <g id="Service-Introduction" transform="translate(-398.000000, -492.000000)" fill="#FFFFFF" fill-rule="nonzero" stroke="#FFFFFF" stroke-width="2">
            <g id="section-1-copy">
                <path d="M416.624,541.024 C418.416,541.024 420.250667,540.746667 422.128,540.192 C424.005333,539.637333 425.690667,538.805333 427.184,537.696 C428.677333,536.586667 429.904,535.168 430.864,533.44 C431.824,531.712 432.304,529.653333 432.304,527.264 C432.304,525.344 432.016,523.648 431.44,522.176 C430.864,520.704 430.032,519.392 428.944,518.24 C427.856,517.088 426.554667,516.096 425.04,515.264 C423.525333,514.432 421.850667,513.696 420.016,513.056 L420.016,513.056 L417.136,512.096 C414.533333,511.2 412.634667,510.272 411.44,509.312 C410.245333,508.352 409.648,507.189333 409.648,505.824 C409.648,504.416 410.266667,503.274667 411.504,502.4 C412.741333,501.525333 414.298667,501.088 416.176,501.088 C418.138667,501.088 419.685333,501.6 420.816,502.624 C421.946667,503.648 422.725333,504.8 423.152,506.08 L423.152,506.08 L430.768,502.88 C430.426667,501.856 429.893333,500.768 429.168,499.616 C428.442667,498.464 427.493333,497.408 426.32,496.448 C425.146667,495.488 423.717333,494.698667 422.032,494.08 C420.346667,493.461333 418.352,493.152 416.048,493.152 C413.829333,493.152 411.813333,493.482667 410,494.144 C408.186667,494.805333 406.629333,495.722667 405.328,496.896 C404.026667,498.069333 403.024,499.434667 402.32,500.992 C401.616,502.549333 401.264,504.224 401.264,506.016 C401.264,507.765333 401.594667,509.333333 402.256,510.72 C402.917333,512.106667 403.76,513.312 404.784,514.336 C405.808,515.36 406.949333,516.234667 408.208,516.96 C409.466667,517.685333 410.714667,518.261333 411.952,518.688 L411.952,518.688 L414.768,519.712 C416.432,520.309333 417.829333,520.885333 418.96,521.44 C420.090667,521.994667 421.008,522.570667 421.712,523.168 C422.416,523.765333 422.917333,524.405333 423.216,525.088 C423.514667,525.770667 423.664,526.538667 423.664,527.392 C423.664,528.288 423.472,529.077333 423.088,529.76 C422.704,530.442667 422.181333,531.008 421.52,531.456 C420.858667,531.904 420.112,532.245333 419.28,532.48 C418.448,532.714667 417.584,532.832 416.688,532.832 C414.256,532.832 412.293333,532.074667 410.8,530.56 C409.306667,529.045333 408.261333,527.136 407.664,524.832 L407.664,524.832 L399.536,528.032 C400.176,530.165333 401.050667,532.032 402.16,533.632 C403.269333,535.232 404.570667,536.586667 406.064,537.696 C407.557333,538.805333 409.2,539.637333 410.992,540.192 C412.784,540.746667 414.661333,541.024 416.624,541.024 Z M478.464,540 L478.464,531.808 L458.048,531.808 L458.048,521.184 L476.416,521.184 L476.416,512.992 L458.048,512.992 L458.048,502.368 L478.464,502.368 L478.464,494.176 L449.408,494.176 L449.408,540 L478.464,540 Z M505.04,540 L505.04,523.168 L510.608,523.168 L518.608,540 L528.272,540 L528.272,539.424 L519.824,521.568 C521.061333,521.013333 522.32,520.202667 523.6,519.136 C524.965333,517.898667 526.074667,516.362667 526.928,514.528 C527.738667,512.693333 528.144,510.730667 528.144,508.64 C528.144,506.592 527.738667,504.629333 526.928,502.752 C526.074667,500.96 524.965333,499.445333 523.6,498.208 C522.234667,496.970667 520.570667,495.989333 518.608,495.264 C516.645333,494.538667 514.618667,494.176 512.528,494.176 L512.528,494.176 L496.4,494.176 L496.4,540 L505.04,540 Z M512.656,514.976 L505.04,514.976 L505.04,502.368 L512.656,502.368 C513.722667,502.368 514.725333,502.538667 515.664,502.88 C516.517333,503.221333 517.221333,503.669333 517.776,504.224 C518.373333,504.821333 518.8,505.504 519.056,506.272 C519.354667,507.168 519.504,507.957333 519.504,508.64 C519.504,510.304 518.928,511.776 517.776,513.056 C516.624,514.336 514.917333,514.976 512.656,514.976 L512.656,514.976 Z M567.52,540 L584.224,494.176 L574.88,494.176 L565.024,521.76 L563.232,527.648 L562.72,527.648 L561.056,521.76 L551.584,494.176 L542.24,494.176 L558.432,540 L567.52,540 Z M608.24,540 L608.24,494.176 L599.6,494.176 L599.6,540 L608.24,540 Z M649.216,541.024 C653.013333,541.024 656.448,540.309333 659.52,538.88 C662.592,537.450667 665.258667,535.370667 667.52,532.64 L667.52,532.64 L661.376,526.816 C659.84,528.736 658.08,530.218667 656.096,531.264 C654.112,532.309333 651.84,532.832 649.28,532.832 C647.146667,532.832 645.141333,532.458667 643.264,531.712 C641.386667,530.965333 639.754667,529.909333 638.368,528.544 C636.981333,527.178667 635.882667,525.525333 635.072,523.584 C634.261333,521.642667 633.856,519.477333 633.856,517.088 C633.856,514.698667 634.261333,512.533333 635.072,510.592 C635.882667,508.650667 636.981333,506.997333 638.368,505.632 C639.754667,504.266667 641.386667,503.210667 643.264,502.464 C645.141333,501.717333 647.146667,501.344 649.28,501.344 C651.712,501.344 653.813333,501.813333 655.584,502.752 C657.354667,503.690667 658.922667,504.949333 660.288,506.528 L660.288,506.528 L666.368,500.64 C664.192,498.208 661.706667,496.352 658.912,495.072 C656.117333,493.792 652.885333,493.152 649.216,493.152 C645.802667,493.152 642.634667,493.770667 639.712,495.008 C636.789333,496.245333 634.261333,497.930667 632.128,500.064 C629.994667,502.197333 628.309333,504.725333 627.072,507.648 C625.834667,510.570667 625.216,513.717333 625.216,517.088 C625.216,520.458667 625.834667,523.605333 627.072,526.528 C628.309333,529.450667 629.994667,531.978667 632.128,534.112 C634.261333,536.245333 636.789333,537.930667 639.712,539.168 C642.634667,540.405333 645.802667,541.024 649.216,541.024 Z M713.488,540 L713.488,531.808 L693.072,531.808 L693.072,521.184 L711.44,521.184 L711.44,512.992 L693.072,512.992 L693.072,502.368 L713.488,502.368 L713.488,494.176 L684.432,494.176 L684.432,540 L713.488,540 Z M411.248,612 L411.248,566.176 L402.608,566.176 L402.608,612 L411.248,612 Z M438.976,612 L438.976,580.512 L439.488,580.512 L458.432,612 L467.52,612 L467.52,566.176 L458.944,566.176 L458.944,596.064 L458.368,596.064 L440.512,566.176 L430.464,566.176 L430.464,612 L438.976,612 Z M505.104,612 L505.104,574.368 L517.904,574.368 L517.904,566.176 L483.664,566.176 L483.664,574.368 L496.464,574.368 L496.464,612 L505.104,612 Z M542.688,612 L542.688,595.168 L548.256,595.168 L556.256,612 L565.92,612 L565.92,611.424 L557.472,593.568 C558.709333,593.013333 559.968,592.202667 561.248,591.136 C562.613333,589.898667 563.722667,588.362667 564.576,586.528 C565.386667,584.693333 565.792,582.730667 565.792,580.64 C565.792,578.592 565.386667,576.629333 564.576,574.752 C563.722667,572.96 562.613333,571.445333 561.248,570.208 C559.882667,568.970667 558.218667,567.989333 556.256,567.264 C554.293333,566.538667 552.266667,566.176 550.176,566.176 L550.176,566.176 L534.048,566.176 L534.048,612 L542.688,612 Z M550.304,586.976 L542.688,586.976 L542.688,574.368 L550.304,574.368 C551.370667,574.368 552.373333,574.538667 553.312,574.88 C554.165333,575.221333 554.869333,575.669333 555.424,576.224 C556.021333,576.821333 556.448,577.504 556.704,578.272 C557.002667,579.168 557.152,579.957333 557.152,580.64 C557.152,582.304 556.576,583.776 555.424,585.056 C554.272,586.336 552.565333,586.976 550.304,586.976 L550.304,586.976 Z M605.424,613.024 C608.837333,613.024 612.005333,612.405333 614.928,611.168 C617.850667,609.930667 620.378667,608.234667 622.512,606.08 C624.645333,603.925333 626.32,601.386667 627.536,598.464 C628.752,595.541333 629.36,592.416 629.36,589.088 C629.36,585.76 628.752,582.634667 627.536,579.712 C626.32,576.789333 624.645333,574.250667 622.512,572.096 C620.378667,569.941333 617.850667,568.245333 614.928,567.008 C612.005333,565.770667 608.837333,565.152 605.424,565.152 C602.010667,565.152 598.842667,565.770667 595.92,567.008 C592.997333,568.245333 590.469333,569.941333 588.336,572.096 C586.202667,574.250667 584.528,576.789333 583.312,579.712 C582.096,582.634667 581.488,585.76 581.488,589.088 C581.488,592.416 582.096,595.541333 583.312,598.464 C584.528,601.386667 586.202667,603.925333 588.336,606.08 C590.469333,608.234667 592.997333,609.930667 595.92,611.168 C598.842667,612.405333 602.010667,613.024 605.424,613.024 Z M605.424,604.832 C603.290667,604.832 601.296,604.448 599.44,603.68 C597.584,602.912 595.962667,601.845333 594.576,600.48 C593.189333,599.114667 592.101333,597.461333 591.312,595.52 C590.522667,593.578667 590.128,591.434667 590.128,589.088 C590.128,586.741333 590.522667,584.597333 591.312,582.656 C592.101333,580.714667 593.189333,579.061333 594.576,577.696 C595.962667,576.330667 597.584,575.264 599.44,574.496 C601.296,573.728 603.290667,573.344 605.424,573.344 C607.557333,573.344 609.552,573.728 611.408,574.496 C613.264,575.264 614.885333,576.330667 616.272,577.696 C617.658667,579.061333 618.746667,580.714667 619.536,582.656 C620.325333,584.597333 620.72,586.741333 620.72,589.088 C620.72,591.434667 620.325333,593.578667 619.536,595.52 C618.746667,597.461333 617.658667,599.114667 616.272,600.48 C614.885333,601.845333 613.264,602.912 611.408,603.68 C609.552,604.448 607.557333,604.832 605.424,604.832 Z M661.824,612 C665.450667,612 668.714667,611.445333 671.616,610.336 C674.517333,609.226667 676.992,607.669333 679.04,605.664 C681.088,603.658667 682.656,601.248 683.744,598.432 C684.832,595.616 685.376,592.501333 685.376,589.088 C685.376,585.717333 684.832,582.624 683.744,579.808 C682.656,576.992 681.088,574.570667 679.04,572.544 C676.992,570.517333 674.517333,568.949333 671.616,567.84 C668.714667,566.730667 665.450667,566.176 661.824,566.176 L661.824,566.176 L646.336,566.176 L646.336,612 L661.824,612 Z M661.44,603.808 L654.976,603.808 L654.976,574.368 L661.44,574.368 C663.957333,574.368 666.176,574.72 668.096,575.424 C670.016,576.128 671.616,577.12 672.896,578.4 C674.176,579.68 675.136,581.226667 675.776,583.04 C676.416,584.853333 676.736,586.869333 676.736,589.088 C676.736,591.306667 676.416,593.322667 675.776,595.136 C675.136,596.949333 674.176,598.496 672.896,599.776 C671.616,601.056 670.016,602.048 668.096,602.752 C666.176,603.456 663.957333,603.808 661.44,603.808 L661.44,603.808 Z M719.12,613.024 C721.850667,613.024 724.314667,612.554667 726.512,611.616 C728.709333,610.677333 730.586667,609.365333 732.144,607.68 C733.701333,605.994667 734.896,603.968 735.728,601.6 C736.56,599.232 736.976,596.618667 736.976,593.76 L736.976,593.76 L736.976,566.176 L728.336,566.176 L728.336,594.272 C728.336,595.808 728.144,597.216 727.76,598.496 C727.376,599.776 726.8,600.885333 726.032,601.824 C725.264,602.762667 724.304,603.498667 723.152,604.032 C722,604.565333 720.656,604.832 719.12,604.832 C717.626667,604.832 716.304,604.565333 715.152,604.032 C714,603.498667 713.04,602.762667 712.272,601.824 C711.504,600.885333 710.928,599.776 710.544,598.496 C710.16,597.216 709.968,595.808 709.968,594.272 L709.968,594.272 L709.968,566.176 L701.328,566.176 L701.328,593.76 C701.328,596.789333 701.754667,599.488 702.608,601.856 C703.461333,604.224 704.656,606.24 706.192,607.904 C707.728,609.568 709.594667,610.837333 711.792,611.712 C713.989333,612.586667 716.432,613.024 719.12,613.024 Z M776.928,613.024 C780.725333,613.024 784.16,612.309333 787.232,610.88 C790.304,609.450667 792.970667,607.370667 795.232,604.64 L795.232,604.64 L789.088,598.816 C787.552,600.736 785.792,602.218667 783.808,603.264 C781.824,604.309333 779.552,604.832 776.992,604.832 C774.858667,604.832 772.853333,604.458667 770.976,603.712 C769.098667,602.965333 767.466667,601.909333 766.08,600.544 C764.693333,599.178667 763.594667,597.525333 762.784,595.584 C761.973333,593.642667 761.568,591.477333 761.568,589.088 C761.568,586.698667 761.973333,584.533333 762.784,582.592 C763.594667,580.650667 764.693333,578.997333 766.08,577.632 C767.466667,576.266667 769.098667,575.210667 770.976,574.464 C772.853333,573.717333 774.858667,573.344 776.992,573.344 C779.424,573.344 781.525333,573.813333 783.296,574.752 C785.066667,575.690667 786.634667,576.949333 788,578.528 L788,578.528 L794.08,572.64 C791.904,570.208 789.418667,568.352 786.624,567.072 C783.829333,565.792 780.597333,565.152 776.928,565.152 C773.514667,565.152 770.346667,565.770667 767.424,567.008 C764.501333,568.245333 761.973333,569.930667 759.84,572.064 C757.706667,574.197333 756.021333,576.725333 754.784,579.648 C753.546667,582.570667 752.928,585.717333 752.928,589.088 C752.928,592.458667 753.546667,595.605333 754.784,598.528 C756.021333,601.450667 757.706667,603.978667 759.84,606.112 C761.973333,608.245333 764.501333,609.930667 767.424,611.168 C770.346667,612.405333 773.514667,613.024 776.928,613.024 Z M830.512,612 L830.512,574.368 L843.312,574.368 L843.312,566.176 L809.072,566.176 L809.072,574.368 L821.872,574.368 L821.872,612 L830.512,612 Z M868.096,612 L868.096,566.176 L859.456,566.176 L859.456,612 L868.096,612 Z M909.008,613.024 C912.421333,613.024 915.589333,612.405333 918.512,611.168 C921.434667,609.930667 923.962667,608.234667 926.096,606.08 C928.229333,603.925333 929.904,601.386667 931.12,598.464 C932.336,595.541333 932.944,592.416 932.944,589.088 C932.944,585.76 932.336,582.634667 931.12,579.712 C929.904,576.789333 928.229333,574.250667 926.096,572.096 C923.962667,569.941333 921.434667,568.245333 918.512,567.008 C915.589333,565.770667 912.421333,565.152 909.008,565.152 C905.594667,565.152 902.426667,565.770667 899.504,567.008 C896.581333,568.245333 894.053333,569.941333 891.92,572.096 C889.786667,574.250667 888.112,576.789333 886.896,579.712 C885.68,582.634667 885.072,585.76 885.072,589.088 C885.072,592.416 885.68,595.541333 886.896,598.464 C888.112,601.386667 889.786667,603.925333 891.92,606.08 C894.053333,608.234667 896.581333,609.930667 899.504,611.168 C902.426667,612.405333 905.594667,613.024 909.008,613.024 Z M909.008,604.832 C906.874667,604.832 904.88,604.448 903.024,603.68 C901.168,602.912 899.546667,601.845333 898.16,600.48 C896.773333,599.114667 895.685333,597.461333 894.896,595.52 C894.106667,593.578667 893.712,591.434667 893.712,589.088 C893.712,586.741333 894.106667,584.597333 894.896,582.656 C895.685333,580.714667 896.773333,579.061333 898.16,577.696 C899.546667,576.330667 901.168,575.264 903.024,574.496 C904.88,573.728 906.874667,573.344 909.008,573.344 C911.141333,573.344 913.136,573.728 914.992,574.496 C916.848,575.264 918.469333,576.330667 919.856,577.696 C921.242667,579.061333 922.330667,580.714667 923.12,582.656 C923.909333,584.597333 924.304,586.741333 924.304,589.088 C924.304,591.434667 923.909333,593.578667 923.12,595.52 C922.330667,597.461333 921.242667,599.114667 919.856,600.48 C918.469333,601.845333 916.848,602.912 914.992,603.68 C913.136,604.448 911.141333,604.832 909.008,604.832 Z M958.432,612 L958.432,580.512 L958.944,580.512 L977.888,612 L986.976,612 L986.976,566.176 L978.4,566.176 L978.4,596.064 L977.824,596.064 L959.968,566.176 L949.92,566.176 L949.92,612 L958.432,612 Z" id="SERVICEINTRODUCTION"></path>
            </g>
        </g>
    </g>
</svg>