<?xml version="1.0" encoding="UTF-8"?>
<svg width="478px" height="95px" viewBox="0 0 478 95" version="1.1" xmlns="http://www.w3.org/2000/svg" xmlns:xlink="http://www.w3.org/1999/xlink">
    <title>ThebeginningofTravelFlights</title>
    <g id="Page-1" stroke="none" stroke-width="1" fill="none" fill-rule="evenodd" fill-opacity="0.87">
        <g id="Service-Introduction" transform="translate(-972.000000, -6490.000000)" fill="#000000" fill-rule="nonzero">
            <g id="section-5-2" transform="translate(0.000000, 5935.000000)">
                <path d="M986.36,584 L986.36,560.48 L994.36,560.48 L994.36,555.36 L972.96,555.36 L972.96,560.48 L980.96,560.48 L980.96,584 L986.36,584 Z M1004.76,584 L1004.76,572.88 C1004.76,572.24 1004.97333,571.646667 1005.4,571.1 C1005.82667,570.553333 1006.37333,570.113333 1007.04,569.78 C1007.70667,569.446667 1008.37333,569.266667 1009.04,569.24 C1010.05333,569.266667 1010.98667,569.64 1011.84,570.36 C1012.69333,571.08 1013.12,571.92 1013.12,572.88 L1013.12,584 L1018.28,584 L1018.28,572.88 C1018.28,571.28 1017.88,569.8 1017.08,568.44 C1016.28,567.08 1015.20667,566 1013.86,565.2 C1012.51333,564.4 1011.04,564 1009.44,564 C1007.78667,564 1006.22667,564.426667 1004.76,565.28 L1004.76,555.36 L999.56,555.36 L999.56,584 L1004.76,584 Z M1033.8,584.64 C1036.01333,584.64 1037.88667,584.146667 1039.42,583.16 C1040.95333,582.173333 1042.17333,580.88 1043.08,579.28 L1043.08,579.28 L1038.72,577.12 C1038.26667,577.946667 1037.64667,578.633333 1036.86,579.18 C1036.07333,579.726667 1035.08,580 1033.88,580 C1033.26667,580 1032.66667,579.913333 1032.08,579.74 C1031.49333,579.566667 1030.95333,579.286667 1030.46,578.9 C1029.96667,578.513333 1029.55333,578.033333 1029.22,577.46 C1028.88667,576.886667 1028.66667,576.2 1028.56,575.4 L1028.56,575.4 L1043.32,575.4 C1043.32,575.24 1043.33333,575.093333 1043.36,574.96 C1043.36,574.826667 1043.37333,574.68 1043.4,574.52 L1043.4,574.52 L1043.4,574.04 C1043.4,572.573333 1043.18667,571.213333 1042.76,569.96 C1042.33333,568.706667 1041.70667,567.62 1040.88,566.7 C1040.05333,565.78 1039.02667,565.06 1037.8,564.54 C1036.57333,564.02 1035.17333,563.76 1033.6,563.76 C1032.10667,563.76 1030.74,564.04 1029.5,564.6 C1028.26,565.16 1027.18667,565.913333 1026.28,566.86 C1025.37333,567.806667 1024.66667,568.913333 1024.16,570.18 C1023.65333,571.446667 1023.4,572.786667 1023.4,574.2 C1023.4,575.72 1023.66,577.113333 1024.18,578.38 C1024.7,579.646667 1025.42667,580.746667 1026.36,581.68 C1027.29333,582.613333 1028.39333,583.34 1029.66,583.86 C1030.92667,584.38 1032.30667,584.64 1033.8,584.64 Z M1038.32,571.68 L1028.84,571.68 C1029.18667,570.533333 1029.78667,569.64 1030.64,569 C1031.49333,568.36 1032.48,568.04 1033.6,568.04 C1034.4,568.04 1035.08667,568.16 1035.66,568.4 C1036.23333,568.64 1036.71333,568.946667 1037.1,569.32 C1037.48667,569.693333 1037.78,570.093333 1037.98,570.52 C1038.18,570.946667 1038.29333,571.333333 1038.32,571.68 L1038.32,571.68 Z M1069.76,584.6 C1071.62667,584.6 1073.36,584.133333 1074.96,583.2 C1076.56,582.266667 1077.83333,581.006667 1078.78,579.42 C1079.72667,577.833333 1080.2,576.093333 1080.2,574.2 C1080.2,572.306667 1079.72667,570.56 1078.78,568.96 C1077.83333,567.36 1076.56,566.093333 1074.96,565.16 C1073.36,564.226667 1071.62667,563.76 1069.76,563.76 C1068.66667,563.76 1067.61333,563.926667 1066.6,564.26 C1065.58667,564.593333 1064.73333,565.066667 1064.04,565.68 L1064.04,565.68 L1064.04,555.36 L1058.92,555.36 L1058.92,584 L1064.04,584 L1064.04,582.72 C1065.69333,583.973333 1067.6,584.6 1069.76,584.6 Z M1069.76,580.08 C1068.69333,580.08 1067.70667,579.813333 1066.8,579.28 C1065.89333,578.746667 1065.17333,578.026667 1064.64,577.12 C1064.10667,576.213333 1063.84,575.226667 1063.84,574.16 C1063.84,573.093333 1064.10667,572.106667 1064.64,571.2 C1065.17333,570.293333 1065.89333,569.573333 1066.8,569.04 C1067.70667,568.506667 1068.69333,568.24 1069.76,568.24 C1070.82667,568.24 1071.81333,568.506667 1072.72,569.04 C1073.62667,569.573333 1074.34667,570.293333 1074.88,571.2 C1075.41333,572.106667 1075.68,573.093333 1075.68,574.16 C1075.68,575.226667 1075.41333,576.213333 1074.88,577.12 C1074.34667,578.026667 1073.62667,578.746667 1072.72,579.28 C1071.81333,579.813333 1070.82667,580.08 1069.76,580.08 Z M1094.84,584.64 C1097.05333,584.64 1098.92667,584.146667 1100.46,583.16 C1101.99333,582.173333 1103.21333,580.88 1104.12,579.28 L1104.12,579.28 L1099.76,577.12 C1099.30667,577.946667 1098.68667,578.633333 1097.9,579.18 C1097.11333,579.726667 1096.12,580 1094.92,580 C1094.30667,580 1093.70667,579.913333 1093.12,579.74 C1092.53333,579.566667 1091.99333,579.286667 1091.5,578.9 C1091.00667,578.513333 1090.59333,578.033333 1090.26,577.46 C1089.92667,576.886667 1089.70667,576.2 1089.6,575.4 L1089.6,575.4 L1104.36,575.4 C1104.36,575.24 1104.37333,575.093333 1104.4,574.96 C1104.4,574.826667 1104.41333,574.68 1104.44,574.52 L1104.44,574.52 L1104.44,574.04 C1104.44,572.573333 1104.22667,571.213333 1103.8,569.96 C1103.37333,568.706667 1102.74667,567.62 1101.92,566.7 C1101.09333,565.78 1100.06667,565.06 1098.84,564.54 C1097.61333,564.02 1096.21333,563.76 1094.64,563.76 C1093.14667,563.76 1091.78,564.04 1090.54,564.6 C1089.3,565.16 1088.22667,565.913333 1087.32,566.86 C1086.41333,567.806667 1085.70667,568.913333 1085.2,570.18 C1084.69333,571.446667 1084.44,572.786667 1084.44,574.2 C1084.44,575.72 1084.7,577.113333 1085.22,578.38 C1085.74,579.646667 1086.46667,580.746667 1087.4,581.68 C1088.33333,582.613333 1089.43333,583.34 1090.7,583.86 C1091.96667,584.38 1093.34667,584.64 1094.84,584.64 Z M1099.36,571.68 L1089.88,571.68 C1090.22667,570.533333 1090.82667,569.64 1091.68,569 C1092.53333,568.36 1093.52,568.04 1094.64,568.04 C1095.44,568.04 1096.12667,568.16 1096.7,568.4 C1097.27333,568.64 1097.75333,568.946667 1098.14,569.32 C1098.52667,569.693333 1098.82,570.093333 1099.02,570.52 C1099.22,570.946667 1099.33333,571.333333 1099.36,571.68 L1099.36,571.68 Z M1119.48,593.36 C1121,593.36 1122.4,593.12 1123.68,592.64 C1124.96,592.106667 1126.04,591.4 1126.92,590.52 C1127.82667,589.586667 1128.53333,588.466667 1129.04,587.16 C1129.54667,585.773333 1129.8,584.293333 1129.8,582.72 L1129.8,582.72 L1129.8,564.4 L1124.8,564.4 L1124.8,565.4 C1123.12,564.306667 1121.26667,563.76 1119.24,563.76 C1117.4,563.76 1115.7,564.22 1114.14,565.14 C1112.58,566.06 1111.34,567.3 1110.42,568.86 C1109.5,570.42 1109.04,572.12 1109.04,573.96 C1109.04,575.8 1109.5,577.5 1110.42,579.06 C1111.34,580.62 1112.58,581.86 1114.14,582.78 C1115.7,583.7 1117.4,584.16 1119.24,584.16 C1121.26667,584.16 1123.12,583.613333 1124.8,582.52 C1124.8,583.48 1124.68,584.36 1124.44,585.16 C1124.2,585.96 1123.84,586.613333 1123.36,587.12 C1122.4,588.213333 1121.10667,588.76 1119.48,588.76 C1118.46667,588.76 1117.52,588.466667 1116.64,587.88 C1116.21333,587.613333 1115.85333,587.266667 1115.56,586.84 C1115.42667,586.706667 1115.32,586.56 1115.24,586.4 L1115.24,586.4 L1110.28,588.52 C1110.54667,588.946667 1110.78667,589.28 1111,589.52 C1111.48,590.186667 1112.13333,590.826667 1112.96,591.44 C1113.78667,592.026667 1114.73333,592.493333 1115.8,592.84 C1116.81333,593.186667 1118.04,593.36 1119.48,593.36 Z M1119.24,579.8 C1118.25333,579.8 1117.30667,579.526667 1116.4,578.98 C1115.49333,578.433333 1114.76667,577.706667 1114.22,576.8 C1113.67333,575.893333 1113.4,574.946667 1113.4,573.96 C1113.4,572.973333 1113.66667,572.026667 1114.2,571.12 C1114.73333,570.213333 1115.45333,569.486667 1116.36,568.94 C1117.26667,568.393333 1118.22667,568.12 1119.24,568.12 C1119.50667,568.12 1119.73333,568.133333 1119.92,568.16 C1120.10667,568.186667 1120.25333,568.213333 1120.36,568.24 C1121.45333,568.48 1122.43333,569.033333 1123.3,569.9 C1124.16667,570.766667 1124.72,571.746667 1124.96,572.84 C1124.98667,572.946667 1125.01333,573.093333 1125.04,573.28 C1125.06667,573.466667 1125.08,573.693333 1125.08,573.96 C1125.08,574.946667 1124.80667,575.893333 1124.26,576.8 C1123.71333,577.706667 1122.98667,578.433333 1122.08,578.98 C1121.17333,579.526667 1120.22667,579.8 1119.24,579.8 Z M1141.24,560.6 L1141.24,555.36 L1136,555.36 L1136,560.6 L1141.24,560.6 Z M1141.24,584 L1141.24,564.4 L1136,564.4 L1136,584 L1141.24,584 Z M1153.28,584 L1153.28,574.4 C1153.28,573.6 1153.38,572.846667 1153.58,572.14 C1153.78,571.433333 1154.07333,570.82 1154.46,570.3 C1154.84667,569.78 1155.31333,569.366667 1155.86,569.06 C1156.40667,568.753333 1157.04,568.6 1157.76,568.6 C1158.96,568.6 1159.87333,568.94 1160.5,569.62 C1161.12667,570.3 1161.44,571.346667 1161.44,572.76 L1161.44,572.76 L1161.44,584 L1166.68,584 L1166.68,572.12 C1166.68,570.866667 1166.52667,569.726667 1166.22,568.7 C1165.91333,567.673333 1165.46,566.793333 1164.86,566.06 C1164.26,565.326667 1163.49333,564.76 1162.56,564.36 C1161.62667,563.96 1160.54667,563.76 1159.32,563.76 C1157.98667,563.76 1156.8,564.046667 1155.76,564.62 C1154.72,565.193333 1153.89333,565.973333 1153.28,566.96 L1153.28,566.96 L1152.96,566.96 L1152.96,564.4 L1148.04,564.4 L1148.04,584 L1153.28,584 Z M1178.24,584 L1178.24,574.4 C1178.24,573.6 1178.34,572.846667 1178.54,572.14 C1178.74,571.433333 1179.03333,570.82 1179.42,570.3 C1179.80667,569.78 1180.27333,569.366667 1180.82,569.06 C1181.36667,568.753333 1182,568.6 1182.72,568.6 C1183.92,568.6 1184.83333,568.94 1185.46,569.62 C1186.08667,570.3 1186.4,571.346667 1186.4,572.76 L1186.4,572.76 L1186.4,584 L1191.64,584 L1191.64,572.12 C1191.64,570.866667 1191.48667,569.726667 1191.18,568.7 C1190.87333,567.673333 1190.42,566.793333 1189.82,566.06 C1189.22,565.326667 1188.45333,564.76 1187.52,564.36 C1186.58667,563.96 1185.50667,563.76 1184.28,563.76 C1182.94667,563.76 1181.76,564.046667 1180.72,564.62 C1179.68,565.193333 1178.85333,565.973333 1178.24,566.96 L1178.24,566.96 L1177.92,566.96 L1177.92,564.4 L1173,564.4 L1173,584 L1178.24,584 Z M1203.52,560.6 L1203.52,555.36 L1198.28,555.36 L1198.28,560.6 L1203.52,560.6 Z M1203.52,584 L1203.52,564.4 L1198.28,564.4 L1198.28,584 L1203.52,584 Z M1215.56,584 L1215.56,574.4 C1215.56,573.6 1215.66,572.846667 1215.86,572.14 C1216.06,571.433333 1216.35333,570.82 1216.74,570.3 C1217.12667,569.78 1217.59333,569.366667 1218.14,569.06 C1218.68667,568.753333 1219.32,568.6 1220.04,568.6 C1221.24,568.6 1222.15333,568.94 1222.78,569.62 C1223.40667,570.3 1223.72,571.346667 1223.72,572.76 L1223.72,572.76 L1223.72,584 L1228.96,584 L1228.96,572.12 C1228.96,570.866667 1228.80667,569.726667 1228.5,568.7 C1228.19333,567.673333 1227.74,566.793333 1227.14,566.06 C1226.54,565.326667 1225.77333,564.76 1224.84,564.36 C1223.90667,563.96 1222.82667,563.76 1221.6,563.76 C1220.26667,563.76 1219.08,564.046667 1218.04,564.62 C1217,565.193333 1216.17333,565.973333 1215.56,566.96 L1215.56,566.96 L1215.24,566.96 L1215.24,564.4 L1210.32,564.4 L1210.32,584 L1215.56,584 Z M1244.96,593.36 C1246.48,593.36 1247.88,593.12 1249.16,592.64 C1250.44,592.106667 1251.52,591.4 1252.4,590.52 C1253.30667,589.586667 1254.01333,588.466667 1254.52,587.16 C1255.02667,585.773333 1255.28,584.293333 1255.28,582.72 L1255.28,582.72 L1255.28,564.4 L1250.28,564.4 L1250.28,565.4 C1248.6,564.306667 1246.74667,563.76 1244.72,563.76 C1242.88,563.76 1241.18,564.22 1239.62,565.14 C1238.06,566.06 1236.82,567.3 1235.9,568.86 C1234.98,570.42 1234.52,572.12 1234.52,573.96 C1234.52,575.8 1234.98,577.5 1235.9,579.06 C1236.82,580.62 1238.06,581.86 1239.62,582.78 C1241.18,583.7 1242.88,584.16 1244.72,584.16 C1246.74667,584.16 1248.6,583.613333 1250.28,582.52 C1250.28,583.48 1250.16,584.36 1249.92,585.16 C1249.68,585.96 1249.32,586.613333 1248.84,587.12 C1247.88,588.213333 1246.58667,588.76 1244.96,588.76 C1243.94667,588.76 1243,588.466667 1242.12,587.88 C1241.69333,587.613333 1241.33333,587.266667 1241.04,586.84 C1240.90667,586.706667 1240.8,586.56 1240.72,586.4 L1240.72,586.4 L1235.76,588.52 C1236.02667,588.946667 1236.26667,589.28 1236.48,589.52 C1236.96,590.186667 1237.61333,590.826667 1238.44,591.44 C1239.26667,592.026667 1240.21333,592.493333 1241.28,592.84 C1242.29333,593.186667 1243.52,593.36 1244.96,593.36 Z M1244.72,579.8 C1243.73333,579.8 1242.78667,579.526667 1241.88,578.98 C1240.97333,578.433333 1240.24667,577.706667 1239.7,576.8 C1239.15333,575.893333 1238.88,574.946667 1238.88,573.96 C1238.88,572.973333 1239.14667,572.026667 1239.68,571.12 C1240.21333,570.213333 1240.93333,569.486667 1241.84,568.94 C1242.74667,568.393333 1243.70667,568.12 1244.72,568.12 C1244.98667,568.12 1245.21333,568.133333 1245.4,568.16 C1245.58667,568.186667 1245.73333,568.213333 1245.84,568.24 C1246.93333,568.48 1247.91333,569.033333 1248.78,569.9 C1249.64667,570.766667 1250.2,571.746667 1250.44,572.84 C1250.46667,572.946667 1250.49333,573.093333 1250.52,573.28 C1250.54667,573.466667 1250.56,573.693333 1250.56,573.96 C1250.56,574.946667 1250.28667,575.893333 1249.74,576.8 C1249.19333,577.706667 1248.46667,578.433333 1247.56,578.98 C1246.65333,579.526667 1245.70667,579.8 1244.72,579.8 Z M1281.24,584.64 C1283.10667,584.64 1284.84,584.173333 1286.44,583.24 C1288.04,582.306667 1289.31333,581.046667 1290.26,579.46 C1291.20667,577.873333 1291.68,576.133333 1291.68,574.24 C1291.68,572.346667 1291.20667,570.593333 1290.26,568.98 C1289.31333,567.366667 1288.04,566.093333 1286.44,565.16 C1284.84,564.226667 1283.10667,563.76 1281.24,563.76 C1279.34667,563.76 1277.6,564.226667 1276,565.16 C1274.4,566.093333 1273.13333,567.366667 1272.2,568.98 C1271.26667,570.593333 1270.8,572.346667 1270.8,574.24 C1270.8,576.133333 1271.26667,577.873333 1272.2,579.46 C1273.13333,581.046667 1274.4,582.306667 1276,583.24 C1277.6,584.173333 1279.34667,584.64 1281.24,584.64 Z M1281.24,579.92 C1280.2,579.92 1279.24,579.666667 1278.36,579.16 C1277.48,578.653333 1276.78667,577.96 1276.28,577.08 C1275.77333,576.2 1275.52,575.253333 1275.52,574.24 C1275.52,573.2 1275.77333,572.24 1276.28,571.36 C1276.78667,570.48 1277.48,569.786667 1278.36,569.28 C1279.24,568.773333 1280.2,568.52 1281.24,568.52 C1282.28,568.52 1283.23333,568.773333 1284.1,569.28 C1284.96667,569.786667 1285.65333,570.48 1286.16,571.36 C1286.66667,572.24 1286.92,573.2 1286.92,574.24 C1286.92,575.253333 1286.66667,576.2 1286.16,577.08 C1285.65333,577.96 1284.96667,578.653333 1284.1,579.16 C1283.23333,579.666667 1282.28,579.92 1281.24,579.92 Z M1304.48,584 L1304.48,568.88 L1309.36,568.88 L1309.36,564.4 L1304.48,564.4 L1304.48,562.8 C1304.48,561.92 1304.70667,561.233333 1305.16,560.74 C1305.61333,560.246667 1306.22667,560 1307,560 C1307.45333,560 1307.83333,560.04 1308.14,560.12 C1308.44667,560.2 1308.73333,560.306667 1309,560.44 L1309,560.44 L1310.48,555.76 C1309.97333,555.546667 1309.4,555.373333 1308.76,555.24 C1308.12,555.106667 1307.42667,555.04 1306.68,555.04 C1305.58667,555.04 1304.58667,555.206667 1303.68,555.54 C1302.77333,555.873333 1301.98667,556.353333 1301.32,556.98 C1300.65333,557.606667 1300.14,558.38 1299.78,559.3 C1299.42,560.22 1299.24,561.28 1299.24,562.48 L1299.24,562.48 L1299.24,564.4 L1295.72,564.4 L1295.72,568.88 L1299.24,568.88 L1299.24,584 L1304.48,584 Z M1337.8,584 L1337.8,560.48 L1345.8,560.48 L1345.8,555.36 L1324.4,555.36 L1324.4,560.48 L1332.4,560.48 L1332.4,584 L1337.8,584 Z M1356.72,584 L1356.72,576.24 C1356.72,574.826667 1357,573.48 1357.56,572.2 C1358.01333,571.213333 1358.63333,570.386667 1359.42,569.72 C1360.20667,569.053333 1361.2,568.72 1362.4,568.72 C1362.85333,568.72 1363.38667,568.786667 1364,568.92 L1364,568.92 L1364,564.32 C1363.62667,564.213333 1363.34667,564.146667 1363.16,564.12 C1362.78667,564.066667 1362.50667,564.04 1362.32,564.04 C1361.06667,564.04 1359.94667,564.346667 1358.96,564.96 C1357.97333,565.573333 1357.22667,566.413333 1356.72,567.48 L1356.72,567.48 L1356.72,564.44 L1351.56,564.44 L1351.56,584 L1356.72,584 Z M1378.6,584.6 C1380.76,584.6 1382.66667,583.973333 1384.32,582.72 L1384.32,582.72 L1384.32,584 L1389.44,584 L1389.44,564.4 L1384.32,564.4 L1384.32,565.68 C1383.62667,565.066667 1382.77333,564.593333 1381.76,564.26 C1380.74667,563.926667 1379.69333,563.76 1378.6,563.76 C1376.73333,563.76 1375,564.226667 1373.4,565.16 C1371.8,566.093333 1370.52667,567.36 1369.58,568.96 C1368.63333,570.56 1368.16,572.306667 1368.16,574.2 C1368.16,576.093333 1368.63333,577.833333 1369.58,579.42 C1370.52667,581.006667 1371.8,582.266667 1373.4,583.2 C1375,584.133333 1376.73333,584.6 1378.6,584.6 Z M1378.6,580.08 C1377.53333,580.08 1376.54667,579.813333 1375.64,579.28 C1374.73333,578.746667 1374.01333,578.026667 1373.48,577.12 C1372.94667,576.213333 1372.68,575.226667 1372.68,574.16 C1372.68,573.093333 1372.94667,572.106667 1373.48,571.2 C1374.01333,570.293333 1374.73333,569.573333 1375.64,569.04 C1376.54667,568.506667 1377.53333,568.24 1378.6,568.24 C1379.66667,568.24 1380.65333,568.506667 1381.56,569.04 C1382.46667,569.573333 1383.18667,570.293333 1383.72,571.2 C1384.25333,572.106667 1384.52,573.093333 1384.52,574.16 C1384.52,575.226667 1384.25333,576.213333 1383.72,577.12 C1383.18667,578.026667 1382.46667,578.746667 1381.56,579.28 C1380.65333,579.813333 1379.66667,580.08 1378.6,580.08 Z M1407.12,584 L1415.56,564.4 L1409.64,564.4 L1404.72,576.88 L1404.44,576.88 L1399.56,564.4 L1393.6,564.4 L1401.96,584 L1407.12,584 Z M1429.24,584.64 C1431.45333,584.64 1433.32667,584.146667 1434.86,583.16 C1436.39333,582.173333 1437.61333,580.88 1438.52,579.28 L1438.52,579.28 L1434.16,577.12 C1433.70667,577.946667 1433.08667,578.633333 1432.3,579.18 C1431.51333,579.726667 1430.52,580 1429.32,580 C1428.70667,580 1428.10667,579.913333 1427.52,579.74 C1426.93333,579.566667 1426.39333,579.286667 1425.9,578.9 C1425.40667,578.513333 1424.99333,578.033333 1424.66,577.46 C1424.32667,576.886667 1424.10667,576.2 1424,575.4 L1424,575.4 L1438.76,575.4 C1438.76,575.24 1438.77333,575.093333 1438.8,574.96 C1438.8,574.826667 1438.81333,574.68 1438.84,574.52 L1438.84,574.52 L1438.84,574.04 C1438.84,572.573333 1438.62667,571.213333 1438.2,569.96 C1437.77333,568.706667 1437.14667,567.62 1436.32,566.7 C1435.49333,565.78 1434.46667,565.06 1433.24,564.54 C1432.01333,564.02 1430.61333,563.76 1429.04,563.76 C1427.54667,563.76 1426.18,564.04 1424.94,564.6 C1423.7,565.16 1422.62667,565.913333 1421.72,566.86 C1420.81333,567.806667 1420.10667,568.913333 1419.6,570.18 C1419.09333,571.446667 1418.84,572.786667 1418.84,574.2 C1418.84,575.72 1419.1,577.113333 1419.62,578.38 C1420.14,579.646667 1420.86667,580.746667 1421.8,581.68 C1422.73333,582.613333 1423.83333,583.34 1425.1,583.86 C1426.36667,584.38 1427.74667,584.64 1429.24,584.64 Z M1433.76,571.68 L1424.28,571.68 C1424.62667,570.533333 1425.22667,569.64 1426.08,569 C1426.93333,568.36 1427.92,568.04 1429.04,568.04 C1429.84,568.04 1430.52667,568.16 1431.1,568.4 C1431.67333,568.64 1432.15333,568.946667 1432.54,569.32 C1432.92667,569.693333 1433.22,570.093333 1433.42,570.52 C1433.62,570.946667 1433.73333,571.333333 1433.76,571.68 L1433.76,571.68 Z M1449.44,584 L1449.44,555.36 L1444.2,555.36 L1444.2,584 L1449.44,584 Z M980.28,640 L980.28,628.56 L991.76,628.56 L991.76,623.44 L980.28,623.44 L980.28,616.48 L993.04,616.48 L993.04,611.36 L974.88,611.36 L974.88,640 L980.28,640 Z M1003.8,640 L1003.8,611.36 L998.56,611.36 L998.56,640 L1003.8,640 Z M1015.84,616.6 L1015.84,611.36 L1010.6,611.36 L1010.6,616.6 L1015.84,616.6 Z M1015.84,640 L1015.84,620.4 L1010.6,620.4 L1010.6,640 L1015.84,640 Z M1032.32,649.36 C1033.84,649.36 1035.24,649.12 1036.52,648.64 C1037.8,648.106667 1038.88,647.4 1039.76,646.52 C1040.66667,645.586667 1041.37333,644.466667 1041.88,643.16 C1042.38667,641.773333 1042.64,640.293333 1042.64,638.72 L1042.64,638.72 L1042.64,620.4 L1037.64,620.4 L1037.64,621.4 C1035.96,620.306667 1034.10667,619.76 1032.08,619.76 C1030.24,619.76 1028.54,620.22 1026.98,621.14 C1025.42,622.06 1024.18,623.3 1023.26,624.86 C1022.34,626.42 1021.88,628.12 1021.88,629.96 C1021.88,631.8 1022.34,633.5 1023.26,635.06 C1024.18,636.62 1025.42,637.86 1026.98,638.78 C1028.54,639.7 1030.24,640.16 1032.08,640.16 C1034.10667,640.16 1035.96,639.613333 1037.64,638.52 C1037.64,639.48 1037.52,640.36 1037.28,641.16 C1037.04,641.96 1036.68,642.613333 1036.2,643.12 C1035.24,644.213333 1033.94667,644.76 1032.32,644.76 C1031.30667,644.76 1030.36,644.466667 1029.48,643.88 C1029.05333,643.613333 1028.69333,643.266667 1028.4,642.84 C1028.26667,642.706667 1028.16,642.56 1028.08,642.4 L1028.08,642.4 L1023.12,644.52 C1023.38667,644.946667 1023.62667,645.28 1023.84,645.52 C1024.32,646.186667 1024.97333,646.826667 1025.8,647.44 C1026.62667,648.026667 1027.57333,648.493333 1028.64,648.84 C1029.65333,649.186667 1030.88,649.36 1032.32,649.36 Z M1032.08,635.8 C1031.09333,635.8 1030.14667,635.526667 1029.24,634.98 C1028.33333,634.433333 1027.60667,633.706667 1027.06,632.8 C1026.51333,631.893333 1026.24,630.946667 1026.24,629.96 C1026.24,628.973333 1026.50667,628.026667 1027.04,627.12 C1027.57333,626.213333 1028.29333,625.486667 1029.2,624.94 C1030.10667,624.393333 1031.06667,624.12 1032.08,624.12 C1032.34667,624.12 1032.57333,624.133333 1032.76,624.16 C1032.94667,624.186667 1033.09333,624.213333 1033.2,624.24 C1034.29333,624.48 1035.27333,625.033333 1036.14,625.9 C1037.00667,626.766667 1037.56,627.746667 1037.8,628.84 C1037.82667,628.946667 1037.85333,629.093333 1037.88,629.28 C1037.90667,629.466667 1037.92,629.693333 1037.92,629.96 C1037.92,630.946667 1037.64667,631.893333 1037.1,632.8 C1036.55333,633.706667 1035.82667,634.433333 1034.92,634.98 C1034.01333,635.526667 1033.06667,635.8 1032.08,635.8 Z M1053.72,640 L1053.72,628.88 C1053.72,628.24 1053.93333,627.646667 1054.36,627.1 C1054.78667,626.553333 1055.33333,626.113333 1056,625.78 C1056.66667,625.446667 1057.33333,625.266667 1058,625.24 C1059.01333,625.266667 1059.94667,625.64 1060.8,626.36 C1061.65333,627.08 1062.08,627.92 1062.08,628.88 L1062.08,640 L1067.24,640 L1067.24,628.88 C1067.24,627.28 1066.84,625.8 1066.04,624.44 C1065.24,623.08 1064.16667,622 1062.82,621.2 C1061.47333,620.4 1060,620 1058.4,620 C1056.74667,620 1055.18667,620.426667 1053.72,621.28 L1053.72,611.36 L1048.52,611.36 L1048.52,640 L1053.72,640 Z M1082.16,640.32 C1083.01333,640.32 1083.79333,640.246667 1084.5,640.1 C1085.20667,639.953333 1085.86667,639.733333 1086.48,639.44 L1086.48,639.44 L1085,634.84 C1084.76,635 1084.50667,635.126667 1084.24,635.22 C1083.97333,635.313333 1083.61333,635.36 1083.16,635.36 C1082.46667,635.36 1081.93333,635.146667 1081.56,634.72 C1081.29333,634.453333 1081.11333,634.126667 1081.02,633.74 C1080.92667,633.353333 1080.88,632.933333 1080.88,632.48 L1080.88,632.48 L1080.88,624.88 L1085.68,624.88 L1085.68,620.4 L1080.88,620.4 L1080.88,614.4 L1075.64,614.4 L1075.64,620.4 L1072.2,620.4 L1072.2,624.88 L1075.64,624.88 L1075.64,633.48 C1075.64,635.693333 1076.26667,637.4 1077.52,638.6 C1078.05333,639.133333 1078.71333,639.553333 1079.5,639.86 C1080.28667,640.166667 1081.17333,640.32 1082.16,640.32 Z M1099.28,640.64 C1100.53333,640.64 1101.67333,640.466667 1102.7,640.12 C1103.72667,639.773333 1104.60667,639.3 1105.34,638.7 C1106.07333,638.1 1106.64,637.413333 1107.04,636.64 C1107.44,635.866667 1107.64,635.053333 1107.64,634.2 C1107.64,632.76 1107.15333,631.513333 1106.18,630.46 C1105.20667,629.406667 1103.72,628.64 1101.72,628.16 L1101.72,628.16 L1098.72,627.44 C1097.92,627.226667 1097.28667,626.986667 1096.82,626.72 C1096.35333,626.453333 1096.12,626.093333 1096.12,625.64 C1096.12,625.16 1096.4,624.766667 1096.96,624.46 C1097.52,624.153333 1098.17333,624 1098.92,624 C1099.64,624 1100.36,624.173333 1101.08,624.52 C1101.8,624.866667 1102.34667,625.426667 1102.72,626.2 L1102.72,626.2 L1107.24,624.36 C1106.54667,622.76 1105.46667,621.593333 1104,620.86 C1102.53333,620.126667 1100.86667,619.76 1099,619.76 C1097.88,619.76 1096.83333,619.9 1095.86,620.18 C1094.88667,620.46 1094.04,620.86 1093.32,621.38 C1092.6,621.9 1092.03333,622.533333 1091.62,623.28 C1091.20667,624.026667 1091,624.88 1091,625.84 C1091,626.693333 1091.17333,627.44 1091.52,628.08 C1091.86667,628.72 1092.30667,629.266667 1092.84,629.72 C1093.37333,630.173333 1093.96667,630.546667 1094.62,630.84 C1095.27333,631.133333 1095.90667,631.346667 1096.52,631.48 L1096.52,631.48 L1099.28,632.08 C1100.42667,632.346667 1101.23333,632.646667 1101.7,632.98 C1102.16667,633.313333 1102.4,633.746667 1102.4,634.28 C1102.4,634.76 1102.12,635.173333 1101.56,635.52 C1101,635.866667 1100.24,636.04 1099.28,636.04 C1098.34667,636.04 1097.5,635.793333 1096.74,635.3 C1095.98,634.806667 1095.37333,634.053333 1094.92,633.04 L1094.92,633.04 L1090.24,635.04 C1090.50667,635.733333 1090.89333,636.42 1091.4,637.1 C1091.90667,637.78 1092.52667,638.38 1093.26,638.9 C1093.99333,639.42 1094.86,639.84 1095.86,640.16 C1096.86,640.48 1098,640.64 1099.28,640.64 Z" id="ThebeginningofTravelFlights"></path>
            </g>
        </g>
    </g>
</svg>