<?xml version="1.0" encoding="UTF-8"?>
<svg width="365px" height="38px" viewBox="0 0 365 38" version="1.1" xmlns="http://www.w3.org/2000/svg" xmlns:xlink="http://www.w3.org/1999/xlink">
    <title>TheJourneyison</title>
    <g id="Page-1" stroke="none" stroke-width="1" fill="none" fill-rule="evenodd">
        <g id="Service-Introduction" transform="translate(-775.000000, -3492.000000)" fill="#FFFFFF" fill-rule="nonzero">
            <g id="section-3" transform="translate(0.000000, 2156.000000)">
                <path d="M789.36,1365 L789.36,1341.48 L797.36,1341.48 L797.36,1336.36 L775.96,1336.36 L775.96,1341.48 L783.96,1341.48 L783.96,1365 L789.36,1365 Z M807.76,1365 L807.76,1353.88 C807.76,1353.24 807.973333,1352.64667 808.4,1352.1 C808.826667,1351.55333 809.373333,1351.11333 810.04,1350.78 C810.706667,1350.44667 811.373333,1350.26667 812.04,1350.24 C813.053333,1350.26667 813.986667,1350.64 814.84,1351.36 C815.693333,1352.08 816.12,1352.92 816.12,1353.88 L816.12,1365 L821.28,1365 L821.28,1353.88 C821.28,1352.28 820.88,1350.8 820.08,1349.44 C819.28,1348.08 818.206667,1347 816.86,1346.2 C815.513333,1345.4 814.04,1345 812.44,1345 C810.786667,1345 809.226667,1345.42667 807.76,1346.28 L807.76,1336.36 L802.56,1336.36 L802.56,1365 L807.76,1365 Z M836.8,1365.64 C839.013333,1365.64 840.886667,1365.14667 842.42,1364.16 C843.953333,1363.17333 845.173333,1361.88 846.08,1360.28 L846.08,1360.28 L841.72,1358.12 C841.266667,1358.94667 840.646667,1359.63333 839.86,1360.18 C839.073333,1360.72667 838.08,1361 836.88,1361 C836.266667,1361 835.666667,1360.91333 835.08,1360.74 C834.493333,1360.56667 833.953333,1360.28667 833.46,1359.9 C832.966667,1359.51333 832.553333,1359.03333 832.22,1358.46 C831.886667,1357.88667 831.666667,1357.2 831.56,1356.4 L831.56,1356.4 L846.32,1356.4 C846.32,1356.24 846.333333,1356.09333 846.36,1355.96 C846.36,1355.82667 846.373333,1355.68 846.4,1355.52 L846.4,1355.52 L846.4,1355.04 C846.4,1353.57333 846.186667,1352.21333 845.76,1350.96 C845.333333,1349.70667 844.706667,1348.62 843.88,1347.7 C843.053333,1346.78 842.026667,1346.06 840.8,1345.54 C839.573333,1345.02 838.173333,1344.76 836.6,1344.76 C835.106667,1344.76 833.74,1345.04 832.5,1345.6 C831.26,1346.16 830.186667,1346.91333 829.28,1347.86 C828.373333,1348.80667 827.666667,1349.91333 827.16,1351.18 C826.653333,1352.44667 826.4,1353.78667 826.4,1355.2 C826.4,1356.72 826.66,1358.11333 827.18,1359.38 C827.7,1360.64667 828.426667,1361.74667 829.36,1362.68 C830.293333,1363.61333 831.393333,1364.34 832.66,1364.86 C833.926667,1365.38 835.306667,1365.64 836.8,1365.64 Z M841.32,1352.68 L831.84,1352.68 C832.186667,1351.53333 832.786667,1350.64 833.64,1350 C834.493333,1349.36 835.48,1349.04 836.6,1349.04 C837.4,1349.04 838.086667,1349.16 838.66,1349.4 C839.233333,1349.64 839.713333,1349.94667 840.1,1350.32 C840.486667,1350.69333 840.78,1351.09333 840.98,1351.52 C841.18,1351.94667 841.293333,1352.33333 841.32,1352.68 L841.32,1352.68 Z M870.76,1365.64 C872.066667,1365.64 873.286667,1365.43333 874.42,1365.02 C875.553333,1364.60667 876.54,1363.99333 877.38,1363.18 C878.22,1362.36667 878.886667,1361.35333 879.38,1360.14 C879.873333,1358.92667 880.12,1357.52 880.12,1355.92 L880.12,1355.92 L880.12,1336.36 L874.72,1336.36 L874.72,1355.96 C874.72,1357.4 874.373333,1358.52 873.68,1359.32 C872.986667,1360.12 872.013333,1360.52 870.76,1360.52 C869.64,1360.52 868.693333,1360.2 867.92,1359.56 C867.146667,1358.92 866.586667,1357.96 866.24,1356.68 L866.24,1356.68 L861.28,1358.72 C861.946667,1360.88 863.126667,1362.57333 864.82,1363.8 C866.513333,1365.02667 868.493333,1365.64 870.76,1365.64 Z M896.04,1365.64 C897.906667,1365.64 899.64,1365.17333 901.24,1364.24 C902.84,1363.30667 904.113333,1362.04667 905.06,1360.46 C906.006667,1358.87333 906.48,1357.13333 906.48,1355.24 C906.48,1353.34667 906.006667,1351.59333 905.06,1349.98 C904.113333,1348.36667 902.84,1347.09333 901.24,1346.16 C899.64,1345.22667 897.906667,1344.76 896.04,1344.76 C894.146667,1344.76 892.4,1345.22667 890.8,1346.16 C889.2,1347.09333 887.933333,1348.36667 887,1349.98 C886.066667,1351.59333 885.6,1353.34667 885.6,1355.24 C885.6,1357.13333 886.066667,1358.87333 887,1360.46 C887.933333,1362.04667 889.2,1363.30667 890.8,1364.24 C892.4,1365.17333 894.146667,1365.64 896.04,1365.64 Z M896.04,1360.92 C895,1360.92 894.04,1360.66667 893.16,1360.16 C892.28,1359.65333 891.586667,1358.96 891.08,1358.08 C890.573333,1357.2 890.32,1356.25333 890.32,1355.24 C890.32,1354.2 890.573333,1353.24 891.08,1352.36 C891.586667,1351.48 892.28,1350.78667 893.16,1350.28 C894.04,1349.77333 895,1349.52 896.04,1349.52 C897.08,1349.52 898.033333,1349.77333 898.9,1350.28 C899.766667,1350.78667 900.453333,1351.48 900.96,1352.36 C901.466667,1353.24 901.72,1354.2 901.72,1355.24 C901.72,1356.25333 901.466667,1357.2 900.96,1358.08 C900.453333,1358.96 899.766667,1359.65333 898.9,1360.16 C898.033333,1360.66667 897.08,1360.92 896.04,1360.92 Z M918.72,1365.64 C919.306667,1365.64 919.786667,1365.62667 920.16,1365.6 C921.44,1365.49333 922.526667,1365.17333 923.42,1364.64 C924.313333,1364.10667 924.973333,1363.62667 925.4,1363.2 L925.4,1363.2 L925.4,1365 L930.28,1365 L930.28,1345.4 L925.08,1345.4 L925.08,1355.04 C925.08,1355.78667 924.973333,1356.54667 924.76,1357.32 C924.546667,1358.04 924.253333,1358.64 923.88,1359.12 C923.506667,1359.68 923.04,1360.09333 922.48,1360.36 C921.973333,1360.68 921.346667,1360.84 920.6,1360.84 C919.4,1360.84 918.493333,1360.49333 917.88,1359.8 C917.24,1359.10667 916.92,1358.06667 916.92,1356.68 L916.92,1356.68 L916.92,1345.4 L911.72,1345.4 L911.72,1357.32 C911.72,1359.85333 912.32,1361.88 913.52,1363.4 C914.746667,1364.89333 916.48,1365.64 918.72,1365.64 Z M942.48,1365 L942.48,1357.24 C942.48,1355.82667 942.76,1354.48 943.32,1353.2 C943.773333,1352.21333 944.393333,1351.38667 945.18,1350.72 C945.966667,1350.05333 946.96,1349.72 948.16,1349.72 C948.613333,1349.72 949.146667,1349.78667 949.76,1349.92 L949.76,1349.92 L949.76,1345.32 C949.386667,1345.21333 949.106667,1345.14667 948.92,1345.12 C948.546667,1345.06667 948.266667,1345.04 948.08,1345.04 C946.826667,1345.04 945.706667,1345.34667 944.72,1345.96 C943.733333,1346.57333 942.986667,1347.41333 942.48,1348.48 L942.48,1348.48 L942.48,1345.44 L937.32,1345.44 L937.32,1365 L942.48,1365 Z M960.28,1365 L960.28,1355.4 C960.28,1354.6 960.38,1353.84667 960.58,1353.14 C960.78,1352.43333 961.073333,1351.82 961.46,1351.3 C961.846667,1350.78 962.313333,1350.36667 962.86,1350.06 C963.406667,1349.75333 964.04,1349.6 964.76,1349.6 C965.96,1349.6 966.873333,1349.94 967.5,1350.62 C968.126667,1351.3 968.44,1352.34667 968.44,1353.76 L968.44,1353.76 L968.44,1365 L973.68,1365 L973.68,1353.12 C973.68,1351.86667 973.526667,1350.72667 973.22,1349.7 C972.913333,1348.67333 972.46,1347.79333 971.86,1347.06 C971.26,1346.32667 970.493333,1345.76 969.56,1345.36 C968.626667,1344.96 967.546667,1344.76 966.32,1344.76 C964.986667,1344.76 963.8,1345.04667 962.76,1345.62 C961.72,1346.19333 960.893333,1346.97333 960.28,1347.96 L960.28,1347.96 L959.96,1347.96 L959.96,1345.4 L955.04,1345.4 L955.04,1365 L960.28,1365 Z M989.28,1365.64 C991.493333,1365.64 993.366667,1365.14667 994.9,1364.16 C996.433333,1363.17333 997.653333,1361.88 998.56,1360.28 L998.56,1360.28 L994.2,1358.12 C993.746667,1358.94667 993.126667,1359.63333 992.34,1360.18 C991.553333,1360.72667 990.56,1361 989.36,1361 C988.746667,1361 988.146667,1360.91333 987.56,1360.74 C986.973333,1360.56667 986.433333,1360.28667 985.94,1359.9 C985.446667,1359.51333 985.033333,1359.03333 984.7,1358.46 C984.366667,1357.88667 984.146667,1357.2 984.04,1356.4 L984.04,1356.4 L998.8,1356.4 C998.8,1356.24 998.813333,1356.09333 998.84,1355.96 C998.84,1355.82667 998.853333,1355.68 998.88,1355.52 L998.88,1355.52 L998.88,1355.04 C998.88,1353.57333 998.666667,1352.21333 998.24,1350.96 C997.813333,1349.70667 997.186667,1348.62 996.36,1347.7 C995.533333,1346.78 994.506667,1346.06 993.28,1345.54 C992.053333,1345.02 990.653333,1344.76 989.08,1344.76 C987.586667,1344.76 986.22,1345.04 984.98,1345.6 C983.74,1346.16 982.666667,1346.91333 981.76,1347.86 C980.853333,1348.80667 980.146667,1349.91333 979.64,1351.18 C979.133333,1352.44667 978.88,1353.78667 978.88,1355.2 C978.88,1356.72 979.14,1358.11333 979.66,1359.38 C980.18,1360.64667 980.906667,1361.74667 981.84,1362.68 C982.773333,1363.61333 983.873333,1364.34 985.14,1364.86 C986.406667,1365.38 987.786667,1365.64 989.28,1365.64 Z M993.8,1352.68 L984.32,1352.68 C984.666667,1351.53333 985.266667,1350.64 986.12,1350 C986.973333,1349.36 987.96,1349.04 989.08,1349.04 C989.88,1349.04 990.566667,1349.16 991.14,1349.4 C991.713333,1349.64 992.193333,1349.94667 992.58,1350.32 C992.966667,1350.69333 993.26,1351.09333 993.46,1351.52 C993.66,1351.94667 993.773333,1352.33333 993.8,1352.68 L993.8,1352.68 Z M1011.68,1373.64 L1023.96,1345.4 L1018.12,1345.4 L1013.36,1357.28 L1013.08,1357.28 L1008.12,1345.4 L1002.16,1345.4 L1010.4,1364.04 L1006.04,1373.64 L1011.68,1373.64 Z M1044.72,1341.6 L1044.72,1336.36 L1039.48,1336.36 L1039.48,1341.6 L1044.72,1341.6 Z M1044.72,1365 L1044.72,1345.4 L1039.48,1345.4 L1039.48,1365 L1044.72,1365 Z M1059.28,1365.64 C1060.53333,1365.64 1061.67333,1365.46667 1062.7,1365.12 C1063.72667,1364.77333 1064.60667,1364.3 1065.34,1363.7 C1066.07333,1363.1 1066.64,1362.41333 1067.04,1361.64 C1067.44,1360.86667 1067.64,1360.05333 1067.64,1359.2 C1067.64,1357.76 1067.15333,1356.51333 1066.18,1355.46 C1065.20667,1354.40667 1063.72,1353.64 1061.72,1353.16 L1061.72,1353.16 L1058.72,1352.44 C1057.92,1352.22667 1057.28667,1351.98667 1056.82,1351.72 C1056.35333,1351.45333 1056.12,1351.09333 1056.12,1350.64 C1056.12,1350.16 1056.4,1349.76667 1056.96,1349.46 C1057.52,1349.15333 1058.17333,1349 1058.92,1349 C1059.64,1349 1060.36,1349.17333 1061.08,1349.52 C1061.8,1349.86667 1062.34667,1350.42667 1062.72,1351.2 L1062.72,1351.2 L1067.24,1349.36 C1066.54667,1347.76 1065.46667,1346.59333 1064,1345.86 C1062.53333,1345.12667 1060.86667,1344.76 1059,1344.76 C1057.88,1344.76 1056.83333,1344.9 1055.86,1345.18 C1054.88667,1345.46 1054.04,1345.86 1053.32,1346.38 C1052.6,1346.9 1052.03333,1347.53333 1051.62,1348.28 C1051.20667,1349.02667 1051,1349.88 1051,1350.84 C1051,1351.69333 1051.17333,1352.44 1051.52,1353.08 C1051.86667,1353.72 1052.30667,1354.26667 1052.84,1354.72 C1053.37333,1355.17333 1053.96667,1355.54667 1054.62,1355.84 C1055.27333,1356.13333 1055.90667,1356.34667 1056.52,1356.48 L1056.52,1356.48 L1059.28,1357.08 C1060.42667,1357.34667 1061.23333,1357.64667 1061.7,1357.98 C1062.16667,1358.31333 1062.4,1358.74667 1062.4,1359.28 C1062.4,1359.76 1062.12,1360.17333 1061.56,1360.52 C1061,1360.86667 1060.24,1361.04 1059.28,1361.04 C1058.34667,1361.04 1057.5,1360.79333 1056.74,1360.3 C1055.98,1359.80667 1055.37333,1359.05333 1054.92,1358.04 L1054.92,1358.04 L1050.24,1360.04 C1050.50667,1360.73333 1050.89333,1361.42 1051.4,1362.1 C1051.90667,1362.78 1052.52667,1363.38 1053.26,1363.9 C1053.99333,1364.42 1054.86,1364.84 1055.86,1365.16 C1056.86,1365.48 1058,1365.64 1059.28,1365.64 Z M1092.92,1365.64 C1094.78667,1365.64 1096.52,1365.17333 1098.12,1364.24 C1099.72,1363.30667 1100.99333,1362.04667 1101.94,1360.46 C1102.88667,1358.87333 1103.36,1357.13333 1103.36,1355.24 C1103.36,1353.34667 1102.88667,1351.59333 1101.94,1349.98 C1100.99333,1348.36667 1099.72,1347.09333 1098.12,1346.16 C1096.52,1345.22667 1094.78667,1344.76 1092.92,1344.76 C1091.02667,1344.76 1089.28,1345.22667 1087.68,1346.16 C1086.08,1347.09333 1084.81333,1348.36667 1083.88,1349.98 C1082.94667,1351.59333 1082.48,1353.34667 1082.48,1355.24 C1082.48,1357.13333 1082.94667,1358.87333 1083.88,1360.46 C1084.81333,1362.04667 1086.08,1363.30667 1087.68,1364.24 C1089.28,1365.17333 1091.02667,1365.64 1092.92,1365.64 Z M1092.92,1360.92 C1091.88,1360.92 1090.92,1360.66667 1090.04,1360.16 C1089.16,1359.65333 1088.46667,1358.96 1087.96,1358.08 C1087.45333,1357.2 1087.2,1356.25333 1087.2,1355.24 C1087.2,1354.2 1087.45333,1353.24 1087.96,1352.36 C1088.46667,1351.48 1089.16,1350.78667 1090.04,1350.28 C1090.92,1349.77333 1091.88,1349.52 1092.92,1349.52 C1093.96,1349.52 1094.91333,1349.77333 1095.78,1350.28 C1096.64667,1350.78667 1097.33333,1351.48 1097.84,1352.36 C1098.34667,1353.24 1098.6,1354.2 1098.6,1355.24 C1098.6,1356.25333 1098.34667,1357.2 1097.84,1358.08 C1097.33333,1358.96 1096.64667,1359.65333 1095.78,1360.16 C1094.91333,1360.66667 1093.96,1360.92 1092.92,1360.92 Z M1113.92,1365 L1113.92,1355.4 C1113.92,1354.6 1114.02,1353.84667 1114.22,1353.14 C1114.42,1352.43333 1114.71333,1351.82 1115.1,1351.3 C1115.48667,1350.78 1115.95333,1350.36667 1116.5,1350.06 C1117.04667,1349.75333 1117.68,1349.6 1118.4,1349.6 C1119.6,1349.6 1120.51333,1349.94 1121.14,1350.62 C1121.76667,1351.3 1122.08,1352.34667 1122.08,1353.76 L1122.08,1353.76 L1122.08,1365 L1127.32,1365 L1127.32,1353.12 C1127.32,1351.86667 1127.16667,1350.72667 1126.86,1349.7 C1126.55333,1348.67333 1126.1,1347.79333 1125.5,1347.06 C1124.9,1346.32667 1124.13333,1345.76 1123.2,1345.36 C1122.26667,1344.96 1121.18667,1344.76 1119.96,1344.76 C1118.62667,1344.76 1117.44,1345.04667 1116.4,1345.62 C1115.36,1346.19333 1114.53333,1346.97333 1113.92,1347.96 L1113.92,1347.96 L1113.6,1347.96 L1113.6,1345.4 L1108.68,1345.4 L1108.68,1365 L1113.92,1365 Z M1139.4,1365 L1139.4,1359.76 L1134.16,1359.76 L1134.16,1365 L1139.4,1365 Z" id="TheJourneyison."></path>
            </g>
        </g>
    </g>
</svg>