<?xml version="1.0" encoding="UTF-8"?>
<svg width="426px" height="87px" viewBox="0 0 426 87" version="1.1" xmlns="http://www.w3.org/2000/svg" xmlns:xlink="http://www.w3.org/1999/xlink">
    <title>CompletionofTravelHotel</title>
    <g id="Page-1" stroke="none" stroke-width="1" fill="none" fill-rule="evenodd" fill-opacity="0.87">
        <g id="Service-Introduction" transform="translate(-399.000000, -8169.000000)" fill="#000000" fill-rule="nonzero">
            <g id="section-5-2-copy" transform="translate(0.000000, 7679.000000)">
                <path d="M414.48,520.64 C416.853333,520.64 419,520.193333 420.92,519.3 C422.84,518.406667 424.506667,517.106667 425.92,515.4 L425.92,515.4 L422.08,511.76 C421.12,512.96 420.02,513.886667 418.78,514.54 C417.54,515.193333 416.12,515.52 414.52,515.52 C413.186667,515.52 411.933333,515.286667 410.76,514.82 C409.586667,514.353333 408.566667,513.693333 407.7,512.84 C406.833333,511.986667 406.146667,510.953333 405.64,509.74 C405.133333,508.526667 404.88,507.173333 404.88,505.68 C404.88,504.186667 405.133333,502.833333 405.64,501.62 C406.146667,500.406667 406.833333,499.373333 407.7,498.52 C408.566667,497.666667 409.586667,497.006667 410.76,496.54 C411.933333,496.073333 413.186667,495.84 414.52,495.84 C416.04,495.84 417.353333,496.133333 418.46,496.72 C419.566667,497.306667 420.546667,498.093333 421.4,499.08 L421.4,499.08 L425.2,495.4 C423.84,493.88 422.286667,492.72 420.54,491.92 C418.793333,491.12 416.773333,490.72 414.48,490.72 C412.346667,490.72 410.366667,491.106667 408.54,491.88 C406.713333,492.653333 405.133333,493.706667 403.8,495.04 C402.466667,496.373333 401.413333,497.953333 400.64,499.78 C399.866667,501.606667 399.48,503.573333 399.48,505.68 C399.48,507.786667 399.866667,509.753333 400.64,511.58 C401.413333,513.406667 402.466667,514.986667 403.8,516.32 C405.133333,517.653333 406.713333,518.706667 408.54,519.48 C410.366667,520.253333 412.346667,520.64 414.48,520.64 Z M440.88,520.64 C442.746667,520.64 444.48,520.173333 446.08,519.24 C447.68,518.306667 448.953333,517.046667 449.9,515.46 C450.846667,513.873333 451.32,512.133333 451.32,510.24 C451.32,508.346667 450.846667,506.593333 449.9,504.98 C448.953333,503.366667 447.68,502.093333 446.08,501.16 C444.48,500.226667 442.746667,499.76 440.88,499.76 C438.986667,499.76 437.24,500.226667 435.64,501.16 C434.04,502.093333 432.773333,503.366667 431.84,504.98 C430.906667,506.593333 430.44,508.346667 430.44,510.24 C430.44,512.133333 430.906667,513.873333 431.84,515.46 C432.773333,517.046667 434.04,518.306667 435.64,519.24 C437.24,520.173333 438.986667,520.64 440.88,520.64 Z M440.88,515.92 C439.84,515.92 438.88,515.666667 438,515.16 C437.12,514.653333 436.426667,513.96 435.92,513.08 C435.413333,512.2 435.16,511.253333 435.16,510.24 C435.16,509.2 435.413333,508.24 435.92,507.36 C436.426667,506.48 437.12,505.786667 438,505.28 C438.88,504.773333 439.84,504.52 440.88,504.52 C441.92,504.52 442.873333,504.773333 443.74,505.28 C444.606667,505.786667 445.293333,506.48 445.8,507.36 C446.306667,508.24 446.56,509.2 446.56,510.24 C446.56,511.253333 446.306667,512.2 445.8,513.08 C445.293333,513.96 444.606667,514.653333 443.74,515.16 C442.873333,515.666667 441.92,515.92 440.88,515.92 Z M461.88,520 L461.88,510.48 C461.88,509.653333 461.973333,508.88 462.16,508.16 C462.346667,507.44 462.613333,506.82 462.96,506.3 C463.306667,505.78 463.733333,505.366667 464.24,505.06 C464.746667,504.753333 465.333333,504.6 466,504.6 C468.293333,504.6 469.44,505.933333 469.44,508.6 L469.44,508.6 L469.44,520 L474.68,520 L474.68,510.48 C474.68,509.653333 474.78,508.88 474.98,508.16 C475.18,507.44 475.46,506.82 475.82,506.3 C476.18,505.78 476.626667,505.366667 477.16,505.06 C477.693333,504.753333 478.306667,504.6 479,504.6 C481.186667,504.6 482.28,505.933333 482.28,508.6 L482.28,508.6 L482.28,520 L487.52,520 L487.52,507.64 C487.52,506.493333 487.373333,505.433333 487.08,504.46 C486.786667,503.486667 486.353333,502.653333 485.78,501.96 C485.206667,501.266667 484.48,500.726667 483.6,500.34 C482.72,499.953333 481.68,499.76 480.48,499.76 C478.88,499.76 477.52,500.113333 476.4,500.82 C475.28,501.526667 474.413333,502.373333 473.8,503.36 C473.373333,502.346667 472.653333,501.493333 471.64,500.8 C470.626667,500.106667 469.373333,499.76 467.88,499.76 C466.6,499.76 465.433333,500.053333 464.38,500.64 C463.326667,501.226667 462.493333,502 461.88,502.96 L461.88,502.96 L461.56,502.96 L461.56,500.4 L456.64,500.4 L456.64,520 L461.88,520 Z M498.48,529 L498.48,518.68 C499.173333,519.293333 500.026667,519.766667 501.04,520.1 C502.053333,520.433333 503.106667,520.6 504.2,520.6 C506.066667,520.6 507.8,520.133333 509.4,519.2 C511,518.266667 512.273333,517 513.22,515.4 C514.166667,513.8 514.64,512.053333 514.64,510.16 C514.64,508.266667 514.166667,506.526667 513.22,504.94 C512.273333,503.353333 511,502.093333 509.4,501.16 C507.8,500.226667 506.066667,499.76 504.2,499.76 C502.04,499.76 500.133333,500.386667 498.48,501.64 L498.48,501.64 L498.48,500.36 L493.36,500.36 L493.36,529 L498.48,529 Z M504.2,516.08 C503.133333,516.08 502.146667,515.813333 501.24,515.28 C500.333333,514.746667 499.613333,514.026667 499.08,513.12 C498.546667,512.213333 498.28,511.226667 498.28,510.16 C498.28,509.093333 498.546667,508.106667 499.08,507.2 C499.613333,506.293333 500.333333,505.573333 501.24,505.04 C502.146667,504.506667 503.133333,504.24 504.2,504.24 C505.266667,504.24 506.253333,504.506667 507.16,505.04 C508.066667,505.573333 508.786667,506.293333 509.32,507.2 C509.853333,508.106667 510.12,509.093333 510.12,510.16 C510.12,511.226667 509.853333,512.213333 509.32,513.12 C508.786667,514.026667 508.066667,514.746667 507.16,515.28 C506.253333,515.813333 505.266667,516.08 504.2,516.08 Z M524.92,520 L524.92,491.36 L519.68,491.36 L519.68,520 L524.92,520 Z M540.68,520.64 C542.893333,520.64 544.766667,520.146667 546.3,519.16 C547.833333,518.173333 549.053333,516.88 549.96,515.28 L549.96,515.28 L545.6,513.12 C545.146667,513.946667 544.526667,514.633333 543.74,515.18 C542.953333,515.726667 541.96,516 540.76,516 C540.146667,516 539.546667,515.913333 538.96,515.74 C538.373333,515.566667 537.833333,515.286667 537.34,514.9 C536.846667,514.513333 536.433333,514.033333 536.1,513.46 C535.766667,512.886667 535.546667,512.2 535.44,511.4 L535.44,511.4 L550.2,511.4 C550.2,511.24 550.213333,511.093333 550.24,510.96 C550.24,510.826667 550.253333,510.68 550.28,510.52 L550.28,510.52 L550.28,510.04 C550.28,508.573333 550.066667,507.213333 549.64,505.96 C549.213333,504.706667 548.586667,503.62 547.76,502.7 C546.933333,501.78 545.906667,501.06 544.68,500.54 C543.453333,500.02 542.053333,499.76 540.48,499.76 C538.986667,499.76 537.62,500.04 536.38,500.6 C535.14,501.16 534.066667,501.913333 533.16,502.86 C532.253333,503.806667 531.546667,504.913333 531.04,506.18 C530.533333,507.446667 530.28,508.786667 530.28,510.2 C530.28,511.72 530.54,513.113333 531.06,514.38 C531.58,515.646667 532.306667,516.746667 533.24,517.68 C534.173333,518.613333 535.273333,519.34 536.54,519.86 C537.806667,520.38 539.186667,520.64 540.68,520.64 Z M545.2,507.68 L535.72,507.68 C536.066667,506.533333 536.666667,505.64 537.52,505 C538.373333,504.36 539.36,504.04 540.48,504.04 C541.28,504.04 541.966667,504.16 542.54,504.4 C543.113333,504.64 543.593333,504.946667 543.98,505.32 C544.366667,505.693333 544.66,506.093333 544.86,506.52 C545.06,506.946667 545.173333,507.333333 545.2,507.68 L545.2,507.68 Z M564.32,520.32 C565.173333,520.32 565.953333,520.246667 566.66,520.1 C567.366667,519.953333 568.026667,519.733333 568.64,519.44 L568.64,519.44 L567.16,514.84 C566.92,515 566.666667,515.126667 566.4,515.22 C566.133333,515.313333 565.773333,515.36 565.32,515.36 C564.626667,515.36 564.093333,515.146667 563.72,514.72 C563.453333,514.453333 563.273333,514.126667 563.18,513.74 C563.086667,513.353333 563.04,512.933333 563.04,512.48 L563.04,512.48 L563.04,504.88 L567.84,504.88 L567.84,500.4 L563.04,500.4 L563.04,494.4 L557.8,494.4 L557.8,500.4 L554.36,500.4 L554.36,504.88 L557.8,504.88 L557.8,513.48 C557.8,515.693333 558.426667,517.4 559.68,518.6 C560.213333,519.133333 560.873333,519.553333 561.66,519.86 C562.446667,520.166667 563.333333,520.32 564.32,520.32 Z M579.24,496.6 L579.24,491.36 L574,491.36 L574,496.6 L579.24,496.6 Z M579.24,520 L579.24,500.4 L574,500.4 L574,520 L579.24,520 Z M595.32,520.64 C597.186667,520.64 598.92,520.173333 600.52,519.24 C602.12,518.306667 603.393333,517.046667 604.34,515.46 C605.286667,513.873333 605.76,512.133333 605.76,510.24 C605.76,508.346667 605.286667,506.593333 604.34,504.98 C603.393333,503.366667 602.12,502.093333 600.52,501.16 C598.92,500.226667 597.186667,499.76 595.32,499.76 C593.426667,499.76 591.68,500.226667 590.08,501.16 C588.48,502.093333 587.213333,503.366667 586.28,504.98 C585.346667,506.593333 584.88,508.346667 584.88,510.24 C584.88,512.133333 585.346667,513.873333 586.28,515.46 C587.213333,517.046667 588.48,518.306667 590.08,519.24 C591.68,520.173333 593.426667,520.64 595.32,520.64 Z M595.32,515.92 C594.28,515.92 593.32,515.666667 592.44,515.16 C591.56,514.653333 590.866667,513.96 590.36,513.08 C589.853333,512.2 589.6,511.253333 589.6,510.24 C589.6,509.2 589.853333,508.24 590.36,507.36 C590.866667,506.48 591.56,505.786667 592.44,505.28 C593.32,504.773333 594.28,504.52 595.32,504.52 C596.36,504.52 597.313333,504.773333 598.18,505.28 C599.046667,505.786667 599.733333,506.48 600.24,507.36 C600.746667,508.24 601,509.2 601,510.24 C601,511.253333 600.746667,512.2 600.24,513.08 C599.733333,513.96 599.046667,514.653333 598.18,515.16 C597.313333,515.666667 596.36,515.92 595.32,515.92 Z M616.32,520 L616.32,510.4 C616.32,509.6 616.42,508.846667 616.62,508.14 C616.82,507.433333 617.113333,506.82 617.5,506.3 C617.886667,505.78 618.353333,505.366667 618.9,505.06 C619.446667,504.753333 620.08,504.6 620.8,504.6 C622,504.6 622.913333,504.94 623.54,505.62 C624.166667,506.3 624.48,507.346667 624.48,508.76 L624.48,508.76 L624.48,520 L629.72,520 L629.72,508.12 C629.72,506.866667 629.566667,505.726667 629.26,504.7 C628.953333,503.673333 628.5,502.793333 627.9,502.06 C627.3,501.326667 626.533333,500.76 625.6,500.36 C624.666667,499.96 623.586667,499.76 622.36,499.76 C621.026667,499.76 619.84,500.046667 618.8,500.62 C617.76,501.193333 616.933333,501.973333 616.32,502.96 L616.32,502.96 L616,502.96 L616,500.4 L611.08,500.4 L611.08,520 L616.32,520 Z M656.12,520.64 C657.986667,520.64 659.72,520.173333 661.32,519.24 C662.92,518.306667 664.193333,517.046667 665.14,515.46 C666.086667,513.873333 666.56,512.133333 666.56,510.24 C666.56,508.346667 666.086667,506.593333 665.14,504.98 C664.193333,503.366667 662.92,502.093333 661.32,501.16 C659.72,500.226667 657.986667,499.76 656.12,499.76 C654.226667,499.76 652.48,500.226667 650.88,501.16 C649.28,502.093333 648.013333,503.366667 647.08,504.98 C646.146667,506.593333 645.68,508.346667 645.68,510.24 C645.68,512.133333 646.146667,513.873333 647.08,515.46 C648.013333,517.046667 649.28,518.306667 650.88,519.24 C652.48,520.173333 654.226667,520.64 656.12,520.64 Z M656.12,515.92 C655.08,515.92 654.12,515.666667 653.24,515.16 C652.36,514.653333 651.666667,513.96 651.16,513.08 C650.653333,512.2 650.4,511.253333 650.4,510.24 C650.4,509.2 650.653333,508.24 651.16,507.36 C651.666667,506.48 652.36,505.786667 653.24,505.28 C654.12,504.773333 655.08,504.52 656.12,504.52 C657.16,504.52 658.113333,504.773333 658.98,505.28 C659.846667,505.786667 660.533333,506.48 661.04,507.36 C661.546667,508.24 661.8,509.2 661.8,510.24 C661.8,511.253333 661.546667,512.2 661.04,513.08 C660.533333,513.96 659.846667,514.653333 658.98,515.16 C658.113333,515.666667 657.16,515.92 656.12,515.92 Z M679.36,520 L679.36,504.88 L684.24,504.88 L684.24,500.4 L679.36,500.4 L679.36,498.8 C679.36,497.92 679.586667,497.233333 680.04,496.74 C680.493333,496.246667 681.106667,496 681.88,496 C682.333333,496 682.713333,496.04 683.02,496.12 C683.326667,496.2 683.613333,496.306667 683.88,496.44 L683.88,496.44 L685.36,491.76 C684.853333,491.546667 684.28,491.373333 683.64,491.24 C683,491.106667 682.306667,491.04 681.56,491.04 C680.466667,491.04 679.466667,491.206667 678.56,491.54 C677.653333,491.873333 676.866667,492.353333 676.2,492.98 C675.533333,493.606667 675.02,494.38 674.66,495.3 C674.3,496.22 674.12,497.28 674.12,498.48 L674.12,498.48 L674.12,500.4 L670.6,500.4 L670.6,504.88 L674.12,504.88 L674.12,520 L679.36,520 Z M712.68,520 L712.68,496.48 L720.68,496.48 L720.68,491.36 L699.28,491.36 L699.28,496.48 L707.28,496.48 L707.28,520 L712.68,520 Z M731.6,520 L731.6,512.24 C731.6,510.826667 731.88,509.48 732.44,508.2 C732.893333,507.213333 733.513333,506.386667 734.3,505.72 C735.086667,505.053333 736.08,504.72 737.28,504.72 C737.733333,504.72 738.266667,504.786667 738.88,504.92 L738.88,504.92 L738.88,500.32 C738.506667,500.213333 738.226667,500.146667 738.04,500.12 C737.666667,500.066667 737.386667,500.04 737.2,500.04 C735.946667,500.04 734.826667,500.346667 733.84,500.96 C732.853333,501.573333 732.106667,502.413333 731.6,503.48 L731.6,503.48 L731.6,500.44 L726.44,500.44 L726.44,520 L731.6,520 Z M753.48,520.6 C755.64,520.6 757.546667,519.973333 759.2,518.72 L759.2,518.72 L759.2,520 L764.32,520 L764.32,500.4 L759.2,500.4 L759.2,501.68 C758.506667,501.066667 757.653333,500.593333 756.64,500.26 C755.626667,499.926667 754.573333,499.76 753.48,499.76 C751.613333,499.76 749.88,500.226667 748.28,501.16 C746.68,502.093333 745.406667,503.36 744.46,504.96 C743.513333,506.56 743.04,508.306667 743.04,510.2 C743.04,512.093333 743.513333,513.833333 744.46,515.42 C745.406667,517.006667 746.68,518.266667 748.28,519.2 C749.88,520.133333 751.613333,520.6 753.48,520.6 Z M753.48,516.08 C752.413333,516.08 751.426667,515.813333 750.52,515.28 C749.613333,514.746667 748.893333,514.026667 748.36,513.12 C747.826667,512.213333 747.56,511.226667 747.56,510.16 C747.56,509.093333 747.826667,508.106667 748.36,507.2 C748.893333,506.293333 749.613333,505.573333 750.52,505.04 C751.426667,504.506667 752.413333,504.24 753.48,504.24 C754.546667,504.24 755.533333,504.506667 756.44,505.04 C757.346667,505.573333 758.066667,506.293333 758.6,507.2 C759.133333,508.106667 759.4,509.093333 759.4,510.16 C759.4,511.226667 759.133333,512.213333 758.6,513.12 C758.066667,514.026667 757.346667,514.746667 756.44,515.28 C755.533333,515.813333 754.546667,516.08 753.48,516.08 Z M782,520 L790.44,500.4 L784.52,500.4 L779.6,512.88 L779.32,512.88 L774.44,500.4 L768.48,500.4 L776.84,520 L782,520 Z M804.12,520.64 C806.333333,520.64 808.206667,520.146667 809.74,519.16 C811.273333,518.173333 812.493333,516.88 813.4,515.28 L813.4,515.28 L809.04,513.12 C808.586667,513.946667 807.966667,514.633333 807.18,515.18 C806.393333,515.726667 805.4,516 804.2,516 C803.586667,516 802.986667,515.913333 802.4,515.74 C801.813333,515.566667 801.273333,515.286667 800.78,514.9 C800.286667,514.513333 799.873333,514.033333 799.54,513.46 C799.206667,512.886667 798.986667,512.2 798.88,511.4 L798.88,511.4 L813.64,511.4 C813.64,511.24 813.653333,511.093333 813.68,510.96 C813.68,510.826667 813.693333,510.68 813.72,510.52 L813.72,510.52 L813.72,510.04 C813.72,508.573333 813.506667,507.213333 813.08,505.96 C812.653333,504.706667 812.026667,503.62 811.2,502.7 C810.373333,501.78 809.346667,501.06 808.12,500.54 C806.893333,500.02 805.493333,499.76 803.92,499.76 C802.426667,499.76 801.06,500.04 799.82,500.6 C798.58,501.16 797.506667,501.913333 796.6,502.86 C795.693333,503.806667 794.986667,504.913333 794.48,506.18 C793.973333,507.446667 793.72,508.786667 793.72,510.2 C793.72,511.72 793.98,513.113333 794.5,514.38 C795.02,515.646667 795.746667,516.746667 796.68,517.68 C797.613333,518.613333 798.713333,519.34 799.98,519.86 C801.246667,520.38 802.626667,520.64 804.12,520.64 Z M808.64,507.68 L799.16,507.68 C799.506667,506.533333 800.106667,505.64 800.96,505 C801.813333,504.36 802.8,504.04 803.92,504.04 C804.72,504.04 805.406667,504.16 805.98,504.4 C806.553333,504.64 807.033333,504.946667 807.42,505.32 C807.806667,505.693333 808.1,506.093333 808.3,506.52 C808.5,506.946667 808.613333,507.333333 808.64,507.68 L808.64,507.68 Z M824.32,520 L824.32,491.36 L819.08,491.36 L819.08,520 L824.32,520 Z M406.28,576 L406.28,563.92 L418.32,563.92 L418.32,576 L423.72,576 L423.72,547.36 L418.32,547.36 L418.32,558.8 L406.28,558.8 L406.28,547.36 L400.88,547.36 L400.88,576 L406.28,576 Z M440.12,576.64 C441.986667,576.64 443.72,576.173333 445.32,575.24 C446.92,574.306667 448.193333,573.046667 449.14,571.46 C450.086667,569.873333 450.56,568.133333 450.56,566.24 C450.56,564.346667 450.086667,562.593333 449.14,560.98 C448.193333,559.366667 446.92,558.093333 445.32,557.16 C443.72,556.226667 441.986667,555.76 440.12,555.76 C438.226667,555.76 436.48,556.226667 434.88,557.16 C433.28,558.093333 432.013333,559.366667 431.08,560.98 C430.146667,562.593333 429.68,564.346667 429.68,566.24 C429.68,568.133333 430.146667,569.873333 431.08,571.46 C432.013333,573.046667 433.28,574.306667 434.88,575.24 C436.48,576.173333 438.226667,576.64 440.12,576.64 Z M440.12,571.92 C439.08,571.92 438.12,571.666667 437.24,571.16 C436.36,570.653333 435.666667,569.96 435.16,569.08 C434.653333,568.2 434.4,567.253333 434.4,566.24 C434.4,565.2 434.653333,564.24 435.16,563.36 C435.666667,562.48 436.36,561.786667 437.24,561.28 C438.12,560.773333 439.08,560.52 440.12,560.52 C441.16,560.52 442.113333,560.773333 442.98,561.28 C443.846667,561.786667 444.533333,562.48 445.04,563.36 C445.546667,564.24 445.8,565.2 445.8,566.24 C445.8,567.253333 445.546667,568.2 445.04,569.08 C444.533333,569.96 443.846667,570.653333 442.98,571.16 C442.113333,571.666667 441.16,571.92 440.12,571.92 Z M464.56,576.32 C465.413333,576.32 466.193333,576.246667 466.9,576.1 C467.606667,575.953333 468.266667,575.733333 468.88,575.44 L468.88,575.44 L467.4,570.84 C467.16,571 466.906667,571.126667 466.64,571.22 C466.373333,571.313333 466.013333,571.36 465.56,571.36 C464.866667,571.36 464.333333,571.146667 463.96,570.72 C463.693333,570.453333 463.513333,570.126667 463.42,569.74 C463.326667,569.353333 463.28,568.933333 463.28,568.48 L463.28,568.48 L463.28,560.88 L468.08,560.88 L468.08,556.4 L463.28,556.4 L463.28,550.4 L458.04,550.4 L458.04,556.4 L454.6,556.4 L454.6,560.88 L458.04,560.88 L458.04,569.48 C458.04,571.693333 458.666667,573.4 459.92,574.6 C460.453333,575.133333 461.113333,575.553333 461.9,575.86 C462.686667,576.166667 463.573333,576.32 464.56,576.32 Z M483.2,576.64 C485.413333,576.64 487.286667,576.146667 488.82,575.16 C490.353333,574.173333 491.573333,572.88 492.48,571.28 L492.48,571.28 L488.12,569.12 C487.666667,569.946667 487.046667,570.633333 486.26,571.18 C485.473333,571.726667 484.48,572 483.28,572 C482.666667,572 482.066667,571.913333 481.48,571.74 C480.893333,571.566667 480.353333,571.286667 479.86,570.9 C479.366667,570.513333 478.953333,570.033333 478.62,569.46 C478.286667,568.886667 478.066667,568.2 477.96,567.4 L477.96,567.4 L492.72,567.4 C492.72,567.24 492.733333,567.093333 492.76,566.96 C492.76,566.826667 492.773333,566.68 492.8,566.52 L492.8,566.52 L492.8,566.04 C492.8,564.573333 492.586667,563.213333 492.16,561.96 C491.733333,560.706667 491.106667,559.62 490.28,558.7 C489.453333,557.78 488.426667,557.06 487.2,556.54 C485.973333,556.02 484.573333,555.76 483,555.76 C481.506667,555.76 480.14,556.04 478.9,556.6 C477.66,557.16 476.586667,557.913333 475.68,558.86 C474.773333,559.806667 474.066667,560.913333 473.56,562.18 C473.053333,563.446667 472.8,564.786667 472.8,566.2 C472.8,567.72 473.06,569.113333 473.58,570.38 C474.1,571.646667 474.826667,572.746667 475.76,573.68 C476.693333,574.613333 477.793333,575.34 479.06,575.86 C480.326667,576.38 481.706667,576.64 483.2,576.64 Z M487.72,563.68 L478.24,563.68 C478.586667,562.533333 479.186667,561.64 480.04,561 C480.893333,560.36 481.88,560.04 483,560.04 C483.8,560.04 484.486667,560.16 485.06,560.4 C485.633333,560.64 486.113333,560.946667 486.5,561.32 C486.886667,561.693333 487.18,562.093333 487.38,562.52 C487.58,562.946667 487.693333,563.333333 487.72,563.68 L487.72,563.68 Z M503.4,576 L503.4,547.36 L498.16,547.36 L498.16,576 L503.4,576 Z" id="CompletionofTravelHotel"></path>
            </g>
        </g>
    </g>
</svg>