<?xml version="1.0" encoding="UTF-8"?>
<svg width="231px" height="143px" viewBox="0 0 231 143" version="1.1" xmlns="http://www.w3.org/2000/svg" xmlns:xlink="http://www.w3.org/1999/xlink">
    <title>CompletionofTravelHotel</title>
    <g id="Page-1" stroke="none" stroke-width="1" fill="none" fill-rule="evenodd" fill-opacity="0.87">
        <path d="M15.48,30.64 C17.8533333,30.64 20,30.1933333 21.92,29.3 C23.84,28.4066667 25.5066667,27.1066667 26.92,25.4 L26.92,25.4 L23.08,21.76 C22.12,22.96 21.02,23.8866667 19.78,24.54 C18.54,25.1933333 17.12,25.52 15.52,25.52 C14.1866667,25.52 12.9333333,25.2866667 11.76,24.82 C10.5866667,24.3533333 9.56666667,23.6933333 8.7,22.84 C7.83333333,21.9866667 7.14666667,20.9533333 6.64,19.74 C6.13333333,18.5266667 5.88,17.1733333 5.88,15.68 C5.88,14.1866667 6.13333333,12.8333333 6.64,11.62 C7.14666667,10.4066667 7.83333333,9.37333333 8.7,8.52 C9.56666667,7.66666667 10.5866667,7.00666667 11.76,6.54 C12.9333333,6.07333333 14.1866667,5.84 15.52,5.84 C17.04,5.84 18.3533333,6.13333333 19.46,6.72 C20.5666667,7.30666667 21.5466667,8.09333333 22.4,9.08 L22.4,9.08 L26.2,5.4 C24.84,3.88 23.2866667,2.72 21.54,1.92 C19.7933333,1.12 17.7733333,0.72 15.48,0.72 C13.3466667,0.72 11.3666667,1.10666667 9.54,1.88 C7.71333333,2.65333333 6.13333333,3.70666667 4.8,5.04 C3.46666667,6.37333333 2.41333333,7.95333333 1.64,9.78 C0.866666667,11.6066667 0.48,13.5733333 0.48,15.68 C0.48,17.7866667 0.866666667,19.7533333 1.64,21.58 C2.41333333,23.4066667 3.46666667,24.9866667 4.8,26.32 C6.13333333,27.6533333 7.71333333,28.7066667 9.54,29.48 C11.3666667,30.2533333 13.3466667,30.64 15.48,30.64 Z M41.88,30.64 C43.7466667,30.64 45.48,30.1733333 47.08,29.24 C48.68,28.3066667 49.9533333,27.0466667 50.9,25.46 C51.8466667,23.8733333 52.32,22.1333333 52.32,20.24 C52.32,18.3466667 51.8466667,16.5933333 50.9,14.98 C49.9533333,13.3666667 48.68,12.0933333 47.08,11.16 C45.48,10.2266667 43.7466667,9.76 41.88,9.76 C39.9866667,9.76 38.24,10.2266667 36.64,11.16 C35.04,12.0933333 33.7733333,13.3666667 32.84,14.98 C31.9066667,16.5933333 31.44,18.3466667 31.44,20.24 C31.44,22.1333333 31.9066667,23.8733333 32.84,25.46 C33.7733333,27.0466667 35.04,28.3066667 36.64,29.24 C38.24,30.1733333 39.9866667,30.64 41.88,30.64 Z M41.88,25.92 C40.84,25.92 39.88,25.6666667 39,25.16 C38.12,24.6533333 37.4266667,23.96 36.92,23.08 C36.4133333,22.2 36.16,21.2533333 36.16,20.24 C36.16,19.2 36.4133333,18.24 36.92,17.36 C37.4266667,16.48 38.12,15.7866667 39,15.28 C39.88,14.7733333 40.84,14.52 41.88,14.52 C42.92,14.52 43.8733333,14.7733333 44.74,15.28 C45.6066667,15.7866667 46.2933333,16.48 46.8,17.36 C47.3066667,18.24 47.56,19.2 47.56,20.24 C47.56,21.2533333 47.3066667,22.2 46.8,23.08 C46.2933333,23.96 45.6066667,24.6533333 44.74,25.16 C43.8733333,25.6666667 42.92,25.92 41.88,25.92 Z M62.88,30 L62.88,20.48 C62.88,19.6533333 62.9733333,18.88 63.16,18.16 C63.3466667,17.44 63.6133333,16.82 63.96,16.3 C64.3066667,15.78 64.7333333,15.3666667 65.24,15.06 C65.7466667,14.7533333 66.3333333,14.6 67,14.6 C69.2933333,14.6 70.44,15.9333333 70.44,18.6 L70.44,18.6 L70.44,30 L75.68,30 L75.68,20.48 C75.68,19.6533333 75.78,18.88 75.98,18.16 C76.18,17.44 76.46,16.82 76.82,16.3 C77.18,15.78 77.6266667,15.3666667 78.16,15.06 C78.6933333,14.7533333 79.3066667,14.6 80,14.6 C82.1866667,14.6 83.28,15.9333333 83.28,18.6 L83.28,18.6 L83.28,30 L88.52,30 L88.52,17.64 C88.52,16.4933333 88.3733333,15.4333333 88.08,14.46 C87.7866667,13.4866667 87.3533333,12.6533333 86.78,11.96 C86.2066667,11.2666667 85.48,10.7266667 84.6,10.34 C83.72,9.95333333 82.68,9.76 81.48,9.76 C79.88,9.76 78.52,10.1133333 77.4,10.82 C76.28,11.5266667 75.4133333,12.3733333 74.8,13.36 C74.3733333,12.3466667 73.6533333,11.4933333 72.64,10.8 C71.6266667,10.1066667 70.3733333,9.76 68.88,9.76 C67.6,9.76 66.4333333,10.0533333 65.38,10.64 C64.3266667,11.2266667 63.4933333,12 62.88,12.96 L62.88,12.96 L62.56,12.96 L62.56,10.4 L57.64,10.4 L57.64,30 L62.88,30 Z M99.48,39 L99.48,28.68 C100.173333,29.2933333 101.026667,29.7666667 102.04,30.1 C103.053333,30.4333333 104.106667,30.6 105.2,30.6 C107.066667,30.6 108.8,30.1333333 110.4,29.2 C112,28.2666667 113.273333,27 114.22,25.4 C115.166667,23.8 115.64,22.0533333 115.64,20.16 C115.64,18.2666667 115.166667,16.5266667 114.22,14.94 C113.273333,13.3533333 112,12.0933333 110.4,11.16 C108.8,10.2266667 107.066667,9.76 105.2,9.76 C103.04,9.76 101.133333,10.3866667 99.48,11.64 L99.48,11.64 L99.48,10.36 L94.36,10.36 L94.36,39 L99.48,39 Z M105.2,26.08 C104.133333,26.08 103.146667,25.8133333 102.24,25.28 C101.333333,24.7466667 100.613333,24.0266667 100.08,23.12 C99.5466667,22.2133333 99.28,21.2266667 99.28,20.16 C99.28,19.0933333 99.5466667,18.1066667 100.08,17.2 C100.613333,16.2933333 101.333333,15.5733333 102.24,15.04 C103.146667,14.5066667 104.133333,14.24 105.2,14.24 C106.266667,14.24 107.253333,14.5066667 108.16,15.04 C109.066667,15.5733333 109.786667,16.2933333 110.32,17.2 C110.853333,18.1066667 111.12,19.0933333 111.12,20.16 C111.12,21.2266667 110.853333,22.2133333 110.32,23.12 C109.786667,24.0266667 109.066667,24.7466667 108.16,25.28 C107.253333,25.8133333 106.266667,26.08 105.2,26.08 Z M125.92,30 L125.92,1.36 L120.68,1.36 L120.68,30 L125.92,30 Z M141.68,30.64 C143.893333,30.64 145.766667,30.1466667 147.3,29.16 C148.833333,28.1733333 150.053333,26.88 150.96,25.28 L150.96,25.28 L146.6,23.12 C146.146667,23.9466667 145.526667,24.6333333 144.74,25.18 C143.953333,25.7266667 142.96,26 141.76,26 C141.146667,26 140.546667,25.9133333 139.96,25.74 C139.373333,25.5666667 138.833333,25.2866667 138.34,24.9 C137.846667,24.5133333 137.433333,24.0333333 137.1,23.46 C136.766667,22.8866667 136.546667,22.2 136.44,21.4 L136.44,21.4 L151.2,21.4 C151.2,21.24 151.213333,21.0933333 151.24,20.96 C151.24,20.8266667 151.253333,20.68 151.28,20.52 L151.28,20.52 L151.28,20.04 C151.28,18.5733333 151.066667,17.2133333 150.64,15.96 C150.213333,14.7066667 149.586667,13.62 148.76,12.7 C147.933333,11.78 146.906667,11.06 145.68,10.54 C144.453333,10.02 143.053333,9.76 141.48,9.76 C139.986667,9.76 138.62,10.04 137.38,10.6 C136.14,11.16 135.066667,11.9133333 134.16,12.86 C133.253333,13.8066667 132.546667,14.9133333 132.04,16.18 C131.533333,17.4466667 131.28,18.7866667 131.28,20.2 C131.28,21.72 131.54,23.1133333 132.06,24.38 C132.58,25.6466667 133.306667,26.7466667 134.24,27.68 C135.173333,28.6133333 136.273333,29.34 137.54,29.86 C138.806667,30.38 140.186667,30.64 141.68,30.64 Z M146.2,17.68 L136.72,17.68 C137.066667,16.5333333 137.666667,15.64 138.52,15 C139.373333,14.36 140.36,14.04 141.48,14.04 C142.28,14.04 142.966667,14.16 143.54,14.4 C144.113333,14.64 144.593333,14.9466667 144.98,15.32 C145.366667,15.6933333 145.66,16.0933333 145.86,16.52 C146.06,16.9466667 146.173333,17.3333333 146.2,17.68 L146.2,17.68 Z M165.32,30.32 C166.173333,30.32 166.953333,30.2466667 167.66,30.1 C168.366667,29.9533333 169.026667,29.7333333 169.64,29.44 L169.64,29.44 L168.16,24.84 C167.92,25 167.666667,25.1266667 167.4,25.22 C167.133333,25.3133333 166.773333,25.36 166.32,25.36 C165.626667,25.36 165.093333,25.1466667 164.72,24.72 C164.453333,24.4533333 164.273333,24.1266667 164.18,23.74 C164.086667,23.3533333 164.04,22.9333333 164.04,22.48 L164.04,22.48 L164.04,14.88 L168.84,14.88 L168.84,10.4 L164.04,10.4 L164.04,4.4 L158.8,4.4 L158.8,10.4 L155.36,10.4 L155.36,14.88 L158.8,14.88 L158.8,23.48 C158.8,25.6933333 159.426667,27.4 160.68,28.6 C161.213333,29.1333333 161.873333,29.5533333 162.66,29.86 C163.446667,30.1666667 164.333333,30.32 165.32,30.32 Z M180.24,6.6 L180.24,1.36 L175,1.36 L175,6.6 L180.24,6.6 Z M180.24,30 L180.24,10.4 L175,10.4 L175,30 L180.24,30 Z M196.32,30.64 C198.186667,30.64 199.92,30.1733333 201.52,29.24 C203.12,28.3066667 204.393333,27.0466667 205.34,25.46 C206.286667,23.8733333 206.76,22.1333333 206.76,20.24 C206.76,18.3466667 206.286667,16.5933333 205.34,14.98 C204.393333,13.3666667 203.12,12.0933333 201.52,11.16 C199.92,10.2266667 198.186667,9.76 196.32,9.76 C194.426667,9.76 192.68,10.2266667 191.08,11.16 C189.48,12.0933333 188.213333,13.3666667 187.28,14.98 C186.346667,16.5933333 185.88,18.3466667 185.88,20.24 C185.88,22.1333333 186.346667,23.8733333 187.28,25.46 C188.213333,27.0466667 189.48,28.3066667 191.08,29.24 C192.68,30.1733333 194.426667,30.64 196.32,30.64 Z M196.32,25.92 C195.28,25.92 194.32,25.6666667 193.44,25.16 C192.56,24.6533333 191.866667,23.96 191.36,23.08 C190.853333,22.2 190.6,21.2533333 190.6,20.24 C190.6,19.2 190.853333,18.24 191.36,17.36 C191.866667,16.48 192.56,15.7866667 193.44,15.28 C194.32,14.7733333 195.28,14.52 196.32,14.52 C197.36,14.52 198.313333,14.7733333 199.18,15.28 C200.046667,15.7866667 200.733333,16.48 201.24,17.36 C201.746667,18.24 202,19.2 202,20.24 C202,21.2533333 201.746667,22.2 201.24,23.08 C200.733333,23.96 200.046667,24.6533333 199.18,25.16 C198.313333,25.6666667 197.36,25.92 196.32,25.92 Z M217.32,30 L217.32,20.4 C217.32,19.6 217.42,18.8466667 217.62,18.14 C217.82,17.4333333 218.113333,16.82 218.5,16.3 C218.886667,15.78 219.353333,15.3666667 219.9,15.06 C220.446667,14.7533333 221.08,14.6 221.8,14.6 C223,14.6 223.913333,14.94 224.54,15.62 C225.166667,16.3 225.48,17.3466667 225.48,18.76 L225.48,18.76 L225.48,30 L230.72,30 L230.72,18.12 C230.72,16.8666667 230.566667,15.7266667 230.26,14.7 C229.953333,13.6733333 229.5,12.7933333 228.9,12.06 C228.3,11.3266667 227.533333,10.76 226.6,10.36 C225.666667,9.96 224.586667,9.76 223.36,9.76 C222.026667,9.76 220.84,10.0466667 219.8,10.62 C218.76,11.1933333 217.933333,11.9733333 217.32,12.96 L217.32,12.96 L217,12.96 L217,10.4 L212.08,10.4 L212.08,30 L217.32,30 Z M10.52,86.64 C12.3866667,86.64 14.12,86.1733333 15.72,85.24 C17.32,84.3066667 18.5933333,83.0466667 19.54,81.46 C20.4866667,79.8733333 20.96,78.1333333 20.96,76.24 C20.96,74.3466667 20.4866667,72.5933333 19.54,70.98 C18.5933333,69.3666667 17.32,68.0933333 15.72,67.16 C14.12,66.2266667 12.3866667,65.76 10.52,65.76 C8.62666667,65.76 6.88,66.2266667 5.28,67.16 C3.68,68.0933333 2.41333333,69.3666667 1.48,70.98 C0.546666667,72.5933333 0.08,74.3466667 0.08,76.24 C0.08,78.1333333 0.546666667,79.8733333 1.48,81.46 C2.41333333,83.0466667 3.68,84.3066667 5.28,85.24 C6.88,86.1733333 8.62666667,86.64 10.52,86.64 Z M10.52,81.92 C9.48,81.92 8.52,81.6666667 7.64,81.16 C6.76,80.6533333 6.06666667,79.96 5.56,79.08 C5.05333333,78.2 4.8,77.2533333 4.8,76.24 C4.8,75.2 5.05333333,74.24 5.56,73.36 C6.06666667,72.48 6.76,71.7866667 7.64,71.28 C8.52,70.7733333 9.48,70.52 10.52,70.52 C11.56,70.52 12.5133333,70.7733333 13.38,71.28 C14.2466667,71.7866667 14.9333333,72.48 15.44,73.36 C15.9466667,74.24 16.2,75.2 16.2,76.24 C16.2,77.2533333 15.9466667,78.2 15.44,79.08 C14.9333333,79.96 14.2466667,80.6533333 13.38,81.16 C12.5133333,81.6666667 11.56,81.92 10.52,81.92 Z M33.76,86 L33.76,70.88 L38.64,70.88 L38.64,66.4 L33.76,66.4 L33.76,64.8 C33.76,63.92 33.9866667,63.2333333 34.44,62.74 C34.8933333,62.2466667 35.5066667,62 36.28,62 C36.7333333,62 37.1133333,62.04 37.42,62.12 C37.7266667,62.2 38.0133333,62.3066667 38.28,62.44 L38.28,62.44 L39.76,57.76 C39.2533333,57.5466667 38.68,57.3733333 38.04,57.24 C37.4,57.1066667 36.7066667,57.04 35.96,57.04 C34.8666667,57.04 33.8666667,57.2066667 32.96,57.54 C32.0533333,57.8733333 31.2666667,58.3533333 30.6,58.98 C29.9333333,59.6066667 29.42,60.38 29.06,61.3 C28.7,62.22 28.52,63.28 28.52,64.48 L28.52,64.48 L28.52,66.4 L25,66.4 L25,70.88 L28.52,70.88 L28.52,86 L33.76,86 Z M67.08,86 L67.08,62.48 L75.08,62.48 L75.08,57.36 L53.68,57.36 L53.68,62.48 L61.68,62.48 L61.68,86 L67.08,86 Z M86,86 L86,78.24 C86,76.8266667 86.28,75.48 86.84,74.2 C87.2933333,73.2133333 87.9133333,72.3866667 88.7,71.72 C89.4866667,71.0533333 90.48,70.72 91.68,70.72 C92.1333333,70.72 92.6666667,70.7866667 93.28,70.92 L93.28,70.92 L93.28,66.32 C92.9066667,66.2133333 92.6266667,66.1466667 92.44,66.12 C92.0666667,66.0666667 91.7866667,66.04 91.6,66.04 C90.3466667,66.04 89.2266667,66.3466667 88.24,66.96 C87.2533333,67.5733333 86.5066667,68.4133333 86,69.48 L86,69.48 L86,66.44 L80.84,66.44 L80.84,86 L86,86 Z M107.88,86.6 C110.04,86.6 111.946667,85.9733333 113.6,84.72 L113.6,84.72 L113.6,86 L118.72,86 L118.72,66.4 L113.6,66.4 L113.6,67.68 C112.906667,67.0666667 112.053333,66.5933333 111.04,66.26 C110.026667,65.9266667 108.973333,65.76 107.88,65.76 C106.013333,65.76 104.28,66.2266667 102.68,67.16 C101.08,68.0933333 99.8066667,69.36 98.86,70.96 C97.9133333,72.56 97.44,74.3066667 97.44,76.2 C97.44,78.0933333 97.9133333,79.8333333 98.86,81.42 C99.8066667,83.0066667 101.08,84.2666667 102.68,85.2 C104.28,86.1333333 106.013333,86.6 107.88,86.6 Z M107.88,82.08 C106.813333,82.08 105.826667,81.8133333 104.92,81.28 C104.013333,80.7466667 103.293333,80.0266667 102.76,79.12 C102.226667,78.2133333 101.96,77.2266667 101.96,76.16 C101.96,75.0933333 102.226667,74.1066667 102.76,73.2 C103.293333,72.2933333 104.013333,71.5733333 104.92,71.04 C105.826667,70.5066667 106.813333,70.24 107.88,70.24 C108.946667,70.24 109.933333,70.5066667 110.84,71.04 C111.746667,71.5733333 112.466667,72.2933333 113,73.2 C113.533333,74.1066667 113.8,75.0933333 113.8,76.16 C113.8,77.2266667 113.533333,78.2133333 113,79.12 C112.466667,80.0266667 111.746667,80.7466667 110.84,81.28 C109.933333,81.8133333 108.946667,82.08 107.88,82.08 Z M136.4,86 L144.84,66.4 L138.92,66.4 L134,78.88 L133.72,78.88 L128.84,66.4 L122.88,66.4 L131.24,86 L136.4,86 Z M158.52,86.64 C160.733333,86.64 162.606667,86.1466667 164.14,85.16 C165.673333,84.1733333 166.893333,82.88 167.8,81.28 L167.8,81.28 L163.44,79.12 C162.986667,79.9466667 162.366667,80.6333333 161.58,81.18 C160.793333,81.7266667 159.8,82 158.6,82 C157.986667,82 157.386667,81.9133333 156.8,81.74 C156.213333,81.5666667 155.673333,81.2866667 155.18,80.9 C154.686667,80.5133333 154.273333,80.0333333 153.94,79.46 C153.606667,78.8866667 153.386667,78.2 153.28,77.4 L153.28,77.4 L168.04,77.4 C168.04,77.24 168.053333,77.0933333 168.08,76.96 C168.08,76.8266667 168.093333,76.68 168.12,76.52 L168.12,76.52 L168.12,76.04 C168.12,74.5733333 167.906667,73.2133333 167.48,71.96 C167.053333,70.7066667 166.426667,69.62 165.6,68.7 C164.773333,67.78 163.746667,67.06 162.52,66.54 C161.293333,66.02 159.893333,65.76 158.32,65.76 C156.826667,65.76 155.46,66.04 154.22,66.6 C152.98,67.16 151.906667,67.9133333 151,68.86 C150.093333,69.8066667 149.386667,70.9133333 148.88,72.18 C148.373333,73.4466667 148.12,74.7866667 148.12,76.2 C148.12,77.72 148.38,79.1133333 148.9,80.38 C149.42,81.6466667 150.146667,82.7466667 151.08,83.68 C152.013333,84.6133333 153.113333,85.34 154.38,85.86 C155.646667,86.38 157.026667,86.64 158.52,86.64 Z M163.04,73.68 L153.56,73.68 C153.906667,72.5333333 154.506667,71.64 155.36,71 C156.213333,70.36 157.2,70.04 158.32,70.04 C159.12,70.04 159.806667,70.16 160.38,70.4 C160.953333,70.64 161.433333,70.9466667 161.82,71.32 C162.206667,71.6933333 162.5,72.0933333 162.7,72.52 C162.9,72.9466667 163.013333,73.3333333 163.04,73.68 L163.04,73.68 Z M178.72,86 L178.72,57.36 L173.48,57.36 L173.48,86 L178.72,86 Z M7.28,142 L7.28,129.92 L19.32,129.92 L19.32,142 L24.72,142 L24.72,113.36 L19.32,113.36 L19.32,124.8 L7.28,124.8 L7.28,113.36 L1.88,113.36 L1.88,142 L7.28,142 Z M41.12,142.64 C42.9866667,142.64 44.72,142.173333 46.32,141.24 C47.92,140.306667 49.1933333,139.046667 50.14,137.46 C51.0866667,135.873333 51.56,134.133333 51.56,132.24 C51.56,130.346667 51.0866667,128.593333 50.14,126.98 C49.1933333,125.366667 47.92,124.093333 46.32,123.16 C44.72,122.226667 42.9866667,121.76 41.12,121.76 C39.2266667,121.76 37.48,122.226667 35.88,123.16 C34.28,124.093333 33.0133333,125.366667 32.08,126.98 C31.1466667,128.593333 30.68,130.346667 30.68,132.24 C30.68,134.133333 31.1466667,135.873333 32.08,137.46 C33.0133333,139.046667 34.28,140.306667 35.88,141.24 C37.48,142.173333 39.2266667,142.64 41.12,142.64 Z M41.12,137.92 C40.08,137.92 39.12,137.666667 38.24,137.16 C37.36,136.653333 36.6666667,135.96 36.16,135.08 C35.6533333,134.2 35.4,133.253333 35.4,132.24 C35.4,131.2 35.6533333,130.24 36.16,129.36 C36.6666667,128.48 37.36,127.786667 38.24,127.28 C39.12,126.773333 40.08,126.52 41.12,126.52 C42.16,126.52 43.1133333,126.773333 43.98,127.28 C44.8466667,127.786667 45.5333333,128.48 46.04,129.36 C46.5466667,130.24 46.8,131.2 46.8,132.24 C46.8,133.253333 46.5466667,134.2 46.04,135.08 C45.5333333,135.96 44.8466667,136.653333 43.98,137.16 C43.1133333,137.666667 42.16,137.92 41.12,137.92 Z M65.56,142.32 C66.4133333,142.32 67.1933333,142.246667 67.9,142.1 C68.6066667,141.953333 69.2666667,141.733333 69.88,141.44 L69.88,141.44 L68.4,136.84 C68.16,137 67.9066667,137.126667 67.64,137.22 C67.3733333,137.313333 67.0133333,137.36 66.56,137.36 C65.8666667,137.36 65.3333333,137.146667 64.96,136.72 C64.6933333,136.453333 64.5133333,136.126667 64.42,135.74 C64.3266667,135.353333 64.28,134.933333 64.28,134.48 L64.28,134.48 L64.28,126.88 L69.08,126.88 L69.08,122.4 L64.28,122.4 L64.28,116.4 L59.04,116.4 L59.04,122.4 L55.6,122.4 L55.6,126.88 L59.04,126.88 L59.04,135.48 C59.04,137.693333 59.6666667,139.4 60.92,140.6 C61.4533333,141.133333 62.1133333,141.553333 62.9,141.86 C63.6866667,142.166667 64.5733333,142.32 65.56,142.32 Z M84.2,142.64 C86.4133333,142.64 88.2866667,142.146667 89.82,141.16 C91.3533333,140.173333 92.5733333,138.88 93.48,137.28 L93.48,137.28 L89.12,135.12 C88.6666667,135.946667 88.0466667,136.633333 87.26,137.18 C86.4733333,137.726667 85.48,138 84.28,138 C83.6666667,138 83.0666667,137.913333 82.48,137.74 C81.8933333,137.566667 81.3533333,137.286667 80.86,136.9 C80.3666667,136.513333 79.9533333,136.033333 79.62,135.46 C79.2866667,134.886667 79.0666667,134.2 78.96,133.4 L78.96,133.4 L93.72,133.4 C93.72,133.24 93.7333333,133.093333 93.76,132.96 C93.76,132.826667 93.7733333,132.68 93.8,132.52 L93.8,132.52 L93.8,132.04 C93.8,130.573333 93.5866667,129.213333 93.16,127.96 C92.7333333,126.706667 92.1066667,125.62 91.28,124.7 C90.4533333,123.78 89.4266667,123.06 88.2,122.54 C86.9733333,122.02 85.5733333,121.76 84,121.76 C82.5066667,121.76 81.14,122.04 79.9,122.6 C78.66,123.16 77.5866667,123.913333 76.68,124.86 C75.7733333,125.806667 75.0666667,126.913333 74.56,128.18 C74.0533333,129.446667 73.8,130.786667 73.8,132.2 C73.8,133.72 74.06,135.113333 74.58,136.38 C75.1,137.646667 75.8266667,138.746667 76.76,139.68 C77.6933333,140.613333 78.7933333,141.34 80.06,141.86 C81.3266667,142.38 82.7066667,142.64 84.2,142.64 Z M88.72,129.68 L79.24,129.68 C79.5866667,128.533333 80.1866667,127.64 81.04,127 C81.8933333,126.36 82.88,126.04 84,126.04 C84.8,126.04 85.4866667,126.16 86.06,126.4 C86.6333333,126.64 87.1133333,126.946667 87.5,127.32 C87.8866667,127.693333 88.18,128.093333 88.38,128.52 C88.58,128.946667 88.6933333,129.333333 88.72,129.68 L88.72,129.68 Z M104.4,142 L104.4,113.36 L99.16,113.36 L99.16,142 L104.4,142 Z" id="CompletionofTravelHotel" fill="#000000" fill-rule="nonzero"></path>
    </g>
</svg>