<?xml version="1.0" encoding="UTF-8"?>
<svg width="228px" height="39px" viewBox="0 0 228 39" version="1.1" xmlns="http://www.w3.org/2000/svg" xmlns:xlink="http://www.w3.org/1999/xlink">
    <title>SquareLab</title>
    <g id="Page-1" stroke="none" stroke-width="1" fill="none" fill-rule="evenodd">
        <g id="Service-Introduction" transform="translate(-399.000000, -1330.000000)" fill="#FFFFFF" fill-rule="nonzero">
            <g id="section-2" transform="translate(0.000000, 1078.000000)">
                <path d="M409.64,282.64 C410.76,282.64 411.906667,282.466667 413.08,282.12 C414.253333,281.773333 415.306667,281.253333 416.24,280.56 C417.173333,279.866667 417.94,278.98 418.54,277.9 C419.14,276.82 419.44,275.533333 419.44,274.04 C419.44,272.84 419.26,271.78 418.9,270.86 C418.54,269.94 418.02,269.12 417.34,268.4 C416.66,267.68 415.846667,267.06 414.9,266.54 C413.953333,266.02 412.906667,265.56 411.76,265.16 L411.76,265.16 L409.96,264.56 C408.333333,264 407.146667,263.42 406.4,262.82 C405.653333,262.22 405.28,261.493333 405.28,260.64 C405.28,259.76 405.666667,259.046667 406.44,258.5 C407.213333,257.953333 408.186667,257.68 409.36,257.68 C410.586667,257.68 411.553333,258 412.26,258.64 C412.966667,259.28 413.453333,260 413.72,260.8 L413.72,260.8 L418.48,258.8 C418.266667,258.16 417.933333,257.48 417.48,256.76 C417.026667,256.04 416.433333,255.38 415.7,254.78 C414.966667,254.18 414.073333,253.686667 413.02,253.3 C411.966667,252.913333 410.72,252.72 409.28,252.72 C407.893333,252.72 406.633333,252.926667 405.5,253.34 C404.366667,253.753333 403.393333,254.326667 402.58,255.06 C401.766667,255.793333 401.14,256.646667 400.7,257.62 C400.26,258.593333 400.04,259.64 400.04,260.76 C400.04,261.853333 400.246667,262.833333 400.66,263.7 C401.073333,264.566667 401.6,265.32 402.24,265.96 C402.88,266.6 403.593333,267.146667 404.38,267.6 C405.166667,268.053333 405.946667,268.413333 406.72,268.68 L406.72,268.68 L408.48,269.32 C409.52,269.693333 410.393333,270.053333 411.1,270.4 C411.806667,270.746667 412.38,271.106667 412.82,271.48 C413.26,271.853333 413.573333,272.253333 413.76,272.68 C413.946667,273.106667 414.04,273.586667 414.04,274.12 C414.04,274.68 413.92,275.173333 413.68,275.6 C413.44,276.026667 413.113333,276.38 412.7,276.66 C412.286667,276.94 411.82,277.153333 411.3,277.3 C410.78,277.446667 410.24,277.52 409.68,277.52 C408.16,277.52 406.933333,277.046667 406,276.1 C405.066667,275.153333 404.413333,273.96 404.04,272.52 L404.04,272.52 L398.96,274.52 C399.36,275.853333 399.906667,277.02 400.6,278.02 C401.293333,279.02 402.106667,279.866667 403.04,280.56 C403.973333,281.253333 405,281.773333 406.12,282.12 C407.24,282.466667 408.413333,282.64 409.64,282.64 Z M445.08,291 L445.08,262.36 L439.96,262.36 L439.96,263.64 C438.306667,262.386667 436.4,261.76 434.24,261.76 C432.373333,261.76 430.64,262.226667 429.04,263.16 C427.44,264.093333 426.166667,265.353333 425.22,266.94 C424.273333,268.526667 423.8,270.266667 423.8,272.16 C423.8,274.053333 424.273333,275.8 425.22,277.4 C426.166667,279 427.44,280.266667 429.04,281.2 C430.64,282.133333 432.373333,282.6 434.24,282.6 C435.333333,282.6 436.386667,282.433333 437.4,282.1 C438.413333,281.766667 439.266667,281.293333 439.96,280.68 L439.96,280.68 L439.96,291 L445.08,291 Z M434.24,278.08 C433.173333,278.08 432.186667,277.813333 431.28,277.28 C430.373333,276.746667 429.653333,276.026667 429.12,275.12 C428.586667,274.213333 428.32,273.226667 428.32,272.16 C428.32,271.093333 428.586667,270.106667 429.12,269.2 C429.653333,268.293333 430.373333,267.573333 431.28,267.04 C432.186667,266.506667 433.173333,266.24 434.24,266.24 C435.306667,266.24 436.293333,266.506667 437.2,267.04 C438.106667,267.573333 438.826667,268.293333 439.36,269.2 C439.893333,270.106667 440.16,271.093333 440.16,272.16 C440.16,273.226667 439.893333,274.213333 439.36,275.12 C438.826667,276.026667 438.106667,276.746667 437.2,277.28 C436.293333,277.813333 435.306667,278.08 434.24,278.08 Z M458,282.64 C458.586667,282.64 459.066667,282.626667 459.44,282.6 C460.72,282.493333 461.806667,282.173333 462.7,281.64 C463.593333,281.106667 464.253333,280.626667 464.68,280.2 L464.68,280.2 L464.68,282 L469.56,282 L469.56,262.4 L464.36,262.4 L464.36,272.04 C464.36,272.786667 464.253333,273.546667 464.04,274.32 C463.826667,275.04 463.533333,275.64 463.16,276.12 C462.786667,276.68 462.32,277.093333 461.76,277.36 C461.253333,277.68 460.626667,277.84 459.88,277.84 C458.68,277.84 457.773333,277.493333 457.16,276.8 C456.52,276.106667 456.2,275.066667 456.2,273.68 L456.2,273.68 L456.2,262.4 L451,262.4 L451,274.32 C451,276.853333 451.6,278.88 452.8,280.4 C454.026667,281.893333 455.76,282.64 458,282.64 Z M485.36,282.6 C487.52,282.6 489.426667,281.973333 491.08,280.72 L491.08,280.72 L491.08,282 L496.2,282 L496.2,262.4 L491.08,262.4 L491.08,263.68 C490.386667,263.066667 489.533333,262.593333 488.52,262.26 C487.506667,261.926667 486.453333,261.76 485.36,261.76 C483.493333,261.76 481.76,262.226667 480.16,263.16 C478.56,264.093333 477.286667,265.36 476.34,266.96 C475.393333,268.56 474.92,270.306667 474.92,272.2 C474.92,274.093333 475.393333,275.833333 476.34,277.42 C477.286667,279.006667 478.56,280.266667 480.16,281.2 C481.76,282.133333 483.493333,282.6 485.36,282.6 Z M485.36,278.08 C484.293333,278.08 483.306667,277.813333 482.4,277.28 C481.493333,276.746667 480.773333,276.026667 480.24,275.12 C479.706667,274.213333 479.44,273.226667 479.44,272.16 C479.44,271.093333 479.706667,270.106667 480.24,269.2 C480.773333,268.293333 481.493333,267.573333 482.4,267.04 C483.306667,266.506667 484.293333,266.24 485.36,266.24 C486.426667,266.24 487.413333,266.506667 488.32,267.04 C489.226667,267.573333 489.946667,268.293333 490.48,269.2 C491.013333,270.106667 491.28,271.093333 491.28,272.16 C491.28,273.226667 491.013333,274.213333 490.48,275.12 C489.946667,276.026667 489.226667,276.746667 488.32,277.28 C487.413333,277.813333 486.426667,278.08 485.36,278.08 Z M508.16,282 L508.16,274.24 C508.16,272.826667 508.44,271.48 509,270.2 C509.453333,269.213333 510.073333,268.386667 510.86,267.72 C511.646667,267.053333 512.64,266.72 513.84,266.72 C514.293333,266.72 514.826667,266.786667 515.44,266.92 L515.44,266.92 L515.44,262.32 C515.066667,262.213333 514.786667,262.146667 514.6,262.12 C514.226667,262.066667 513.946667,262.04 513.76,262.04 C512.506667,262.04 511.386667,262.346667 510.4,262.96 C509.413333,263.573333 508.666667,264.413333 508.16,265.48 L508.16,265.48 L508.16,262.44 L503,262.44 L503,282 L508.16,282 Z M530,282.64 C532.213333,282.64 534.086667,282.146667 535.62,281.16 C537.153333,280.173333 538.373333,278.88 539.28,277.28 L539.28,277.28 L534.92,275.12 C534.466667,275.946667 533.846667,276.633333 533.06,277.18 C532.273333,277.726667 531.28,278 530.08,278 C529.466667,278 528.866667,277.913333 528.28,277.74 C527.693333,277.566667 527.153333,277.286667 526.66,276.9 C526.166667,276.513333 525.753333,276.033333 525.42,275.46 C525.086667,274.886667 524.866667,274.2 524.76,273.4 L524.76,273.4 L539.52,273.4 C539.52,273.24 539.533333,273.093333 539.56,272.96 C539.56,272.826667 539.573333,272.68 539.6,272.52 L539.6,272.52 L539.6,272.04 C539.6,270.573333 539.386667,269.213333 538.96,267.96 C538.533333,266.706667 537.906667,265.62 537.08,264.7 C536.253333,263.78 535.226667,263.06 534,262.54 C532.773333,262.02 531.373333,261.76 529.8,261.76 C528.306667,261.76 526.94,262.04 525.7,262.6 C524.46,263.16 523.386667,263.913333 522.48,264.86 C521.573333,265.806667 520.866667,266.913333 520.36,268.18 C519.853333,269.446667 519.6,270.786667 519.6,272.2 C519.6,273.72 519.86,275.113333 520.38,276.38 C520.9,277.646667 521.626667,278.746667 522.56,279.68 C523.493333,280.613333 524.593333,281.34 525.86,281.86 C527.126667,282.38 528.506667,282.64 530,282.64 Z M534.52,269.68 L525.04,269.68 C525.386667,268.533333 525.986667,267.64 526.84,267 C527.693333,266.36 528.68,266.04 529.8,266.04 C530.6,266.04 531.286667,266.16 531.86,266.4 C532.433333,266.64 532.913333,266.946667 533.3,267.32 C533.686667,267.693333 533.98,268.093333 534.18,268.52 C534.38,268.946667 534.493333,269.333333 534.52,269.68 L534.52,269.68 Z M573.92,282 L573.92,276.88 L561.8,276.88 L561.8,253.36 L556.4,253.36 L556.4,282 L573.92,282 Z M588.44,282.6 C590.6,282.6 592.506667,281.973333 594.16,280.72 L594.16,280.72 L594.16,282 L599.28,282 L599.28,262.4 L594.16,262.4 L594.16,263.68 C593.466667,263.066667 592.613333,262.593333 591.6,262.26 C590.586667,261.926667 589.533333,261.76 588.44,261.76 C586.573333,261.76 584.84,262.226667 583.24,263.16 C581.64,264.093333 580.366667,265.36 579.42,266.96 C578.473333,268.56 578,270.306667 578,272.2 C578,274.093333 578.473333,275.833333 579.42,277.42 C580.366667,279.006667 581.64,280.266667 583.24,281.2 C584.84,282.133333 586.573333,282.6 588.44,282.6 Z M588.44,278.08 C587.373333,278.08 586.386667,277.813333 585.48,277.28 C584.573333,276.746667 583.853333,276.026667 583.32,275.12 C582.786667,274.213333 582.52,273.226667 582.52,272.16 C582.52,271.093333 582.786667,270.106667 583.32,269.2 C583.853333,268.293333 584.573333,267.573333 585.48,267.04 C586.386667,266.506667 587.373333,266.24 588.44,266.24 C589.506667,266.24 590.493333,266.506667 591.4,267.04 C592.306667,267.573333 593.026667,268.293333 593.56,269.2 C594.093333,270.106667 594.36,271.093333 594.36,272.16 C594.36,273.226667 594.093333,274.213333 593.56,275.12 C593.026667,276.026667 592.306667,276.746667 591.4,277.28 C590.493333,277.813333 589.506667,278.08 588.44,278.08 Z M615.72,282.6 C617.586667,282.6 619.32,282.133333 620.92,281.2 C622.52,280.266667 623.793333,279.006667 624.74,277.42 C625.686667,275.833333 626.16,274.093333 626.16,272.2 C626.16,270.306667 625.686667,268.56 624.74,266.96 C623.793333,265.36 622.52,264.093333 620.92,263.16 C619.32,262.226667 617.586667,261.76 615.72,261.76 C614.626667,261.76 613.573333,261.926667 612.56,262.26 C611.546667,262.593333 610.693333,263.066667 610,263.68 L610,263.68 L610,253.36 L604.88,253.36 L604.88,282 L610,282 L610,280.72 C611.653333,281.973333 613.56,282.6 615.72,282.6 Z M615.72,278.08 C614.653333,278.08 613.666667,277.813333 612.76,277.28 C611.853333,276.746667 611.133333,276.026667 610.6,275.12 C610.066667,274.213333 609.8,273.226667 609.8,272.16 C609.8,271.093333 610.066667,270.106667 610.6,269.2 C611.133333,268.293333 611.853333,267.573333 612.76,267.04 C613.666667,266.506667 614.653333,266.24 615.72,266.24 C616.786667,266.24 617.773333,266.506667 618.68,267.04 C619.586667,267.573333 620.306667,268.293333 620.84,269.2 C621.373333,270.106667 621.64,271.093333 621.64,272.16 C621.64,273.226667 621.373333,274.213333 620.84,275.12 C620.306667,276.026667 619.586667,276.746667 618.68,277.28 C617.773333,277.813333 616.786667,278.08 615.72,278.08 Z" id="SquareLab"></path>
            </g>
        </g>
    </g>
</svg>