<?xml version="1.0" encoding="UTF-8"?>
<svg width="284px" height="151px" viewBox="0 0 284 151" version="1.1" xmlns="http://www.w3.org/2000/svg" xmlns:xlink="http://www.w3.org/1999/xlink">
    <title>ThebeginningofTravelFlights</title>
    <g id="Page-1" stroke="none" stroke-width="1" fill="none" fill-rule="evenodd" fill-opacity="0.87">
        <path d="M14.36,29 L14.36,5.48 L22.36,5.48 L22.36,0.36 L0.96,0.36 L0.96,5.48 L8.96,5.48 L8.96,29 L14.36,29 Z M32.76,29 L32.76,17.88 C32.76,17.24 32.9733333,16.6466667 33.4,16.1 C33.8266667,15.5533333 34.3733333,15.1133333 35.04,14.78 C35.7066667,14.4466667 36.3733333,14.2666667 37.04,14.24 C38.0533333,14.2666667 38.9866667,14.64 39.84,15.36 C40.6933333,16.08 41.12,16.92 41.12,17.88 L41.12,29 L46.28,29 L46.28,17.88 C46.28,16.28 45.88,14.8 45.08,13.44 C44.28,12.08 43.2066667,11 41.86,10.2 C40.5133333,9.4 39.04,9 37.44,9 C35.7866667,9 34.2266667,9.42666667 32.76,10.28 L32.76,0.36 L27.56,0.36 L27.56,29 L32.76,29 Z M61.8,29.64 C64.0133333,29.64 65.8866667,29.1466667 67.42,28.16 C68.9533333,27.1733333 70.1733333,25.88 71.08,24.28 L71.08,24.28 L66.72,22.12 C66.2666667,22.9466667 65.6466667,23.6333333 64.86,24.18 C64.0733333,24.7266667 63.08,25 61.88,25 C61.2666667,25 60.6666667,24.9133333 60.08,24.74 C59.4933333,24.5666667 58.9533333,24.2866667 58.46,23.9 C57.9666667,23.5133333 57.5533333,23.0333333 57.22,22.46 C56.8866667,21.8866667 56.6666667,21.2 56.56,20.4 L56.56,20.4 L71.32,20.4 C71.32,20.24 71.3333333,20.0933333 71.36,19.96 C71.36,19.8266667 71.3733333,19.68 71.4,19.52 L71.4,19.52 L71.4,19.04 C71.4,17.5733333 71.1866667,16.2133333 70.76,14.96 C70.3333333,13.7066667 69.7066667,12.62 68.88,11.7 C68.0533333,10.78 67.0266667,10.06 65.8,9.54 C64.5733333,9.02 63.1733333,8.76 61.6,8.76 C60.1066667,8.76 58.74,9.04 57.5,9.6 C56.26,10.16 55.1866667,10.9133333 54.28,11.86 C53.3733333,12.8066667 52.6666667,13.9133333 52.16,15.18 C51.6533333,16.4466667 51.4,17.7866667 51.4,19.2 C51.4,20.72 51.66,22.1133333 52.18,23.38 C52.7,24.6466667 53.4266667,25.7466667 54.36,26.68 C55.2933333,27.6133333 56.3933333,28.34 57.66,28.86 C58.9266667,29.38 60.3066667,29.64 61.8,29.64 Z M66.32,16.68 L56.84,16.68 C57.1866667,15.5333333 57.7866667,14.64 58.64,14 C59.4933333,13.36 60.48,13.04 61.6,13.04 C62.4,13.04 63.0866667,13.16 63.66,13.4 C64.2333333,13.64 64.7133333,13.9466667 65.1,14.32 C65.4866667,14.6933333 65.78,15.0933333 65.98,15.52 C66.18,15.9466667 66.2933333,16.3333333 66.32,16.68 L66.32,16.68 Z M97.76,29.6 C99.6266667,29.6 101.36,29.1333333 102.96,28.2 C104.56,27.2666667 105.833333,26.0066667 106.78,24.42 C107.726667,22.8333333 108.2,21.0933333 108.2,19.2 C108.2,17.3066667 107.726667,15.56 106.78,13.96 C105.833333,12.36 104.56,11.0933333 102.96,10.16 C101.36,9.22666667 99.6266667,8.76 97.76,8.76 C96.6666667,8.76 95.6133333,8.92666667 94.6,9.26 C93.5866667,9.59333333 92.7333333,10.0666667 92.04,10.68 L92.04,10.68 L92.04,0.36 L86.92,0.36 L86.92,29 L92.04,29 L92.04,27.72 C93.6933333,28.9733333 95.6,29.6 97.76,29.6 Z M97.76,25.08 C96.6933333,25.08 95.7066667,24.8133333 94.8,24.28 C93.8933333,23.7466667 93.1733333,23.0266667 92.64,22.12 C92.1066667,21.2133333 91.84,20.2266667 91.84,19.16 C91.84,18.0933333 92.1066667,17.1066667 92.64,16.2 C93.1733333,15.2933333 93.8933333,14.5733333 94.8,14.04 C95.7066667,13.5066667 96.6933333,13.24 97.76,13.24 C98.8266667,13.24 99.8133333,13.5066667 100.72,14.04 C101.626667,14.5733333 102.346667,15.2933333 102.88,16.2 C103.413333,17.1066667 103.68,18.0933333 103.68,19.16 C103.68,20.2266667 103.413333,21.2133333 102.88,22.12 C102.346667,23.0266667 101.626667,23.7466667 100.72,24.28 C99.8133333,24.8133333 98.8266667,25.08 97.76,25.08 Z M122.84,29.64 C125.053333,29.64 126.926667,29.1466667 128.46,28.16 C129.993333,27.1733333 131.213333,25.88 132.12,24.28 L132.12,24.28 L127.76,22.12 C127.306667,22.9466667 126.686667,23.6333333 125.9,24.18 C125.113333,24.7266667 124.12,25 122.92,25 C122.306667,25 121.706667,24.9133333 121.12,24.74 C120.533333,24.5666667 119.993333,24.2866667 119.5,23.9 C119.006667,23.5133333 118.593333,23.0333333 118.26,22.46 C117.926667,21.8866667 117.706667,21.2 117.6,20.4 L117.6,20.4 L132.36,20.4 C132.36,20.24 132.373333,20.0933333 132.4,19.96 C132.4,19.8266667 132.413333,19.68 132.44,19.52 L132.44,19.52 L132.44,19.04 C132.44,17.5733333 132.226667,16.2133333 131.8,14.96 C131.373333,13.7066667 130.746667,12.62 129.92,11.7 C129.093333,10.78 128.066667,10.06 126.84,9.54 C125.613333,9.02 124.213333,8.76 122.64,8.76 C121.146667,8.76 119.78,9.04 118.54,9.6 C117.3,10.16 116.226667,10.9133333 115.32,11.86 C114.413333,12.8066667 113.706667,13.9133333 113.2,15.18 C112.693333,16.4466667 112.44,17.7866667 112.44,19.2 C112.44,20.72 112.7,22.1133333 113.22,23.38 C113.74,24.6466667 114.466667,25.7466667 115.4,26.68 C116.333333,27.6133333 117.433333,28.34 118.7,28.86 C119.966667,29.38 121.346667,29.64 122.84,29.64 Z M127.36,16.68 L117.88,16.68 C118.226667,15.5333333 118.826667,14.64 119.68,14 C120.533333,13.36 121.52,13.04 122.64,13.04 C123.44,13.04 124.126667,13.16 124.7,13.4 C125.273333,13.64 125.753333,13.9466667 126.14,14.32 C126.526667,14.6933333 126.82,15.0933333 127.02,15.52 C127.22,15.9466667 127.333333,16.3333333 127.36,16.68 L127.36,16.68 Z M147.48,38.36 C149,38.36 150.4,38.12 151.68,37.64 C152.96,37.1066667 154.04,36.4 154.92,35.52 C155.826667,34.5866667 156.533333,33.4666667 157.04,32.16 C157.546667,30.7733333 157.8,29.2933333 157.8,27.72 L157.8,27.72 L157.8,9.4 L152.8,9.4 L152.8,10.4 C151.12,9.30666667 149.266667,8.76 147.24,8.76 C145.4,8.76 143.7,9.22 142.14,10.14 C140.58,11.06 139.34,12.3 138.42,13.86 C137.5,15.42 137.04,17.12 137.04,18.96 C137.04,20.8 137.5,22.5 138.42,24.06 C139.34,25.62 140.58,26.86 142.14,27.78 C143.7,28.7 145.4,29.16 147.24,29.16 C149.266667,29.16 151.12,28.6133333 152.8,27.52 C152.8,28.48 152.68,29.36 152.44,30.16 C152.2,30.96 151.84,31.6133333 151.36,32.12 C150.4,33.2133333 149.106667,33.76 147.48,33.76 C146.466667,33.76 145.52,33.4666667 144.64,32.88 C144.213333,32.6133333 143.853333,32.2666667 143.56,31.84 C143.426667,31.7066667 143.32,31.56 143.24,31.4 L143.24,31.4 L138.28,33.52 C138.546667,33.9466667 138.786667,34.28 139,34.52 C139.48,35.1866667 140.133333,35.8266667 140.96,36.44 C141.786667,37.0266667 142.733333,37.4933333 143.8,37.84 C144.813333,38.1866667 146.04,38.36 147.48,38.36 Z M147.24,24.8 C146.253333,24.8 145.306667,24.5266667 144.4,23.98 C143.493333,23.4333333 142.766667,22.7066667 142.22,21.8 C141.673333,20.8933333 141.4,19.9466667 141.4,18.96 C141.4,17.9733333 141.666667,17.0266667 142.2,16.12 C142.733333,15.2133333 143.453333,14.4866667 144.36,13.94 C145.266667,13.3933333 146.226667,13.12 147.24,13.12 C147.506667,13.12 147.733333,13.1333333 147.92,13.16 C148.106667,13.1866667 148.253333,13.2133333 148.36,13.24 C149.453333,13.48 150.433333,14.0333333 151.3,14.9 C152.166667,15.7666667 152.72,16.7466667 152.96,17.84 C152.986667,17.9466667 153.013333,18.0933333 153.04,18.28 C153.066667,18.4666667 153.08,18.6933333 153.08,18.96 C153.08,19.9466667 152.806667,20.8933333 152.26,21.8 C151.713333,22.7066667 150.986667,23.4333333 150.08,23.98 C149.173333,24.5266667 148.226667,24.8 147.24,24.8 Z M169.24,5.6 L169.24,0.36 L164,0.36 L164,5.6 L169.24,5.6 Z M169.24,29 L169.24,9.4 L164,9.4 L164,29 L169.24,29 Z M181.28,29 L181.28,19.4 C181.28,18.6 181.38,17.8466667 181.58,17.14 C181.78,16.4333333 182.073333,15.82 182.46,15.3 C182.846667,14.78 183.313333,14.3666667 183.86,14.06 C184.406667,13.7533333 185.04,13.6 185.76,13.6 C186.96,13.6 187.873333,13.94 188.5,14.62 C189.126667,15.3 189.44,16.3466667 189.44,17.76 L189.44,17.76 L189.44,29 L194.68,29 L194.68,17.12 C194.68,15.8666667 194.526667,14.7266667 194.22,13.7 C193.913333,12.6733333 193.46,11.7933333 192.86,11.06 C192.26,10.3266667 191.493333,9.76 190.56,9.36 C189.626667,8.96 188.546667,8.76 187.32,8.76 C185.986667,8.76 184.8,9.04666667 183.76,9.62 C182.72,10.1933333 181.893333,10.9733333 181.28,11.96 L181.28,11.96 L180.96,11.96 L180.96,9.4 L176.04,9.4 L176.04,29 L181.28,29 Z M206.24,29 L206.24,19.4 C206.24,18.6 206.34,17.8466667 206.54,17.14 C206.74,16.4333333 207.033333,15.82 207.42,15.3 C207.806667,14.78 208.273333,14.3666667 208.82,14.06 C209.366667,13.7533333 210,13.6 210.72,13.6 C211.92,13.6 212.833333,13.94 213.46,14.62 C214.086667,15.3 214.4,16.3466667 214.4,17.76 L214.4,17.76 L214.4,29 L219.64,29 L219.64,17.12 C219.64,15.8666667 219.486667,14.7266667 219.18,13.7 C218.873333,12.6733333 218.42,11.7933333 217.82,11.06 C217.22,10.3266667 216.453333,9.76 215.52,9.36 C214.586667,8.96 213.506667,8.76 212.28,8.76 C210.946667,8.76 209.76,9.04666667 208.72,9.62 C207.68,10.1933333 206.853333,10.9733333 206.24,11.96 L206.24,11.96 L205.92,11.96 L205.92,9.4 L201,9.4 L201,29 L206.24,29 Z M231.52,5.6 L231.52,0.36 L226.28,0.36 L226.28,5.6 L231.52,5.6 Z M231.52,29 L231.52,9.4 L226.28,9.4 L226.28,29 L231.52,29 Z M243.56,29 L243.56,19.4 C243.56,18.6 243.66,17.8466667 243.86,17.14 C244.06,16.4333333 244.353333,15.82 244.74,15.3 C245.126667,14.78 245.593333,14.3666667 246.14,14.06 C246.686667,13.7533333 247.32,13.6 248.04,13.6 C249.24,13.6 250.153333,13.94 250.78,14.62 C251.406667,15.3 251.72,16.3466667 251.72,17.76 L251.72,17.76 L251.72,29 L256.96,29 L256.96,17.12 C256.96,15.8666667 256.806667,14.7266667 256.5,13.7 C256.193333,12.6733333 255.74,11.7933333 255.14,11.06 C254.54,10.3266667 253.773333,9.76 252.84,9.36 C251.906667,8.96 250.826667,8.76 249.6,8.76 C248.266667,8.76 247.08,9.04666667 246.04,9.62 C245,10.1933333 244.173333,10.9733333 243.56,11.96 L243.56,11.96 L243.24,11.96 L243.24,9.4 L238.32,9.4 L238.32,29 L243.56,29 Z M272.96,38.36 C274.48,38.36 275.88,38.12 277.16,37.64 C278.44,37.1066667 279.52,36.4 280.4,35.52 C281.306667,34.5866667 282.013333,33.4666667 282.52,32.16 C283.026667,30.7733333 283.28,29.2933333 283.28,27.72 L283.28,27.72 L283.28,9.4 L278.28,9.4 L278.28,10.4 C276.6,9.30666667 274.746667,8.76 272.72,8.76 C270.88,8.76 269.18,9.22 267.62,10.14 C266.06,11.06 264.82,12.3 263.9,13.86 C262.98,15.42 262.52,17.12 262.52,18.96 C262.52,20.8 262.98,22.5 263.9,24.06 C264.82,25.62 266.06,26.86 267.62,27.78 C269.18,28.7 270.88,29.16 272.72,29.16 C274.746667,29.16 276.6,28.6133333 278.28,27.52 C278.28,28.48 278.16,29.36 277.92,30.16 C277.68,30.96 277.32,31.6133333 276.84,32.12 C275.88,33.2133333 274.586667,33.76 272.96,33.76 C271.946667,33.76 271,33.4666667 270.12,32.88 C269.693333,32.6133333 269.333333,32.2666667 269.04,31.84 C268.906667,31.7066667 268.8,31.56 268.72,31.4 L268.72,31.4 L263.76,33.52 C264.026667,33.9466667 264.266667,34.28 264.48,34.52 C264.96,35.1866667 265.613333,35.8266667 266.44,36.44 C267.266667,37.0266667 268.213333,37.4933333 269.28,37.84 C270.293333,38.1866667 271.52,38.36 272.96,38.36 Z M272.72,24.8 C271.733333,24.8 270.786667,24.5266667 269.88,23.98 C268.973333,23.4333333 268.246667,22.7066667 267.7,21.8 C267.153333,20.8933333 266.88,19.9466667 266.88,18.96 C266.88,17.9733333 267.146667,17.0266667 267.68,16.12 C268.213333,15.2133333 268.933333,14.4866667 269.84,13.94 C270.746667,13.3933333 271.706667,13.12 272.72,13.12 C272.986667,13.12 273.213333,13.1333333 273.4,13.16 C273.586667,13.1866667 273.733333,13.2133333 273.84,13.24 C274.933333,13.48 275.913333,14.0333333 276.78,14.9 C277.646667,15.7666667 278.2,16.7466667 278.44,17.84 C278.466667,17.9466667 278.493333,18.0933333 278.52,18.28 C278.546667,18.4666667 278.56,18.6933333 278.56,18.96 C278.56,19.9466667 278.286667,20.8933333 277.74,21.8 C277.193333,22.7066667 276.466667,23.4333333 275.56,23.98 C274.653333,24.5266667 273.706667,24.8 272.72,24.8 Z M11.52,85.64 C13.3866667,85.64 15.12,85.1733333 16.72,84.24 C18.32,83.3066667 19.5933333,82.0466667 20.54,80.46 C21.4866667,78.8733333 21.96,77.1333333 21.96,75.24 C21.96,73.3466667 21.4866667,71.5933333 20.54,69.98 C19.5933333,68.3666667 18.32,67.0933333 16.72,66.16 C15.12,65.2266667 13.3866667,64.76 11.52,64.76 C9.62666667,64.76 7.88,65.2266667 6.28,66.16 C4.68,67.0933333 3.41333333,68.3666667 2.48,69.98 C1.54666667,71.5933333 1.08,73.3466667 1.08,75.24 C1.08,77.1333333 1.54666667,78.8733333 2.48,80.46 C3.41333333,82.0466667 4.68,83.3066667 6.28,84.24 C7.88,85.1733333 9.62666667,85.64 11.52,85.64 Z M11.52,80.92 C10.48,80.92 9.52,80.6666667 8.64,80.16 C7.76,79.6533333 7.06666667,78.96 6.56,78.08 C6.05333333,77.2 5.8,76.2533333 5.8,75.24 C5.8,74.2 6.05333333,73.24 6.56,72.36 C7.06666667,71.48 7.76,70.7866667 8.64,70.28 C9.52,69.7733333 10.48,69.52 11.52,69.52 C12.56,69.52 13.5133333,69.7733333 14.38,70.28 C15.2466667,70.7866667 15.9333333,71.48 16.44,72.36 C16.9466667,73.24 17.2,74.2 17.2,75.24 C17.2,76.2533333 16.9466667,77.2 16.44,78.08 C15.9333333,78.96 15.2466667,79.6533333 14.38,80.16 C13.5133333,80.6666667 12.56,80.92 11.52,80.92 Z M34.76,85 L34.76,69.88 L39.64,69.88 L39.64,65.4 L34.76,65.4 L34.76,63.8 C34.76,62.92 34.9866667,62.2333333 35.44,61.74 C35.8933333,61.2466667 36.5066667,61 37.28,61 C37.7333333,61 38.1133333,61.04 38.42,61.12 C38.7266667,61.2 39.0133333,61.3066667 39.28,61.44 L39.28,61.44 L40.76,56.76 C40.2533333,56.5466667 39.68,56.3733333 39.04,56.24 C38.4,56.1066667 37.7066667,56.04 36.96,56.04 C35.8666667,56.04 34.8666667,56.2066667 33.96,56.54 C33.0533333,56.8733333 32.2666667,57.3533333 31.6,57.98 C30.9333333,58.6066667 30.42,59.38 30.06,60.3 C29.7,61.22 29.52,62.28 29.52,63.48 L29.52,63.48 L29.52,65.4 L26,65.4 L26,69.88 L29.52,69.88 L29.52,85 L34.76,85 Z M68.08,85 L68.08,61.48 L76.08,61.48 L76.08,56.36 L54.68,56.36 L54.68,61.48 L62.68,61.48 L62.68,85 L68.08,85 Z M87,85 L87,77.24 C87,75.8266667 87.28,74.48 87.84,73.2 C88.2933333,72.2133333 88.9133333,71.3866667 89.7,70.72 C90.4866667,70.0533333 91.48,69.72 92.68,69.72 C93.1333333,69.72 93.6666667,69.7866667 94.28,69.92 L94.28,69.92 L94.28,65.32 C93.9066667,65.2133333 93.6266667,65.1466667 93.44,65.12 C93.0666667,65.0666667 92.7866667,65.04 92.6,65.04 C91.3466667,65.04 90.2266667,65.3466667 89.24,65.96 C88.2533333,66.5733333 87.5066667,67.4133333 87,68.48 L87,68.48 L87,65.44 L81.84,65.44 L81.84,85 L87,85 Z M108.88,85.6 C111.04,85.6 112.946667,84.9733333 114.6,83.72 L114.6,83.72 L114.6,85 L119.72,85 L119.72,65.4 L114.6,65.4 L114.6,66.68 C113.906667,66.0666667 113.053333,65.5933333 112.04,65.26 C111.026667,64.9266667 109.973333,64.76 108.88,64.76 C107.013333,64.76 105.28,65.2266667 103.68,66.16 C102.08,67.0933333 100.806667,68.36 99.86,69.96 C98.9133333,71.56 98.44,73.3066667 98.44,75.2 C98.44,77.0933333 98.9133333,78.8333333 99.86,80.42 C100.806667,82.0066667 102.08,83.2666667 103.68,84.2 C105.28,85.1333333 107.013333,85.6 108.88,85.6 Z M108.88,81.08 C107.813333,81.08 106.826667,80.8133333 105.92,80.28 C105.013333,79.7466667 104.293333,79.0266667 103.76,78.12 C103.226667,77.2133333 102.96,76.2266667 102.96,75.16 C102.96,74.0933333 103.226667,73.1066667 103.76,72.2 C104.293333,71.2933333 105.013333,70.5733333 105.92,70.04 C106.826667,69.5066667 107.813333,69.24 108.88,69.24 C109.946667,69.24 110.933333,69.5066667 111.84,70.04 C112.746667,70.5733333 113.466667,71.2933333 114,72.2 C114.533333,73.1066667 114.8,74.0933333 114.8,75.16 C114.8,76.2266667 114.533333,77.2133333 114,78.12 C113.466667,79.0266667 112.746667,79.7466667 111.84,80.28 C110.933333,80.8133333 109.946667,81.08 108.88,81.08 Z M137.4,85 L145.84,65.4 L139.92,65.4 L135,77.88 L134.72,77.88 L129.84,65.4 L123.88,65.4 L132.24,85 L137.4,85 Z M159.52,85.64 C161.733333,85.64 163.606667,85.1466667 165.14,84.16 C166.673333,83.1733333 167.893333,81.88 168.8,80.28 L168.8,80.28 L164.44,78.12 C163.986667,78.9466667 163.366667,79.6333333 162.58,80.18 C161.793333,80.7266667 160.8,81 159.6,81 C158.986667,81 158.386667,80.9133333 157.8,80.74 C157.213333,80.5666667 156.673333,80.2866667 156.18,79.9 C155.686667,79.5133333 155.273333,79.0333333 154.94,78.46 C154.606667,77.8866667 154.386667,77.2 154.28,76.4 L154.28,76.4 L169.04,76.4 C169.04,76.24 169.053333,76.0933333 169.08,75.96 C169.08,75.8266667 169.093333,75.68 169.12,75.52 L169.12,75.52 L169.12,75.04 C169.12,73.5733333 168.906667,72.2133333 168.48,70.96 C168.053333,69.7066667 167.426667,68.62 166.6,67.7 C165.773333,66.78 164.746667,66.06 163.52,65.54 C162.293333,65.02 160.893333,64.76 159.32,64.76 C157.826667,64.76 156.46,65.04 155.22,65.6 C153.98,66.16 152.906667,66.9133333 152,67.86 C151.093333,68.8066667 150.386667,69.9133333 149.88,71.18 C149.373333,72.4466667 149.12,73.7866667 149.12,75.2 C149.12,76.72 149.38,78.1133333 149.9,79.38 C150.42,80.6466667 151.146667,81.7466667 152.08,82.68 C153.013333,83.6133333 154.113333,84.34 155.38,84.86 C156.646667,85.38 158.026667,85.64 159.52,85.64 Z M164.04,72.68 L154.56,72.68 C154.906667,71.5333333 155.506667,70.64 156.36,70 C157.213333,69.36 158.2,69.04 159.32,69.04 C160.12,69.04 160.806667,69.16 161.38,69.4 C161.953333,69.64 162.433333,69.9466667 162.82,70.32 C163.206667,70.6933333 163.5,71.0933333 163.7,71.52 C163.9,71.9466667 164.013333,72.3333333 164.04,72.68 L164.04,72.68 Z M179.72,85 L179.72,56.36 L174.48,56.36 L174.48,85 L179.72,85 Z M8.28,141 L8.28,129.56 L19.76,129.56 L19.76,124.44 L8.28,124.44 L8.28,117.48 L21.04,117.48 L21.04,112.36 L2.88,112.36 L2.88,141 L8.28,141 Z M31.8,141 L31.8,112.36 L26.56,112.36 L26.56,141 L31.8,141 Z M43.84,117.6 L43.84,112.36 L38.6,112.36 L38.6,117.6 L43.84,117.6 Z M43.84,141 L43.84,121.4 L38.6,121.4 L38.6,141 L43.84,141 Z M60.32,150.36 C61.84,150.36 63.24,150.12 64.52,149.64 C65.8,149.106667 66.88,148.4 67.76,147.52 C68.6666667,146.586667 69.3733333,145.466667 69.88,144.16 C70.3866667,142.773333 70.64,141.293333 70.64,139.72 L70.64,139.72 L70.64,121.4 L65.64,121.4 L65.64,122.4 C63.96,121.306667 62.1066667,120.76 60.08,120.76 C58.24,120.76 56.54,121.22 54.98,122.14 C53.42,123.06 52.18,124.3 51.26,125.86 C50.34,127.42 49.88,129.12 49.88,130.96 C49.88,132.8 50.34,134.5 51.26,136.06 C52.18,137.62 53.42,138.86 54.98,139.78 C56.54,140.7 58.24,141.16 60.08,141.16 C62.1066667,141.16 63.96,140.613333 65.64,139.52 C65.64,140.48 65.52,141.36 65.28,142.16 C65.04,142.96 64.68,143.613333 64.2,144.12 C63.24,145.213333 61.9466667,145.76 60.32,145.76 C59.3066667,145.76 58.36,145.466667 57.48,144.88 C57.0533333,144.613333 56.6933333,144.266667 56.4,143.84 C56.2666667,143.706667 56.16,143.56 56.08,143.4 L56.08,143.4 L51.12,145.52 C51.3866667,145.946667 51.6266667,146.28 51.84,146.52 C52.32,147.186667 52.9733333,147.826667 53.8,148.44 C54.6266667,149.026667 55.5733333,149.493333 56.64,149.84 C57.6533333,150.186667 58.88,150.36 60.32,150.36 Z M60.08,136.8 C59.0933333,136.8 58.1466667,136.526667 57.24,135.98 C56.3333333,135.433333 55.6066667,134.706667 55.06,133.8 C54.5133333,132.893333 54.24,131.946667 54.24,130.96 C54.24,129.973333 54.5066667,129.026667 55.04,128.12 C55.5733333,127.213333 56.2933333,126.486667 57.2,125.94 C58.1066667,125.393333 59.0666667,125.12 60.08,125.12 C60.3466667,125.12 60.5733333,125.133333 60.76,125.16 C60.9466667,125.186667 61.0933333,125.213333 61.2,125.24 C62.2933333,125.48 63.2733333,126.033333 64.14,126.9 C65.0066667,127.766667 65.56,128.746667 65.8,129.84 C65.8266667,129.946667 65.8533333,130.093333 65.88,130.28 C65.9066667,130.466667 65.92,130.693333 65.92,130.96 C65.92,131.946667 65.6466667,132.893333 65.1,133.8 C64.5533333,134.706667 63.8266667,135.433333 62.92,135.98 C62.0133333,136.526667 61.0666667,136.8 60.08,136.8 Z M81.72,141 L81.72,129.88 C81.72,129.24 81.9333333,128.646667 82.36,128.1 C82.7866667,127.553333 83.3333333,127.113333 84,126.78 C84.6666667,126.446667 85.3333333,126.266667 86,126.24 C87.0133333,126.266667 87.9466667,126.64 88.8,127.36 C89.6533333,128.08 90.08,128.92 90.08,129.88 L90.08,141 L95.24,141 L95.24,129.88 C95.24,128.28 94.84,126.8 94.04,125.44 C93.24,124.08 92.1666667,123 90.82,122.2 C89.4733333,121.4 88,121 86.4,121 C84.7466667,121 83.1866667,121.426667 81.72,122.28 L81.72,112.36 L76.52,112.36 L76.52,141 L81.72,141 Z M110.16,141.32 C111.013333,141.32 111.793333,141.246667 112.5,141.1 C113.206667,140.953333 113.866667,140.733333 114.48,140.44 L114.48,140.44 L113,135.84 C112.76,136 112.506667,136.126667 112.24,136.22 C111.973333,136.313333 111.613333,136.36 111.16,136.36 C110.466667,136.36 109.933333,136.146667 109.56,135.72 C109.293333,135.453333 109.113333,135.126667 109.02,134.74 C108.926667,134.353333 108.88,133.933333 108.88,133.48 L108.88,133.48 L108.88,125.88 L113.68,125.88 L113.68,121.4 L108.88,121.4 L108.88,115.4 L103.64,115.4 L103.64,121.4 L100.2,121.4 L100.2,125.88 L103.64,125.88 L103.64,134.48 C103.64,136.693333 104.266667,138.4 105.52,139.6 C106.053333,140.133333 106.713333,140.553333 107.5,140.86 C108.286667,141.166667 109.173333,141.32 110.16,141.32 Z M127.28,141.64 C128.533333,141.64 129.673333,141.466667 130.7,141.12 C131.726667,140.773333 132.606667,140.3 133.34,139.7 C134.073333,139.1 134.64,138.413333 135.04,137.64 C135.44,136.866667 135.64,136.053333 135.64,135.2 C135.64,133.76 135.153333,132.513333 134.18,131.46 C133.206667,130.406667 131.72,129.64 129.72,129.16 L129.72,129.16 L126.72,128.44 C125.92,128.226667 125.286667,127.986667 124.82,127.72 C124.353333,127.453333 124.12,127.093333 124.12,126.64 C124.12,126.16 124.4,125.766667 124.96,125.46 C125.52,125.153333 126.173333,125 126.92,125 C127.64,125 128.36,125.173333 129.08,125.52 C129.8,125.866667 130.346667,126.426667 130.72,127.2 L130.72,127.2 L135.24,125.36 C134.546667,123.76 133.466667,122.593333 132,121.86 C130.533333,121.126667 128.866667,120.76 127,120.76 C125.88,120.76 124.833333,120.9 123.86,121.18 C122.886667,121.46 122.04,121.86 121.32,122.38 C120.6,122.9 120.033333,123.533333 119.62,124.28 C119.206667,125.026667 119,125.88 119,126.84 C119,127.693333 119.173333,128.44 119.52,129.08 C119.866667,129.72 120.306667,130.266667 120.84,130.72 C121.373333,131.173333 121.966667,131.546667 122.62,131.84 C123.273333,132.133333 123.906667,132.346667 124.52,132.48 L124.52,132.48 L127.28,133.08 C128.426667,133.346667 129.233333,133.646667 129.7,133.98 C130.166667,134.313333 130.4,134.746667 130.4,135.28 C130.4,135.76 130.12,136.173333 129.56,136.52 C129,136.866667 128.24,137.04 127.28,137.04 C126.346667,137.04 125.5,136.793333 124.74,136.3 C123.98,135.806667 123.373333,135.053333 122.92,134.04 L122.92,134.04 L118.24,136.04 C118.506667,136.733333 118.893333,137.42 119.4,138.1 C119.906667,138.78 120.526667,139.38 121.26,139.9 C121.993333,140.42 122.86,140.84 123.86,141.16 C124.86,141.48 126,141.64 127.28,141.64 Z" id="ThebeginningofTravelFlights" fill="#000000" fill-rule="nonzero"></path>
    </g>
</svg>