<?xml version="1.0" encoding="UTF-8"?>
<svg width="198px" height="68px" viewBox="0 0 198 68" version="1.1" xmlns="http://www.w3.org/2000/svg" xmlns:xlink="http://www.w3.org/1999/xlink">
    <title>CityGuideandMagazine</title>
    <g id="Page-1" stroke="none" stroke-width="1" fill="none" fill-rule="evenodd" fill-opacity="0.87">
        <path d="M11.536,21.448 C13.1973333,21.448 14.7,21.1353333 16.044,20.51 C17.388,19.8846667 18.5546667,18.9746667 19.544,17.78 L19.544,17.78 L16.856,15.232 C16.184,16.072 15.414,16.7206667 14.546,17.178 C13.678,17.6353333 12.684,17.864 11.564,17.864 C10.6306667,17.864 9.75333333,17.7006667 8.932,17.374 C8.11066667,17.0473333 7.39666667,16.5853333 6.79,15.988 C6.18333333,15.3906667 5.70266667,14.6673333 5.348,13.818 C4.99333333,12.9686667 4.816,12.0213333 4.816,10.976 C4.816,9.93066667 4.99333333,8.98333333 5.348,8.134 C5.70266667,7.28466667 6.18333333,6.56133333 6.79,5.964 C7.39666667,5.36666667 8.11066667,4.90466667 8.932,4.578 C9.75333333,4.25133333 10.6306667,4.088 11.564,4.088 C12.628,4.088 13.5473333,4.29333333 14.322,4.704 C15.0966667,5.11466667 15.7826667,5.66533333 16.38,6.356 L16.38,6.356 L19.04,3.78 C18.088,2.716 17.0006667,1.904 15.778,1.344 C14.5553333,0.784 13.1413333,0.504 11.536,0.504 C10.0426667,0.504 8.65666667,0.774666667 7.378,1.316 C6.09933333,1.85733333 4.99333333,2.59466667 4.06,3.528 C3.12666667,4.46133333 2.38933333,5.56733333 1.848,6.846 C1.30666667,8.12466667 1.036,9.50133333 1.036,10.976 C1.036,12.4506667 1.30666667,13.8273333 1.848,15.106 C2.38933333,16.3846667 3.12666667,17.4906667 4.06,18.424 C4.99333333,19.3573333 6.09933333,20.0946667 7.378,20.636 C8.65666667,21.1773333 10.0426667,21.448 11.536,21.448 Z M27.412,4.62 L27.412,0.952 L23.744,0.952 L23.744,4.62 L27.412,4.62 Z M27.412,21 L27.412,7.28 L23.744,7.28 L23.744,21 L27.412,21 Z M38.248,21.224 C38.8453333,21.224 39.3913333,21.1726667 39.886,21.07 C40.3806667,20.9673333 40.8426667,20.8133333 41.272,20.608 L41.272,20.608 L40.236,17.388 C40.068,17.5 39.8906667,17.5886667 39.704,17.654 C39.5173333,17.7193333 39.2653333,17.752 38.948,17.752 C38.4626667,17.752 38.0893333,17.6026667 37.828,17.304 C37.6413333,17.1173333 37.5153333,16.8886667 37.45,16.618 C37.3846667,16.3473333 37.352,16.0533333 37.352,15.736 L37.352,15.736 L37.352,10.416 L40.712,10.416 L40.712,7.28 L37.352,7.28 L37.352,3.08 L33.684,3.08 L33.684,7.28 L31.276,7.28 L31.276,10.416 L33.684,10.416 L33.684,16.436 C33.684,17.9853333 34.1226667,19.18 35,20.02 C35.3733333,20.3933333 35.8353333,20.6873333 36.386,20.902 C36.9366667,21.1166667 37.5573333,21.224 38.248,21.224 Z M50.008,27.048 L58.604,7.28 L54.516,7.28 L51.184,15.596 L50.988,15.596 L47.516,7.28 L43.344,7.28 L49.112,20.328 L46.06,27.048 L50.008,27.048 Z M79.296,21.448 C80.92,21.448 82.348,21.1866667 83.58,20.664 C83.692,20.6266667 84.0186667,20.468 84.56,20.188 C85.4,19.7213333 86.1466667,19.1426667 86.8,18.452 C87.1546667,18.06 87.4813333,17.6306667 87.78,17.164 L87.78,17.164 L87.78,9.996 L79.212,9.996 L79.212,13.216 L84.56,13.216 L84.56,15.456 C84.392,15.6986667 84.1773333,15.9506667 83.916,16.212 C83.356,16.716 82.7213333,17.1173333 82.012,17.416 C81.3026667,17.7146667 80.4066667,17.864 79.324,17.864 C78.4093333,17.864 77.532,17.7053333 76.692,17.388 C75.8706667,17.052 75.1426667,16.5853333 74.508,15.988 C73.892,15.3906667 73.3973333,14.672 73.024,13.832 C72.6693333,12.992 72.492,12.04 72.492,10.976 C72.492,9.912 72.6693333,8.96933333 73.024,8.148 C73.3786667,7.28933333 73.8733333,6.56133333 74.508,5.964 C75.1613333,5.32933333 75.88,4.872 76.664,4.592 C77.4666667,4.256 78.3346667,4.088 79.268,4.088 C80.3506667,4.088 81.312,4.27466667 82.152,4.648 C82.9733333,5.02133333 83.7013333,5.544 84.336,6.216 L84.336,6.216 L86.94,3.668 C85.988,2.66 84.8866667,1.88533333 83.636,1.344 C82.348,0.784 80.9013333,0.504 79.296,0.504 C77.8213333,0.504 76.4493333,0.765333333 75.18,1.288 C73.892,1.81066667 72.772,2.53866667 71.82,3.472 C70.868,4.38666667 70.112,5.49733333 69.552,6.804 C68.992,8.05466667 68.712,9.44533333 68.712,10.976 C68.712,12.488 68.992,13.888 69.552,15.176 C70.1306667,16.464 70.8866667,17.5653333 71.82,18.48 C72.772,19.3946667 73.892,20.1226667 75.18,20.664 C76.4493333,21.1866667 77.8213333,21.448 79.296,21.448 Z M96.712,21.448 C97.1226667,21.448 97.4586667,21.4386667 97.72,21.42 C98.616,21.3453333 99.3766667,21.1213333 100.002,20.748 C100.627333,20.3746667 101.089333,20.0386667 101.388,19.74 L101.388,19.74 L101.388,21 L104.804,21 L104.804,7.28 L101.164,7.28 L101.164,14.028 C101.164,14.5506667 101.089333,15.0826667 100.94,15.624 C100.790667,16.128 100.585333,16.548 100.324,16.884 C100.062667,17.276 99.736,17.5653333 99.344,17.752 C98.9893333,17.976 98.5506667,18.088 98.028,18.088 C97.188,18.088 96.5533333,17.8453333 96.124,17.36 C95.676,16.8746667 95.452,16.1466667 95.452,15.176 L95.452,15.176 L95.452,7.28 L91.812,7.28 L91.812,15.624 C91.812,17.3973333 92.232,18.816 93.072,19.88 C93.9306667,20.9253333 95.144,21.448 96.712,21.448 Z M113.232,4.62 L113.232,0.952 L109.564,0.952 L109.564,4.62 L113.232,4.62 Z M113.232,21 L113.232,7.28 L109.564,7.28 L109.564,21 L113.232,21 Z M124.236,21.42 C125.748,21.42 127.082667,20.9813333 128.24,20.104 L128.24,20.104 L128.24,21 L131.824,21 L131.824,0.952 L128.24,0.952 L128.24,8.176 C127.754667,7.74666667 127.157333,7.41533333 126.448,7.182 C125.738667,6.94866667 125.001333,6.832 124.236,6.832 C122.929333,6.832 121.716,7.15866667 120.596,7.812 C119.476,8.46533333 118.584667,9.352 117.922,10.472 C117.259333,11.592 116.928,12.8146667 116.928,14.14 C116.928,15.4653333 117.259333,16.6833333 117.922,17.794 C118.584667,18.9046667 119.476,19.7866667 120.596,20.44 C121.716,21.0933333 122.929333,21.42 124.236,21.42 Z M124.236,18.256 C123.489333,18.256 122.798667,18.0693333 122.164,17.696 C121.529333,17.3226667 121.025333,16.8186667 120.652,16.184 C120.278667,15.5493333 120.092,14.8586667 120.092,14.112 C120.092,13.3653333 120.278667,12.6746667 120.652,12.04 C121.025333,11.4053333 121.529333,10.9013333 122.164,10.528 C122.798667,10.1546667 123.489333,9.968 124.236,9.968 C124.982667,9.968 125.673333,10.1546667 126.308,10.528 C126.942667,10.9013333 127.446667,11.4053333 127.82,12.04 C128.193333,12.6746667 128.38,13.3653333 128.38,14.112 C128.38,14.8586667 128.193333,15.5493333 127.82,16.184 C127.446667,16.8186667 126.942667,17.3226667 126.308,17.696 C125.673333,18.0693333 124.982667,18.256 124.236,18.256 Z M142.688,21.448 C144.237333,21.448 145.548667,21.1026667 146.622,20.412 C147.695333,19.7213333 148.549333,18.816 149.184,17.696 L149.184,17.696 L146.132,16.184 C145.814667,16.7626667 145.380667,17.2433333 144.83,17.626 C144.279333,18.0086667 143.584,18.2 142.744,18.2 C142.314667,18.2 141.894667,18.1393333 141.484,18.018 C141.073333,17.8966667 140.695333,17.7006667 140.35,17.43 C140.004667,17.1593333 139.715333,16.8233333 139.482,16.422 C139.248667,16.0206667 139.094667,15.54 139.02,14.98 L139.02,14.98 L149.352,14.98 C149.352,14.868 149.361333,14.7653333 149.38,14.672 C149.38,14.5786667 149.389333,14.476 149.408,14.364 L149.408,14.364 L149.408,14.028 C149.408,13.0013333 149.258667,12.0493333 148.96,11.172 C148.661333,10.2946667 148.222667,9.534 147.644,8.89 C147.065333,8.246 146.346667,7.742 145.488,7.378 C144.629333,7.014 143.649333,6.832 142.548,6.832 C141.502667,6.832 140.546,7.028 139.678,7.42 C138.81,7.812 138.058667,8.33933333 137.424,9.002 C136.789333,9.66466667 136.294667,10.4393333 135.94,11.326 C135.585333,12.2126667 135.408,13.1506667 135.408,14.14 C135.408,15.204 135.59,16.1793333 135.954,17.066 C136.318,17.9526667 136.826667,18.7226667 137.48,19.376 C138.133333,20.0293333 138.903333,20.538 139.79,20.902 C140.676667,21.266 141.642667,21.448 142.688,21.448 Z M145.852,12.376 L139.216,12.376 C139.458667,11.5733333 139.878667,10.948 140.476,10.5 C141.073333,10.052 141.764,9.828 142.548,9.828 C143.108,9.828 143.588667,9.912 143.99,10.08 C144.391333,10.248 144.727333,10.4626667 144.998,10.724 C145.268667,10.9853333 145.474,11.2653333 145.614,11.564 C145.754,11.8626667 145.833333,12.1333333 145.852,12.376 L145.852,12.376 Z M8.092,61.42 C9.604,61.42 10.9386667,60.9813333 12.096,60.104 L12.096,60.104 L12.096,61 L15.68,61 L15.68,47.28 L12.096,47.28 L12.096,48.176 C11.6106667,47.7466667 11.0133333,47.4153333 10.304,47.182 C9.59466667,46.9486667 8.85733333,46.832 8.092,46.832 C6.78533333,46.832 5.572,47.1586667 4.452,47.812 C3.332,48.4653333 2.44066667,49.352 1.778,50.472 C1.11533333,51.592 0.784,52.8146667 0.784,54.14 C0.784,55.4653333 1.11533333,56.6833333 1.778,57.794 C2.44066667,58.9046667 3.332,59.7866667 4.452,60.44 C5.572,61.0933333 6.78533333,61.42 8.092,61.42 Z M8.092,58.256 C7.34533333,58.256 6.65466667,58.0693333 6.02,57.696 C5.38533333,57.3226667 4.88133333,56.8186667 4.508,56.184 C4.13466667,55.5493333 3.948,54.8586667 3.948,54.112 C3.948,53.3653333 4.13466667,52.6746667 4.508,52.04 C4.88133333,51.4053333 5.38533333,50.9013333 6.02,50.528 C6.65466667,50.1546667 7.34533333,49.968 8.092,49.968 C8.83866667,49.968 9.52933333,50.1546667 10.164,50.528 C10.7986667,50.9013333 11.3026667,51.4053333 11.676,52.04 C12.0493333,52.6746667 12.236,53.3653333 12.236,54.112 C12.236,54.8586667 12.0493333,55.5493333 11.676,56.184 C11.3026667,56.8186667 10.7986667,57.3226667 10.164,57.696 C9.52933333,58.0693333 8.83866667,58.256 8.092,58.256 Z M23.716,61 L23.716,54.28 C23.716,53.72 23.786,53.1926667 23.926,52.698 C24.066,52.2033333 24.2713333,51.774 24.542,51.41 C24.8126667,51.046 25.1393333,50.7566667 25.522,50.542 C25.9046667,50.3273333 26.348,50.22 26.852,50.22 C27.692,50.22 28.3313333,50.458 28.77,50.934 C29.2086667,51.41 29.428,52.1426667 29.428,53.132 L29.428,53.132 L29.428,61 L33.096,61 L33.096,52.684 C33.096,51.8066667 32.9886667,51.0086667 32.774,50.29 C32.5593333,49.5713333 32.242,48.9553333 31.822,48.442 C31.402,47.9286667 30.8653333,47.532 30.212,47.252 C29.5586667,46.972 28.8026667,46.832 27.944,46.832 C27.0106667,46.832 26.18,47.0326667 25.452,47.434 C24.724,47.8353333 24.1453333,48.3813333 23.716,49.072 L23.716,49.072 L23.492,49.072 L23.492,47.28 L20.048,47.28 L20.048,61 L23.716,61 Z M43.764,61.42 C45.276,61.42 46.6106667,60.9813333 47.768,60.104 L47.768,60.104 L47.768,61 L51.352,61 L51.352,40.952 L47.768,40.952 L47.768,48.176 C47.2826667,47.7466667 46.6853333,47.4153333 45.976,47.182 C45.2666667,46.9486667 44.5293333,46.832 43.764,46.832 C42.4573333,46.832 41.244,47.1586667 40.124,47.812 C39.004,48.4653333 38.1126667,49.352 37.45,50.472 C36.7873333,51.592 36.456,52.8146667 36.456,54.14 C36.456,55.4653333 36.7873333,56.6833333 37.45,57.794 C38.1126667,58.9046667 39.004,59.7866667 40.124,60.44 C41.244,61.0933333 42.4573333,61.42 43.764,61.42 Z M43.764,58.256 C43.0173333,58.256 42.3266667,58.0693333 41.692,57.696 C41.0573333,57.3226667 40.5533333,56.8186667 40.18,56.184 C39.8066667,55.5493333 39.62,54.8586667 39.62,54.112 C39.62,53.3653333 39.8066667,52.6746667 40.18,52.04 C40.5533333,51.4053333 41.0573333,50.9013333 41.692,50.528 C42.3266667,50.1546667 43.0173333,49.968 43.764,49.968 C44.5106667,49.968 45.2013333,50.1546667 45.836,50.528 C46.4706667,50.9013333 46.9746667,51.4053333 47.348,52.04 C47.7213333,52.6746667 47.908,53.3653333 47.908,54.112 C47.908,54.8586667 47.7213333,55.5493333 47.348,56.184 C46.9746667,56.8186667 46.4706667,57.3226667 45.836,57.696 C45.2013333,58.0693333 44.5106667,58.256 43.764,58.256 Z M67.536,61 L67.536,48.148 L67.76,48.148 L72.632,56.66 L74.872,56.66 L79.716,48.148 L79.94,48.148 L79.94,61 L83.692,61 L83.692,40.952 L79.968,40.952 L73.836,51.508 L73.64,51.508 L67.536,40.952 L63.812,40.952 L63.812,61 L67.536,61 Z M95.2,61.42 C96.712,61.42 98.0466667,60.9813333 99.204,60.104 L99.204,60.104 L99.204,61 L102.788,61 L102.788,47.28 L99.204,47.28 L99.204,48.176 C98.7186667,47.7466667 98.1213333,47.4153333 97.412,47.182 C96.7026667,46.9486667 95.9653333,46.832 95.2,46.832 C93.8933333,46.832 92.68,47.1586667 91.56,47.812 C90.44,48.4653333 89.5486667,49.352 88.886,50.472 C88.2233333,51.592 87.892,52.8146667 87.892,54.14 C87.892,55.4653333 88.2233333,56.6833333 88.886,57.794 C89.5486667,58.9046667 90.44,59.7866667 91.56,60.44 C92.68,61.0933333 93.8933333,61.42 95.2,61.42 Z M95.2,58.256 C94.4533333,58.256 93.7626667,58.0693333 93.128,57.696 C92.4933333,57.3226667 91.9893333,56.8186667 91.616,56.184 C91.2426667,55.5493333 91.056,54.8586667 91.056,54.112 C91.056,53.3653333 91.2426667,52.6746667 91.616,52.04 C91.9893333,51.4053333 92.4933333,50.9013333 93.128,50.528 C93.7626667,50.1546667 94.4533333,49.968 95.2,49.968 C95.9466667,49.968 96.6373333,50.1546667 97.272,50.528 C97.9066667,50.9013333 98.4106667,51.4053333 98.784,52.04 C99.1573333,52.6746667 99.344,53.3653333 99.344,54.112 C99.344,54.8586667 99.1573333,55.5493333 98.784,56.184 C98.4106667,56.8186667 97.9066667,57.3226667 97.272,57.696 C96.6373333,58.0693333 95.9466667,58.256 95.2,58.256 Z M113.932,67.552 C114.996,67.552 115.976,67.384 116.872,67.048 C117.768,66.6746667 118.524,66.18 119.14,65.564 C119.774667,64.9106667 120.269333,64.1266667 120.624,63.212 C120.978667,62.2413333 121.156,61.2053333 121.156,60.104 L121.156,60.104 L121.156,47.28 L117.656,47.28 L117.656,47.98 C116.48,47.2146667 115.182667,46.832 113.764,46.832 C112.476,46.832 111.286,47.154 110.194,47.798 C109.102,48.442 108.234,49.31 107.59,50.402 C106.946,51.494 106.624,52.684 106.624,53.972 C106.624,55.26 106.946,56.45 107.59,57.542 C108.234,58.634 109.102,59.502 110.194,60.146 C111.286,60.79 112.476,61.112 113.764,61.112 C115.182667,61.112 116.48,60.7293333 117.656,59.964 C117.656,60.636 117.572,61.252 117.404,61.812 C117.236,62.372 116.984,62.8293333 116.648,63.184 C115.976,63.9493333 115.070667,64.332 113.932,64.332 C113.222667,64.332 112.56,64.1266667 111.944,63.716 C111.645333,63.5293333 111.393333,63.2866667 111.188,62.988 C111.094667,62.8946667 111.02,62.792 110.964,62.68 L110.964,62.68 L107.492,64.164 C107.678667,64.4626667 107.846667,64.696 107.996,64.864 C108.332,65.3306667 108.789333,65.7786667 109.368,66.208 C109.946667,66.6186667 110.609333,66.9453333 111.356,67.188 C112.065333,67.4306667 112.924,67.552 113.932,67.552 Z M113.764,58.06 C113.073333,58.06 112.410667,57.8686667 111.776,57.486 C111.141333,57.1033333 110.632667,56.5946667 110.25,55.96 C109.867333,55.3253333 109.676,54.6626667 109.676,53.972 C109.676,53.2813333 109.862667,52.6186667 110.236,51.984 C110.609333,51.3493333 111.113333,50.8406667 111.748,50.458 C112.382667,50.0753333 113.054667,49.884 113.764,49.884 C113.950667,49.884 114.109333,49.8933333 114.24,49.912 C114.370667,49.9306667 114.473333,49.9493333 114.548,49.968 C115.313333,50.136 115.999333,50.5233333 116.606,51.13 C117.212667,51.7366667 117.6,52.4226667 117.768,53.188 C117.786667,53.2626667 117.805333,53.3653333 117.824,53.496 C117.842667,53.6266667 117.852,53.7853333 117.852,53.972 C117.852,54.6626667 117.660667,55.3253333 117.278,55.96 C116.895333,56.5946667 116.386667,57.1033333 115.752,57.486 C115.117333,57.8686667 114.454667,58.06 113.764,58.06 Z M131.796,61.42 C133.308,61.42 134.642667,60.9813333 135.8,60.104 L135.8,60.104 L135.8,61 L139.384,61 L139.384,47.28 L135.8,47.28 L135.8,48.176 C135.314667,47.7466667 134.717333,47.4153333 134.008,47.182 C133.298667,46.9486667 132.561333,46.832 131.796,46.832 C130.489333,46.832 129.276,47.1586667 128.156,47.812 C127.036,48.4653333 126.144667,49.352 125.482,50.472 C124.819333,51.592 124.488,52.8146667 124.488,54.14 C124.488,55.4653333 124.819333,56.6833333 125.482,57.794 C126.144667,58.9046667 127.036,59.7866667 128.156,60.44 C129.276,61.0933333 130.489333,61.42 131.796,61.42 Z M131.796,58.256 C131.049333,58.256 130.358667,58.0693333 129.724,57.696 C129.089333,57.3226667 128.585333,56.8186667 128.212,56.184 C127.838667,55.5493333 127.652,54.8586667 127.652,54.112 C127.652,53.3653333 127.838667,52.6746667 128.212,52.04 C128.585333,51.4053333 129.089333,50.9013333 129.724,50.528 C130.358667,50.1546667 131.049333,49.968 131.796,49.968 C132.542667,49.968 133.233333,50.1546667 133.868,50.528 C134.502667,50.9013333 135.006667,51.4053333 135.38,52.04 C135.753333,52.6746667 135.94,53.3653333 135.94,54.112 C135.94,54.8586667 135.753333,55.5493333 135.38,56.184 C135.006667,56.8186667 134.502667,57.3226667 133.868,57.696 C133.233333,58.0693333 132.542667,58.256 131.796,58.256 Z M154.7,61 L154.7,57.864 L147.588,57.864 L154.588,50.304 L154.588,47.28 L143.304,47.28 L143.304,50.416 L150.08,50.416 L143.08,57.976 L143.08,61 L154.7,61 Z M162.456,44.62 L162.456,40.952 L158.788,40.952 L158.788,44.62 L162.456,44.62 Z M162.456,61 L162.456,47.28 L158.788,47.28 L158.788,61 L162.456,61 Z M170.884,61 L170.884,54.28 C170.884,53.72 170.954,53.1926667 171.094,52.698 C171.234,52.2033333 171.439333,51.774 171.71,51.41 C171.980667,51.046 172.307333,50.7566667 172.69,50.542 C173.072667,50.3273333 173.516,50.22 174.02,50.22 C174.86,50.22 175.499333,50.458 175.938,50.934 C176.376667,51.41 176.596,52.1426667 176.596,53.132 L176.596,53.132 L176.596,61 L180.264,61 L180.264,52.684 C180.264,51.8066667 180.156667,51.0086667 179.942,50.29 C179.727333,49.5713333 179.41,48.9553333 178.99,48.442 C178.57,47.9286667 178.033333,47.532 177.38,47.252 C176.726667,46.972 175.970667,46.832 175.112,46.832 C174.178667,46.832 173.348,47.0326667 172.62,47.434 C171.892,47.8353333 171.313333,48.3813333 170.884,49.072 L170.884,49.072 L170.66,49.072 L170.66,47.28 L167.216,47.28 L167.216,61 L170.884,61 Z M191.184,61.448 C192.733333,61.448 194.044667,61.1026667 195.118,60.412 C196.191333,59.7213333 197.045333,58.816 197.68,57.696 L197.68,57.696 L194.628,56.184 C194.310667,56.7626667 193.876667,57.2433333 193.326,57.626 C192.775333,58.0086667 192.08,58.2 191.24,58.2 C190.810667,58.2 190.390667,58.1393333 189.98,58.018 C189.569333,57.8966667 189.191333,57.7006667 188.846,57.43 C188.500667,57.1593333 188.211333,56.8233333 187.978,56.422 C187.744667,56.0206667 187.590667,55.54 187.516,54.98 L187.516,54.98 L197.848,54.98 C197.848,54.868 197.857333,54.7653333 197.876,54.672 C197.876,54.5786667 197.885333,54.476 197.904,54.364 L197.904,54.364 L197.904,54.028 C197.904,53.0013333 197.754667,52.0493333 197.456,51.172 C197.157333,50.2946667 196.718667,49.534 196.14,48.89 C195.561333,48.246 194.842667,47.742 193.984,47.378 C193.125333,47.014 192.145333,46.832 191.044,46.832 C189.998667,46.832 189.042,47.028 188.174,47.42 C187.306,47.812 186.554667,48.3393333 185.92,49.002 C185.285333,49.6646667 184.790667,50.4393333 184.436,51.326 C184.081333,52.2126667 183.904,53.1506667 183.904,54.14 C183.904,55.204 184.086,56.1793333 184.45,57.066 C184.814,57.9526667 185.322667,58.7226667 185.976,59.376 C186.629333,60.0293333 187.399333,60.538 188.286,60.902 C189.172667,61.266 190.138667,61.448 191.184,61.448 Z M194.348,52.376 L187.712,52.376 C187.954667,51.5733333 188.374667,50.948 188.972,50.5 C189.569333,50.052 190.26,49.828 191.044,49.828 C191.604,49.828 192.084667,49.912 192.486,50.08 C192.887333,50.248 193.223333,50.4626667 193.494,50.724 C193.764667,50.9853333 193.97,51.2653333 194.11,51.564 C194.25,51.8626667 194.329333,52.1333333 194.348,52.376 L194.348,52.376 Z" id="CityGuideandMagazine" fill="#000000" fill-rule="nonzero"></path>
    </g>
</svg>