<?xml version="1.0" standalone="no"?>
<!DOCTYPE svg PUBLIC "-//W3C//DTD SVG 20010904//EN"
 "http://www.w3.org/TR/2001/REC-SVG-20010904/DTD/svg10.dtd">
<svg version="1.0" xmlns="http://www.w3.org/2000/svg"
 width="1024.000000pt" height="1024.000000pt" viewBox="0 0 1024.000000 1024.000000"
 preserveAspectRatio="xMidYMid meet">
<metadata>
Created by potrace 1.11, written by Peter Selinger 2001-2013
</metadata>
<g transform="translate(0.000000,1024.000000) scale(0.100000,-0.100000)"
fill="#000000" stroke="none">
<path d="M0 5120 l0 -5120 5120 0 5120 0 0 5120 0 5120 -5120 0 -5120 0 0
-5120z m7606 2033 c-61 -164 -2001 -5131 -2004 -5128 -2 2 -15 63 -28 137
-134 724 -411 1419 -808 2028 -619 946 -1502 1680 -2535 2105 -52 22 -90 40
-85 42 5 2 644 100 1419 218 1783 272 2066 316 3130 479 479 74 881 135 894
135 18 1 22 -3 17 -16z"/>
</g>
</svg>
