<?xml version="1.0" standalone="no"?>
<!DOCTYPE svg PUBLIC "-//W3C//DTD SVG 20010904//EN"
 "http://www.w3.org/TR/2001/REC-SVG-20010904/DTD/svg10.dtd">
<svg version="1.0" xmlns="http://www.w3.org/2000/svg"
 width="512.000000pt" height="512.000000pt" viewBox="0 0 512.000000 512.000000"
 preserveAspectRatio="xMidYMid meet">
<metadata>
Created by potrace 1.11, written by Peter Selinger 2001-2013
</metadata>
<g transform="translate(0.000000,512.000000) scale(0.100000,-0.100000)"
fill="#000000" stroke="none">
<path d="M0 2560 l0 -2560 2560 0 2560 0 0 2560 0 2560 -2560 0 -2560 0 0
-2560z m3354 -138 c-246 -631 -471 -1208 -500 -1282 -40 -103 -54 -128 -58
-110 -58 285 -102 438 -182 628 -278 664 -827 1211 -1491 1487 -32 13 -53 25
-48 25 6 0 620 94 1365 209 745 114 1357 204 1358 199 2 -5 -198 -525 -444
-1156z"/>
</g>
</svg>
