<?xml version="1.0" encoding="UTF-8"?>
<svg width="111px" height="56px" viewBox="0 0 111 56" version="1.1" xmlns="http://www.w3.org/2000/svg" xmlns:xlink="http://www.w3.org/1999/xlink">
    <title>Logo / Kyte-new-white</title>
    <g id="Page-1" stroke="none" stroke-width="1" fill="none" fill-rule="evenodd">
        <g id="Service-Introduction" transform="translate(-398.000000, -240.000000)" fill-rule="nonzero">
            <g id="logo-/-kyte" transform="translate(398.000000, 240.000000)">
                <path d="M110.25,0 L103.627572,33.25 L103.190291,32.983787 C102.742474,25.6682546 99.8337682,19.0235789 94.8872303,14.1092874 C90.5249624,9.77534027 84.7612895,7.04931946 78.75,6.41573259 L110.25,0 Z" id="Fill-1" fill="#FEC447"></path>
                <path d="M32.9195534,41.1110225 L25.15902,22.75 L21,22.75 L30.9211305,46.3941905 L30.4454883,47.6039641 C29.7361699,49.4150872 28.0755671,52.4022431 24.9911463,52.0452429 L24.4170595,51.9793938 L24.4170595,55.9357835 L24.8947743,55.9749664 C25.0973627,55.9918369 25.2989148,56 25.4999488,56 C29.1838446,56 32.4863977,53.2054936 34.2179842,48.560137 L43.75,22.75 L39.6065239,22.75 L32.9195534,41.1110225 Z" id="Fill-4" fill="#FFFFFF"></path>
                <polygon id="Fill-6" fill="#FFFFFF" points="22.3412158 14 16.9550335 14 4.01482687 27.9175669 4.01482687 14 0 14 0 47.25 4.01482687 47.25 4.01482687 32.4845576 17.3828429 47.2483674 22.75 47.2483674 7.41313511 30.168954"></polygon>
                <path d="M61.3985171,26.5536231 L63,22.4762955 L55.3705991,22.4762955 L55.3705991,15.75 L51.086262,17.01 L51.086262,22.4762955 L47.1014829,22.4762955 L45.5,26.5536231 L51.086262,26.5536231 L51.086262,40.2393276 C51.086262,42.7528522 51.7572499,44.5432934 53.1376305,45.7137173 C54.3479324,46.7406039 56.1041321,47.25 58.4616422,47.25 C59.4349312,47.25 60.5102674,47.1631221 61.69204,46.9904454 L62.1600307,46.9219143 L62.1600307,43.1683555 L60.7911716,43.2260942 C58.4715177,43.3291606 56.7959683,43.4036274 56.0399411,42.6918758 C55.5829232,42.2623426 55.3705991,41.4831392 55.3705991,40.2393276 L55.3705991,26.5536231 L61.3985171,26.5536231 Z" id="Fill-8" fill="#FFFFFF"></path>
                <path d="M67.323205,33.049705 C68.1089917,29.1413717 71.2786068,26.6500737 75.5499775,26.6500737 C79.4982107,26.6500737 82.4395341,29.1413717 83.1834121,33.049705 L67.323205,33.049705 Z M75.5483232,22.75 C68.2771776,22.75 63,27.9019174 63,35 C63,42.0980826 68.3742291,47.25 75.7788206,47.25 C80.3303174,47.25 84.189219,45.2806047 86.366813,41.8466814 L86.6447333,41.4078909 L83.0174319,39.3362832 L82.7411659,39.8153392 C81.4436529,42.0640118 78.9236214,43.3535398 75.8256921,43.3535398 C71.4142584,43.3535398 68.1398717,40.8606932 67.327065,36.9508112 L86.8570335,36.9508112 L87.3582827,36.9466814 L87.406257,36.4800147 C87.4525771,36.0288348 87.5,35.5626844 87.5,35.0913717 C87.5,27.0764749 81.34219,22.7505162 75.5483232,22.75 L75.5483232,22.75 Z" id="Fill-10" fill="#FFFFFF"></path>
            </g>
        </g>
    </g>
</svg>