<?xml version="1.0" encoding="UTF-8"?>
<svg width="87px" height="16px" viewBox="0 0 87 16" version="1.1" xmlns="http://www.w3.org/2000/svg" xmlns:xlink="http://www.w3.org/1999/xlink">
    <title>oval-1</title>
    <g id="Page-1" stroke="none" stroke-width="1" fill="none" fill-rule="evenodd">
        <g id="Service-Introduction" transform="translate(-533.000000, -4322.000000)" fill="#FFFFFF" fill-rule="nonzero">
            <g id="Group-10" transform="translate(0.000000, 4200.000000)">
                <path d="M535.768,134 L535.768,122.544 L533.608,122.544 L533.608,134 L535.768,134 Z M540.712,134 L540.712,130.16 C540.712,129.84 540.752,129.538667 540.832,129.256 C540.912,128.973333 541.029333,128.728 541.184,128.52 C541.338667,128.312 541.525333,128.146667 541.744,128.024 C541.962667,127.901333 542.216,127.84 542.504,127.84 C542.984,127.84 543.349333,127.976 543.6,128.248 C543.850667,128.52 543.976,128.938667 543.976,129.504 L543.976,129.504 L543.976,134 L546.072,134 L546.072,129.248 C546.072,128.746667 546.010667,128.290667 545.888,127.88 C545.765333,127.469333 545.584,127.117333 545.344,126.824 C545.104,126.530667 544.797333,126.304 544.424,126.144 C544.050667,125.984 543.618667,125.904 543.128,125.904 C542.594667,125.904 542.12,126.018667 541.704,126.248 C541.288,126.477333 540.957333,126.789333 540.712,127.184 L540.712,127.184 L540.584,127.184 L540.584,126.16 L538.616,126.16 L538.616,134 L540.712,134 Z M551.704,134.256 C552.205333,134.256 552.661333,134.186667 553.072,134.048 C553.482667,133.909333 553.834667,133.72 554.128,133.48 C554.421333,133.24 554.648,132.965333 554.808,132.656 C554.968,132.346667 555.048,132.021333 555.048,131.68 C555.048,131.104 554.853333,130.605333 554.464,130.184 C554.074667,129.762667 553.48,129.456 552.68,129.264 L552.68,129.264 L551.48,128.976 C551.16,128.890667 550.906667,128.794667 550.72,128.688 C550.533333,128.581333 550.44,128.437333 550.44,128.256 C550.44,128.064 550.552,127.906667 550.776,127.784 C551,127.661333 551.261333,127.6 551.56,127.6 C551.848,127.6 552.136,127.669333 552.424,127.808 C552.712,127.946667 552.930667,128.170667 553.08,128.48 L553.08,128.48 L554.888,127.744 C554.610667,127.104 554.178667,126.637333 553.592,126.344 C553.005333,126.050667 552.338667,125.904 551.592,125.904 C551.144,125.904 550.725333,125.96 550.336,126.072 C549.946667,126.184 549.608,126.344 549.32,126.552 C549.032,126.76 548.805333,127.013333 548.64,127.312 C548.474667,127.610667 548.392,127.952 548.392,128.336 C548.392,128.677333 548.461333,128.976 548.6,129.232 C548.738667,129.488 548.914667,129.706667 549.128,129.888 C549.341333,130.069333 549.578667,130.218667 549.84,130.336 C550.101333,130.453333 550.354667,130.538667 550.6,130.592 L550.6,130.592 L551.704,130.832 C552.162667,130.938667 552.485333,131.058667 552.672,131.192 C552.858667,131.325333 552.952,131.498667 552.952,131.712 C552.952,131.904 552.84,132.069333 552.616,132.208 C552.392,132.346667 552.088,132.416 551.704,132.416 C551.330667,132.416 550.992,132.317333 550.688,132.12 C550.384,131.922667 550.141333,131.621333 549.96,131.216 L549.96,131.216 L548.088,132.016 C548.194667,132.293333 548.349333,132.568 548.552,132.84 C548.754667,133.112 549.002667,133.352 549.296,133.56 C549.589333,133.768 549.936,133.936 550.336,134.064 C550.736,134.192 551.192,134.256 551.704,134.256 Z M558.984,137.6 L558.984,133.472 C559.261333,133.717333 559.602667,133.906667 560.008,134.04 C560.413333,134.173333 560.834667,134.24 561.272,134.24 C562.018667,134.24 562.712,134.053333 563.352,133.68 C563.992,133.306667 564.501333,132.8 564.88,132.16 C565.258667,131.52 565.448,130.821333 565.448,130.064 C565.448,129.306667 565.258667,128.610667 564.88,127.976 C564.501333,127.341333 563.992,126.837333 563.352,126.464 C562.712,126.090667 562.018667,125.904 561.272,125.904 C560.408,125.904 559.645333,126.154667 558.984,126.656 L558.984,126.656 L558.984,126.144 L556.936,126.144 L556.936,137.6 L558.984,137.6 Z M561.272,132.432 C560.845333,132.432 560.450667,132.325333 560.088,132.112 C559.725333,131.898667 559.437333,131.610667 559.224,131.248 C559.010667,130.885333 558.904,130.490667 558.904,130.064 C558.904,129.637333 559.010667,129.242667 559.224,128.88 C559.437333,128.517333 559.725333,128.229333 560.088,128.016 C560.450667,127.802667 560.845333,127.696 561.272,127.696 C561.698667,127.696 562.093333,127.802667 562.456,128.016 C562.818667,128.229333 563.106667,128.517333 563.32,128.88 C563.533333,129.242667 563.64,129.637333 563.64,130.064 C563.64,130.490667 563.533333,130.885333 563.32,131.248 C563.106667,131.610667 562.818667,131.898667 562.456,132.112 C562.093333,132.325333 561.698667,132.432 561.272,132.432 Z M569.688,124.64 L569.688,122.544 L567.592,122.544 L567.592,124.64 L569.688,124.64 Z M569.688,134 L569.688,126.16 L567.592,126.16 L567.592,134 L569.688,134 Z M574.696,134 L574.696,130.896 C574.696,130.330667 574.808,129.792 575.032,129.28 C575.213333,128.885333 575.461333,128.554667 575.776,128.288 C576.090667,128.021333 576.488,127.888 576.968,127.888 C577.149333,127.888 577.362667,127.914667 577.608,127.968 L577.608,127.968 L577.608,126.128 C577.458667,126.085333 577.346667,126.058667 577.272,126.048 C577.122667,126.026667 577.010667,126.016 576.936,126.016 C576.434667,126.016 575.986667,126.138667 575.592,126.384 C575.197333,126.629333 574.898667,126.965333 574.696,127.392 L574.696,127.392 L574.696,126.176 L572.632,126.176 L572.632,134 L574.696,134 Z M583.448,134.24 C584.312,134.24 585.074667,133.989333 585.736,133.488 L585.736,133.488 L585.736,134 L587.784,134 L587.784,126.16 L585.736,126.16 L585.736,126.672 C585.458667,126.426667 585.117333,126.237333 584.712,126.104 C584.306667,125.970667 583.885333,125.904 583.448,125.904 C582.701333,125.904 582.008,126.090667 581.368,126.464 C580.728,126.837333 580.218667,127.344 579.84,127.984 C579.461333,128.624 579.272,129.322667 579.272,130.08 C579.272,130.837333 579.461333,131.533333 579.84,132.168 C580.218667,132.802667 580.728,133.306667 581.368,133.68 C582.008,134.053333 582.701333,134.24 583.448,134.24 Z M583.448,132.432 C583.021333,132.432 582.626667,132.325333 582.264,132.112 C581.901333,131.898667 581.613333,131.610667 581.4,131.248 C581.186667,130.885333 581.08,130.490667 581.08,130.064 C581.08,129.637333 581.186667,129.242667 581.4,128.88 C581.613333,128.517333 581.901333,128.229333 582.264,128.016 C582.626667,127.802667 583.021333,127.696 583.448,127.696 C583.874667,127.696 584.269333,127.802667 584.632,128.016 C584.994667,128.229333 585.282667,128.517333 585.496,128.88 C585.709333,129.242667 585.816,129.637333 585.816,130.064 C585.816,130.490667 585.709333,130.885333 585.496,131.248 C585.282667,131.610667 584.994667,131.898667 584.632,132.112 C584.269333,132.325333 583.874667,132.432 583.448,132.432 Z M593.752,134.128 C594.093333,134.128 594.405333,134.098667 594.688,134.04 C594.970667,133.981333 595.234667,133.893333 595.48,133.776 L595.48,133.776 L594.888,131.936 C594.792,132 594.690667,132.050667 594.584,132.088 C594.477333,132.125333 594.333333,132.144 594.152,132.144 C593.874667,132.144 593.661333,132.058667 593.512,131.888 C593.405333,131.781333 593.333333,131.650667 593.296,131.496 C593.258667,131.341333 593.24,131.173333 593.24,130.992 L593.24,130.992 L593.24,127.952 L595.16,127.952 L595.16,126.16 L593.24,126.16 L593.24,123.76 L591.144,123.76 L591.144,126.16 L589.768,126.16 L589.768,127.952 L591.144,127.952 L591.144,131.392 C591.144,132.277333 591.394667,132.96 591.896,133.44 C592.109333,133.653333 592.373333,133.821333 592.688,133.944 C593.002667,134.066667 593.357333,134.128 593.752,134.128 Z M599.72,124.64 L599.72,122.544 L597.624,122.544 L597.624,124.64 L599.72,124.64 Z M599.72,134 L599.72,126.16 L597.624,126.16 L597.624,134 L599.72,134 Z M606.152,134.256 C606.898667,134.256 607.592,134.069333 608.232,133.696 C608.872,133.322667 609.381333,132.818667 609.76,132.184 C610.138667,131.549333 610.328,130.853333 610.328,130.096 C610.328,129.338667 610.138667,128.637333 609.76,127.992 C609.381333,127.346667 608.872,126.837333 608.232,126.464 C607.592,126.090667 606.898667,125.904 606.152,125.904 C605.394667,125.904 604.696,126.090667 604.056,126.464 C603.416,126.837333 602.909333,127.346667 602.536,127.992 C602.162667,128.637333 601.976,129.338667 601.976,130.096 C601.976,130.853333 602.162667,131.549333 602.536,132.184 C602.909333,132.818667 603.416,133.322667 604.056,133.696 C604.696,134.069333 605.394667,134.256 606.152,134.256 Z M606.152,132.368 C605.736,132.368 605.352,132.266667 605,132.064 C604.648,131.861333 604.370667,131.584 604.168,131.232 C603.965333,130.88 603.864,130.501333 603.864,130.096 C603.864,129.68 603.965333,129.296 604.168,128.944 C604.370667,128.592 604.648,128.314667 605,128.112 C605.352,127.909333 605.736,127.808 606.152,127.808 C606.568,127.808 606.949333,127.909333 607.296,128.112 C607.642667,128.314667 607.917333,128.592 608.12,128.944 C608.322667,129.296 608.424,129.68 608.424,130.096 C608.424,130.501333 608.322667,130.88 608.12,131.232 C607.917333,131.584 607.642667,131.861333 607.296,132.064 C606.949333,132.266667 606.568,132.368 606.152,132.368 Z M614.552,134 L614.552,130.16 C614.552,129.84 614.592,129.538667 614.672,129.256 C614.752,128.973333 614.869333,128.728 615.024,128.52 C615.178667,128.312 615.365333,128.146667 615.584,128.024 C615.802667,127.901333 616.056,127.84 616.344,127.84 C616.824,127.84 617.189333,127.976 617.44,128.248 C617.690667,128.52 617.816,128.938667 617.816,129.504 L617.816,129.504 L617.816,134 L619.912,134 L619.912,129.248 C619.912,128.746667 619.850667,128.290667 619.728,127.88 C619.605333,127.469333 619.424,127.117333 619.184,126.824 C618.944,126.530667 618.637333,126.304 618.264,126.144 C617.890667,125.984 617.458667,125.904 616.968,125.904 C616.434667,125.904 615.96,126.018667 615.544,126.248 C615.128,126.477333 614.797333,126.789333 614.552,127.184 L614.552,127.184 L614.424,127.184 L614.424,126.16 L612.456,126.16 L612.456,134 L614.552,134 Z" id="oval-1"></path>
            </g>
        </g>
    </g>
</svg>