<?xml version="1.0" encoding="UTF-8"?>
<svg width="94px" height="16px" viewBox="0 0 94 16" version="1.1" xmlns="http://www.w3.org/2000/svg" xmlns:xlink="http://www.w3.org/1999/xlink">
    <title>oval-2</title>
    <g id="Page-1" stroke="none" stroke-width="1" fill="none" fill-rule="evenodd">
        <g id="Service-Introduction" transform="translate(-913.000000, -4322.000000)" fill="#FFFFFF" fill-rule="nonzero">
            <g id="Group-10" transform="translate(0.000000, 4200.000000)">
                <path d="M918.728,134 L918.728,124.592 L921.928,124.592 L921.928,122.544 L913.368,122.544 L913.368,124.592 L916.568,124.592 L916.568,134 L918.728,134 Z M927.72,134.256 C928.605333,134.256 929.354667,134.058667 929.968,133.664 C930.581333,133.269333 931.069333,132.752 931.432,132.112 L931.432,132.112 L929.688,131.248 C929.506667,131.578667 929.258667,131.853333 928.944,132.072 C928.629333,132.290667 928.232,132.4 927.752,132.4 C927.506667,132.4 927.266667,132.365333 927.032,132.296 C926.797333,132.226667 926.581333,132.114667 926.384,131.96 C926.186667,131.805333 926.021333,131.613333 925.888,131.384 C925.754667,131.154667 925.666667,130.88 925.624,130.56 L925.624,130.56 L931.528,130.56 C931.528,130.496 931.533333,130.437333 931.544,130.384 C931.544,130.330667 931.549333,130.272 931.56,130.208 L931.56,130.208 L931.56,130.016 C931.56,129.429333 931.474667,128.885333 931.304,128.384 C931.133333,127.882667 930.882667,127.448 930.552,127.08 C930.221333,126.712 929.810667,126.424 929.32,126.216 C928.829333,126.008 928.269333,125.904 927.64,125.904 C927.042667,125.904 926.496,126.016 926,126.24 C925.504,126.464 925.074667,126.765333 924.712,127.144 C924.349333,127.522667 924.066667,127.965333 923.864,128.472 C923.661333,128.978667 923.56,129.514667 923.56,130.08 C923.56,130.688 923.664,131.245333 923.872,131.752 C924.08,132.258667 924.370667,132.698667 924.744,133.072 C925.117333,133.445333 925.557333,133.736 926.064,133.944 C926.570667,134.152 927.122667,134.256 927.72,134.256 Z M929.528,129.072 L925.736,129.072 C925.874667,128.613333 926.114667,128.256 926.456,128 C926.797333,127.744 927.192,127.616 927.64,127.616 C927.96,127.616 928.234667,127.664 928.464,127.76 C928.693333,127.856 928.885333,127.978667 929.04,128.128 C929.194667,128.277333 929.312,128.437333 929.392,128.608 C929.472,128.778667 929.517333,128.933333 929.528,129.072 L929.528,129.072 Z M937.416,134.256 C938.333333,134.256 939.098667,134.045333 939.712,133.624 C940.325333,133.202667 940.802667,132.661333 941.144,132 L941.144,132 L939.224,131.168 C939.042667,131.541333 938.8,131.826667 938.496,132.024 C938.192,132.221333 937.821333,132.32 937.384,132.32 C937.106667,132.32 936.845333,132.266667 936.6,132.16 C936.354667,132.053333 936.138667,131.904 935.952,131.712 C935.765333,131.52 935.618667,131.285333 935.512,131.008 C935.405333,130.730667 935.352,130.421333 935.352,130.08 C935.352,129.738667 935.405333,129.429333 935.512,129.152 C935.618667,128.874667 935.765333,128.64 935.952,128.448 C936.138667,128.256 936.354667,128.106667 936.6,128 C936.845333,127.893333 937.106667,127.84 937.384,127.84 C937.810667,127.84 938.165333,127.933333 938.448,128.12 C938.730667,128.306667 938.962667,128.581333 939.144,128.944 L939.144,128.944 L941.064,128.144 C940.776,127.482667 940.322667,126.944 939.704,126.528 C939.085333,126.112 938.322667,125.904 937.416,125.904 C936.808,125.904 936.250667,126.008 935.744,126.216 C935.237333,126.424 934.8,126.712 934.432,127.08 C934.064,127.448 933.776,127.888 933.568,128.4 C933.36,128.912 933.256,129.472 933.256,130.08 C933.256,130.688 933.36,131.245333 933.568,131.752 C933.776,132.258667 934.064,132.698667 934.432,133.072 C934.8,133.445333 935.237333,133.736 935.744,133.944 C936.250667,134.152 936.808,134.256 937.416,134.256 Z M945.304,134 L945.304,129.552 C945.304,129.296 945.389333,129.058667 945.56,128.84 C945.730667,128.621333 945.949333,128.445333 946.216,128.312 C946.482667,128.178667 946.749333,128.106667 947.016,128.096 C947.421333,128.106667 947.794667,128.256 948.136,128.544 C948.477333,128.832 948.648,129.168 948.648,129.552 L948.648,134 L950.712,134 L950.712,129.552 C950.712,128.912 950.552,128.32 950.232,127.776 C949.912,127.232 949.482667,126.8 948.944,126.48 C948.405333,126.16 947.816,126 947.176,126 C946.514667,126 945.890667,126.170667 945.304,126.512 L945.304,122.544 L943.224,122.544 L943.224,134 L945.304,134 Z M955.304,134 L955.304,130.16 C955.304,129.84 955.344,129.538667 955.424,129.256 C955.504,128.973333 955.621333,128.728 955.776,128.52 C955.930667,128.312 956.117333,128.146667 956.336,128.024 C956.554667,127.901333 956.808,127.84 957.096,127.84 C957.576,127.84 957.941333,127.976 958.192,128.248 C958.442667,128.52 958.568,128.938667 958.568,129.504 L958.568,129.504 L958.568,134 L960.664,134 L960.664,129.248 C960.664,128.746667 960.602667,128.290667 960.48,127.88 C960.357333,127.469333 960.176,127.117333 959.936,126.824 C959.696,126.530667 959.389333,126.304 959.016,126.144 C958.642667,125.984 958.210667,125.904 957.72,125.904 C957.186667,125.904 956.712,126.018667 956.296,126.248 C955.88,126.477333 955.549333,126.789333 955.304,127.184 L955.304,127.184 L955.176,127.184 L955.176,126.16 L953.208,126.16 L953.208,134 L955.304,134 Z M966.904,134.256 C967.650667,134.256 968.344,134.069333 968.984,133.696 C969.624,133.322667 970.133333,132.818667 970.512,132.184 C970.890667,131.549333 971.08,130.853333 971.08,130.096 C971.08,129.338667 970.890667,128.637333 970.512,127.992 C970.133333,127.346667 969.624,126.837333 968.984,126.464 C968.344,126.090667 967.650667,125.904 966.904,125.904 C966.146667,125.904 965.448,126.090667 964.808,126.464 C964.168,126.837333 963.661333,127.346667 963.288,127.992 C962.914667,128.637333 962.728,129.338667 962.728,130.096 C962.728,130.853333 962.914667,131.549333 963.288,132.184 C963.661333,132.818667 964.168,133.322667 964.808,133.696 C965.448,134.069333 966.146667,134.256 966.904,134.256 Z M966.904,132.368 C966.488,132.368 966.104,132.266667 965.752,132.064 C965.4,131.861333 965.122667,131.584 964.92,131.232 C964.717333,130.88 964.616,130.501333 964.616,130.096 C964.616,129.68 964.717333,129.296 964.92,128.944 C965.122667,128.592 965.4,128.314667 965.752,128.112 C966.104,127.909333 966.488,127.808 966.904,127.808 C967.32,127.808 967.701333,127.909333 968.048,128.112 C968.394667,128.314667 968.669333,128.592 968.872,128.944 C969.074667,129.296 969.176,129.68 969.176,130.096 C969.176,130.501333 969.074667,130.88 968.872,131.232 C968.669333,131.584 968.394667,131.861333 968.048,132.064 C967.701333,132.266667 967.32,132.368 966.904,132.368 Z M975.304,134 L975.304,122.544 L973.208,122.544 L973.208,134 L975.304,134 Z M981.608,134.256 C982.354667,134.256 983.048,134.069333 983.688,133.696 C984.328,133.322667 984.837333,132.818667 985.216,132.184 C985.594667,131.549333 985.784,130.853333 985.784,130.096 C985.784,129.338667 985.594667,128.637333 985.216,127.992 C984.837333,127.346667 984.328,126.837333 983.688,126.464 C983.048,126.090667 982.354667,125.904 981.608,125.904 C980.850667,125.904 980.152,126.090667 979.512,126.464 C978.872,126.837333 978.365333,127.346667 977.992,127.992 C977.618667,128.637333 977.432,129.338667 977.432,130.096 C977.432,130.853333 977.618667,131.549333 977.992,132.184 C978.365333,132.818667 978.872,133.322667 979.512,133.696 C980.152,134.069333 980.850667,134.256 981.608,134.256 Z M981.608,132.368 C981.192,132.368 980.808,132.266667 980.456,132.064 C980.104,131.861333 979.826667,131.584 979.624,131.232 C979.421333,130.88 979.32,130.501333 979.32,130.096 C979.32,129.68 979.421333,129.296 979.624,128.944 C979.826667,128.592 980.104,128.314667 980.456,128.112 C980.808,127.909333 981.192,127.808 981.608,127.808 C982.024,127.808 982.405333,127.909333 982.752,128.112 C983.098667,128.314667 983.373333,128.592 983.576,128.944 C983.778667,129.296 983.88,129.68 983.88,130.096 C983.88,130.501333 983.778667,130.88 983.576,131.232 C983.373333,131.584 983.098667,131.861333 982.752,132.064 C982.405333,132.266667 982.024,132.368 981.608,132.368 Z M991.784,137.744 C992.392,137.744 992.952,137.648 993.464,137.456 C993.976,137.242667 994.408,136.96 994.76,136.608 C995.122667,136.234667 995.405333,135.786667 995.608,135.264 C995.810667,134.709333 995.912,134.117333 995.912,133.488 L995.912,133.488 L995.912,126.16 L993.912,126.16 L993.912,126.56 C993.24,126.122667 992.498667,125.904 991.688,125.904 C990.952,125.904 990.272,126.088 989.648,126.456 C989.024,126.824 988.528,127.32 988.16,127.944 C987.792,128.568 987.608,129.248 987.608,129.984 C987.608,130.72 987.792,131.4 988.16,132.024 C988.528,132.648 989.024,133.144 989.648,133.512 C990.272,133.88 990.952,134.064 991.688,134.064 C992.498667,134.064 993.24,133.845333 993.912,133.408 C993.912,133.792 993.864,134.144 993.768,134.464 C993.672,134.784 993.528,135.045333 993.336,135.248 C992.952,135.685333 992.434667,135.904 991.784,135.904 C991.378667,135.904 991,135.786667 990.648,135.552 C990.477333,135.445333 990.333333,135.306667 990.216,135.136 C990.162667,135.082667 990.12,135.024 990.088,134.96 L990.088,134.96 L988.104,135.808 C988.210667,135.978667 988.306667,136.112 988.392,136.208 C988.584,136.474667 988.845333,136.730667 989.176,136.976 C989.506667,137.210667 989.885333,137.397333 990.312,137.536 C990.717333,137.674667 991.208,137.744 991.784,137.744 Z M991.688,132.32 C991.293333,132.32 990.914667,132.210667 990.552,131.992 C990.189333,131.773333 989.898667,131.482667 989.68,131.12 C989.461333,130.757333 989.352,130.378667 989.352,129.984 C989.352,129.589333 989.458667,129.210667 989.672,128.848 C989.885333,128.485333 990.173333,128.194667 990.536,127.976 C990.898667,127.757333 991.282667,127.648 991.688,127.648 C991.794667,127.648 991.885333,127.653333 991.96,127.664 C992.034667,127.674667 992.093333,127.685333 992.136,127.696 C992.573333,127.792 992.965333,128.013333 993.312,128.36 C993.658667,128.706667 993.88,129.098667 993.976,129.536 C993.986667,129.578667 993.997333,129.637333 994.008,129.712 C994.018667,129.786667 994.024,129.877333 994.024,129.984 C994.024,130.378667 993.914667,130.757333 993.696,131.12 C993.477333,131.482667 993.186667,131.773333 992.824,131.992 C992.461333,132.210667 992.082667,132.32 991.688,132.32 Z M1001.24,137.456 L1006.152,126.16 L1003.816,126.16 L1001.912,130.912 L1001.8,130.912 L999.816,126.16 L997.432,126.16 L1000.728,133.616 L998.984,137.456 L1001.24,137.456 Z" id="oval-2"></path>
            </g>
        </g>
    </g>
</svg>