<?xml version="1.0" encoding="UTF-8"?>
<svg width="139px" height="38px" viewBox="0 0 139 38" version="1.1" xmlns="http://www.w3.org/2000/svg" xmlns:xlink="http://www.w3.org/1999/xlink">
    <title>ExclusivehotelpricesonKyteonly</title>
    <g id="Page-1" stroke="none" stroke-width="1" fill="none" fill-rule="evenodd">
        <g id="Service-Introduction" transform="translate(-563.000000, -5771.000000)" fill="#FFFFFF" fill-rule="nonzero">
            <g id="section-5-1" transform="translate(0.000000, 4855.852268)">
                <path d="M570.364,925.28358 L570.364,923.49158 L565.898,923.49158 L565.898,921.16758 L569.916,921.16758 L569.916,919.37558 L565.898,919.37558 L565.898,917.05158 L570.364,917.05158 L570.364,915.25958 L564.008,915.25958 L564.008,925.28358 L570.364,925.28358 Z M573.374,925.28358 L574.62,923.32358 L574.718,923.32358 L576.006,925.28358 L578.162,925.28358 L575.754,921.79758 L578.162,918.42358 L575.922,918.42358 L574.746,920.32758 L574.648,920.32758 L573.402,918.42358 L571.232,918.42358 L573.584,921.79758 L571.204,925.28358 L573.374,925.28358 Z M582.32,925.50758 C583.122667,925.50758 583.792333,925.323247 584.329,924.95458 C584.865667,924.585914 585.283333,924.112247 585.582,923.53358 L585.582,923.53358 L583.902,922.80558 C583.743333,923.132247 583.531,923.381914 583.265,923.55458 C582.999,923.727247 582.674667,923.81358 582.292,923.81358 C582.049333,923.81358 581.820667,923.766914 581.606,923.67358 C581.391333,923.580247 581.202333,923.44958 581.039,923.28158 C580.875667,923.11358 580.747333,922.908247 580.654,922.66558 C580.560667,922.422914 580.514,922.152247 580.514,921.85358 C580.514,921.554914 580.560667,921.284247 580.654,921.04158 C580.747333,920.798914 580.875667,920.59358 581.039,920.42558 C581.202333,920.25758 581.391333,920.126914 581.606,920.03358 C581.820667,919.940247 582.049333,919.89358 582.292,919.89358 C582.665333,919.89358 582.975667,919.975247 583.223,920.13858 C583.470333,920.301914 583.673333,920.542247 583.832,920.85958 L583.832,920.85958 L585.512,920.15958 C585.26,919.580914 584.863333,919.10958 584.322,918.74558 C583.780667,918.38158 583.113333,918.19958 582.32,918.19958 C581.788,918.19958 581.300333,918.29058 580.857,918.47258 C580.413667,918.65458 580.031,918.90658 579.709,919.22858 C579.387,919.55058 579.135,919.93558 578.953,920.38358 C578.771,920.83158 578.68,921.32158 578.68,921.85358 C578.68,922.38558 578.771,922.873247 578.953,923.31658 C579.135,923.759914 579.387,924.144914 579.709,924.47158 C580.031,924.798247 580.413667,925.05258 580.857,925.23458 C581.300333,925.41658 581.788,925.50758 582.32,925.50758 Z M588.536,925.28358 L588.536,915.25958 L586.702,915.25958 L586.702,925.28358 L588.536,925.28358 Z M592.526,925.50758 C592.731333,925.50758 592.899333,925.502914 593.03,925.49358 C593.478,925.456247 593.858333,925.344247 594.171,925.15758 C594.483667,924.970914 594.714667,924.802914 594.864,924.65358 L594.864,924.65358 L594.864,925.28358 L596.572,925.28358 L596.572,918.42358 L594.752,918.42358 L594.752,921.79758 C594.752,922.058914 594.714667,922.324914 594.64,922.59558 C594.565333,922.84758 594.462667,923.05758 594.332,923.22558 C594.201333,923.42158 594.038,923.566247 593.842,923.65958 C593.664667,923.77158 593.445333,923.82758 593.184,923.82758 C592.764,923.82758 592.446667,923.706247 592.232,923.46358 C592.008,923.220914 591.896,922.856914 591.896,922.37158 L591.896,922.37158 L591.896,918.42358 L590.076,918.42358 L590.076,922.59558 C590.076,923.482247 590.286,924.19158 590.706,924.72358 C591.135333,925.246247 591.742,925.50758 592.526,925.50758 Z M600.856,925.50758 C601.294667,925.50758 601.693667,925.446914 602.053,925.32558 C602.412333,925.204247 602.720333,925.03858 602.977,924.82858 C603.233667,924.61858 603.432,924.378247 603.572,924.10758 C603.712,923.836914 603.782,923.552247 603.782,923.25358 C603.782,922.74958 603.611667,922.313247 603.271,921.94458 C602.930333,921.575914 602.41,921.30758 601.71,921.13958 L601.71,921.13958 L600.66,920.88758 C600.38,920.812914 600.158333,920.728914 599.995,920.63558 C599.831667,920.542247 599.75,920.416247 599.75,920.25758 C599.75,920.08958 599.848,919.951914 600.044,919.84458 C600.24,919.737247 600.468667,919.68358 600.73,919.68358 C600.982,919.68358 601.234,919.744247 601.486,919.86558 C601.738,919.986914 601.929333,920.182914 602.06,920.45358 L602.06,920.45358 L603.642,919.80958 C603.399333,919.24958 603.021333,918.841247 602.508,918.58458 C601.994667,918.327914 601.411333,918.19958 600.758,918.19958 C600.366,918.19958 599.999667,918.24858 599.659,918.34658 C599.318333,918.44458 599.022,918.58458 598.77,918.76658 C598.518,918.94858 598.319667,919.170247 598.175,919.43158 C598.030333,919.692914 597.958,919.99158 597.958,920.32758 C597.958,920.626247 598.018667,920.88758 598.14,921.11158 C598.261333,921.33558 598.415333,921.526914 598.602,921.68558 C598.788667,921.844247 598.996333,921.974914 599.225,922.07758 C599.453667,922.180247 599.675333,922.254914 599.89,922.30158 L599.89,922.30158 L600.856,922.51158 C601.257333,922.604914 601.539667,922.709914 601.703,922.82658 C601.866333,922.943247 601.948,923.094914 601.948,923.28158 C601.948,923.44958 601.85,923.594247 601.654,923.71558 C601.458,923.836914 601.192,923.89758 600.856,923.89758 C600.529333,923.89758 600.233,923.811247 599.967,923.63858 C599.701,923.465914 599.488667,923.202247 599.33,922.84758 L599.33,922.84758 L597.692,923.54758 C597.785333,923.790247 597.920667,924.03058 598.098,924.26858 C598.275333,924.50658 598.492333,924.71658 598.749,924.89858 C599.005667,925.08058 599.309,925.22758 599.659,925.33958 C600.009,925.45158 600.408,925.50758 600.856,925.50758 Z M606.848,917.09358 L606.848,915.25958 L605.014,915.25958 L605.014,917.09358 L606.848,917.09358 Z M606.848,925.28358 L606.848,918.42358 L605.014,918.42358 L605.014,925.28358 L606.848,925.28358 Z M612.532,925.28358 L615.486,918.42358 L613.414,918.42358 L611.692,922.79158 L611.594,922.79158 L609.886,918.42358 L607.8,918.42358 L610.726,925.28358 L612.532,925.28358 Z M619.574,925.50758 C620.348667,925.50758 621.004333,925.334914 621.541,924.98958 C622.077667,924.644247 622.504667,924.19158 622.822,923.63158 L622.822,923.63158 L621.296,922.87558 C621.137333,923.164914 620.920333,923.405247 620.645,923.59658 C620.369667,923.787914 620.022,923.88358 619.602,923.88358 C619.387333,923.88358 619.177333,923.853247 618.972,923.79258 C618.766667,923.731914 618.577667,923.633914 618.405,923.49858 C618.232333,923.363247 618.087667,923.195247 617.971,922.99458 C617.854333,922.793914 617.777333,922.55358 617.74,922.27358 L617.74,922.27358 L622.906,922.27358 C622.906,922.21758 622.910667,922.166247 622.92,922.11958 C622.92,922.072914 622.924667,922.02158 622.934,921.96558 L622.934,921.96558 L622.934,921.79758 C622.934,921.284247 622.859333,920.808247 622.71,920.36958 C622.560667,919.930914 622.341333,919.55058 622.052,919.22858 C621.762667,918.90658 621.403333,918.65458 620.974,918.47258 C620.544667,918.29058 620.054667,918.19958 619.504,918.19958 C618.981333,918.19958 618.503,918.29758 618.069,918.49358 C617.635,918.68958 617.259333,918.953247 616.942,919.28458 C616.624667,919.615914 616.377333,920.003247 616.2,920.44658 C616.022667,920.889914 615.934,921.358914 615.934,921.85358 C615.934,922.38558 616.025,922.873247 616.207,923.31658 C616.389,923.759914 616.643333,924.144914 616.97,924.47158 C617.296667,924.798247 617.681667,925.05258 618.125,925.23458 C618.568333,925.41658 619.051333,925.50758 619.574,925.50758 Z M621.156,920.97158 L617.838,920.97158 C617.959333,920.570247 618.169333,920.25758 618.468,920.03358 C618.766667,919.80958 619.112,919.69758 619.504,919.69758 C619.784,919.69758 620.024333,919.73958 620.225,919.82358 C620.425667,919.90758 620.593667,920.014914 620.729,920.14558 C620.864333,920.276247 620.967,920.416247 621.037,920.56558 C621.107,920.714914 621.146667,920.850247 621.156,920.97158 L621.156,920.97158 Z M629.01,925.28358 L629.01,921.39158 C629.01,921.16758 629.084667,920.959914 629.234,920.76858 C629.383333,920.577247 629.574667,920.423247 629.808,920.30658 C630.041333,920.189914 630.274667,920.126914 630.508,920.11758 C630.862667,920.126914 631.189333,920.25758 631.488,920.50958 C631.786667,920.76158 631.936,921.05558 631.936,921.39158 L631.936,925.28358 L633.742,925.28358 L633.742,921.39158 C633.742,920.83158 633.602,920.31358 633.322,919.83758 C633.042,919.36158 632.666333,918.98358 632.195,918.70358 C631.723667,918.42358 631.208,918.28358 630.648,918.28358 C630.069333,918.28358 629.523333,918.432914 629.01,918.73158 L629.01,915.25958 L627.19,915.25958 L627.19,925.28358 L629.01,925.28358 Z M638.474,925.50758 C639.127333,925.50758 639.734,925.344247 640.294,925.01758 C640.854,924.690914 641.299667,924.249914 641.631,923.69458 C641.962333,923.139247 642.128,922.530247 642.128,921.86758 C642.128,921.204914 641.962333,920.591247 641.631,920.02658 C641.299667,919.461914 640.854,919.016247 640.294,918.68958 C639.734,918.362914 639.127333,918.19958 638.474,918.19958 C637.811333,918.19958 637.2,918.362914 636.64,918.68958 C636.08,919.016247 635.636667,919.461914 635.31,920.02658 C634.983333,920.591247 634.82,921.204914 634.82,921.86758 C634.82,922.530247 634.983333,923.139247 635.31,923.69458 C635.636667,924.249914 636.08,924.690914 636.64,925.01758 C637.2,925.344247 637.811333,925.50758 638.474,925.50758 Z M638.474,923.85558 C638.11,923.85558 637.774,923.766914 637.466,923.58958 C637.158,923.412247 636.915333,923.16958 636.738,922.86158 C636.560667,922.55358 636.472,922.222247 636.472,921.86758 C636.472,921.50358 636.560667,921.16758 636.738,920.85958 C636.915333,920.55158 637.158,920.308914 637.466,920.13158 C637.774,919.954247 638.11,919.86558 638.474,919.86558 C638.838,919.86558 639.171667,919.954247 639.475,920.13158 C639.778333,920.308914 640.018667,920.55158 640.196,920.85958 C640.373333,921.16758 640.462,921.50358 640.462,921.86758 C640.462,922.222247 640.373333,922.55358 640.196,922.86158 C640.018667,923.16958 639.778333,923.412247 639.475,923.58958 C639.171667,923.766914 638.838,923.85558 638.474,923.85558 Z M646.328,925.39558 C646.626667,925.39558 646.899667,925.369914 647.147,925.31858 C647.394333,925.267247 647.625333,925.190247 647.84,925.08758 L647.84,925.08758 L647.322,923.47758 C647.238,923.53358 647.149333,923.577914 647.056,923.61058 C646.962667,923.643247 646.836667,923.65958 646.678,923.65958 C646.435333,923.65958 646.248667,923.584914 646.118,923.43558 C646.024667,923.342247 645.961667,923.227914 645.929,923.09258 C645.896333,922.957247 645.88,922.810247 645.88,922.65158 L645.88,922.65158 L645.88,919.99158 L647.56,919.99158 L647.56,918.42358 L645.88,918.42358 L645.88,916.32358 L644.046,916.32358 L644.046,918.42358 L642.842,918.42358 L642.842,919.99158 L644.046,919.99158 L644.046,923.00158 C644.046,923.776247 644.265333,924.37358 644.704,924.79358 C644.890667,924.980247 645.121667,925.127247 645.397,925.23458 C645.672333,925.341914 645.982667,925.39558 646.328,925.39558 Z M652.152,925.50758 C652.926667,925.50758 653.582333,925.334914 654.119,924.98958 C654.655667,924.644247 655.082667,924.19158 655.4,923.63158 L655.4,923.63158 L653.874,922.87558 C653.715333,923.164914 653.498333,923.405247 653.223,923.59658 C652.947667,923.787914 652.6,923.88358 652.18,923.88358 C651.965333,923.88358 651.755333,923.853247 651.55,923.79258 C651.344667,923.731914 651.155667,923.633914 650.983,923.49858 C650.810333,923.363247 650.665667,923.195247 650.549,922.99458 C650.432333,922.793914 650.355333,922.55358 650.318,922.27358 L650.318,922.27358 L655.484,922.27358 C655.484,922.21758 655.488667,922.166247 655.498,922.11958 C655.498,922.072914 655.502667,922.02158 655.512,921.96558 L655.512,921.96558 L655.512,921.79758 C655.512,921.284247 655.437333,920.808247 655.288,920.36958 C655.138667,919.930914 654.919333,919.55058 654.63,919.22858 C654.340667,918.90658 653.981333,918.65458 653.552,918.47258 C653.122667,918.29058 652.632667,918.19958 652.082,918.19958 C651.559333,918.19958 651.081,918.29758 650.647,918.49358 C650.213,918.68958 649.837333,918.953247 649.52,919.28458 C649.202667,919.615914 648.955333,920.003247 648.778,920.44658 C648.600667,920.889914 648.512,921.358914 648.512,921.85358 C648.512,922.38558 648.603,922.873247 648.785,923.31658 C648.967,923.759914 649.221333,924.144914 649.548,924.47158 C649.874667,924.798247 650.259667,925.05258 650.703,925.23458 C651.146333,925.41658 651.629333,925.50758 652.152,925.50758 Z M653.734,920.97158 L650.416,920.97158 C650.537333,920.570247 650.747333,920.25758 651.046,920.03358 C651.344667,919.80958 651.69,919.69758 652.082,919.69758 C652.362,919.69758 652.602333,919.73958 652.803,919.82358 C653.003667,919.90758 653.171667,920.014914 653.307,920.14558 C653.442333,920.276247 653.545,920.416247 653.615,920.56558 C653.685,920.714914 653.724667,920.850247 653.734,920.97158 L653.734,920.97158 Z M658.522,925.28358 L658.522,915.25958 L656.688,915.25958 L656.688,925.28358 L658.522,925.28358 Z M664.794,928.43358 L664.794,924.82158 C665.036667,925.036247 665.335333,925.201914 665.69,925.31858 C666.044667,925.435247 666.413333,925.49358 666.796,925.49358 C667.449333,925.49358 668.056,925.330247 668.616,925.00358 C669.176,924.676914 669.621667,924.23358 669.953,923.67358 C670.284333,923.11358 670.45,922.502247 670.45,921.83958 C670.45,921.176914 670.284333,920.567914 669.953,920.01258 C669.621667,919.457247 669.176,919.016247 668.616,918.68958 C668.056,918.362914 667.449333,918.19958 666.796,918.19958 C666.04,918.19958 665.372667,918.418914 664.794,918.85758 L664.794,918.85758 L664.794,918.40958 L663.002,918.40958 L663.002,928.43358 L664.794,928.43358 Z M666.796,923.91158 C666.422667,923.91158 666.077333,923.818247 665.76,923.63158 C665.442667,923.444914 665.190667,923.192914 665.004,922.87558 C664.817333,922.558247 664.724,922.212914 664.724,921.83958 C664.724,921.466247 664.817333,921.120914 665.004,920.80358 C665.190667,920.486247 665.442667,920.234247 665.76,920.04758 C666.077333,919.860914 666.422667,919.76758 666.796,919.76758 C667.169333,919.76758 667.514667,919.860914 667.832,920.04758 C668.149333,920.234247 668.401333,920.486247 668.588,920.80358 C668.774667,921.120914 668.868,921.466247 668.868,921.83958 C668.868,922.212914 668.774667,922.558247 668.588,922.87558 C668.401333,923.192914 668.149333,923.444914 667.832,923.63158 C667.514667,923.818247 667.169333,923.91158 666.796,923.91158 Z M673.516,925.28358 L673.516,922.56758 C673.516,922.072914 673.614,921.60158 673.81,921.15358 C673.968667,920.808247 674.185667,920.518914 674.461,920.28558 C674.736333,920.052247 675.084,919.93558 675.504,919.93558 C675.662667,919.93558 675.849333,919.958914 676.064,920.00558 L676.064,920.00558 L676.064,918.39558 C675.933333,918.358247 675.835333,918.334914 675.77,918.32558 C675.639333,918.306914 675.541333,918.29758 675.476,918.29758 C675.037333,918.29758 674.645333,918.404914 674.3,918.61958 C673.954667,918.834247 673.693333,919.128247 673.516,919.50158 L673.516,919.50158 L673.516,918.43758 L671.71,918.43758 L671.71,925.28358 L673.516,925.28358 Z M679.158,917.09358 L679.158,915.25958 L677.324,915.25958 L677.324,917.09358 L679.158,917.09358 Z M679.158,925.28358 L679.158,918.42358 L677.324,918.42358 L677.324,925.28358 L679.158,925.28358 Z M684.086,925.50758 C684.888667,925.50758 685.558333,925.323247 686.095,924.95458 C686.631667,924.585914 687.049333,924.112247 687.348,923.53358 L687.348,923.53358 L685.668,922.80558 C685.509333,923.132247 685.297,923.381914 685.031,923.55458 C684.765,923.727247 684.440667,923.81358 684.058,923.81358 C683.815333,923.81358 683.586667,923.766914 683.372,923.67358 C683.157333,923.580247 682.968333,923.44958 682.805,923.28158 C682.641667,923.11358 682.513333,922.908247 682.42,922.66558 C682.326667,922.422914 682.28,922.152247 682.28,921.85358 C682.28,921.554914 682.326667,921.284247 682.42,921.04158 C682.513333,920.798914 682.641667,920.59358 682.805,920.42558 C682.968333,920.25758 683.157333,920.126914 683.372,920.03358 C683.586667,919.940247 683.815333,919.89358 684.058,919.89358 C684.431333,919.89358 684.741667,919.975247 684.989,920.13858 C685.236333,920.301914 685.439333,920.542247 685.598,920.85958 L685.598,920.85958 L687.278,920.15958 C687.026,919.580914 686.629333,919.10958 686.088,918.74558 C685.546667,918.38158 684.879333,918.19958 684.086,918.19958 C683.554,918.19958 683.066333,918.29058 682.623,918.47258 C682.179667,918.65458 681.797,918.90658 681.475,919.22858 C681.153,919.55058 680.901,919.93558 680.719,920.38358 C680.537,920.83158 680.446,921.32158 680.446,921.85358 C680.446,922.38558 680.537,922.873247 680.719,923.31658 C680.901,923.759914 681.153,924.144914 681.475,924.47158 C681.797,924.798247 682.179667,925.05258 682.623,925.23458 C683.066333,925.41658 683.554,925.50758 684.086,925.50758 Z M691.716,925.50758 C692.490667,925.50758 693.146333,925.334914 693.683,924.98958 C694.219667,924.644247 694.646667,924.19158 694.964,923.63158 L694.964,923.63158 L693.438,922.87558 C693.279333,923.164914 693.062333,923.405247 692.787,923.59658 C692.511667,923.787914 692.164,923.88358 691.744,923.88358 C691.529333,923.88358 691.319333,923.853247 691.114,923.79258 C690.908667,923.731914 690.719667,923.633914 690.547,923.49858 C690.374333,923.363247 690.229667,923.195247 690.113,922.99458 C689.996333,922.793914 689.919333,922.55358 689.882,922.27358 L689.882,922.27358 L695.048,922.27358 C695.048,922.21758 695.052667,922.166247 695.062,922.11958 C695.062,922.072914 695.066667,922.02158 695.076,921.96558 L695.076,921.96558 L695.076,921.79758 C695.076,921.284247 695.001333,920.808247 694.852,920.36958 C694.702667,919.930914 694.483333,919.55058 694.194,919.22858 C693.904667,918.90658 693.545333,918.65458 693.116,918.47258 C692.686667,918.29058 692.196667,918.19958 691.646,918.19958 C691.123333,918.19958 690.645,918.29758 690.211,918.49358 C689.777,918.68958 689.401333,918.953247 689.084,919.28458 C688.766667,919.615914 688.519333,920.003247 688.342,920.44658 C688.164667,920.889914 688.076,921.358914 688.076,921.85358 C688.076,922.38558 688.167,922.873247 688.349,923.31658 C688.531,923.759914 688.785333,924.144914 689.112,924.47158 C689.438667,924.798247 689.823667,925.05258 690.267,925.23458 C690.710333,925.41658 691.193333,925.50758 691.716,925.50758 Z M693.298,920.97158 L689.98,920.97158 C690.101333,920.570247 690.311333,920.25758 690.61,920.03358 C690.908667,919.80958 691.254,919.69758 691.646,919.69758 C691.926,919.69758 692.166333,919.73958 692.367,919.82358 C692.567667,919.90758 692.735667,920.014914 692.871,920.14558 C693.006333,920.276247 693.109,920.416247 693.179,920.56558 C693.249,920.714914 693.288667,920.850247 693.298,920.97158 L693.298,920.97158 Z M698.968,925.50758 C699.406667,925.50758 699.805667,925.446914 700.165,925.32558 C700.524333,925.204247 700.832333,925.03858 701.089,924.82858 C701.345667,924.61858 701.544,924.378247 701.684,924.10758 C701.824,923.836914 701.894,923.552247 701.894,923.25358 C701.894,922.74958 701.723667,922.313247 701.383,921.94458 C701.042333,921.575914 700.522,921.30758 699.822,921.13958 L699.822,921.13958 L698.772,920.88758 C698.492,920.812914 698.270333,920.728914 698.107,920.63558 C697.943667,920.542247 697.862,920.416247 697.862,920.25758 C697.862,920.08958 697.96,919.951914 698.156,919.84458 C698.352,919.737247 698.580667,919.68358 698.842,919.68358 C699.094,919.68358 699.346,919.744247 699.598,919.86558 C699.85,919.986914 700.041333,920.182914 700.172,920.45358 L700.172,920.45358 L701.754,919.80958 C701.511333,919.24958 701.133333,918.841247 700.62,918.58458 C700.106667,918.327914 699.523333,918.19958 698.87,918.19958 C698.478,918.19958 698.111667,918.24858 697.771,918.34658 C697.430333,918.44458 697.134,918.58458 696.882,918.76658 C696.63,918.94858 696.431667,919.170247 696.287,919.43158 C696.142333,919.692914 696.07,919.99158 696.07,920.32758 C696.07,920.626247 696.130667,920.88758 696.252,921.11158 C696.373333,921.33558 696.527333,921.526914 696.714,921.68558 C696.900667,921.844247 697.108333,921.974914 697.337,922.07758 C697.565667,922.180247 697.787333,922.254914 698.002,922.30158 L698.002,922.30158 L698.968,922.51158 C699.369333,922.604914 699.651667,922.709914 699.815,922.82658 C699.978333,922.943247 700.06,923.094914 700.06,923.28158 C700.06,923.44958 699.962,923.594247 699.766,923.71558 C699.57,923.836914 699.304,923.89758 698.968,923.89758 C698.641333,923.89758 698.345,923.811247 698.079,923.63858 C697.813,923.465914 697.600667,923.202247 697.442,922.84758 L697.442,922.84758 L695.804,923.54758 C695.897333,923.790247 696.032667,924.03058 696.21,924.26858 C696.387333,924.50658 696.604333,924.71658 696.861,924.89858 C697.117667,925.08058 697.421,925.22758 697.771,925.33958 C698.121,925.45158 698.52,925.50758 698.968,925.50758 Z M567.032,949.50758 C567.685333,949.50758 568.292,949.344247 568.852,949.01758 C569.412,948.690914 569.857667,948.249914 570.189,947.69458 C570.520333,947.139247 570.686,946.530247 570.686,945.86758 C570.686,945.204914 570.520333,944.591247 570.189,944.02658 C569.857667,943.461914 569.412,943.016247 568.852,942.68958 C568.292,942.362914 567.685333,942.19958 567.032,942.19958 C566.369333,942.19958 565.758,942.362914 565.198,942.68958 C564.638,943.016247 564.194667,943.461914 563.868,944.02658 C563.541333,944.591247 563.378,945.204914 563.378,945.86758 C563.378,946.530247 563.541333,947.139247 563.868,947.69458 C564.194667,948.249914 564.638,948.690914 565.198,949.01758 C565.758,949.344247 566.369333,949.50758 567.032,949.50758 Z M567.032,947.85558 C566.668,947.85558 566.332,947.766914 566.024,947.58958 C565.716,947.412247 565.473333,947.16958 565.296,946.86158 C565.118667,946.55358 565.03,946.222247 565.03,945.86758 C565.03,945.50358 565.118667,945.16758 565.296,944.85958 C565.473333,944.55158 565.716,944.308914 566.024,944.13158 C566.332,943.954247 566.668,943.86558 567.032,943.86558 C567.396,943.86558 567.729667,943.954247 568.033,944.13158 C568.336333,944.308914 568.576667,944.55158 568.754,944.85958 C568.931333,945.16758 569.02,945.50358 569.02,945.86758 C569.02,946.222247 568.931333,946.55358 568.754,946.86158 C568.576667,947.16958 568.336333,947.412247 568.033,947.58958 C567.729667,947.766914 567.396,947.85558 567.032,947.85558 Z M573.682,949.28358 L573.682,945.92358 C573.682,945.64358 573.717,945.379914 573.787,945.13258 C573.857,944.885247 573.959667,944.67058 574.095,944.48858 C574.230333,944.30658 574.393667,944.161914 574.585,944.05458 C574.776333,943.947247 574.998,943.89358 575.25,943.89358 C575.67,943.89358 575.989667,944.01258 576.209,944.25058 C576.428333,944.48858 576.538,944.854914 576.538,945.34958 L576.538,945.34958 L576.538,949.28358 L578.372,949.28358 L578.372,945.12558 C578.372,944.686914 578.318333,944.287914 578.211,943.92858 C578.103667,943.569247 577.945,943.261247 577.735,943.00458 C577.525,942.747914 577.256667,942.54958 576.93,942.40958 C576.603333,942.26958 576.225333,942.19958 575.796,942.19958 C575.329333,942.19958 574.914,942.299914 574.55,942.50058 C574.186,942.701247 573.896667,942.974247 573.682,943.31958 L573.682,943.31958 L573.57,943.31958 L573.57,942.42358 L571.848,942.42358 L571.848,949.28358 L573.682,949.28358 Z M585.078,949.28358 L585.078,946.34358 L586.576,944.60758 L589.39,949.28358 L591.686,949.28358 L591.686,949.15758 L587.99,942.96958 L591.14,939.37158 L591.14,939.25958 L588.858,939.25958 L585.19,943.55758 L585.078,943.55758 L585.078,939.25958 L583.188,939.25958 L583.188,949.28358 L585.078,949.28358 Z M595.41,952.30758 L599.708,942.42358 L597.664,942.42358 L595.998,946.58158 L595.9,946.58158 L594.164,942.42358 L592.078,942.42358 L594.962,948.94758 L593.436,952.30758 L595.41,952.30758 Z M603.586,949.39558 C603.884667,949.39558 604.157667,949.369914 604.405,949.31858 C604.652333,949.267247 604.883333,949.190247 605.098,949.08758 L605.098,949.08758 L604.58,947.47758 C604.496,947.53358 604.407333,947.577914 604.314,947.61058 C604.220667,947.643247 604.094667,947.65958 603.936,947.65958 C603.693333,947.65958 603.506667,947.584914 603.376,947.43558 C603.282667,947.342247 603.219667,947.227914 603.187,947.09258 C603.154333,946.957247 603.138,946.810247 603.138,946.65158 L603.138,946.65158 L603.138,943.99158 L604.818,943.99158 L604.818,942.42358 L603.138,942.42358 L603.138,940.32358 L601.304,940.32358 L601.304,942.42358 L600.1,942.42358 L600.1,943.99158 L601.304,943.99158 L601.304,947.00158 C601.304,947.776247 601.523333,948.37358 601.962,948.79358 C602.148667,948.980247 602.379667,949.127247 602.655,949.23458 C602.930333,949.341914 603.240667,949.39558 603.586,949.39558 Z M609.41,949.50758 C610.184667,949.50758 610.840333,949.334914 611.377,948.98958 C611.913667,948.644247 612.340667,948.19158 612.658,947.63158 L612.658,947.63158 L611.132,946.87558 C610.973333,947.164914 610.756333,947.405247 610.481,947.59658 C610.205667,947.787914 609.858,947.88358 609.438,947.88358 C609.223333,947.88358 609.013333,947.853247 608.808,947.79258 C608.602667,947.731914 608.413667,947.633914 608.241,947.49858 C608.068333,947.363247 607.923667,947.195247 607.807,946.99458 C607.690333,946.793914 607.613333,946.55358 607.576,946.27358 L607.576,946.27358 L612.742,946.27358 C612.742,946.21758 612.746667,946.166247 612.756,946.11958 C612.756,946.072914 612.760667,946.02158 612.77,945.96558 L612.77,945.96558 L612.77,945.79758 C612.77,945.284247 612.695333,944.808247 612.546,944.36958 C612.396667,943.930914 612.177333,943.55058 611.888,943.22858 C611.598667,942.90658 611.239333,942.65458 610.81,942.47258 C610.380667,942.29058 609.890667,942.19958 609.34,942.19958 C608.817333,942.19958 608.339,942.29758 607.905,942.49358 C607.471,942.68958 607.095333,942.953247 606.778,943.28458 C606.460667,943.615914 606.213333,944.003247 606.036,944.44658 C605.858667,944.889914 605.77,945.358914 605.77,945.85358 C605.77,946.38558 605.861,946.873247 606.043,947.31658 C606.225,947.759914 606.479333,948.144914 606.806,948.47158 C607.132667,948.798247 607.517667,949.05258 607.961,949.23458 C608.404333,949.41658 608.887333,949.50758 609.41,949.50758 Z M610.992,944.97158 L607.674,944.97158 C607.795333,944.570247 608.005333,944.25758 608.304,944.03358 C608.602667,943.80958 608.948,943.69758 609.34,943.69758 C609.62,943.69758 609.860333,943.73958 610.061,943.82358 C610.261667,943.90758 610.429667,944.014914 610.565,944.14558 C610.700333,944.276247 610.803,944.416247 610.873,944.56558 C610.943,944.714914 610.982667,944.850247 610.992,944.97158 L610.992,944.97158 Z M620.274,949.50758 C620.927333,949.50758 621.534,949.344247 622.094,949.01758 C622.654,948.690914 623.099667,948.249914 623.431,947.69458 C623.762333,947.139247 623.928,946.530247 623.928,945.86758 C623.928,945.204914 623.762333,944.591247 623.431,944.02658 C623.099667,943.461914 622.654,943.016247 622.094,942.68958 C621.534,942.362914 620.927333,942.19958 620.274,942.19958 C619.611333,942.19958 619,942.362914 618.44,942.68958 C617.88,943.016247 617.436667,943.461914 617.11,944.02658 C616.783333,944.591247 616.62,945.204914 616.62,945.86758 C616.62,946.530247 616.783333,947.139247 617.11,947.69458 C617.436667,948.249914 617.88,948.690914 618.44,949.01758 C619,949.344247 619.611333,949.50758 620.274,949.50758 Z M620.274,947.85558 C619.91,947.85558 619.574,947.766914 619.266,947.58958 C618.958,947.412247 618.715333,947.16958 618.538,946.86158 C618.360667,946.55358 618.272,946.222247 618.272,945.86758 C618.272,945.50358 618.360667,945.16758 618.538,944.85958 C618.715333,944.55158 618.958,944.308914 619.266,944.13158 C619.574,943.954247 619.91,943.86558 620.274,943.86558 C620.638,943.86558 620.971667,943.954247 621.275,944.13158 C621.578333,944.308914 621.818667,944.55158 621.996,944.85958 C622.173333,945.16758 622.262,945.50358 622.262,945.86758 C622.262,946.222247 622.173333,946.55358 621.996,946.86158 C621.818667,947.16958 621.578333,947.412247 621.275,947.58958 C620.971667,947.766914 620.638,947.85558 620.274,947.85558 Z M626.924,949.28358 L626.924,945.92358 C626.924,945.64358 626.959,945.379914 627.029,945.13258 C627.099,944.885247 627.201667,944.67058 627.337,944.48858 C627.472333,944.30658 627.635667,944.161914 627.827,944.05458 C628.018333,943.947247 628.24,943.89358 628.492,943.89358 C628.912,943.89358 629.231667,944.01258 629.451,944.25058 C629.670333,944.48858 629.78,944.854914 629.78,945.34958 L629.78,945.34958 L629.78,949.28358 L631.614,949.28358 L631.614,945.12558 C631.614,944.686914 631.560333,944.287914 631.453,943.92858 C631.345667,943.569247 631.187,943.261247 630.977,943.00458 C630.767,942.747914 630.498667,942.54958 630.172,942.40958 C629.845333,942.26958 629.467333,942.19958 629.038,942.19958 C628.571333,942.19958 628.156,942.299914 627.792,942.50058 C627.428,942.701247 627.138667,942.974247 626.924,943.31958 L626.924,943.31958 L626.812,943.31958 L626.812,942.42358 L625.09,942.42358 L625.09,949.28358 L626.924,949.28358 Z M634.96,949.28358 L634.96,939.25958 L633.126,939.25958 L633.126,949.28358 L634.96,949.28358 Z M639.132,952.30758 L643.43,942.42358 L641.386,942.42358 L639.72,946.58158 L639.622,946.58158 L637.886,942.42358 L635.8,942.42358 L638.684,948.94758 L637.158,952.30758 L639.132,952.30758 Z" id="ExclusivehotelpricesonKyteonly"></path>
            </g>
        </g>
    </g>
</svg>