<?xml version="1.0" encoding="UTF-8"?>
<svg width="1216px" height="400px" viewBox="0 0 1216 400" version="1.1" xmlns="http://www.w3.org/2000/svg" xmlns:xlink="http://www.w3.org/1999/xlink">
    <title>Magazine</title>
    <g id="Page-1" stroke="none" stroke-width="1" fill="none" fill-rule="evenodd" fill-opacity="0.04">
        <g id="Service-Introduction" transform="translate(-349.000000, -9871.000000)" fill="#000000" fill-rule="nonzero">
            <g id="Group-18" transform="translate(349.000000, 9871.000000)">
                <path d="M286.38,19.01 L286.38,18.24 C288.98,16.16 291.32,12 291.32,7.58 C291.32,2.12 287.94,0.3 285.08,0.3 C279.62,0.3 276.24,8.62 272.6,10.7 C268.7,13.04 267.14,15.64 265.06,16.94 C264.28,17.72 262.2,17.46 261.42,18.24 C260.591014,19.0689855 260.396383,19.5543625 260.279897,20.0163726 L260.249647,20.1420367 C260.03104,21.0837807 259.927826,22.0495652 255.18,25.78 C251.02,28.9 248.42,30.72 245.04,33.32 C240.1,37.22 235.16,41.9 230.22,45.8 C219.82,52.56 214.1,60.36 207.6,64.52 C204.22,66.6 203.96,70.76 200.32,72.06 C193.56,76.48 188.62,81.94 183.94,88.18 C177.44,89.48 177.44,96.24 170.16,98.06 C170.16,104.04 157.68,110.54 157.68,110.54 C156.9,115.48 153.26,116.52 150.4,119.38 C149.582857,120.197143 148.893061,121.120408 148.215394,122.034577 L147.877037,122.49037 C146.297778,124.608889 144.68,126.573333 141.56,126.92 C143.137333,122.430667 145.677244,118.960533 148.202056,115.479076 L148.922176,114.483175 C151.554914,110.823881 154.068889,107.044444 155.34,101.96 C155.6,102.22 155.86,102.22 156.12,102.22 C157.55,102.22 157.911914,100.860617 158.214489,99.4472908 L158.296296,99.0614815 C158.46,98.2911111 158.633333,97.54 158.98,97.02 C159.475238,96.3266667 160.196871,95.6710658 160.943658,95.0244488 L161.505321,94.5407213 C162.532154,93.6553288 163.511429,92.7733333 163.92,91.82 C164.57,90.78 164.96,89.545 165.3175,88.2775 L165.583086,87.3233203 C165.849688,86.368125 166.13,85.4175 166.52,84.54 C166.78,83.24 169.12,83.24 169.12,81.16 C169.12,80.38 168.86,79.34 168.86,78.3 C168.86,77.78 168.86,77.52 169.12,77 C173.54,76.74 182.9,58.02 183.94,47.1 C182.722439,46.2882927 181.980024,45.0806306 181.264649,43.863311 L180.996776,43.407118 C179.968079,41.6624271 178.879512,39.997561 176.4,39.56 C169.354366,40.1019718 164.63883,44.033176 160.119208,48.262728 L159.387677,48.9507283 C159.022433,49.2955479 158.657718,49.6412305 158.292396,49.9861285 L157.560603,50.6743903 C154.260853,53.7624678 150.850423,56.6980282 146.5,58.28 C144.68,58.54 145.2,61.14 144.16,61.92 C142.6,62.96 140.52,62.18 138.96,63.22 C136.36,65.3 135.32,67.64 132.72,69.46 C128.04,73.1 119.98,75.96 119.2,80.64 C107.76,87.66 100.48,101.96 92.94,103.26 C89.3,107.94 85.14,112.1 80.46,115.74 C79.9688889,117.213333 78.6660802,117.874969 77.3729347,118.546268 L76.918269,118.784936 C75.6387654,119.469877 74.4655556,120.261111 74.22,121.98 C71.36,122.5 69.8,126.4 68.76,126.4 C67.98,126.4 67.72,124.84 67.72,124.06 C67.72,118.6 73.18,118.34 73.18,114.44 C73.18,114.18 72.92,113.92 72.92,113.66 C72.92,111.788 76.3832,106.64 79.77152,101.69792 L80.2917321,100.939694 C82.3664,97.9170462 84.344,95.04 85.4,93.12 C88.78,87.14 93.98,80.9 94.24,72.06 C97.88,71.02 101.78,61.14 101.78,60.1 C101.78,59.06 101.26,58.02 101.26,56.72 C101.26,54.64 103.34,55.68 104.12,54.38 C106.98,49.96 107.76,39.56 107.76,34.62 C107.76,29.94 107.24,25.26 106.72,19.54 C102.56,17.46 100.48,13.3 97.88,9.66 C95.8,9.66 94.76,8.62 94.24,7.06 C88.8986957,5.02521739 87.5384877,4.48334594 86.2648253,4.46074792 L86.18,4.46 C84.88,4.46 83.32,5.24 76.3,5.24 C73.18,5.24 69.8,4.98 66.68,4.98 C58.36,4.98 50.56,9.14 42.24,10.18 C36,10.96 33.92,10.96 27.68,11.48 C25.8004819,11.6679518 23.5435506,11.9464828 21.1965857,12.3228684 L20.4900826,12.438727 C13.2856844,13.6466163 5.51108434,15.7715663 5.32,19.02 C4.28,18.76 3.76,18.76 2.98,18.76 C0.38,18.76 0.12,20.84 0.12,23.18 C0.12,23.2795745 0.118587596,23.3796197 0.116163471,23.4799154 L0.10625661,23.7813334 C0.0192485287,25.9437211 -0.350212766,28.12 2.98,28.12 C4.28,28.12 5.32,27.86 6.1,27.86 C7.92,27.86 9.22,28.9 9.48,28.9 C16.76,28.9 28.98,23.96 30.02,23.96 C39.38,22.66 44.06,23.18 52.38,21.62 C54.0508197,21.3216393 55.9133727,20.9137167 57.816787,20.4622388 L58.6345979,20.266274 L58.6345979,20.266274 L59.454773,20.0661306 L59.454773,20.0661306 L60.2746731,19.8629631 C65.8703736,18.4669497 71.2619672,16.94 72.66,16.94 C73.44,16.94 73.96,17.2 75.26,17.2 L75.7390671,17.199242 C76.7669388,17.1946939 78.2314286,17.1628571 80.46,16.94 C85.92,19.8 95.28,21.88 95.28,29.68 C95.28,42.9928814 91.293657,52.5292272 86.9019232,61.4930475 L86.4032064,62.5055459 C86.0698305,63.1791439 85.7349153,63.8501695 85.4,64.52 C80.304,78.6432 73.332672,90.972608 66.3124224,103.28897 L64.808,105.92864 C59.7952,114.7312 54.824,123.592 50.56,133.16 C49,135.76 46.92,137.84 45.36,140.7 C43.8,143.56 43.02,149.28 41.72,150.58 C39.9,152.4 38.86,153.7 38.86,156.3 C38.86,156.82 39.12,157.6 39.12,158.12 C37.5127273,158.876364 36.5930579,160.320331 35.7734035,161.876814 L35.52992,162.34656 C34.2008,164.9424 32.984,167.688 29.24,168 L29.24,169.56 C29.24,174.24 24.82,177.1 24.3,179.18 C23.78,181.52 23.26,183.34 23.26,185.42 C23.26,187.24 23.78,193.22 27.68,193.22 C35.22,193.22 43.02,185.42 43.02,182.3 C43.02,181.52 42.76,180.74 42.76,179.96 C42.76,177.62 48.22,176.32 48.22,172.94 C48.22,172.68 47.96,172.42 47.96,171.9 C51.34,171.9 50.56,168 54.2,168 C54.46,162.54 59.4,161.5 60.44,156.82 C61.48,152.4 66.68,151.88 66.68,146.42 L66.68,145.64 C70.84,145.12 70.32,140.18 74.22,139.4 C78.9,130.82 89.3,126.14 94.24,116.78 C101.26,114.44 104.9,104.82 111.66,101.96 C116.34,99.1 118.94,94.16 122.84,90.78 C123.88,89.74 125.44,90.26 126.48,89.48 C127.52,88.7 128.04,86.36 129.08,85.58 C130.12,84.8 131.68,85.32 132.72,84.54 C135.06,82.98 136.36,79.08 137.92,78.3 C138.979259,77.6259259 139.610535,77.5224966 140.223318,77.4349185 L140.407007,77.4085658 C141.388093,77.2646365 142.426667,77.0192593 145.2,74.4 C148.32,71.54 151.44,67.9 154.04,65.82 C154.779556,65.1728889 155.782064,64.8873383 156.767043,64.6361176 L157.13504,64.54288 C158.7824,64.1248 160.28,63.688 160.28,61.66 L160.28,60.62 C160.406829,59.3517073 161.709149,59.2589054 163.100499,59.255133 L163.728949,59.2557781 C164.9832,59.25442 166.177561,59.1931707 166.52,58.28 C164.425556,66.6577778 160.381468,72.8609534 156.240176,79.1446698 L155.382577,80.446638 C152.094458,85.4475926 148.825556,90.597037 146.5,97.02 C139.74,101.96 138.44,112.88 131.68,118.08 L131.68,119.12 C131.68,121.98 128.82,124.06 127.78,125.62 C126.48,127.7 126.22,130.56 125.44,131.86 C124.92,132.64 123.36,132.12 122.84,133.16 C119.72,137.84 116.34,142.52 114,147.98 C111.281818,149.339091 109.984504,152.11905 108.696878,154.945832 L108.360267,155.683413 C107.289153,158.016725 106.140909,160.300455 104.12,161.76 C102.82,165.92 99.18,169.82 99.18,174.5 C99.18,175.8 99.44,179.18 101.52,179.18 C107.76,179.18 112.44,176.06 114,172.94 L114.332458,172.723576 L114.332458,172.723576 L114.998227,172.291739 C115.886174,171.716457 116.773804,171.142127 117.645054,170.556067 L118.29517,170.114125 C122.71321,167.076447 126.595556,163.647407 127.78,158.12 C139.388081,153.432121 146.587887,140.502685 148.556618,136.610503 L148.745487,136.232922 C148.952346,135.814568 149.071111,135.557778 149.1,135.5 L150.439828,134.160788 C153.109778,131.494844 154.386667,130.248 156.64,128.22 C158.301739,127.863913 158.98811,126.47827 159.663878,125.077314 L159.8575,124.6775 C160.605,123.15 161.45,121.72 163.66,121.72 C164.18,121.72 164.7,121.98 165.22,121.98 L165.22,120.94 C165.22,117.3 179.26,104.3 187.84,99.36 C189.14,96.24 190.7,93.38 192.78,90.78 C203.7,88.18 209.42,72.06 215.66,72.06 L216.44,72.06 C216.18,71.28 215.92,70.76 215.92,70.24 C215.92,70.5 225.02,61.14 230.22,59.58 C230.22,55.94 235.42,53.34 237.76,49.44 C238.54,49.7 239.06,49.7 239.58,49.7 C246.34,49.7 248.94,40.86 253.88,40.86 C254.14,40.08 256.48,38.78 258.04,38.78 C258.56,38.78 258.82,38.78 258.82,39.3 C258.82,43.2 252.58,52.04 251.28,53.34 C250.5,54.38 251.02,54.38 250.24,55.68 C248.44,58.68 246.370769,61.5261538 244.283787,64.3515976 L243.031479,66.0454438 C240.113846,69.9969231 237.26,73.96 235.16,78.3 L235.16,80.38 C235.16,81.42 234.38,81.68 234.12,81.68 L233.34,81.68 C231.52,81.68 232.56,85.32 231.52,86.88 C228.66,92.08 219.82,105.86 218.78,112.36 C216.18,114.44 208.9,125.1 208.9,127.7 C208.9,130.56 201.88,144.08 200.06,145.9 C195.9,150.32 196.94,158.12 192.52,160.98 C191.22,165.4 188.62,171.38 188.62,173.46 C188.62,175.54 191.48,176.84 191.48,179.44 C191.48,179.96 191.48,180.48 191.22,181 C193.3,181.78 194.86,182.04 196.68,182.04 C203.18,182.04 207.86,177.88 215.14,177.1 C218.26,173.98 225.54,170.08 230.74,169.04 C232.28,167.36 238.493846,163.192308 244.632308,159.418935 L245.508205,158.882875 C250.462906,155.863932 255.22,153.193333 257.26,152.4 C266.88,149.02 281.44,135.76 280.92,135.5 L280.92,135.24 C280.92,134.507755 281.492845,132.114261 282.073873,129.726612 L282.22526,129.104975 C282.82858,126.62773 283.387347,124.314694 283.26,124.06 C282.9272,123.8936 277.80208,126.92208 272.451188,129.533096 L271.781481,129.857037 L271.781481,129.857037 L271.111405,130.175062 C268.544601,131.380814 266.013333,132.4216 264.02,132.9 C260.64,136.28 255.18,137.32 253.62,139.92 C244,143.56 218,160.46 206.3,162.28 C206.56,158.64 207.86,156.04 207.86,152.4 C207.86,151.62 207.6,150.84 207.6,149.8 C210.46,148.76 213.84,143.3 213.84,142.78 L213.84,142.26 C215.66,140.44 215.92,136.8 216.18,133.42 C219.213333,132.553333 220.08,129.700556 220.886481,126.667222 L221.093862,125.88438 C221.186621,125.535692 221.280952,125.186667 221.38,124.84 C221.64,124.84 221.9,125.1 222.16,125.1 C224.5,125.1 223.98,122.24 226.32,122.24 C233.86,101.18 251.02,76.74 261.42,58.28 C266.62,48.92 273.38,41.12 277.54,30.72 C281.902597,30.4633766 286.265195,17.0356418 286.377773,18.9369228 L286.38,19.01 Z M305.62,181.52 C309.52,178.92 316.28,177.62 318.1,176.32 C322.26,173.72 327.2,171.12 330.58,170.08 C333.44,169.56 334.48,165.92 338.12,166.44 C339.883478,166.168696 340.160681,167.454442 340.354799,168.783269 L340.40241,169.115498 C340.560756,170.220076 340.742609,171.266957 341.76,171.38 C342.02,174.5 346.7,173.2 346.96,176.32 C347.696667,176.59625 348.824688,176.513759 349.97445,176.407487 L350.583148,176.350845 C352.470556,176.179167 354.24,176.103333 354.24,177.62 C362.82,176.06 369.06,176.58 378.16,175.54 C381.8,170.34 389.86,171.64 394.28,167.22 C397.4,167.48 397.92,166.18 400.52,164.62 C402.86,163.32 405.72,163.32 408.06,162.28 C412.48,159.94 415.86,156.56 420.28,154.22 C424.7,151.88 423.66,150.06 428.08,147.98 C432.24,145.9 437.18,139.4 441.6,137.06 C440.82,137.32 437.7,128.22 437.7,128.22 C431.72,131.6 427.3,135.24 422.1,138.1 C418.46,140.18 414.82,142 411.7,145.64 C404.16,149.02 396.88,152.14 389.34,155.52 C385.44,157.34 380.76,158.64 376.86,160.46 C372.96,162.54 369.84,161.5 365.68,162.8 C363.34,163.32 360.22,162.8 358.14,163.84 C357.809492,162.848475 356.405297,162.837271 354.995565,162.817364 L354.657669,162.811913 C352.860827,162.776547 351.194915,162.597288 351.9,160.2 C350.08,155.26 355.02,154.48 356.84,152.66 C359.18,150.32 361,147.72 364.38,146.42 C366.72,142.78 369.06,138.62 372.96,136.54 C373.22,129.52 379.98,129.26 379.2,121.46 C377.38,119.38 377.38,115.22 374.26,113.92 C366.346957,113.213478 362.657684,116.730728 359.310654,120.631957 L358.910405,121.101701 C358.710854,121.33725 358.511975,121.573627 358.312931,121.810005 L357.914375,122.282514 C357.847829,122.361184 357.781203,122.439792 357.714466,122.518308 L357.312453,122.988053 L357.312453,122.988053 L356.906274,123.454112 C354.862476,125.772732 352.606522,127.897826 349.3,129 C349.3,133.254545 346.863306,135.246446 344.553193,137.396574 L344.169786,137.756809 C343.78843,138.119339 343.414545,138.49 343.06,138.88 C342.782667,141.930667 341.691822,144.167822 340.576326,146.380326 L340.1584,147.2104 C339.3264,148.8744 338.536,150.58 338.12,152.66 C335.975,152.374 335.16705,153.42505 334.398425,154.472167 L334.1888,154.75664 C333.6272,155.5096 333.024,156.196 331.88,156.3 C330.32,157.86 327.46,157.86 324.34,157.6 C324.6,161.5 319.14,161.5 316.8,162.8 C316.366667,163.06 315.991111,163.32 315.625185,163.58 L315.0775,163.97 C314.525,164.36 313.94,164.75 313.16,165.14 C311.6,166.18 309.52,165.4 309.52,167.74 C307.18,167.826667 304.868889,168.606667 302.548148,169.444444 L301.884784,169.684833 C297.460166,171.290582 292.987302,172.886349 288.2,170.08 C288.656585,164.600976 290.449518,160.636478 292.275045,156.674154 L292.731351,155.682743 C293.870042,153.199952 294.979024,150.66878 295.74,147.72 C299.38,147.2 299.64,143.3 301.98,141.48 C304.32,139.66 305.1,136.28 308.22,135.24 C312.12,130.82 316.02,126.4 319.4,121.46 C327.72,118.6 332.4,111.84 339.42,107.68 C343.58,106.9 345.66,103.52 349.3,101.44 C353.2,99.62 358.14,99.1 361.78,96.5 C369.84,97.8 374.26,92.08 380.5,95.2 C380.405797,97.2724638 379.28765,98.9694812 378.12251,100.600214 L377.842474,100.990476 C375.882911,103.715614 374.011304,106.323478 376.86,110.28 C377.301212,110.21697 377.803545,110.21506 378.315138,110.22241 L378.891852,110.231852 C380.297778,110.251111 381.626667,110.193333 381.8,108.98 C381.8,107.16 384.92,107.94 384.4,105.34 C388.04,104.3 389.6,101.44 391.68,99.1 C394.8,88.7 390.9,79.6 381.8,77.78 C370.62,79.34 363.34,85.06 351.9,86.62 C350.245455,89.4327273 347.11686,90.771405 343.787258,91.9760781 L343.071159,92.2326597 L343.071159,92.2326597 L341.991563,92.61625 C340.67125,93.0875 339.355,93.575 338.12,94.16 C333.96,96.5 332.14,101.18 325.64,101.44 C323.04,105.86 318.88,108.72 314.46,111.58 C307.7,118.86 299.38,124.84 293.14,132.64 C291.715652,134.166087 290.490359,135.891229 289.292761,137.628487 L288.496584,138.786403 C286.904915,141.097618 285.294783,143.356522 283.26,145.12 C281.96,150.58 280.14,155.52 277.02,158.9 C274.16,170.08 277.28,178.4 283.26,183.86 C285.86,182.56 290.02,185.16 289.5,185.16 C293.66,185.42 303.8,182.56 305.62,181.52 Z M393.76,332.06 C398.18,332.06 416.38,328.94 417.94,324.26 C424.7,322.18 432.24,312.56 437.96,307.88 C440.56,302.94 443.94,298.26 447.84,294.36 C449.92,289.16 466.82,265.5 466.56,263.16 C470.72,258.48 472.28,252.24 475.4,246.78 C474.62,242.88 479.04,243.4 479.04,240.28 L479.04,239.24 C482.16,230.14 487.88,222.34 490.22,213.24 C489.96,211.42 491.26,209.86 492.82,209.34 C494.38,205.96 497.76,199.2 497.76,195.56 C498.825574,194.281311 500.240516,191.561478 501.718459,188.796542 L502.074228,188.132806 C504.095447,184.374829 506.19082,180.74 507.64,180.74 C507.12,177.62 508.94,175.8 508.94,173.2 C508.94,172.16 508.42,171.38 507.64,170.6 C511.28,168 512.32,165.4 513.88,162.02 C520.64,157.86 525.06,158.12 532.34,155 C534.716,153.416 540.844862,150.424677 547.018056,147.455005 L548.140118,146.915621 C553.744615,144.223077 559.2,141.62 561.72,140.18 C564.06,136.54 567.44,137.32 571.6,136.02 C573.16,134.46 574.98,134.98 575.5,132.64 C578.36,133.42 579.4,131.34 582,131.34 L583.04,131.34 C590.84,128.22 596.56,124.06 604.62,121.46 C603.06,117.56 607.22,114.7 606.7,111.06 C606.7,110.54 606.44,110.28 606.18,110.28 C601.5,110.28 578.62,117.3 576.8,120.42 C573.42,121.98 570.56,123.02 566.66,123.8 C565.36,125.36 564.58,125.36 563.02,126.66 C554.18,129 546.9,132.9 538.58,136.28 C538.06,138.1 536.5,136.28 534.68,136.28 L531.56,134.72 L531.56,133.68 C531.56,130.82 532.6,125.62 535.2,124.58 C536.5,121.72 537.28,118.6 538.84,115.74 C543.26,113.4 551.32,109.24 551.32,103.26 L551.32,95.72 C549.5,91.3 544.82,88.96 542.74,84.54 C536.76,81.42 529.22,80.9 522.72,80.9 C509.2,80.9 506.6,83.24 495.16,88.44 L491.52,88.44 L459.02,108.2 C454.86,114.7 449.66,120.68 444.2,125.88 C443.335349,128.23814 442.280584,130.524986 441.229688,132.805202 L440.74564,133.857373 C438.494624,138.767507 436.4,143.693023 436.4,149.28 C436.4,152.4 437.96,155.26 437.96,158.38 L437.96,159.42 C441.6,161.76 444.2,165.66 447.84,168.26 C452,167.48 453.56,169.56 456.68,169.56 C463.7,169.56 470.72,166.96 477.74,166.96 C481.64,163.84 487.88,162.28 492.82,162.02 L489.96,166.44 L487.88,169.04 C484.24,172.42 480.34,175.02 476.44,177.88 L472.8,178.92 C463.96,186.2 451.48,194.78 445.24,204.4 C443.16,204.66 435.36,212.46 435.36,214.28 C429.64,220 422.88,224.68 419.24,231.96 C418.692632,232.397895 418.110693,232.801219 417.530573,233.20151 L417.096393,233.501653 C415.077119,234.904266 413.191579,236.366316 413,239.24 C404.953684,246.301053 399.603878,255.332632 394.526998,264.566176 L393.682963,266.106667 C391.015556,270.988889 388.386667,275.9 385.44,280.58 C384.66,285.78 383.1,290.72 380.5,295.4 C381.02,300.08 379.2,303.72 379.2,308.14 L379.2,309.18 C382.06,315.68 382.32,323.48 386.74,329.2 C388.56,329.2 389.86,330.24 390.38,331.8 L393.76,332.06 Z M458.76,157.08 C455.64,157.08 453.3,155.52 450.44,154.48 C449.92,152.92 449.14,151.1 449.14,149.28 C449.14,144.6 452.26,140.44 452.78,135.76 C456.42,132.64 459.54,129 461.62,124.58 C465.26,121.98 468.38,118.6 470.2,114.44 C477.74,111.58 492.82,98.84 500.36,99.62 C501.66,97.54 517.26,93.38 520.12,93.38 C524.8,93.38 537.8,95.98 537.8,102.22 L537.8,103.26 C534.68,102.48 533.38,102.48 530.26,103.26 C522.535636,109.764727 517.989719,118.971134 513.764536,128.145756 L513.176769,129.425455 C512.199669,131.557025 511.232727,133.68 510.24,135.76 C503.74,138.88 497.5,142.52 492.82,148.24 C488.92,147.98 485.54,149.28 482.68,151.88 C474.88,151.1 467.08,157.08 458.76,157.08 Z M397.92,318.8 C396.88,318.8 396.1,318.54 395.32,318.02 C396.88,314.38 392.72,316.46 392.72,313.86 L392.72,297.74 C392.72,296.7 392.2,295.4 391.68,294.36 C393.958095,292.224286 394.754751,288.996984 395.479005,285.702851 L395.76184,284.412705 C396.269206,282.121134 396.830476,279.861905 397.92,277.98 C400.494,273.404 403.906933,268.303667 407.428229,263.191681 L408.39072,261.7976 C414.1752,253.436 420.072,245.168 422.88,239.24 C429.12,234.82 434.06,228.84 439,223.12 C440.56,218.18 487.88,177.88 492.3,177.88 C493.08,177.88 492.82,178.4 492.82,178.92 C492.82,185.94 486.84,190.88 486.58,197.64 C485.28,201.8 483.46,206.48 480.34,211.94 C478.468,214.6856 473.00176,224.739488 467.650536,235.200723 L466.9825,236.51 C461.425,247.43 456.16,258.48 455.38,261.86 C453.035273,261.127273 452.755504,262.459504 452.585366,263.947922 L452.537279,264.382701 L452.537279,264.382701 L452.503393,264.672304 C452.389613,265.585005 452.198545,266.440727 451.48,266.8 C449.66,267.06 432.76,291.76 431.72,295.4 C424.18,301.38 418.46,307.88 410.4,313.08 L409.1,315.42 C405.46,316.98 401.82,318.8 397.92,318.8 Z M611.12,181.52 C613.3625,180.025 616.550588,178.959812 619.201409,178.077295 L619.879766,177.851055 C621.540313,177.295 622.9175,176.8075 623.6,176.32 C627.76,173.72 632.7,171.12 636.08,170.08 C638.94,169.56 639.98,165.92 643.62,166.44 C645.383478,166.168696 645.660681,167.454442 645.854799,168.783269 L645.90241,169.115498 C646.060756,170.220076 646.242609,171.266957 647.26,171.38 C647.52,174.5 652.2,173.2 652.46,176.32 C653.196667,176.59625 654.324688,176.513759 655.47445,176.407487 L656.083148,176.350845 C657.970556,176.179167 659.74,176.103333 659.74,177.62 C668.32,176.06 674.56,176.58 683.66,175.54 C687.3,170.34 695.36,171.64 699.78,167.22 C702.9,167.48 703.42,166.18 706.02,164.62 C708.36,163.32 711.22,163.32 713.56,162.28 C717.98,159.94 721.36,156.56 725.78,154.22 C730.2,151.88 729.16,150.06 733.58,147.98 C737.74,145.9 742.68,139.4 747.1,137.06 C746.32,137.32 743.2,128.22 743.2,128.22 C737.22,131.6 732.8,135.24 727.6,138.1 C723.96,140.18 720.32,142 717.2,145.64 C709.66,149.02 702.38,152.14 694.84,155.52 C690.94,157.34 686.26,158.64 682.36,160.46 C678.46,162.54 675.34,161.5 671.18,162.8 C668.84,163.32 665.72,162.8 663.64,163.84 C663.309492,162.848475 661.905297,162.837271 660.495565,162.817364 L660.157669,162.811913 C658.360827,162.776547 656.694915,162.597288 657.4,160.2 C655.58,155.26 660.52,154.48 662.34,152.66 C664.68,150.32 666.5,147.72 669.88,146.42 C672.22,142.78 674.56,138.62 678.46,136.54 C678.72,129.52 685.48,129.26 684.7,121.46 C682.88,119.38 682.88,115.22 679.76,113.92 C671.846957,113.213478 668.157684,116.730728 664.810654,120.631957 L664.410405,121.101701 C664.210854,121.33725 664.011975,121.573627 663.812931,121.810005 L663.414375,122.282514 C663.347829,122.361184 663.281203,122.439792 663.214466,122.518308 L662.812453,122.988053 L662.812453,122.988053 L662.406274,123.454112 C660.362476,125.772732 658.106522,127.897826 654.8,129 C654.8,133.254545 652.363306,135.246446 650.053193,137.396574 L649.669786,137.756809 C649.28843,138.119339 648.914545,138.49 648.56,138.88 C648.282667,141.930667 647.191822,144.167822 646.076326,146.380326 L645.6584,147.2104 C644.8264,148.8744 644.036,150.58 643.62,152.66 C641.475,152.374 640.66705,153.42505 639.898425,154.472167 L639.6888,154.75664 C639.1272,155.5096 638.524,156.196 637.38,156.3 C635.82,157.86 632.96,157.86 629.84,157.6 C630.1,161.5 624.64,161.5 622.3,162.8 C621.866667,163.06 621.491111,163.32 621.125185,163.58 L620.5775,163.97 C620.025,164.36 619.44,164.75 618.66,165.14 C617.1,166.18 615.02,165.4 615.02,167.74 C612.68,167.826667 610.368889,168.606667 608.048148,169.444444 L607.384784,169.684833 C602.960166,171.290582 598.487302,172.886349 593.7,170.08 C594.156585,164.600976 595.949518,160.636478 597.775045,156.674154 L598.231351,155.682743 C599.370042,153.199952 600.479024,150.66878 601.24,147.72 C604.88,147.2 605.14,143.3 607.48,141.48 C609.82,139.66 610.6,136.28 613.72,135.24 C617.62,130.82 621.52,126.4 624.9,121.46 C633.22,118.6 637.9,111.84 644.92,107.68 C649.08,106.9 651.16,103.52 654.8,101.44 C658.7,99.62 663.64,99.1 667.28,96.5 C675.34,97.8 679.76,92.08 686,95.2 C685.905797,97.2724638 684.78765,98.9694812 683.62251,100.600214 L683.342474,100.990476 C681.382911,103.715614 679.511304,106.323478 682.36,110.28 C682.801212,110.21697 683.303545,110.21506 683.815138,110.22241 L684.391852,110.231852 C685.797778,110.251111 687.126667,110.193333 687.3,108.98 C687.3,107.16 690.42,107.94 689.9,105.34 C693.54,104.3 695.1,101.44 697.18,99.1 C700.3,88.7 696.4,79.6 687.3,77.78 C676.12,79.34 668.84,85.06 657.4,86.62 C655.745455,89.4327273 652.61686,90.771405 649.287258,91.9760781 L648.571159,92.2326597 L648.571159,92.2326597 L647.491563,92.61625 C646.17125,93.0875 644.855,93.575 643.62,94.16 C639.46,96.5 637.64,101.18 631.14,101.44 C628.54,105.86 624.38,108.72 619.96,111.58 C613.2,118.86 604.88,124.84 598.64,132.64 C597.215652,134.166087 595.990359,135.891229 594.792761,137.628487 L593.996584,138.786403 C592.404915,141.097618 590.794783,143.356522 588.76,145.12 C587.46,150.58 585.64,155.52 582.52,158.9 C579.66,170.08 582.78,178.4 588.76,183.86 C591.36,182.56 595.52,185.16 595,185.16 C599.16,185.42 609.3,182.56 611.12,181.52 Z M672.48,399.92 C684.44,399.92 696.4,392.9 706.54,391.08 C708.88,387.96 713.04,386.92 715.12,383.54 L715.9,383.54 C719.28,383.54 720.58,380.16 722.66,378.6 C725,376.78 727.6,376 728.9,374.7 C729.68,374.18 729.68,372.62 730.2,372.36 C731.24,371.32 732.54,370.475 733.8725,369.6625 L734.874414,369.05668 C735.875313,368.451875 736.8625,367.8425 737.74,367.16 C740.34,365.34 742.16,362.48 742.68,362.22 C750.74,357.02 754.64,347.4 762.7,342.2 C764.26,337.52 767.64,333.62 770.24,329.72 C777.26,318.8 786.62,305.02 791.3,293.58 C803.78,272.78 809.5,247.82 814.96,226.24 L814.96,224.94 C814.96,215.84 819.38,206.74 827.44,202.58 C827.950877,202.324561 828.469597,202.084808 828.986528,201.849181 L829.428949,201.647957 C829.576127,201.58104 829.722934,201.51419 829.869146,201.447138 L830.305772,201.245105 C833.491302,199.755131 836.28,198.036842 836.28,193.22 L836.28,191.4 C828.22,191.4 825.62,196.34 817.56,196.34 L817.56,193.22 C817.56,184.64 814.96,178.92 814.96,170.08 C814.71625,169.5925 814.459805,169.111348 814.200582,168.627617 L813.888817,168.04533 C812.589531,165.609219 811.32,163.019375 811.32,159.16 L811.32,157.6 C808.72,157.34 810.02,152.92 807.68,152.66 C804.3,152.4 805.6,147.98 803.78,146.42 C810.02,142 816.78,137.32 820.16,130.04 C823.8,129.312 826.137689,127.225067 828.388557,125.021114 L829.351443,124.073019 C831.602311,121.860978 833.94,119.709333 837.58,118.86 C839.14,111.58 845.9,109.24 848.76,102.74 C849.852,100.158909 851.739987,98.108476 853.656919,96.1545262 L854.204738,95.5985052 C857.123577,92.6430612 859.94,89.8156364 859.94,85.58 C859.94,78.82 854.74,74.14 850.84,74.14 C845.12,74.14 841.74,76.48 839.14,76.48 L837.06,76.48 C834.98,76.48 833.16,79.34 831.34,79.34 C830.82,79.34 830.04,79.08 829.26,79.08 C828.48,79.08 827.7,79.34 827.44,80.12 L825.36,80.12 C817.3,80.12 813.4,84.02 805.08,84.02 C799.508571,87.8503571 792.175344,89.9707334 784.653353,91.9310303 L782.845256,92.3992216 C774.09639,94.6549617 765.262857,96.8621429 758.8,101.44 L758.8,101.96 C758.8,103.658667 757.441067,103.771911 755.991538,103.779461 L755.68,103.78 L755.68,103.78 C749.7,103.78 747.36,107.16 746.32,111.32 C747.037241,117.057931 752.9483,117.478383 758.850829,117.868985 L759.735495,117.928013 C762.090963,118.088347 764.403448,118.286207 766.34,118.86 C768.94,117.56 769.2,114.18 771.28,112.62 C777.52,111.32 780.9,107.16 787.66,106.38 C792.535,101.9925 799.949063,100.0425 807.363125,98.0544141 L808.633633,97.7127643 C812.653909,96.6267666 816.631429,95.4878571 820.16,93.9 C823.54,93.9 824.84,92.6 828.22,92.6 L830.04,92.6 C831.08,91.82 834.2,90.26 836.54,90.26 C837.58,90.26 838.36,90.78 838.88,91.56 C836.220909,97.1736364 832.134907,101.360362 827.957338,105.45552 L826.451766,106.928129 C823.776364,109.547273 821.129091,112.194545 818.86,115.22 C814.44,115.74 811.84,118.34 810.02,121.46 C798.06,124.32 789.74,139.4 780.12,143.82 L779.08,143.82 C772.06,143.82 768.94,152.14 768.94,158.9 C770.76,162.54 774.66,163.84 777.52,166.44 C782.98,166.44 785.84,163.84 790,162.54 C797.8,171.38 802.48,179.96 802.48,197.9 L802.48,202.58 C800.897391,203.258261 795.726881,204.77206 790.387553,206.394843 L789.585815,206.638987 C789.452124,206.679784 789.318434,206.720626 789.184798,206.761502 L788.38407,207.007077 C782.123542,208.932521 776.22,210.883043 776.22,211.68 C776.22,211.94 776.48,212.46 776.48,212.46 C775.44,213.5 771.02,213.5 770.24,213.76 C768.68,214.366667 766.946667,215.175556 765.222963,216.013333 L764.362761,216.433827 C761.21784,217.97858 758.207778,219.523333 756.46,220 C755.08,220.48 753.658462,220.890769 752.230533,221.296213 L751.278019,221.566421 C746.832137,222.830256 742.4,224.18 739.04,227.54 C732.54,230.4 724.22,231.96 720.32,235.08 C718.5,236.12 717.98,240.28 715.64,240.28 C714.86,240.28 714.08,240.02 713.3,240.02 L712.78,240.02 C713.56,240.02 705.24,244.18 703.94,246.26 C683.14,259.26 661.04,274.86 650.38,296.18 C645.96,298.26 645.96,305.02 641.54,307.36 L641.54,308.4 C641.54,312.3 639.2,313.6 639.2,317.5 L639.2,318.54 C636.86,318.54 632.44,334.14 632.44,347.14 C632.44,358.84 634.52,371.32 639.2,374.7 L639.2,374.96 C639.2,375.22 638.94,376 638.94,376.78 C638.94,379.12 645.44,382.76 646.48,384.84 C648.04,387.18 647.26,389 649.08,391.08 C656.88,393.94 662.08,399.92 672.48,399.92 Z M671.44,385.88 C665.98,385.88 663.9,381.72 660.26,379.64 C651.42,374.44 642.84,363.26 642.84,349.74 C642.84,343.5 645.44,337.52 645.44,330.76 L645.44,328.68 C649.34,322.96 650.9,314.9 655.32,309.96 C657.92,303.2 663.38,299.82 665.2,292.28 C671.7,287.34 675.6,281.1 682.88,274.86 C682.88,271.22 687.82,272.78 687.82,268.62 C693.54,268.1 701.34,262.64 705.24,258.74 C708.62,255.36 715.12,254.06 722.66,249.9 C723.093333,249.683333 723.255833,249.195833 723.392002,248.70081 L723.4725,248.405 C723.635,247.82 723.83,247.3 724.48,247.3 C725,247.3 725.52,247.56 726.04,247.56 C726.82,247.56 727.08,245.48 727.6,244.96 C733.06,242.62 743.2,239.24 747.62,233.78 C757.24,233.78 767.12,226.24 769.46,226.24 L770.76,226.24 C772.32,226.24 777.52,223.9 780.12,221.3 C781.68,220.26 784.28,220.78 786.36,220 C788.18,219.48 788.44,217.4 791.04,217.4 C792.6,217.4 794.16,217.66 795.46,217.66 C796.5,217.66 797.8,217.4 798.84,216.36 L802.48,216.36 C801.642927,219.403902 800.961761,222.603712 800.299608,225.822535 L799.969482,227.432897 C798.485342,234.680952 796.981951,241.909756 793.9,247.56 C793.645306,253.8 791.768888,258.48065 789.798272,263.068375 L789.057859,264.78728 C787.251753,268.992403 785.526939,273.273469 785.06,278.76 C784.793659,279.159512 784.525925,279.557632 784.258022,279.955583 L783.722351,280.751619 L783.722351,280.751619 L783.188401,281.549376 C780.17166,286.078977 777.342439,290.796098 776.48,297.48 C770.24,300.34 770.76,309.96 765.04,309.96 C761.950145,320.62 755.739088,328.158799 749.243319,335.467432 L748.291015,336.53568 C747.973123,336.891439 747.654882,337.246986 747.336622,337.602656 L746.382115,338.670373 C742.884461,342.589154 739.424348,346.563478 736.44,351.04 C732.15,354.2575 727.969688,357.584687 723.803086,360.925586 L719.6375,364.2675 C714.08,368.72 708.49,373.14 702.64,377.3 C700.192414,378.053103 697.775125,378.836504 695.355224,379.617293 L693.279616,380.285133 C686.353674,382.504019 679.329655,384.624828 671.44,385.88 Z M973.56,35.14 C973.04,28.12 972.26,21.36 969.66,16.42 C958.194,14.314 957.0474,22.5274 957.12228,31.96228 L957.128982,32.5929818 L957.128982,32.5929818 L957.138704,33.2267037 L957.138704,33.2267037 L957.150847,33.8628467 L957.150847,33.8628467 L957.164812,34.5008118 C957.169704,34.713704 957.1748,34.9268 957.18,35.14 C961.34,37.22 970.18,39.56 973.56,35.14 Z M858.64,178.66 C864.1,177.36 870.86,178.66 877.36,177.62 C877.88,177.36 880.48,175.28 881,175.02 C883.6,174.24 885.94,176.58 887.24,173.72 C889.84,172.62 892.670769,171.750769 895.525207,170.905207 L897.239053,170.399053 C901.236923,169.216923 905.2,168 908.56,166.18 C908.82,164.62 916.88,160.72 917.4,162.54 C920.26,157.08 931.44,157.86 934.82,153.96 C936.9,151.62 941.06,150.32 942.88,147.72 C954.58,141.74 959.26,133.94 956.4,125.88 C949.9,126.4 944.7,131.08 939.24,132.64 C934.82,135.24 934.82,138.88 929.62,140.96 C922.86,144.86 916.62,147.72 909.86,151.36 C902.84,155 895.56,159.16 886.2,159.94 C882.82,162.8 875.02,167.22 869.82,163.84 C870.436296,159.217778 873.152565,156.695528 875.912795,154.271345 L876.430351,153.817471 C876.516529,153.741854 876.602624,153.66621 876.688574,153.590479 L877.202029,153.134555 C878.649033,151.837023 880.017778,150.478889 881,148.76 C886.72,145.12 892.7,132.38 899.2,129.78 C901.197021,128.308511 902.599185,126.157184 903.990501,123.96156 L904.430184,123.267474 C906.339819,120.25981 908.344255,117.294468 911.94,116 C912.8968,112.7708 915.063952,110.751952 917.25201,108.75401 L917.8225,108.2325 C920.195,106.055 922.47,103.78 923.12,99.88 C922.01614,99.1775439 921.609455,97.8166451 921.227232,96.4401177 L921.123091,96.0647966 C920.548089,94.0037119 919.890526,92.0389474 916.88,92.34 C914.09,91.565 913.240481,92.6380769 912.513574,93.8515366 L912.373926,94.0876942 C911.933462,94.8381731 911.495,95.6 910.64,95.98 C908.56,97.8 906.74,99.62 904.4,101.18 C903.984,102.22 903.152,102.844 902.28672,103.45136 L901.914964,103.711803 C900.738351,104.540686 899.601143,105.444 899.46,107.42 C896.86,108.46 894,109.5 893.22,112.36 C884.64,118.6 875.54,134.46 867.48,141.22 C863.32,144.34 856.82,155 854.48,159.94 C853.44,162.28 852.66,166.7 853.7,171.38 C853.44,175.54 857.86,175.28 858.64,178.66 Z M1021.14,179.7 C1031.28,173.46 1043.24,172.68 1052.86,165.92 C1054.98727,164.265455 1056.63107,163.577851 1058.20651,162.953734 L1058.83402,162.705332 C1060.5029,162.040533 1062.15697,161.310909 1064.3,159.42 C1071.32,156.3 1072.36,154.22 1076.78,152.66 C1082.5,150.06 1092.38,144.6 1097.58,140.18 C1097.84,139.14 1102,137.58 1104.34,137.58 C1108.24,137.32 1111.1,132.38 1109.8,120.16 C1102.26,120.42 1098.36,124.58 1093.42,127.18 C1091.6,127.96 1087.96,131.08 1085.88,131.86 C1085.71455,132.025455 1085.55124,132.190909 1085.38872,132.356559 L1084.90212,132.85429 C1083.44116,134.350413 1081.93273,135.878182 1079.38,137.58 C1074.96,140.7 1075.48,140.18 1070.02,142.26 C1058.84,150.32 1054.68,149.28 1041.16,155 C1038.3,155.78 1038.3,157.08 1034.92,157.34 C1033.77935,158.338065 1032.01319,158.241478 1030.22181,158.122191 L1029.58949,158.080892 C1028.32666,158.003392 1027.08645,157.977419 1026.08,158.38 C1023.22,158.12 1020.62,164.36 1018.54,160.98 C1021.14,159.42 1019.84,153.96 1023.48,153.44 C1025.56,150.84 1027.12,147.98 1028.68,144.6 C1032.84,140.18 1041.94,127.18 1043.76,120.16 C1045.26222,119.813333 1045.94272,118.644938 1046.55473,117.408066 L1046.7825,116.9425 C1047.465,115.545 1048.18,114.18 1050,113.92 C1049.74,108.98 1055.46,110.02 1054.94,105.08 C1060.14,102.22 1064.82,94.42 1061.18,86.36 C1054.94,82.98 1044.28,88.18 1039.86,90.26 C1034.14,95.46 1024.52,98.58 1018.54,102.74 C1017.24,103.52 1015.94,105.6 1014.64,106.38 C1011,109.24 1008.14,110.8 1004.76,112.62 C1002.42,113.92 1001.38,116 998.52,115.22 C997.22,118.34 993.58,119.38 992.28,122.76 C990.393488,122.179535 990.045884,122.975987 989.700164,123.793159 L989.612883,123.997099 C989.36066,124.571704 989.045116,125.1 988.12,125.1 C986.3,124.58 985,130.04 984.22,126.4 L985.52,126.4 C985.52,125.1 987.34,124.58 985.52,123.8 C988.64,118.6 993.06,95.72 988.64,91.56 C982.4,90.52 979.54,90 977.72,94.42 C976.42,97.54 971.74,119.38 970.7,123.8 C967.58,132.64 956.92,147.2 953.02,154.74 C950.68,158.12 948.86,162.28 945.48,164.62 C943.4,168.52 940.02,170.86 940.54,177.1 C943.92,181.78 945.48,177.62 951.98,178.4 C954.84,176.58 956.92,173.98 959.52,172.16 C961.32,171.8 962.178462,170.498462 962.990059,169.175621 L963.260083,168.735148 C964.117436,167.345812 965.033333,166.046667 967.06,165.92 C972.52,162.02 974.34,155.26 980.06,151.62 C981.62,148.76 985.52,146.16 987.86,143.82 C995.66,136.8 1018.28,119.9 1028.68,116.26 C1025.56,121.98 1017.5,137.32 1014.9,140.96 C1013.86,142.26 1013.6,142.52 1012.3,143.56 C1012.04,143.82 1012.56,145.64 1012.3,145.9 C1011.26,147.46 1009.44,148.5 1008.66,149.8 C1007.36,151.36 1007.36,152.66 1006.06,154.74 C1005.54,155.78 1003.98,155.26 1003.72,156.04 C1002.68,157.6 1003.72,158.64 1002.42,159.68 C1001.9,159.94 1002.68,161.76 1002.42,162.28 C1000.34,165.92 998.26,170.86 998.52,177.1 C1004.24,183.08 1013.86,179.96 1021.14,179.7 Z M1157.12,178.4 C1176.62,177.1 1211.2,156.56 1215.1,150.32 C1215.81217,149.133043 1215.8741,141.660378 1215.88,139.973957 L1215.88,139.66 L1215.88,139.66 C1213.28,139.66 1208.34,142.26 1206,143.04 C1203.66,144.08 1198.46,146.68 1196.12,148.5 C1185.2,156.56 1164.66,165.14 1150.88,165.92 L1148.28,165.92 C1144.64,164.88 1138.4,163.32 1134.5,159.94 C1140.48,157.86 1143.6,153.18 1149.58,151.1 C1151.14,147.72 1154.78,146.68 1157.12,143.82 C1159.46,140.96 1162.06,135.5 1165.7,133.68 C1166.48,124.58 1176.1,113.4 1176.1,103.26 C1178.18,100.92 1177.66,96.5 1178.7,94.68 C1179.22,93.64 1179.74,94.16 1179.74,92.08 C1180,87.14 1179.74,83.76 1176.1,80.9 C1172.2,80.7818182 1169.32066,81.6842975 1166.48527,82.6307288 L1165.635,82.915 C1162.515,83.955 1159.33,84.93 1154.78,84.54 C1149.84,89.74 1143.08,92.86 1136.06,95.98 C1132.42,101.96 1125.4,105.08 1122.54,112.1 C1119.19514,113.294595 1117.82619,116.68466 1116.61746,120.050991 L1116.40545,120.644352 C1116.37027,120.743053 1116.33514,120.841622 1116.3,120.94 C1113.18,122.24 1109.02,134.72 1108.24,137.32 C1108.24,138.1 1107.2,138.62 1107.2,138.62 C1105.64,144.6 1107.2,151.1 1108.24,156.3 C1107.72,160.98 1109.8,168 1115.78,168.78 C1125.66,175.54 1140.74,179.44 1157.12,178.4 Z M1120.72,150.06 C1120.98,136.8 1132.68,121.98 1137.36,113.4 C1140.77514,111.882162 1143.5134,109.256713 1146.29324,106.481586 L1147.68995,105.085985 C1150.19097,102.59851 1152.81946,100.118919 1156.08,98.32 C1158.16,97.28 1161.54,98.32 1164.92,95.98 C1165.96,95.98 1165.96,97.54 1166.22,98.32 C1166.22,103.26 1163.36,107.16 1161.02,110.8 C1156.34,118.34 1146.2,136.28 1138.4,142.52 C1135.8,144.6 1133.98,145.64 1130.86,147.46 C1129.3,148.24 1124.62,150.32 1120.72,150.06 Z" id="Magazine"></path>
            </g>
        </g>
    </g>
</svg>