<?xml version="1.0" encoding="UTF-8"?>
<svg width="200px" height="94px" viewBox="0 0 200 94" version="1.1" xmlns="http://www.w3.org/2000/svg" xmlns:xlink="http://www.w3.org/1999/xlink">
    <title>HistoryofKyte</title>
    <g id="Page-1" stroke="none" stroke-width="1" fill="none" fill-rule="evenodd">
        <g id="Service-Introduction" transform="translate(-400.000000, -2409.000000)" fill="#FFFFFF" fill-rule="nonzero">
            <g id="section-3" transform="translate(0.000000, 2156.000000)">
                <path d="M406.28,282 L406.28,269.92 L418.32,269.92 L418.32,282 L423.72,282 L423.72,253.36 L418.32,253.36 L418.32,264.8 L406.28,264.8 L406.28,253.36 L400.88,253.36 L400.88,282 L406.28,282 Z M436.4,258.6 L436.4,253.36 L431.16,253.36 L431.16,258.6 L436.4,258.6 Z M436.4,282 L436.4,262.4 L431.16,262.4 L431.16,282 L436.4,282 Z M450.96,282.64 C452.213333,282.64 453.353333,282.466667 454.38,282.12 C455.406667,281.773333 456.286667,281.3 457.02,280.7 C457.753333,280.1 458.32,279.413333 458.72,278.64 C459.12,277.866667 459.32,277.053333 459.32,276.2 C459.32,274.76 458.833333,273.513333 457.86,272.46 C456.886667,271.406667 455.4,270.64 453.4,270.16 L453.4,270.16 L450.4,269.44 C449.6,269.226667 448.966667,268.986667 448.5,268.72 C448.033333,268.453333 447.8,268.093333 447.8,267.64 C447.8,267.16 448.08,266.766667 448.64,266.46 C449.2,266.153333 449.853333,266 450.6,266 C451.32,266 452.04,266.173333 452.76,266.52 C453.48,266.866667 454.026667,267.426667 454.4,268.2 L454.4,268.2 L458.92,266.36 C458.226667,264.76 457.146667,263.593333 455.68,262.86 C454.213333,262.126667 452.546667,261.76 450.68,261.76 C449.56,261.76 448.513333,261.9 447.54,262.18 C446.566667,262.46 445.72,262.86 445,263.38 C444.28,263.9 443.713333,264.533333 443.3,265.28 C442.886667,266.026667 442.68,266.88 442.68,267.84 C442.68,268.693333 442.853333,269.44 443.2,270.08 C443.546667,270.72 443.986667,271.266667 444.52,271.72 C445.053333,272.173333 445.646667,272.546667 446.3,272.84 C446.953333,273.133333 447.586667,273.346667 448.2,273.48 L448.2,273.48 L450.96,274.08 C452.106667,274.346667 452.913333,274.646667 453.38,274.98 C453.846667,275.313333 454.08,275.746667 454.08,276.28 C454.08,276.76 453.8,277.173333 453.24,277.52 C452.68,277.866667 451.92,278.04 450.96,278.04 C450.026667,278.04 449.18,277.793333 448.42,277.3 C447.66,276.806667 447.053333,276.053333 446.6,275.04 L446.6,275.04 L441.92,277.04 C442.186667,277.733333 442.573333,278.42 443.08,279.1 C443.586667,279.78 444.206667,280.38 444.94,280.9 C445.673333,281.42 446.54,281.84 447.54,282.16 C448.54,282.48 449.68,282.64 450.96,282.64 Z M473.2,282.32 C474.053333,282.32 474.833333,282.246667 475.54,282.1 C476.246667,281.953333 476.906667,281.733333 477.52,281.44 L477.52,281.44 L476.04,276.84 C475.8,277 475.546667,277.126667 475.28,277.22 C475.013333,277.313333 474.653333,277.36 474.2,277.36 C473.506667,277.36 472.973333,277.146667 472.6,276.72 C472.333333,276.453333 472.153333,276.126667 472.06,275.74 C471.966667,275.353333 471.92,274.933333 471.92,274.48 L471.92,274.48 L471.92,266.88 L476.72,266.88 L476.72,262.4 L471.92,262.4 L471.92,256.4 L466.68,256.4 L466.68,262.4 L463.24,262.4 L463.24,266.88 L466.68,266.88 L466.68,275.48 C466.68,277.693333 467.306667,279.4 468.56,280.6 C469.093333,281.133333 469.753333,281.553333 470.54,281.86 C471.326667,282.166667 472.213333,282.32 473.2,282.32 Z M491.84,282.64 C493.706667,282.64 495.44,282.173333 497.04,281.24 C498.64,280.306667 499.913333,279.046667 500.86,277.46 C501.806667,275.873333 502.28,274.133333 502.28,272.24 C502.28,270.346667 501.806667,268.593333 500.86,266.98 C499.913333,265.366667 498.64,264.093333 497.04,263.16 C495.44,262.226667 493.706667,261.76 491.84,261.76 C489.946667,261.76 488.2,262.226667 486.6,263.16 C485,264.093333 483.733333,265.366667 482.8,266.98 C481.866667,268.593333 481.4,270.346667 481.4,272.24 C481.4,274.133333 481.866667,275.873333 482.8,277.46 C483.733333,279.046667 485,280.306667 486.6,281.24 C488.2,282.173333 489.946667,282.64 491.84,282.64 Z M491.84,277.92 C490.8,277.92 489.84,277.666667 488.96,277.16 C488.08,276.653333 487.386667,275.96 486.88,275.08 C486.373333,274.2 486.12,273.253333 486.12,272.24 C486.12,271.2 486.373333,270.24 486.88,269.36 C487.386667,268.48 488.08,267.786667 488.96,267.28 C489.84,266.773333 490.8,266.52 491.84,266.52 C492.88,266.52 493.833333,266.773333 494.7,267.28 C495.566667,267.786667 496.253333,268.48 496.76,269.36 C497.266667,270.24 497.52,271.2 497.52,272.24 C497.52,273.253333 497.266667,274.2 496.76,275.08 C496.253333,275.96 495.566667,276.653333 494.7,277.16 C493.833333,277.666667 492.88,277.92 491.84,277.92 Z M513.32,282 L513.32,274.24 C513.32,272.826667 513.6,271.48 514.16,270.2 C514.613333,269.213333 515.233333,268.386667 516.02,267.72 C516.806667,267.053333 517.8,266.72 519,266.72 C519.453333,266.72 519.986667,266.786667 520.6,266.92 L520.6,266.92 L520.6,262.32 C520.226667,262.213333 519.946667,262.146667 519.76,262.12 C519.386667,262.066667 519.106667,262.04 518.92,262.04 C517.666667,262.04 516.546667,262.346667 515.56,262.96 C514.573333,263.573333 513.826667,264.413333 513.32,265.48 L513.32,265.48 L513.32,262.44 L508.16,262.44 L508.16,282 L513.32,282 Z M533.32,290.64 L545.6,262.4 L539.76,262.4 L535,274.28 L534.72,274.28 L529.76,262.4 L523.8,262.4 L532.04,281.04 L527.68,290.64 L533.32,290.64 Z M570.08,282.64 C571.946667,282.64 573.68,282.173333 575.28,281.24 C576.88,280.306667 578.153333,279.046667 579.1,277.46 C580.046667,275.873333 580.52,274.133333 580.52,272.24 C580.52,270.346667 580.046667,268.593333 579.1,266.98 C578.153333,265.366667 576.88,264.093333 575.28,263.16 C573.68,262.226667 571.946667,261.76 570.08,261.76 C568.186667,261.76 566.44,262.226667 564.84,263.16 C563.24,264.093333 561.973333,265.366667 561.04,266.98 C560.106667,268.593333 559.64,270.346667 559.64,272.24 C559.64,274.133333 560.106667,275.873333 561.04,277.46 C561.973333,279.046667 563.24,280.306667 564.84,281.24 C566.44,282.173333 568.186667,282.64 570.08,282.64 Z M570.08,277.92 C569.04,277.92 568.08,277.666667 567.2,277.16 C566.32,276.653333 565.626667,275.96 565.12,275.08 C564.613333,274.2 564.36,273.253333 564.36,272.24 C564.36,271.2 564.613333,270.24 565.12,269.36 C565.626667,268.48 566.32,267.786667 567.2,267.28 C568.08,266.773333 569.04,266.52 570.08,266.52 C571.12,266.52 572.073333,266.773333 572.94,267.28 C573.806667,267.786667 574.493333,268.48 575,269.36 C575.506667,270.24 575.76,271.2 575.76,272.24 C575.76,273.253333 575.506667,274.2 575,275.08 C574.493333,275.96 573.806667,276.653333 572.94,277.16 C572.073333,277.666667 571.12,277.92 570.08,277.92 Z M593.32,282 L593.32,266.88 L598.2,266.88 L598.2,262.4 L593.32,262.4 L593.32,260.8 C593.32,259.92 593.546667,259.233333 594,258.74 C594.453333,258.246667 595.066667,258 595.84,258 C596.293333,258 596.673333,258.04 596.98,258.12 C597.286667,258.2 597.573333,258.306667 597.84,258.44 L597.84,258.44 L599.32,253.76 C598.813333,253.546667 598.24,253.373333 597.6,253.24 C596.96,253.106667 596.266667,253.04 595.52,253.04 C594.426667,253.04 593.426667,253.206667 592.52,253.54 C591.613333,253.873333 590.826667,254.353333 590.16,254.98 C589.493333,255.606667 588.98,256.38 588.62,257.3 C588.26,258.22 588.08,259.28 588.08,260.48 L588.08,260.48 L588.08,262.4 L584.56,262.4 L584.56,266.88 L588.08,266.88 L588.08,282 L593.32,282 Z M406.28,338 L406.28,329.6 L410.56,324.64 L418.6,338 L425.16,338 L425.16,337.64 L414.6,319.96 L423.6,309.68 L423.6,309.36 L417.08,309.36 L406.6,321.64 L406.28,321.64 L406.28,309.36 L400.88,309.36 L400.88,338 L406.28,338 Z M437.8,346.64 L450.08,318.4 L444.24,318.4 L439.48,330.28 L439.2,330.28 L434.24,318.4 L428.28,318.4 L436.52,337.04 L432.16,346.64 L437.8,346.64 Z M463.16,338.32 C464.013333,338.32 464.793333,338.246667 465.5,338.1 C466.206667,337.953333 466.866667,337.733333 467.48,337.44 L467.48,337.44 L466,332.84 C465.76,333 465.506667,333.126667 465.24,333.22 C464.973333,333.313333 464.613333,333.36 464.16,333.36 C463.466667,333.36 462.933333,333.146667 462.56,332.72 C462.293333,332.453333 462.113333,332.126667 462.02,331.74 C461.926667,331.353333 461.88,330.933333 461.88,330.48 L461.88,330.48 L461.88,322.88 L466.68,322.88 L466.68,318.4 L461.88,318.4 L461.88,312.4 L456.64,312.4 L456.64,318.4 L453.2,318.4 L453.2,322.88 L456.64,322.88 L456.64,331.48 C456.64,333.693333 457.266667,335.4 458.52,336.6 C459.053333,337.133333 459.713333,337.553333 460.5,337.86 C461.286667,338.166667 462.173333,338.32 463.16,338.32 Z M481.8,338.64 C484.013333,338.64 485.886667,338.146667 487.42,337.16 C488.953333,336.173333 490.173333,334.88 491.08,333.28 L491.08,333.28 L486.72,331.12 C486.266667,331.946667 485.646667,332.633333 484.86,333.18 C484.073333,333.726667 483.08,334 481.88,334 C481.266667,334 480.666667,333.913333 480.08,333.74 C479.493333,333.566667 478.953333,333.286667 478.46,332.9 C477.966667,332.513333 477.553333,332.033333 477.22,331.46 C476.886667,330.886667 476.666667,330.2 476.56,329.4 L476.56,329.4 L491.32,329.4 C491.32,329.24 491.333333,329.093333 491.36,328.96 C491.36,328.826667 491.373333,328.68 491.4,328.52 L491.4,328.52 L491.4,328.04 C491.4,326.573333 491.186667,325.213333 490.76,323.96 C490.333333,322.706667 489.706667,321.62 488.88,320.7 C488.053333,319.78 487.026667,319.06 485.8,318.54 C484.573333,318.02 483.173333,317.76 481.6,317.76 C480.106667,317.76 478.74,318.04 477.5,318.6 C476.26,319.16 475.186667,319.913333 474.28,320.86 C473.373333,321.806667 472.666667,322.913333 472.16,324.18 C471.653333,325.446667 471.4,326.786667 471.4,328.2 C471.4,329.72 471.66,331.113333 472.18,332.38 C472.7,333.646667 473.426667,334.746667 474.36,335.68 C475.293333,336.613333 476.393333,337.34 477.66,337.86 C478.926667,338.38 480.306667,338.64 481.8,338.64 Z M486.32,325.68 L476.84,325.68 C477.186667,324.533333 477.786667,323.64 478.64,323 C479.493333,322.36 480.48,322.04 481.6,322.04 C482.4,322.04 483.086667,322.16 483.66,322.4 C484.233333,322.64 484.713333,322.946667 485.1,323.32 C485.486667,323.693333 485.78,324.093333 485.98,324.52 C486.18,324.946667 486.293333,325.333333 486.32,325.68 L486.32,325.68 Z" id="HistoryofKyte"></path>
            </g>
        </g>
    </g>
</svg>