<?xml version="1.0" encoding="UTF-8"?>
<svg width="333px" height="134px" viewBox="0 0 333 134" version="1.1" xmlns="http://www.w3.org/2000/svg" xmlns:xlink="http://www.w3.org/1999/xlink">
    <title>Group 12</title>
    <g id="Page-1" stroke="none" stroke-width="1" fill="none" fill-rule="evenodd">
        <g id="Service-Introduction" transform="translate(-399.000000, -4016.000000)" fill="#FFFFFF" fill-rule="nonzero">
            <g id="section-4" transform="translate(1.000000, 3776.000000)">
                <g id="Group-12" transform="translate(398.000000, 240.000000)">
                    <path d="M16.44,40.64 C18.5733333,40.64 20.5533333,40.2533333 22.38,39.48 C24.2066667,38.7066667 25.7866667,37.6466667 27.12,36.3 C28.4533333,34.9533333 29.5,33.3666667 30.26,31.54 C31.02,29.7133333 31.4,27.76 31.4,25.68 C31.4,23.6 31.02,21.6466667 30.26,19.82 C29.5,17.9933333 28.4533333,16.4066667 27.12,15.06 C25.7866667,13.7133333 24.2066667,12.6533333 22.38,11.88 C20.5533333,11.1066667 18.5733333,10.72 16.44,10.72 C14.3066667,10.72 12.3266667,11.1066667 10.5,11.88 C8.67333333,12.6533333 7.09333333,13.7133333 5.76,15.06 C4.42666667,16.4066667 3.38,17.9933333 2.62,19.82 C1.86,21.6466667 1.48,23.6 1.48,25.68 C1.48,27.76 1.86,29.7133333 2.62,31.54 C3.38,33.3666667 4.42666667,34.9533333 5.76,36.3 C7.09333333,37.6466667 8.67333333,38.7066667 10.5,39.48 C12.3266667,40.2533333 14.3066667,40.64 16.44,40.64 Z M16.44,35.52 C15.1066667,35.52 13.86,35.28 12.7,34.8 C11.54,34.32 10.5266667,33.6533333 9.66,32.8 C8.79333333,31.9466667 8.11333333,30.9133333 7.62,29.7 C7.12666667,28.4866667 6.88,27.1466667 6.88,25.68 C6.88,24.2133333 7.12666667,22.8733333 7.62,21.66 C8.11333333,20.4466667 8.79333333,19.4133333 9.66,18.56 C10.5266667,17.7066667 11.54,17.04 12.7,16.56 C13.86,16.08 15.1066667,15.84 16.44,15.84 C17.7733333,15.84 19.02,16.08 20.18,16.56 C21.34,17.04 22.3533333,17.7066667 23.22,18.56 C24.0866667,19.4133333 24.7666667,20.4466667 25.26,21.66 C25.7533333,22.8733333 26,24.2133333 26,25.68 C26,27.1466667 25.7533333,28.4866667 25.26,29.7 C24.7666667,30.9133333 24.0866667,31.9466667 23.22,32.8 C22.3533333,33.6533333 21.34,34.32 20.18,34.8 C19.02,35.28 17.7733333,35.52 16.44,35.52 Z M44.04,40.64 C44.6266667,40.64 45.1066667,40.6266667 45.48,40.6 C46.76,40.4933333 47.8466667,40.1733333 48.74,39.64 C49.6333333,39.1066667 50.2933333,38.6266667 50.72,38.2 L50.72,38.2 L50.72,40 L55.6,40 L55.6,20.4 L50.4,20.4 L50.4,30.04 C50.4,30.7866667 50.2933333,31.5466667 50.08,32.32 C49.8666667,33.04 49.5733333,33.64 49.2,34.12 C48.8266667,34.68 48.36,35.0933333 47.8,35.36 C47.2933333,35.68 46.6666667,35.84 45.92,35.84 C44.72,35.84 43.8133333,35.4933333 43.2,34.8 C42.56,34.1066667 42.24,33.0666667 42.24,31.68 L42.24,31.68 L42.24,20.4 L37.04,20.4 L37.04,32.32 C37.04,34.8533333 37.64,36.88 38.84,38.4 C40.0666667,39.8933333 41.8,40.64 44.04,40.64 Z M67.8,40 L67.8,32.24 C67.8,30.8266667 68.08,29.48 68.64,28.2 C69.0933333,27.2133333 69.7133333,26.3866667 70.5,25.72 C71.2866667,25.0533333 72.28,24.72 73.48,24.72 C73.9333333,24.72 74.4666667,24.7866667 75.08,24.92 L75.08,24.92 L75.08,20.32 C74.7066667,20.2133333 74.4266667,20.1466667 74.24,20.12 C73.8666667,20.0666667 73.5866667,20.04 73.4,20.04 C72.1466667,20.04 71.0266667,20.3466667 70.04,20.96 C69.0533333,21.5733333 68.3066667,22.4133333 67.8,23.48 L67.8,23.48 L67.8,20.44 L62.64,20.44 L62.64,40 L67.8,40 Z M8.32,96 L8.32,77.64 L8.64,77.64 L15.6,89.8 L18.8,89.8 L25.72,77.64 L26.04,77.64 L26.04,96 L31.4,96 L31.4,67.36 L26.08,67.36 L17.32,82.44 L17.04,82.44 L8.32,67.36 L3,67.36 L3,96 L8.32,96 Z M44.08,72.6 L44.08,67.36 L38.84,67.36 L38.84,72.6 L44.08,72.6 Z M44.08,96 L44.08,76.4 L38.84,76.4 L38.84,96 L44.08,96 Z M58.64,96.64 C59.8933333,96.64 61.0333333,96.4666667 62.06,96.12 C63.0866667,95.7733333 63.9666667,95.3 64.7,94.7 C65.4333333,94.1 66,93.4133333 66.4,92.64 C66.8,91.8666667 67,91.0533333 67,90.2 C67,88.76 66.5133333,87.5133333 65.54,86.46 C64.5666667,85.4066667 63.08,84.64 61.08,84.16 L61.08,84.16 L58.08,83.44 C57.28,83.2266667 56.6466667,82.9866667 56.18,82.72 C55.7133333,82.4533333 55.48,82.0933333 55.48,81.64 C55.48,81.16 55.76,80.7666667 56.32,80.46 C56.88,80.1533333 57.5333333,80 58.28,80 C59,80 59.72,80.1733333 60.44,80.52 C61.16,80.8666667 61.7066667,81.4266667 62.08,82.2 L62.08,82.2 L66.6,80.36 C65.9066667,78.76 64.8266667,77.5933333 63.36,76.86 C61.8933333,76.1266667 60.2266667,75.76 58.36,75.76 C57.24,75.76 56.1933333,75.9 55.22,76.18 C54.2466667,76.46 53.4,76.86 52.68,77.38 C51.96,77.9 51.3933333,78.5333333 50.98,79.28 C50.5666667,80.0266667 50.36,80.88 50.36,81.84 C50.36,82.6933333 50.5333333,83.44 50.88,84.08 C51.2266667,84.72 51.6666667,85.2666667 52.2,85.72 C52.7333333,86.1733333 53.3266667,86.5466667 53.98,86.84 C54.6333333,87.1333333 55.2666667,87.3466667 55.88,87.48 L55.88,87.48 L58.64,88.08 C59.7866667,88.3466667 60.5933333,88.6466667 61.06,88.98 C61.5266667,89.3133333 61.76,89.7466667 61.76,90.28 C61.76,90.76 61.48,91.1733333 60.92,91.52 C60.36,91.8666667 59.6,92.04 58.64,92.04 C57.7066667,92.04 56.86,91.7933333 56.1,91.3 C55.34,90.8066667 54.7333333,90.0533333 54.28,89.04 L54.28,89.04 L49.6,91.04 C49.8666667,91.7333333 50.2533333,92.42 50.76,93.1 C51.2666667,93.78 51.8866667,94.38 52.62,94.9 C53.3533333,95.42 54.22,95.84 55.22,96.16 C56.22,96.48 57.36,96.64 58.64,96.64 Z M79.96,96.64 C81.2133333,96.64 82.3533333,96.4666667 83.38,96.12 C84.4066667,95.7733333 85.2866667,95.3 86.02,94.7 C86.7533333,94.1 87.32,93.4133333 87.72,92.64 C88.12,91.8666667 88.32,91.0533333 88.32,90.2 C88.32,88.76 87.8333333,87.5133333 86.86,86.46 C85.8866667,85.4066667 84.4,84.64 82.4,84.16 L82.4,84.16 L79.4,83.44 C78.6,83.2266667 77.9666667,82.9866667 77.5,82.72 C77.0333333,82.4533333 76.8,82.0933333 76.8,81.64 C76.8,81.16 77.08,80.7666667 77.64,80.46 C78.2,80.1533333 78.8533333,80 79.6,80 C80.32,80 81.04,80.1733333 81.76,80.52 C82.48,80.8666667 83.0266667,81.4266667 83.4,82.2 L83.4,82.2 L87.92,80.36 C87.2266667,78.76 86.1466667,77.5933333 84.68,76.86 C83.2133333,76.1266667 81.5466667,75.76 79.68,75.76 C78.56,75.76 77.5133333,75.9 76.54,76.18 C75.5666667,76.46 74.72,76.86 74,77.38 C73.28,77.9 72.7133333,78.5333333 72.3,79.28 C71.8866667,80.0266667 71.68,80.88 71.68,81.84 C71.68,82.6933333 71.8533333,83.44 72.2,84.08 C72.5466667,84.72 72.9866667,85.2666667 73.52,85.72 C74.0533333,86.1733333 74.6466667,86.5466667 75.3,86.84 C75.9533333,87.1333333 76.5866667,87.3466667 77.2,87.48 L77.2,87.48 L79.96,88.08 C81.1066667,88.3466667 81.9133333,88.6466667 82.38,88.98 C82.8466667,89.3133333 83.08,89.7466667 83.08,90.28 C83.08,90.76 82.8,91.1733333 82.24,91.52 C81.68,91.8666667 80.92,92.04 79.96,92.04 C79.0266667,92.04 78.18,91.7933333 77.42,91.3 C76.66,90.8066667 76.0533333,90.0533333 75.6,89.04 L75.6,89.04 L70.92,91.04 C71.1866667,91.7333333 71.5733333,92.42 72.08,93.1 C72.5866667,93.78 73.2066667,94.38 73.94,94.9 C74.6733333,95.42 75.54,95.84 76.54,96.16 C77.54,96.48 78.68,96.64 79.96,96.64 Z M99.08,72.6 L99.08,67.36 L93.84,67.36 L93.84,72.6 L99.08,72.6 Z M99.08,96 L99.08,76.4 L93.84,76.4 L93.84,96 L99.08,96 Z M115.16,96.64 C117.026667,96.64 118.76,96.1733333 120.36,95.24 C121.96,94.3066667 123.233333,93.0466667 124.18,91.46 C125.126667,89.8733333 125.6,88.1333333 125.6,86.24 C125.6,84.3466667 125.126667,82.5933333 124.18,80.98 C123.233333,79.3666667 121.96,78.0933333 120.36,77.16 C118.76,76.2266667 117.026667,75.76 115.16,75.76 C113.266667,75.76 111.52,76.2266667 109.92,77.16 C108.32,78.0933333 107.053333,79.3666667 106.12,80.98 C105.186667,82.5933333 104.72,84.3466667 104.72,86.24 C104.72,88.1333333 105.186667,89.8733333 106.12,91.46 C107.053333,93.0466667 108.32,94.3066667 109.92,95.24 C111.52,96.1733333 113.266667,96.64 115.16,96.64 Z M115.16,91.92 C114.12,91.92 113.16,91.6666667 112.28,91.16 C111.4,90.6533333 110.706667,89.96 110.2,89.08 C109.693333,88.2 109.44,87.2533333 109.44,86.24 C109.44,85.2 109.693333,84.24 110.2,83.36 C110.706667,82.48 111.4,81.7866667 112.28,81.28 C113.16,80.7733333 114.12,80.52 115.16,80.52 C116.2,80.52 117.153333,80.7733333 118.02,81.28 C118.886667,81.7866667 119.573333,82.48 120.08,83.36 C120.586667,84.24 120.84,85.2 120.84,86.24 C120.84,87.2533333 120.586667,88.2 120.08,89.08 C119.573333,89.96 118.886667,90.6533333 118.02,91.16 C117.153333,91.6666667 116.2,91.92 115.16,91.92 Z M136.16,96 L136.16,86.4 C136.16,85.6 136.26,84.8466667 136.46,84.14 C136.66,83.4333333 136.953333,82.82 137.34,82.3 C137.726667,81.78 138.193333,81.3666667 138.74,81.06 C139.286667,80.7533333 139.92,80.6 140.64,80.6 C141.84,80.6 142.753333,80.94 143.38,81.62 C144.006667,82.3 144.32,83.3466667 144.32,84.76 L144.32,84.76 L144.32,96 L149.56,96 L149.56,84.12 C149.56,82.8666667 149.406667,81.7266667 149.1,80.7 C148.793333,79.6733333 148.34,78.7933333 147.74,78.06 C147.14,77.3266667 146.373333,76.76 145.44,76.36 C144.506667,75.96 143.426667,75.76 142.2,75.76 C140.866667,75.76 139.68,76.0466667 138.64,76.62 C137.6,77.1933333 136.773333,77.9733333 136.16,78.96 L136.16,78.96 L135.84,78.96 L135.84,76.4 L130.92,76.4 L130.92,96 L136.16,96 Z M223.92,96 L234.36,67.36 L228.52,67.36 L222.36,84.6 L221.24,88.28 L220.92,88.28 L219.88,84.6 L213.96,67.36 L208.12,67.36 L218.24,96 L223.92,96 Z M244.64,72.6 L244.64,67.36 L239.4,67.36 L239.4,72.6 L244.64,72.6 Z M244.64,96 L244.64,76.4 L239.4,76.4 L239.4,96 L244.64,96 Z M259.2,96.64 C260.453333,96.64 261.593333,96.4666667 262.62,96.12 C263.646667,95.7733333 264.526667,95.3 265.26,94.7 C265.993333,94.1 266.56,93.4133333 266.96,92.64 C267.36,91.8666667 267.56,91.0533333 267.56,90.2 C267.56,88.76 267.073333,87.5133333 266.1,86.46 C265.126667,85.4066667 263.64,84.64 261.64,84.16 L261.64,84.16 L258.64,83.44 C257.84,83.2266667 257.206667,82.9866667 256.74,82.72 C256.273333,82.4533333 256.04,82.0933333 256.04,81.64 C256.04,81.16 256.32,80.7666667 256.88,80.46 C257.44,80.1533333 258.093333,80 258.84,80 C259.56,80 260.28,80.1733333 261,80.52 C261.72,80.8666667 262.266667,81.4266667 262.64,82.2 L262.64,82.2 L267.16,80.36 C266.466667,78.76 265.386667,77.5933333 263.92,76.86 C262.453333,76.1266667 260.786667,75.76 258.92,75.76 C257.8,75.76 256.753333,75.9 255.78,76.18 C254.806667,76.46 253.96,76.86 253.24,77.38 C252.52,77.9 251.953333,78.5333333 251.54,79.28 C251.126667,80.0266667 250.92,80.88 250.92,81.84 C250.92,82.6933333 251.093333,83.44 251.44,84.08 C251.786667,84.72 252.226667,85.2666667 252.76,85.72 C253.293333,86.1733333 253.886667,86.5466667 254.54,86.84 C255.193333,87.1333333 255.826667,87.3466667 256.44,87.48 L256.44,87.48 L259.2,88.08 C260.346667,88.3466667 261.153333,88.6466667 261.62,88.98 C262.086667,89.3133333 262.32,89.7466667 262.32,90.28 C262.32,90.76 262.04,91.1733333 261.48,91.52 C260.92,91.8666667 260.16,92.04 259.2,92.04 C258.266667,92.04 257.42,91.7933333 256.66,91.3 C255.9,90.8066667 255.293333,90.0533333 254.84,89.04 L254.84,89.04 L250.16,91.04 C250.426667,91.7333333 250.813333,92.42 251.32,93.1 C251.826667,93.78 252.446667,94.38 253.18,94.9 C253.913333,95.42 254.78,95.84 255.78,96.16 C256.78,96.48 257.92,96.64 259.2,96.64 Z M278.32,72.6 L278.32,67.36 L273.08,67.36 L273.08,72.6 L278.32,72.6 Z M278.32,96 L278.32,76.4 L273.08,76.4 L273.08,96 L278.32,96 Z M294.4,96.64 C296.266667,96.64 298,96.1733333 299.6,95.24 C301.2,94.3066667 302.473333,93.0466667 303.42,91.46 C304.366667,89.8733333 304.84,88.1333333 304.84,86.24 C304.84,84.3466667 304.366667,82.5933333 303.42,80.98 C302.473333,79.3666667 301.2,78.0933333 299.6,77.16 C298,76.2266667 296.266667,75.76 294.4,75.76 C292.506667,75.76 290.76,76.2266667 289.16,77.16 C287.56,78.0933333 286.293333,79.3666667 285.36,80.98 C284.426667,82.5933333 283.96,84.3466667 283.96,86.24 C283.96,88.1333333 284.426667,89.8733333 285.36,91.46 C286.293333,93.0466667 287.56,94.3066667 289.16,95.24 C290.76,96.1733333 292.506667,96.64 294.4,96.64 Z M294.4,91.92 C293.36,91.92 292.4,91.6666667 291.52,91.16 C290.64,90.6533333 289.946667,89.96 289.44,89.08 C288.933333,88.2 288.68,87.2533333 288.68,86.24 C288.68,85.2 288.933333,84.24 289.44,83.36 C289.946667,82.48 290.64,81.7866667 291.52,81.28 C292.4,80.7733333 293.36,80.52 294.4,80.52 C295.44,80.52 296.393333,80.7733333 297.26,81.28 C298.126667,81.7866667 298.813333,82.48 299.32,83.36 C299.826667,84.24 300.08,85.2 300.08,86.24 C300.08,87.2533333 299.826667,88.2 299.32,89.08 C298.813333,89.96 298.126667,90.6533333 297.26,91.16 C296.393333,91.6666667 295.44,91.92 294.4,91.92 Z M315.4,96 L315.4,86.4 C315.4,85.6 315.5,84.8466667 315.7,84.14 C315.9,83.4333333 316.193333,82.82 316.58,82.3 C316.966667,81.78 317.433333,81.3666667 317.98,81.06 C318.526667,80.7533333 319.16,80.6 319.88,80.6 C321.08,80.6 321.993333,80.94 322.62,81.62 C323.246667,82.3 323.56,83.3466667 323.56,84.76 L323.56,84.76 L323.56,96 L328.8,96 L328.8,84.12 C328.8,82.8666667 328.646667,81.7266667 328.34,80.7 C328.033333,79.6733333 327.58,78.7933333 326.98,78.06 C326.38,77.3266667 325.613333,76.76 324.68,76.36 C323.746667,75.96 322.666667,75.76 321.44,75.76 C320.106667,75.76 318.92,76.0466667 317.88,76.62 C316.84,77.1933333 316.013333,77.9733333 315.4,78.96 L315.4,78.96 L315.08,78.96 L315.08,76.4 L310.16,76.4 L310.16,96 L315.4,96 Z" id="OurMissionVision"></path>
                    <path d="M162.56,103.88 C163.36,103.28 164.08,102.6 164.48,101.56 C165.24,101.12 165.64,100.32 166.4,99.84 C166.68,99.52 167.28,99.44 167.36,98.88 C168.04,98.92 167.72,98 168.52,98.12 C168.8,97.2 169.96,97.16 170.24,96.2 C171.4,96.08 171.52,94.96 172.52,94.68 C173.48,94.64 174.24,94.44 175.04,94.28 C175.28,94.52 175.76,94.52 176,94.28 C176.04,93.84 176.92,94.16 176.76,93.52 C176.52,92.72 174.76,93.48 174.28,92.92 C174.6,92.32 175.28,92.04 175.6,91.4 C176.16,91 177.04,90.88 177.16,90.04 C176.96,89.6 176.76,89.16 176.4,88.92 C175.44,88.8 175.72,89.88 174.64,89.68 C173.32,91.08 171.92,92.48 170.24,93.52 C168.6,93.16 166.84,92.92 165.04,92.76 C163.64,92 162.2,91.44 162.16,89.68 C162.16,88.76 162.96,88.28 162.92,87.2 C163.68,87.28 163.6,86.56 164.08,86.4 C164.36,86.04 164.72,85.76 165.04,85.44 C167.76,84.2 170.32,82.8 173.12,81.6 C175.2,81.16 177.36,80.44 179.84,80.28 C182.04,80.12 184.32,80.12 186.56,80.08 C186.697143,79.92 186.889796,79.8187755 187.092245,79.7287464 L187.296266,79.6406868 C187.73805,79.4503401 188.154286,79.2380952 188.08,78.52 C187.4,77.12 184.64,77.76 182.92,77.4 C182.4,76.72 181.08,76.88 181,75.84 C181.08,75.24 181.68,74.84 182.12,74.52 C182.4,74.32 182.8,74.28 183.08,74.12 C183.16,74.08 183.2,73.8 183.28,73.72 C183.4,73.64 183.76,73.6 183.88,73.56 C184.32,73.32 185,73.32 185.4,72.96 C186.28,73.08 186.6,72.64 187.52,72.8 C189.56,71.44 195.08,71.52 196.36,73.16 C196.56,73.52 196.56,74.08 197.32,73.92 C197.88,73.8 198.4,73.64 198.44,72.96 C198.48,72.04 197.64,71.68 197.12,71.24 C196.56,70.76 195.92,70.36 195.4,69.92 C194.8,69.84 193.88,70.12 193.84,69.52 C194.2,68.08 195.56,67.64 196.36,66.64 C196.92,66.32 197.16,65.68 197.88,65.48 C198,64.72 198.84,64.64 199.04,63.96 C199.64,64 200,63.44 200.2,63.2 C200.24,63.12 200.52,63.24 200.56,63.2 C200.8,63.04 200.92,62.76 201.16,62.6 C201.44,62.4 201.84,62.4 202.12,62.24 C202.32,62.08 202.44,61.84 202.68,61.64 C203.48,61.04 204.24,60.64 205,60.12 C205.56,59.52 206.76,59.56 206.92,58.56 C206.64,58.04 206.48,57.44 205.56,57.6 C205.28,58.12 204.4,58 204.2,58.56 C203.76,58.8 203.24,58.76 202.88,58.96 C202.76,59 202.88,59.56 202.48,59.36 C202.4,59.72 202,59.52 201.72,59.72 C201.52,59.84 201.36,60.16 201.16,60.32 C200.6,60.64 200.12,60.88 199.6,61.28 C199.4,61.44 199.24,61.68 199.04,61.84 C198.84,62 198.8,62.04 198.64,62.24 C198.6,62.28 198.32,62.16 198.28,62.24 C197.84,62.6 197.52,63.16 197.12,63.56 C197.013333,63.6666667 196.883911,63.7448889 196.750696,63.8166637 L196.5504,63.92224 C196.2528,64.0816 195.984,64.264 195.96,64.72 C195.28,64.88 195,65.4 194.8,66.04 C194.6,66.16 194.2,66.08 194.04,66.24 C194,66.32 194.12,66.6 194.04,66.64 C193.76,66.88 193.32,66.92 193.08,67.2 C192.88,67.44 192.88,68.24 192.32,68.16 L192.32,69.72 C191,69.68 190.24,70.2 188.84,70.08 C187.72,70.64 186.32,70.88 184.84,71.04 C184.48,71.56 183.6,71.48 183.08,71.84 C181.28,72.52 179.84,73.56 178.68,74.88 C178.44,75.52 178.8,75.92 178.48,76.24 C178.44,77.24 179.4,77.24 179.44,78.16 C177.72,78.52 175.96,78.92 174.28,79.32 C172.72,79.84 171.16,80.44 169.64,81.04 C168.08,81.68 166.6,82.32 165.24,83.16 C164.24,83.88 163.16,84.4 162.36,85.08 C162.08,85.32 161.92,85.92 161.4,85.84 C161.36,86 161.4,86.2 161.2,86.2 C160.88,86.76 160.72,87.52 160.24,87.96 C160.4,88.72 159.96,88.92 160.04,89.68 C160.088,90.328 160.2656,90.8464 160.46048,91.34752 L160.65696,91.84704 C160.7216,92.0144 160.784,92.184 160.84,92.36 C161.36,92.48 161.52,92.92 161.8,93.32 C162.72,93.8 163.84,94.12 164.68,94.68 C165.48,94.64 166.16,94.72 166.6,95.04 C167.12,95.16 168.12,94.8 168.32,95.24 C168.08,95.56 167.92,96 167.36,96 C167.44,96.68 166.8,96.6 166.6,96.96 C166.16,97.76 165.4,98.24 164.84,98.88 C164.64,98.92 164.64,99.2 164.68,99.48 C164.28,99.48 163.96,99.8 163.72,100.04 C163.56,100.2 163.64,100.44 163.52,100.6 C163.4,100.76 163.16,100.56 163.12,100.8 C163.12,101.04 163.04,100.88 162.92,101 C162.44,101.64 162.24,102.48 161.6,102.92 C161.6,103.8 160.88,104.64 161.4,105.4 C162.52,105.64 162.24,104.44 162.56,103.88 Z" id="&amp;" fill-opacity="0.6"></path>
                </g>
            </g>
        </g>
    </g>
</svg>