<?xml version="1.0" encoding="UTF-8"?>
<svg width="282px" height="96px" viewBox="0 0 282 96" version="1.1" xmlns="http://www.w3.org/2000/svg" xmlns:xlink="http://www.w3.org/1999/xlink">
    <title>CityGuideandMagazine</title>
    <g id="Page-1" stroke="none" stroke-width="1" fill="none" fill-rule="evenodd" fill-opacity="0.87">
        <g id="Service-Introduction" transform="translate(-818.000000, -9950.000000)" fill="#000000" fill-rule="nonzero">
            <g id="Group-18" transform="translate(349.000000, 9871.000000)">
                <path d="M519.2,109.64 C521.573333,109.64 523.72,109.193333 525.64,108.3 C527.56,107.406667 529.226667,106.106667 530.64,104.4 L530.64,104.4 L526.8,100.76 C525.84,101.96 524.74,102.886667 523.5,103.54 C522.26,104.193333 520.84,104.52 519.24,104.52 C517.906667,104.52 516.653333,104.286667 515.48,103.82 C514.306667,103.353333 513.286667,102.693333 512.42,101.84 C511.553333,100.986667 510.866667,99.9533333 510.36,98.74 C509.853333,97.5266667 509.6,96.1733333 509.6,94.68 C509.6,93.1866667 509.853333,91.8333333 510.36,90.62 C510.866667,89.4066667 511.553333,88.3733333 512.42,87.52 C513.286667,86.6666667 514.306667,86.0066667 515.48,85.54 C516.653333,85.0733333 517.906667,84.84 519.24,84.84 C520.76,84.84 522.073333,85.1333333 523.18,85.72 C524.286667,86.3066667 525.266667,87.0933333 526.12,88.08 L526.12,88.08 L529.92,84.4 C528.56,82.88 527.006667,81.72 525.26,80.92 C523.513333,80.12 521.493333,79.72 519.2,79.72 C517.066667,79.72 515.086667,80.1066667 513.26,80.88 C511.433333,81.6533333 509.853333,82.7066667 508.52,84.04 C507.186667,85.3733333 506.133333,86.9533333 505.36,88.78 C504.586667,90.6066667 504.2,92.5733333 504.2,94.68 C504.2,96.7866667 504.586667,98.7533333 505.36,100.58 C506.133333,102.406667 507.186667,103.986667 508.52,105.32 C509.853333,106.653333 511.433333,107.706667 513.26,108.48 C515.086667,109.253333 517.066667,109.64 519.2,109.64 Z M541.88,85.6 L541.88,80.36 L536.64,80.36 L536.64,85.6 L541.88,85.6 Z M541.88,109 L541.88,89.4 L536.64,89.4 L536.64,109 L541.88,109 Z M557.36,109.32 C558.213333,109.32 558.993333,109.246667 559.7,109.1 C560.406667,108.953333 561.066667,108.733333 561.68,108.44 L561.68,108.44 L560.2,103.84 C559.96,104 559.706667,104.126667 559.44,104.22 C559.173333,104.313333 558.813333,104.36 558.36,104.36 C557.666667,104.36 557.133333,104.146667 556.76,103.72 C556.493333,103.453333 556.313333,103.126667 556.22,102.74 C556.126667,102.353333 556.08,101.933333 556.08,101.48 L556.08,101.48 L556.08,93.88 L560.88,93.88 L560.88,89.4 L556.08,89.4 L556.08,83.4 L550.84,83.4 L550.84,89.4 L547.4,89.4 L547.4,93.88 L550.84,93.88 L550.84,102.48 C550.84,104.693333 551.466667,106.4 552.72,107.6 C553.253333,108.133333 553.913333,108.553333 554.7,108.86 C555.486667,109.166667 556.373333,109.32 557.36,109.32 Z M574.16,117.64 L586.44,89.4 L580.6,89.4 L575.84,101.28 L575.56,101.28 L570.6,89.4 L564.64,89.4 L572.88,108.04 L568.52,117.64 L574.16,117.64 Z M616,109.64 C618.32,109.64 620.36,109.266667 622.12,108.52 C622.28,108.466667 622.746667,108.24 623.52,107.84 C624.72,107.173333 625.786667,106.346667 626.72,105.36 C627.226667,104.8 627.693333,104.186667 628.12,103.52 L628.12,103.52 L628.12,93.28 L615.88,93.28 L615.88,97.88 L623.52,97.88 L623.52,101.08 C623.28,101.426667 622.973333,101.786667 622.6,102.16 C621.8,102.88 620.893333,103.453333 619.88,103.88 C618.866667,104.306667 617.586667,104.52 616.04,104.52 C614.733333,104.52 613.48,104.293333 612.28,103.84 C611.106667,103.36 610.066667,102.693333 609.16,101.84 C608.28,100.986667 607.573333,99.96 607.04,98.76 C606.533333,97.56 606.28,96.2 606.28,94.68 C606.28,93.16 606.533333,91.8133333 607.04,90.64 C607.546667,89.4133333 608.253333,88.3733333 609.16,87.52 C610.093333,86.6133333 611.12,85.96 612.24,85.56 C613.386667,85.08 614.626667,84.84 615.96,84.84 C617.506667,84.84 618.88,85.1066667 620.08,85.64 C621.253333,86.1733333 622.293333,86.92 623.2,87.88 L623.2,87.88 L626.92,84.24 C625.56,82.8 623.986667,81.6933333 622.2,80.92 C620.36,80.12 618.293333,79.72 616,79.72 C613.893333,79.72 611.933333,80.0933333 610.12,80.84 C608.28,81.5866667 606.68,82.6266667 605.32,83.96 C603.96,85.2666667 602.88,86.8533333 602.08,88.72 C601.28,90.5066667 600.88,92.4933333 600.88,94.68 C600.88,96.84 601.28,98.84 602.08,100.68 C602.906667,102.52 603.986667,104.093333 605.32,105.4 C606.68,106.706667 608.28,107.746667 610.12,108.52 C611.933333,109.266667 613.893333,109.64 616,109.64 Z M640.88,109.64 C641.466667,109.64 641.946667,109.626667 642.32,109.6 C643.6,109.493333 644.686667,109.173333 645.58,108.64 C646.473333,108.106667 647.133333,107.626667 647.56,107.2 L647.56,107.2 L647.56,109 L652.44,109 L652.44,89.4 L647.24,89.4 L647.24,99.04 C647.24,99.7866667 647.133333,100.546667 646.92,101.32 C646.706667,102.04 646.413333,102.64 646.04,103.12 C645.666667,103.68 645.2,104.093333 644.64,104.36 C644.133333,104.68 643.506667,104.84 642.76,104.84 C641.56,104.84 640.653333,104.493333 640.04,103.8 C639.4,103.106667 639.08,102.066667 639.08,100.68 L639.08,100.68 L639.08,89.4 L633.88,89.4 L633.88,101.32 C633.88,103.853333 634.48,105.88 635.68,107.4 C636.906667,108.893333 638.64,109.64 640.88,109.64 Z M664.48,85.6 L664.48,80.36 L659.24,80.36 L659.24,85.6 L664.48,85.6 Z M664.48,109 L664.48,89.4 L659.24,89.4 L659.24,109 L664.48,109 Z M680.2,109.6 C682.36,109.6 684.266667,108.973333 685.92,107.72 L685.92,107.72 L685.92,109 L691.04,109 L691.04,80.36 L685.92,80.36 L685.92,90.68 C685.226667,90.0666667 684.373333,89.5933333 683.36,89.26 C682.346667,88.9266667 681.293333,88.76 680.2,88.76 C678.333333,88.76 676.6,89.2266667 675,90.16 C673.4,91.0933333 672.126667,92.36 671.18,93.96 C670.233333,95.56 669.76,97.3066667 669.76,99.2 C669.76,101.093333 670.233333,102.833333 671.18,104.42 C672.126667,106.006667 673.4,107.266667 675,108.2 C676.6,109.133333 678.333333,109.6 680.2,109.6 Z M680.2,105.08 C679.133333,105.08 678.146667,104.813333 677.24,104.28 C676.333333,103.746667 675.613333,103.026667 675.08,102.12 C674.546667,101.213333 674.28,100.226667 674.28,99.16 C674.28,98.0933333 674.546667,97.1066667 675.08,96.2 C675.613333,95.2933333 676.333333,94.5733333 677.24,94.04 C678.146667,93.5066667 679.133333,93.24 680.2,93.24 C681.266667,93.24 682.253333,93.5066667 683.16,94.04 C684.066667,94.5733333 684.786667,95.2933333 685.32,96.2 C685.853333,97.1066667 686.12,98.0933333 686.12,99.16 C686.12,100.226667 685.853333,101.213333 685.32,102.12 C684.786667,103.026667 684.066667,103.746667 683.16,104.28 C682.253333,104.813333 681.266667,105.08 680.2,105.08 Z M706.56,109.64 C708.773333,109.64 710.646667,109.146667 712.18,108.16 C713.713333,107.173333 714.933333,105.88 715.84,104.28 L715.84,104.28 L711.48,102.12 C711.026667,102.946667 710.406667,103.633333 709.62,104.18 C708.833333,104.726667 707.84,105 706.64,105 C706.026667,105 705.426667,104.913333 704.84,104.74 C704.253333,104.566667 703.713333,104.286667 703.22,103.9 C702.726667,103.513333 702.313333,103.033333 701.98,102.46 C701.646667,101.886667 701.426667,101.2 701.32,100.4 L701.32,100.4 L716.08,100.4 C716.08,100.24 716.093333,100.093333 716.12,99.96 C716.12,99.8266667 716.133333,99.68 716.16,99.52 L716.16,99.52 L716.16,99.04 C716.16,97.5733333 715.946667,96.2133333 715.52,94.96 C715.093333,93.7066667 714.466667,92.62 713.64,91.7 C712.813333,90.78 711.786667,90.06 710.56,89.54 C709.333333,89.02 707.933333,88.76 706.36,88.76 C704.866667,88.76 703.5,89.04 702.26,89.6 C701.02,90.16 699.946667,90.9133333 699.04,91.86 C698.133333,92.8066667 697.426667,93.9133333 696.92,95.18 C696.413333,96.4466667 696.16,97.7866667 696.16,99.2 C696.16,100.72 696.42,102.113333 696.94,103.38 C697.46,104.646667 698.186667,105.746667 699.12,106.68 C700.053333,107.613333 701.153333,108.34 702.42,108.86 C703.686667,109.38 705.066667,109.64 706.56,109.64 Z M711.08,96.68 L701.6,96.68 C701.946667,95.5333333 702.546667,94.64 703.4,94 C704.253333,93.36 705.24,93.04 706.36,93.04 C707.16,93.04 707.846667,93.16 708.42,93.4 C708.993333,93.64 709.473333,93.9466667 709.86,94.32 C710.246667,94.6933333 710.54,95.0933333 710.74,95.52 C710.94,95.9466667 711.053333,96.3333333 711.08,96.68 L711.08,96.68 Z M479.64,165.6 C481.8,165.6 483.706667,164.973333 485.36,163.72 L485.36,163.72 L485.36,165 L490.48,165 L490.48,145.4 L485.36,145.4 L485.36,146.68 C484.666667,146.066667 483.813333,145.593333 482.8,145.26 C481.786667,144.926667 480.733333,144.76 479.64,144.76 C477.773333,144.76 476.04,145.226667 474.44,146.16 C472.84,147.093333 471.566667,148.36 470.62,149.96 C469.673333,151.56 469.2,153.306667 469.2,155.2 C469.2,157.093333 469.673333,158.833333 470.62,160.42 C471.566667,162.006667 472.84,163.266667 474.44,164.2 C476.04,165.133333 477.773333,165.6 479.64,165.6 Z M479.64,161.08 C478.573333,161.08 477.586667,160.813333 476.68,160.28 C475.773333,159.746667 475.053333,159.026667 474.52,158.12 C473.986667,157.213333 473.72,156.226667 473.72,155.16 C473.72,154.093333 473.986667,153.106667 474.52,152.2 C475.053333,151.293333 475.773333,150.573333 476.68,150.04 C477.586667,149.506667 478.573333,149.24 479.64,149.24 C480.706667,149.24 481.693333,149.506667 482.6,150.04 C483.506667,150.573333 484.226667,151.293333 484.76,152.2 C485.293333,153.106667 485.56,154.093333 485.56,155.16 C485.56,156.226667 485.293333,157.213333 484.76,158.12 C484.226667,159.026667 483.506667,159.746667 482.6,160.28 C481.693333,160.813333 480.706667,161.08 479.64,161.08 Z M501.96,165 L501.96,155.4 C501.96,154.6 502.06,153.846667 502.26,153.14 C502.46,152.433333 502.753333,151.82 503.14,151.3 C503.526667,150.78 503.993333,150.366667 504.54,150.06 C505.086667,149.753333 505.72,149.6 506.44,149.6 C507.64,149.6 508.553333,149.94 509.18,150.62 C509.806667,151.3 510.12,152.346667 510.12,153.76 L510.12,153.76 L510.12,165 L515.36,165 L515.36,153.12 C515.36,151.866667 515.206667,150.726667 514.9,149.7 C514.593333,148.673333 514.14,147.793333 513.54,147.06 C512.94,146.326667 512.173333,145.76 511.24,145.36 C510.306667,144.96 509.226667,144.76 508,144.76 C506.666667,144.76 505.48,145.046667 504.44,145.62 C503.4,146.193333 502.573333,146.973333 501.96,147.96 L501.96,147.96 L501.64,147.96 L501.64,145.4 L496.72,145.4 L496.72,165 L501.96,165 Z M530.6,165.6 C532.76,165.6 534.666667,164.973333 536.32,163.72 L536.32,163.72 L536.32,165 L541.44,165 L541.44,136.36 L536.32,136.36 L536.32,146.68 C535.626667,146.066667 534.773333,145.593333 533.76,145.26 C532.746667,144.926667 531.693333,144.76 530.6,144.76 C528.733333,144.76 527,145.226667 525.4,146.16 C523.8,147.093333 522.526667,148.36 521.58,149.96 C520.633333,151.56 520.16,153.306667 520.16,155.2 C520.16,157.093333 520.633333,158.833333 521.58,160.42 C522.526667,162.006667 523.8,163.266667 525.4,164.2 C527,165.133333 528.733333,165.6 530.6,165.6 Z M530.6,161.08 C529.533333,161.08 528.546667,160.813333 527.64,160.28 C526.733333,159.746667 526.013333,159.026667 525.48,158.12 C524.946667,157.213333 524.68,156.226667 524.68,155.16 C524.68,154.093333 524.946667,153.106667 525.48,152.2 C526.013333,151.293333 526.733333,150.573333 527.64,150.04 C528.546667,149.506667 529.533333,149.24 530.6,149.24 C531.666667,149.24 532.653333,149.506667 533.56,150.04 C534.466667,150.573333 535.186667,151.293333 535.72,152.2 C536.253333,153.106667 536.52,154.093333 536.52,155.16 C536.52,156.226667 536.253333,157.213333 535.72,158.12 C535.186667,159.026667 534.466667,159.746667 533.56,160.28 C532.653333,160.813333 531.666667,161.08 530.6,161.08 Z M564.56,165 L564.56,146.64 L564.88,146.64 L571.84,158.8 L575.04,158.8 L581.96,146.64 L582.28,146.64 L582.28,165 L587.64,165 L587.64,136.36 L582.32,136.36 L573.56,151.44 L573.28,151.44 L564.56,136.36 L559.24,136.36 L559.24,165 L564.56,165 Z M604.08,165.6 C606.24,165.6 608.146667,164.973333 609.8,163.72 L609.8,163.72 L609.8,165 L614.92,165 L614.92,145.4 L609.8,145.4 L609.8,146.68 C609.106667,146.066667 608.253333,145.593333 607.24,145.26 C606.226667,144.926667 605.173333,144.76 604.08,144.76 C602.213333,144.76 600.48,145.226667 598.88,146.16 C597.28,147.093333 596.006667,148.36 595.06,149.96 C594.113333,151.56 593.64,153.306667 593.64,155.2 C593.64,157.093333 594.113333,158.833333 595.06,160.42 C596.006667,162.006667 597.28,163.266667 598.88,164.2 C600.48,165.133333 602.213333,165.6 604.08,165.6 Z M604.08,161.08 C603.013333,161.08 602.026667,160.813333 601.12,160.28 C600.213333,159.746667 599.493333,159.026667 598.96,158.12 C598.426667,157.213333 598.16,156.226667 598.16,155.16 C598.16,154.093333 598.426667,153.106667 598.96,152.2 C599.493333,151.293333 600.213333,150.573333 601.12,150.04 C602.026667,149.506667 603.013333,149.24 604.08,149.24 C605.146667,149.24 606.133333,149.506667 607.04,150.04 C607.946667,150.573333 608.666667,151.293333 609.2,152.2 C609.733333,153.106667 610,154.093333 610,155.16 C610,156.226667 609.733333,157.213333 609.2,158.12 C608.666667,159.026667 607.946667,159.746667 607.04,160.28 C606.133333,160.813333 605.146667,161.08 604.08,161.08 Z M630.84,174.36 C632.36,174.36 633.76,174.12 635.04,173.64 C636.32,173.106667 637.4,172.4 638.28,171.52 C639.186667,170.586667 639.893333,169.466667 640.4,168.16 C640.906667,166.773333 641.16,165.293333 641.16,163.72 L641.16,163.72 L641.16,145.4 L636.16,145.4 L636.16,146.4 C634.48,145.306667 632.626667,144.76 630.6,144.76 C628.76,144.76 627.06,145.22 625.5,146.14 C623.94,147.06 622.7,148.3 621.78,149.86 C620.86,151.42 620.4,153.12 620.4,154.96 C620.4,156.8 620.86,158.5 621.78,160.06 C622.7,161.62 623.94,162.86 625.5,163.78 C627.06,164.7 628.76,165.16 630.6,165.16 C632.626667,165.16 634.48,164.613333 636.16,163.52 C636.16,164.48 636.04,165.36 635.8,166.16 C635.56,166.96 635.2,167.613333 634.72,168.12 C633.76,169.213333 632.466667,169.76 630.84,169.76 C629.826667,169.76 628.88,169.466667 628,168.88 C627.573333,168.613333 627.213333,168.266667 626.92,167.84 C626.786667,167.706667 626.68,167.56 626.6,167.4 L626.6,167.4 L621.64,169.52 C621.906667,169.946667 622.146667,170.28 622.36,170.52 C622.84,171.186667 623.493333,171.826667 624.32,172.44 C625.146667,173.026667 626.093333,173.493333 627.16,173.84 C628.173333,174.186667 629.4,174.36 630.84,174.36 Z M630.6,160.8 C629.613333,160.8 628.666667,160.526667 627.76,159.98 C626.853333,159.433333 626.126667,158.706667 625.58,157.8 C625.033333,156.893333 624.76,155.946667 624.76,154.96 C624.76,153.973333 625.026667,153.026667 625.56,152.12 C626.093333,151.213333 626.813333,150.486667 627.72,149.94 C628.626667,149.393333 629.586667,149.12 630.6,149.12 C630.866667,149.12 631.093333,149.133333 631.28,149.16 C631.466667,149.186667 631.613333,149.213333 631.72,149.24 C632.813333,149.48 633.793333,150.033333 634.66,150.9 C635.526667,151.766667 636.08,152.746667 636.32,153.84 C636.346667,153.946667 636.373333,154.093333 636.4,154.28 C636.426667,154.466667 636.44,154.693333 636.44,154.96 C636.44,155.946667 636.166667,156.893333 635.62,157.8 C635.073333,158.706667 634.346667,159.433333 633.44,159.98 C632.533333,160.526667 631.586667,160.8 630.6,160.8 Z M656.36,165.6 C658.52,165.6 660.426667,164.973333 662.08,163.72 L662.08,163.72 L662.08,165 L667.2,165 L667.2,145.4 L662.08,145.4 L662.08,146.68 C661.386667,146.066667 660.533333,145.593333 659.52,145.26 C658.506667,144.926667 657.453333,144.76 656.36,144.76 C654.493333,144.76 652.76,145.226667 651.16,146.16 C649.56,147.093333 648.286667,148.36 647.34,149.96 C646.393333,151.56 645.92,153.306667 645.92,155.2 C645.92,157.093333 646.393333,158.833333 647.34,160.42 C648.286667,162.006667 649.56,163.266667 651.16,164.2 C652.76,165.133333 654.493333,165.6 656.36,165.6 Z M656.36,161.08 C655.293333,161.08 654.306667,160.813333 653.4,160.28 C652.493333,159.746667 651.773333,159.026667 651.24,158.12 C650.706667,157.213333 650.44,156.226667 650.44,155.16 C650.44,154.093333 650.706667,153.106667 651.24,152.2 C651.773333,151.293333 652.493333,150.573333 653.4,150.04 C654.306667,149.506667 655.293333,149.24 656.36,149.24 C657.426667,149.24 658.413333,149.506667 659.32,150.04 C660.226667,150.573333 660.946667,151.293333 661.48,152.2 C662.013333,153.106667 662.28,154.093333 662.28,155.16 C662.28,156.226667 662.013333,157.213333 661.48,158.12 C660.946667,159.026667 660.226667,159.746667 659.32,160.28 C658.413333,160.813333 657.426667,161.08 656.36,161.08 Z M689.08,165 L689.08,160.52 L678.92,160.52 L688.92,149.72 L688.92,145.4 L672.8,145.4 L672.8,149.88 L682.48,149.88 L672.48,160.68 L672.48,165 L689.08,165 Z M700.16,141.6 L700.16,136.36 L694.92,136.36 L694.92,141.6 L700.16,141.6 Z M700.16,165 L700.16,145.4 L694.92,145.4 L694.92,165 L700.16,165 Z M712.2,165 L712.2,155.4 C712.2,154.6 712.3,153.846667 712.5,153.14 C712.7,152.433333 712.993333,151.82 713.38,151.3 C713.766667,150.78 714.233333,150.366667 714.78,150.06 C715.326667,149.753333 715.96,149.6 716.68,149.6 C717.88,149.6 718.793333,149.94 719.42,150.62 C720.046667,151.3 720.36,152.346667 720.36,153.76 L720.36,153.76 L720.36,165 L725.6,165 L725.6,153.12 C725.6,151.866667 725.446667,150.726667 725.14,149.7 C724.833333,148.673333 724.38,147.793333 723.78,147.06 C723.18,146.326667 722.413333,145.76 721.48,145.36 C720.546667,144.96 719.466667,144.76 718.24,144.76 C716.906667,144.76 715.72,145.046667 714.68,145.62 C713.64,146.193333 712.813333,146.973333 712.2,147.96 L712.2,147.96 L711.88,147.96 L711.88,145.4 L706.96,145.4 L706.96,165 L712.2,165 Z M741.2,165.64 C743.413333,165.64 745.286667,165.146667 746.82,164.16 C748.353333,163.173333 749.573333,161.88 750.48,160.28 L750.48,160.28 L746.12,158.12 C745.666667,158.946667 745.046667,159.633333 744.26,160.18 C743.473333,160.726667 742.48,161 741.28,161 C740.666667,161 740.066667,160.913333 739.48,160.74 C738.893333,160.566667 738.353333,160.286667 737.86,159.9 C737.366667,159.513333 736.953333,159.033333 736.62,158.46 C736.286667,157.886667 736.066667,157.2 735.96,156.4 L735.96,156.4 L750.72,156.4 C750.72,156.24 750.733333,156.093333 750.76,155.96 C750.76,155.826667 750.773333,155.68 750.8,155.52 L750.8,155.52 L750.8,155.04 C750.8,153.573333 750.586667,152.213333 750.16,150.96 C749.733333,149.706667 749.106667,148.62 748.28,147.7 C747.453333,146.78 746.426667,146.06 745.2,145.54 C743.973333,145.02 742.573333,144.76 741,144.76 C739.506667,144.76 738.14,145.04 736.9,145.6 C735.66,146.16 734.586667,146.913333 733.68,147.86 C732.773333,148.806667 732.066667,149.913333 731.56,151.18 C731.053333,152.446667 730.8,153.786667 730.8,155.2 C730.8,156.72 731.06,158.113333 731.58,159.38 C732.1,160.646667 732.826667,161.746667 733.76,162.68 C734.693333,163.613333 735.793333,164.34 737.06,164.86 C738.326667,165.38 739.706667,165.64 741.2,165.64 Z M745.72,152.68 L736.24,152.68 C736.586667,151.533333 737.186667,150.64 738.04,150 C738.893333,149.36 739.88,149.04 741,149.04 C741.8,149.04 742.486667,149.16 743.06,149.4 C743.633333,149.64 744.113333,149.946667 744.5,150.32 C744.886667,150.693333 745.18,151.093333 745.38,151.52 C745.58,151.946667 745.693333,152.333333 745.72,152.68 L745.72,152.68 Z" id="CityGuideandMagazine"></path>
            </g>
        </g>
    </g>
</svg>