<?xml version="1.0" encoding="UTF-8"?>
<svg width="216px" height="138px" viewBox="0 0 216 138" version="1.1" xmlns="http://www.w3.org/2000/svg" xmlns:xlink="http://www.w3.org/1999/xlink">
    <title>Group 13</title>
    <g id="Page-1" stroke="none" stroke-width="1" fill="none" fill-rule="evenodd">
        <g id="Service-Introduction" transform="translate(-398.000000, -5070.000000)">
            <g id="section-5-1" transform="translate(0.000000, 4855.852268)">
                <g id="Group-13" transform="translate(398.000000, 214.938529)">
                    <path d="M8.28,120.935245 L8.28,109.495245 L19.76,109.495245 L19.76,104.375245 L8.28,104.375245 L8.28,97.4152451 L21.04,97.4152451 L21.04,92.2952451 L2.88,92.2952451 L2.88,120.935245 L8.28,120.935245 Z M35.84,121.575245 C38.0533333,121.575245 39.9266667,121.081912 41.46,120.095245 C42.9933333,119.108578 44.2133333,117.815245 45.12,116.215245 L45.12,116.215245 L40.76,114.055245 C40.3066667,114.881912 39.6866667,115.568578 38.9,116.115245 C38.1133333,116.661912 37.12,116.935245 35.92,116.935245 C35.3066667,116.935245 34.7066667,116.848578 34.12,116.675245 C33.5333333,116.501912 32.9933333,116.221912 32.5,115.835245 C32.0066667,115.448578 31.5933333,114.968578 31.26,114.395245 C30.9266667,113.821912 30.7066667,113.135245 30.6,112.335245 L30.6,112.335245 L45.36,112.335245 C45.36,112.175245 45.3733333,112.028578 45.4,111.895245 C45.4,111.761912 45.4133333,111.615245 45.44,111.455245 L45.44,111.455245 L45.44,110.975245 C45.44,109.508578 45.2266667,108.148578 44.8,106.895245 C44.3733333,105.641912 43.7466667,104.555245 42.92,103.635245 C42.0933333,102.715245 41.0666667,101.995245 39.84,101.475245 C38.6133333,100.955245 37.2133333,100.695245 35.64,100.695245 C34.1466667,100.695245 32.78,100.975245 31.54,101.535245 C30.3,102.095245 29.2266667,102.848578 28.32,103.795245 C27.4133333,104.741912 26.7066667,105.848578 26.2,107.115245 C25.6933333,108.381912 25.44,109.721912 25.44,111.135245 C25.44,112.655245 25.7,114.048578 26.22,115.315245 C26.74,116.581912 27.4666667,117.681912 28.4,118.615245 C29.3333333,119.548578 30.4333333,120.275245 31.7,120.795245 C32.9666667,121.315245 34.3466667,121.575245 35.84,121.575245 Z M40.36,108.615245 L30.88,108.615245 C31.2266667,107.468578 31.8266667,106.575245 32.68,105.935245 C33.5333333,105.295245 34.52,104.975245 35.64,104.975245 C36.44,104.975245 37.1266667,105.095245 37.7,105.335245 C38.2733333,105.575245 38.7533333,105.881912 39.14,106.255245 C39.5266667,106.628578 39.82,107.028578 40.02,107.455245 C40.22,107.881912 40.3333333,108.268578 40.36,108.615245 L40.36,108.615245 Z M60.12,121.535245 C62.28,121.535245 64.1866667,120.908578 65.84,119.655245 L65.84,119.655245 L65.84,120.935245 L70.96,120.935245 L70.96,101.335245 L65.84,101.335245 L65.84,102.615245 C65.1466667,102.001912 64.2933333,101.528578 63.28,101.195245 C62.2666667,100.861912 61.2133333,100.695245 60.12,100.695245 C58.2533333,100.695245 56.52,101.161912 54.92,102.095245 C53.32,103.028578 52.0466667,104.295245 51.1,105.895245 C50.1533333,107.495245 49.68,109.241912 49.68,111.135245 C49.68,113.028578 50.1533333,114.768578 51.1,116.355245 C52.0466667,117.941912 53.32,119.201912 54.92,120.135245 C56.52,121.068578 58.2533333,121.535245 60.12,121.535245 Z M60.12,117.015245 C59.0533333,117.015245 58.0666667,116.748578 57.16,116.215245 C56.2533333,115.681912 55.5333333,114.961912 55,114.055245 C54.4666667,113.148578 54.2,112.161912 54.2,111.095245 C54.2,110.028578 54.4666667,109.041912 55,108.135245 C55.5333333,107.228578 56.2533333,106.508578 57.16,105.975245 C58.0666667,105.441912 59.0533333,105.175245 60.12,105.175245 C61.1866667,105.175245 62.1733333,105.441912 63.08,105.975245 C63.9866667,106.508578 64.7066667,107.228578 65.24,108.135245 C65.7733333,109.041912 66.04,110.028578 66.04,111.095245 C66.04,112.161912 65.7733333,113.148578 65.24,114.055245 C64.7066667,114.961912 63.9866667,115.681912 63.08,116.215245 C62.1733333,116.748578 61.1866667,117.015245 60.12,117.015245 Z M85.88,121.255245 C86.7333333,121.255245 87.5133333,121.181912 88.22,121.035245 C88.9266667,120.888578 89.5866667,120.668578 90.2,120.375245 L90.2,120.375245 L88.72,115.775245 C88.48,115.935245 88.2266667,116.061912 87.96,116.155245 C87.6933333,116.248578 87.3333333,116.295245 86.88,116.295245 C86.1866667,116.295245 85.6533333,116.081912 85.28,115.655245 C85.0133333,115.388578 84.8333333,115.061912 84.74,114.675245 C84.6466667,114.288578 84.6,113.868578 84.6,113.415245 L84.6,113.415245 L84.6,105.815245 L89.4,105.815245 L89.4,101.335245 L84.6,101.335245 L84.6,95.3352451 L79.36,95.3352451 L79.36,101.335245 L75.92,101.335245 L75.92,105.815245 L79.36,105.815245 L79.36,114.415245 C79.36,116.628578 79.9866667,118.335245 81.24,119.535245 C81.7733333,120.068578 82.4333333,120.488578 83.22,120.795245 C84.0066667,121.101912 84.8933333,121.255245 85.88,121.255245 Z M102.16,121.575245 C102.746667,121.575245 103.226667,121.561912 103.6,121.535245 C104.88,121.428578 105.966667,121.108578 106.86,120.575245 C107.753333,120.041912 108.413333,119.561912 108.84,119.135245 L108.84,119.135245 L108.84,120.935245 L113.72,120.935245 L113.72,101.335245 L108.52,101.335245 L108.52,110.975245 C108.52,111.721912 108.413333,112.481912 108.2,113.255245 C107.986667,113.975245 107.693333,114.575245 107.32,115.055245 C106.946667,115.615245 106.48,116.028578 105.92,116.295245 C105.413333,116.615245 104.786667,116.775245 104.04,116.775245 C102.84,116.775245 101.933333,116.428578 101.32,115.735245 C100.68,115.041912 100.36,114.001912 100.36,112.615245 L100.36,112.615245 L100.36,101.335245 L95.16,101.335245 L95.16,113.255245 C95.16,115.788578 95.76,117.815245 96.96,119.335245 C98.1866667,120.828578 99.92,121.575245 102.16,121.575245 Z M125.92,120.935245 L125.92,113.175245 C125.92,111.761912 126.2,110.415245 126.76,109.135245 C127.213333,108.148578 127.833333,107.321912 128.62,106.655245 C129.406667,105.988578 130.4,105.655245 131.6,105.655245 C132.053333,105.655245 132.586667,105.721912 133.2,105.855245 L133.2,105.855245 L133.2,101.255245 C132.826667,101.148578 132.546667,101.081912 132.36,101.055245 C131.986667,101.001912 131.706667,100.975245 131.52,100.975245 C130.266667,100.975245 129.146667,101.281912 128.16,101.895245 C127.173333,102.508578 126.426667,103.348578 125.92,104.415245 L125.92,104.415245 L125.92,101.375245 L120.76,101.375245 L120.76,120.935245 L125.92,120.935245 Z M147.76,121.575245 C149.973333,121.575245 151.846667,121.081912 153.38,120.095245 C154.913333,119.108578 156.133333,117.815245 157.04,116.215245 L157.04,116.215245 L152.68,114.055245 C152.226667,114.881912 151.606667,115.568578 150.82,116.115245 C150.033333,116.661912 149.04,116.935245 147.84,116.935245 C147.226667,116.935245 146.626667,116.848578 146.04,116.675245 C145.453333,116.501912 144.913333,116.221912 144.42,115.835245 C143.926667,115.448578 143.513333,114.968578 143.18,114.395245 C142.846667,113.821912 142.626667,113.135245 142.52,112.335245 L142.52,112.335245 L157.28,112.335245 C157.28,112.175245 157.293333,112.028578 157.32,111.895245 C157.32,111.761912 157.333333,111.615245 157.36,111.455245 L157.36,111.455245 L157.36,110.975245 C157.36,109.508578 157.146667,108.148578 156.72,106.895245 C156.293333,105.641912 155.666667,104.555245 154.84,103.635245 C154.013333,102.715245 152.986667,101.995245 151.76,101.475245 C150.533333,100.955245 149.133333,100.695245 147.56,100.695245 C146.066667,100.695245 144.7,100.975245 143.46,101.535245 C142.22,102.095245 141.146667,102.848578 140.24,103.795245 C139.333333,104.741912 138.626667,105.848578 138.12,107.115245 C137.613333,108.381912 137.36,109.721912 137.36,111.135245 C137.36,112.655245 137.62,114.048578 138.14,115.315245 C138.66,116.581912 139.386667,117.681912 140.32,118.615245 C141.253333,119.548578 142.353333,120.275245 143.62,120.795245 C144.886667,121.315245 146.266667,121.575245 147.76,121.575245 Z M152.28,108.615245 L142.8,108.615245 C143.146667,107.468578 143.746667,106.575245 144.6,105.935245 C145.453333,105.295245 146.44,104.975245 147.56,104.975245 C148.36,104.975245 149.046667,105.095245 149.62,105.335245 C150.193333,105.575245 150.673333,105.881912 151.06,106.255245 C151.446667,106.628578 151.74,107.028578 151.94,107.455245 C152.14,107.881912 152.253333,108.268578 152.28,108.615245 L152.28,108.615245 Z M170.48,121.575245 C171.733333,121.575245 172.873333,121.401912 173.9,121.055245 C174.926667,120.708578 175.806667,120.235245 176.54,119.635245 C177.273333,119.035245 177.84,118.348578 178.24,117.575245 C178.64,116.801912 178.84,115.988578 178.84,115.135245 C178.84,113.695245 178.353333,112.448578 177.38,111.395245 C176.406667,110.341912 174.92,109.575245 172.92,109.095245 L172.92,109.095245 L169.92,108.375245 C169.12,108.161912 168.486667,107.921912 168.02,107.655245 C167.553333,107.388578 167.32,107.028578 167.32,106.575245 C167.32,106.095245 167.6,105.701912 168.16,105.395245 C168.72,105.088578 169.373333,104.935245 170.12,104.935245 C170.84,104.935245 171.56,105.108578 172.28,105.455245 C173,105.801912 173.546667,106.361912 173.92,107.135245 L173.92,107.135245 L178.44,105.295245 C177.746667,103.695245 176.666667,102.528578 175.2,101.795245 C173.733333,101.061912 172.066667,100.695245 170.2,100.695245 C169.08,100.695245 168.033333,100.835245 167.06,101.115245 C166.086667,101.395245 165.24,101.795245 164.52,102.315245 C163.8,102.835245 163.233333,103.468578 162.82,104.215245 C162.406667,104.961912 162.2,105.815245 162.2,106.775245 C162.2,107.628578 162.373333,108.375245 162.72,109.015245 C163.066667,109.655245 163.506667,110.201912 164.04,110.655245 C164.573333,111.108578 165.166667,111.481912 165.82,111.775245 C166.473333,112.068578 167.106667,112.281912 167.72,112.415245 L167.72,112.415245 L170.48,113.015245 C171.626667,113.281912 172.433333,113.581912 172.9,113.915245 C173.366667,114.248578 173.6,114.681912 173.6,115.215245 C173.6,115.695245 173.32,116.108578 172.76,116.455245 C172.2,116.801912 171.44,116.975245 170.48,116.975245 C169.546667,116.975245 168.7,116.728578 167.94,116.235245 C167.18,115.741912 166.573333,114.988578 166.12,113.975245 L166.12,113.975245 L161.44,115.975245 C161.706667,116.668578 162.093333,117.355245 162.6,118.035245 C163.106667,118.715245 163.726667,119.315245 164.46,119.835245 C165.193333,120.355245 166.06,120.775245 167.06,121.095245 C168.06,121.415245 169.2,121.575245 170.48,121.575245 Z" id="Features" fill="#FFFFFF" fill-rule="nonzero"></path>
                    <path d="M69.9506127,12.0664999 C69.9506127,12.0664999 75.5052392,7.1507614 81.0233906,6.923169 C81.0233906,6.923169 88.3548722,5.86717887 90.7934887,13.0308745 C90.7934887,13.0308745 91.6031041,17.024671 90.7934887,19.13858 C90.2268499,20.778065 89.5746379,22.387508 88.8394691,23.9604527 C88.8394691,23.9604527 94.3924672,22.1500002 95.6785377,23.6389945 C95.6785377,23.6389945 97.6882469,24.5953326 96.6555475,27.8179509 C96.6555475,27.8179509 89.7949847,44.7321161 75.4870017,57.0706456 C75.4870017,57.0706456 69.4002305,60.1608231 73.858652,54.1775219 C73.858652,54.1775219 92.2616088,33.6803838 92.7475083,26.5321182 C92.7475083,26.5321182 86.410297,27.9024944 82.0004004,32.3183655 C82.0004004,32.3183655 74.7379608,38.0907901 71.5789624,38.426071 L69.9506127,35.8544055 C69.9506127,35.8544055 74.2979807,30.4217622 82.3260703,27.1750346 C82.3260703,27.1750346 94.9750907,12.1250053 83.3030801,9.81629265 C83.3030801,9.81629265 77.6097183,8.83552374 72.5559722,14.3167072 C72.5559722,14.3167072 71.1230245,16.1351962 70.6019526,14.6381654 C70.3016826,13.8035769 70.0835619,12.9423776 69.9506127,12.0664999 Z" id="Path" fill="#FFC019" transform="translate(83.450613, 32.368424) rotate(1.000000) translate(-83.450613, -32.368424) "></path>
                    <path d="M105.6784,21.2586363 C105.6784,21.2586363 100.891917,25.6586742 104.307111,28.7141301 C104.307111,28.7141301 106.698296,31.012367 107.049689,26.1209148 L108.078155,23.2035477 C107.973987,22.0444705 106.905747,21.1787022 105.6784,21.2586363 L105.6784,21.2586363 Z" id="Path" fill="#FFC019" transform="translate(105.578155, 25.253519) rotate(1.000000) translate(-105.578155, -25.253519) "></path>
                    <path d="M134.602055,3.45765173 C134.602055,3.45765173 134.708831,3.54834347 134.868305,3.74023573 L134.960192,3.85500382 C135.731898,4.85445044 137.319825,7.81727096 135.230672,13.6166346 C135.230672,13.6166346 130.071295,26.8985522 118.886619,27.585236 C118.886619,27.585236 116.524904,27.9709598 114.800606,24.0930856 C114.800606,24.0930856 113.253264,21.367621 115.429223,16.7913167 L118.886619,6.63233387 C118.886619,6.63233387 128.801173,-2.12788402 134.602055,3.45765173 Z M130.201733,6.31486565 C126.796502,6.78296416 123.557942,8.09141015 120.772471,10.1244842 C120.772471,10.1244842 119.587988,12.808375 118.580741,15.8272522 L118.414741,16.3330973 C117.130921,20.313538 116.278142,24.6425297 118.886619,24.0930856 C118.886619,24.0930856 123.60125,24.668338 128.630189,17.4262531 C128.630189,17.4262531 136.759784,6.2345462 130.201733,6.31486565 Z" id="Combined-Shape" fill="#FFC019" transform="translate(125.267159, 14.595686) rotate(1.000000) translate(-125.267159, -14.595686) "></path>
                    <path d="M32.3131409,59.9009994 L25.3720427,43.8180977 L21.6521739,43.8180977 L30.5257317,64.5286649 L30.1003125,65.5883374 C29.4658911,67.1747477 27.9806314,69.791276 25.2218948,69.4785701 L24.7084259,69.4208911 L24.7084259,72.8863968 L25.1356988,72.9207182 C25.3168958,72.9354954 25.497166,72.9426457 25.6769728,72.9426457 C28.9718859,72.9426457 31.9257222,70.4948642 33.4744703,66.4258744 L42,43.8180977 L38.2940338,43.8180977 L32.3131409,59.9009994 Z" id="Fill-4" fill="#FFFFFF" fill-rule="nonzero"></path>
                    <polygon id="Fill-6" fill="#FFFFFF" fill-rule="nonzero" points="22.9822054 35.9768733 18.1647504 35.9768733 6.59090105 48.1676355 6.59090105 35.9768733 3 35.9768733 3 65.1014212 6.59090105 65.1014212 6.59090105 52.1679826 18.5473874 65.0999912 23.3478261 65.0999912 9.63038172 50.1396846"></polygon>
                    <path d="M57.5082242,47.261856 L58.9565217,43.6369988 L52.0568896,43.6369988 L52.0568896,37.6571356 L48.1823587,38.7773106 L48.1823587,43.6369988 L44.5787324,43.6369988 L43.1304348,47.261856 L48.1823587,47.261856 L48.1823587,59.4288267 C48.1823587,61.6634197 48.7891651,63.2551715 50.0375093,64.2957108 C51.1320432,65.2086414 52.7202585,65.6615087 54.8522677,65.6615087 C55.7324595,65.6615087 56.7049375,65.5842718 57.773671,65.4307575 L58.1968974,65.3698315 L58.1968974,62.0328136 L56.9589726,62.0841449 C54.8611986,62.1757738 53.3459191,62.2419769 52.6622076,61.60921 C52.2489044,61.227343 52.0568896,60.5346096 52.0568896,59.4288267 L52.0568896,47.261856 L57.5082242,47.261856 Z" id="Fill-8" fill="#FFFFFF" fill-rule="nonzero"></path>
                    <path d="M62.8462555,53.000983 C63.5532543,49.5164389 66.4050641,47.2952779 70.2481608,47.2952779 C73.8005196,47.2952779 76.4469278,49.5164389 77.1162199,53.000983 L62.8462555,53.000983 Z M70.2466723,43.8180977 C63.7045768,43.8180977 58.9565217,48.4113814 58.9565217,54.7398032 C58.9565217,61.0682251 63.7918974,65.6615087 70.4540587,65.6615087 C74.5491941,65.6615087 78.0211784,63.9056593 79.9804333,60.8440839 L80.2304876,60.4528723 L76.966882,58.6058937 L76.7183161,59.0330046 C75.5508998,61.0378486 73.2835423,62.1875503 70.4962305,62.1875503 C66.5271145,62.1875503 63.5810381,59.9650085 62.8497284,56.4790837 L80.4215013,56.4790837 L80.8724921,56.4754017 L80.9156563,56.0593367 C80.957332,55.6570792 81,55.2414745 81,54.8212673 C81,47.6754434 75.4596101,43.818558 70.2466723,43.8180977 L70.2466723,43.8180977 Z" id="Fill-10" fill="#FFFFFF" fill-rule="nonzero"></path>
                </g>
            </g>
        </g>
    </g>
</svg>