<?xml version="1.0" encoding="UTF-8"?>
<svg width="66px" height="48px" viewBox="0 0 66 48" version="1.1" xmlns="http://www.w3.org/2000/svg" xmlns:xlink="http://www.w3.org/1999/xlink">
    <defs></defs>
    <g id="Page" stroke="none" stroke-width="1" fill="none" fill-rule="evenodd">
        <g id="Logo">
            <g id="Kyte">
                <path d="M65.6363666,33.1733333 L50.1814244,33.1733333 C50.6741756,36.9110327 53.4555835,39.2565702 57.1873437,39.2565702 C59.9687517,39.2565702 61.9046064,37.9015949 62.8556096,36.140127 L64.8975653,37.3860268 C63.4186609,39.8778264 60.7082039,41.6 57.1515428,41.6 C51.5893779,41.6 47.7866667,37.5350741 47.7866667,32 C47.7866667,26.6139732 51.5184269,22.4 56.9751418,22.4 C62.3622075,22.4006775 65.7066667,27.0543402 65.7066667,32.0745236 C65.7066667,32.4410445 65.6715166,32.8068125 65.6363666,33.1733333 Z M63.3132108,30.8266667 L50.1814244,30.8266667 C50.6390255,27.2359821 53.2791825,24.7461397 56.9764436,24.7461397 C60.0039017,24.7461397 62.8204596,26.7962926 63.3132108,30.8266667 Z M41.28,36.5206945 C41.28,39.6755275 42.9594506,39.4005272 46.5066667,39.2533333 L46.5066667,41.3866667 C41.5705864,42.1206012 38.8266667,40.9249797 38.8266667,36.5206945 L38.8266667,25.3866667 L34.72,25.3866667 L35.6266667,23.04 L38.8266667,23.04 L38.8266667,18.6539345 L41.28,17.92 L41.28,23.04 L46.96,23.04 L46.0533333,25.3866667 L41.28,25.3866667 L41.28,36.5206945 Z M25.6273508,42.4944398 C24.287538,45.9149428 21.6265057,48.2312926 18.4533333,47.9816064 L18.4533333,45.7726414 C20.7456847,46.0223276 22.383113,44.3832268 23.3356515,42.066877 L23.7920354,40.962065 L15.8933333,23.04 L18.3617185,23.04 L24.9910212,37.9733333 L30.7036442,23.04 L33.1733333,23.04 L25.6273508,42.4944398 Z M2.45333333,28.8722662 L2.45333333,40.96 L0,40.96 L0,16 L2.45333333,16 L2.45333333,27.4100032 L13.6813582,16 L16.9253512,16 L5.08047385,28.1220158 L17.28,40.9586815 L14.0360069,40.9586815 L2.45333333,28.8722662 Z" id="Shape" fill="#FFFFFF"></path>
                <path d="M35.8923729,15.9599818 L42.0801591,0.0797344912 L25.2325358,2.65433013 C27.9316585,3.70591529 30.3990324,5.45955542 32.3403876,7.88276284 C34.2817428,10.3059703 35.4549087,13.0964665 35.8923729,15.9599818 Z" id="Rectangle-3" fill="#FEC447"></path>
            </g>
        </g>
    </g>
</svg>